G04 #@! TF.GenerationSoftware,KiCad,Pcbnew,(5.1.4-0-10_14)*
G04 #@! TF.CreationDate,2020-04-29T08:22:51-04:00*
G04 #@! TF.ProjectId,load_cell,6c6f6164-5f63-4656-9c6c-2e6b69636164,rev?*
G04 #@! TF.SameCoordinates,Original*
G04 #@! TF.FileFunction,Soldermask,Bot*
G04 #@! TF.FilePolarity,Negative*
%FSLAX46Y46*%
G04 Gerber Fmt 4.6, Leading zero omitted, Abs format (unit mm)*
G04 Created by KiCad (PCBNEW (5.1.4-0-10_14)) date 2020-04-29 08:22:51*
%MOMM*%
%LPD*%
G04 APERTURE LIST*
%ADD10C,0.100000*%
G04 APERTURE END LIST*
D10*
G36*
X85254501Y-118772054D02*
G01*
X85600461Y-118915356D01*
X85911817Y-119123397D01*
X86176603Y-119388183D01*
X86384644Y-119699539D01*
X86527946Y-120045499D01*
X86564473Y-120229134D01*
X86601000Y-120412767D01*
X86601000Y-120787233D01*
X86571335Y-120936371D01*
X86527946Y-121154501D01*
X86441323Y-121363627D01*
X86384705Y-121500315D01*
X86384644Y-121500461D01*
X86176603Y-121811817D01*
X85911817Y-122076603D01*
X85600461Y-122284644D01*
X85254501Y-122427946D01*
X84887233Y-122501000D01*
X84512767Y-122501000D01*
X84145499Y-122427946D01*
X83799539Y-122284644D01*
X83488183Y-122076603D01*
X83223397Y-121811817D01*
X83015356Y-121500461D01*
X83015296Y-121500315D01*
X82958677Y-121363627D01*
X82872054Y-121154501D01*
X82828665Y-120936371D01*
X82799000Y-120787233D01*
X82799000Y-120412767D01*
X82835527Y-120229134D01*
X82872054Y-120045499D01*
X83015356Y-119699539D01*
X83223397Y-119388183D01*
X83488183Y-119123397D01*
X83799539Y-118915356D01*
X84145499Y-118772054D01*
X84512767Y-118699000D01*
X84887233Y-118699000D01*
X85254501Y-118772054D01*
X85254501Y-118772054D01*
G37*
G36*
X164954501Y-118172054D02*
G01*
X165300461Y-118315356D01*
X165611817Y-118523397D01*
X165876603Y-118788183D01*
X166043500Y-119037963D01*
X166084645Y-119099541D01*
X166227946Y-119445500D01*
X166278478Y-119699539D01*
X166301000Y-119812768D01*
X166301000Y-120187232D01*
X166227946Y-120554501D01*
X166084644Y-120900461D01*
X165876603Y-121211817D01*
X165611817Y-121476603D01*
X165300461Y-121684644D01*
X164954501Y-121827946D01*
X164587233Y-121901000D01*
X164212767Y-121901000D01*
X163845499Y-121827946D01*
X163499539Y-121684644D01*
X163188183Y-121476603D01*
X162923397Y-121211817D01*
X162715356Y-120900461D01*
X162572054Y-120554501D01*
X162499000Y-120187232D01*
X162499000Y-119812768D01*
X162521523Y-119699539D01*
X162572054Y-119445500D01*
X162715355Y-119099541D01*
X162756500Y-119037963D01*
X162923397Y-118788183D01*
X163188183Y-118523397D01*
X163499539Y-118315356D01*
X163845499Y-118172054D01*
X164212767Y-118099000D01*
X164587233Y-118099000D01*
X164954501Y-118172054D01*
X164954501Y-118172054D01*
G37*
G36*
X130281552Y-120716331D02*
G01*
X130363627Y-120750328D01*
X130363629Y-120750329D01*
X130400813Y-120775175D01*
X130437495Y-120799685D01*
X130500315Y-120862505D01*
X130549672Y-120936373D01*
X130583669Y-121018448D01*
X130601000Y-121105579D01*
X130601000Y-121194421D01*
X130583669Y-121281552D01*
X130549672Y-121363627D01*
X130549671Y-121363629D01*
X130500314Y-121437496D01*
X130437496Y-121500314D01*
X130363629Y-121549671D01*
X130363628Y-121549672D01*
X130363627Y-121549672D01*
X130281552Y-121583669D01*
X130194421Y-121601000D01*
X130105579Y-121601000D01*
X130018448Y-121583669D01*
X129936373Y-121549672D01*
X129936372Y-121549672D01*
X129936371Y-121549671D01*
X129862504Y-121500314D01*
X129799686Y-121437496D01*
X129750329Y-121363629D01*
X129750328Y-121363627D01*
X129716331Y-121281552D01*
X129699000Y-121194421D01*
X129699000Y-121105579D01*
X129716331Y-121018448D01*
X129750328Y-120936373D01*
X129799685Y-120862505D01*
X129862505Y-120799685D01*
X129899187Y-120775175D01*
X129936371Y-120750329D01*
X129936373Y-120750328D01*
X130018448Y-120716331D01*
X130105579Y-120699000D01*
X130194421Y-120699000D01*
X130281552Y-120716331D01*
X130281552Y-120716331D01*
G37*
G36*
X102840442Y-117255518D02*
G01*
X102906627Y-117262037D01*
X103076466Y-117313557D01*
X103232991Y-117397222D01*
X103250312Y-117411437D01*
X103370186Y-117509814D01*
X103430796Y-117583669D01*
X103482778Y-117647009D01*
X103566443Y-117803534D01*
X103617963Y-117973373D01*
X103635359Y-118150000D01*
X103617963Y-118326627D01*
X103566443Y-118496466D01*
X103482778Y-118652991D01*
X103453448Y-118688729D01*
X103370186Y-118790186D01*
X103268729Y-118873448D01*
X103232991Y-118902778D01*
X103076466Y-118986443D01*
X102906627Y-119037963D01*
X102840443Y-119044481D01*
X102774260Y-119051000D01*
X102685740Y-119051000D01*
X102619557Y-119044481D01*
X102553373Y-119037963D01*
X102383534Y-118986443D01*
X102227009Y-118902778D01*
X102191271Y-118873448D01*
X102089814Y-118790186D01*
X102006552Y-118688729D01*
X101977222Y-118652991D01*
X101893557Y-118496466D01*
X101842037Y-118326627D01*
X101824641Y-118150000D01*
X101842037Y-117973373D01*
X101893557Y-117803534D01*
X101977222Y-117647009D01*
X102029204Y-117583669D01*
X102089814Y-117509814D01*
X102209688Y-117411437D01*
X102227009Y-117397222D01*
X102383534Y-117313557D01*
X102553373Y-117262037D01*
X102619558Y-117255518D01*
X102685740Y-117249000D01*
X102774260Y-117249000D01*
X102840442Y-117255518D01*
X102840442Y-117255518D01*
G37*
G36*
X100300442Y-117255518D02*
G01*
X100366627Y-117262037D01*
X100536466Y-117313557D01*
X100692991Y-117397222D01*
X100710312Y-117411437D01*
X100830186Y-117509814D01*
X100890796Y-117583669D01*
X100942778Y-117647009D01*
X101026443Y-117803534D01*
X101077963Y-117973373D01*
X101095359Y-118150000D01*
X101077963Y-118326627D01*
X101026443Y-118496466D01*
X100942778Y-118652991D01*
X100913448Y-118688729D01*
X100830186Y-118790186D01*
X100728729Y-118873448D01*
X100692991Y-118902778D01*
X100536466Y-118986443D01*
X100366627Y-119037963D01*
X100300443Y-119044481D01*
X100234260Y-119051000D01*
X100145740Y-119051000D01*
X100079557Y-119044481D01*
X100013373Y-119037963D01*
X99843534Y-118986443D01*
X99687009Y-118902778D01*
X99651271Y-118873448D01*
X99549814Y-118790186D01*
X99466552Y-118688729D01*
X99437222Y-118652991D01*
X99353557Y-118496466D01*
X99302037Y-118326627D01*
X99284641Y-118150000D01*
X99302037Y-117973373D01*
X99353557Y-117803534D01*
X99437222Y-117647009D01*
X99489204Y-117583669D01*
X99549814Y-117509814D01*
X99669688Y-117411437D01*
X99687009Y-117397222D01*
X99843534Y-117313557D01*
X100013373Y-117262037D01*
X100079558Y-117255518D01*
X100145740Y-117249000D01*
X100234260Y-117249000D01*
X100300442Y-117255518D01*
X100300442Y-117255518D01*
G37*
G36*
X98551000Y-119051000D02*
G01*
X96749000Y-119051000D01*
X96749000Y-117249000D01*
X98551000Y-117249000D01*
X98551000Y-119051000D01*
X98551000Y-119051000D01*
G37*
G36*
X141626564Y-115668589D02*
G01*
X141817833Y-115747815D01*
X141817835Y-115747816D01*
X141989973Y-115862835D01*
X142136365Y-116009227D01*
X142230646Y-116150328D01*
X142251385Y-116181367D01*
X142330611Y-116372636D01*
X142371000Y-116575684D01*
X142371000Y-116782716D01*
X142330611Y-116985764D01*
X142251385Y-117177033D01*
X142251384Y-117177035D01*
X142136365Y-117349173D01*
X141989973Y-117495565D01*
X141817835Y-117610584D01*
X141817834Y-117610585D01*
X141817833Y-117610585D01*
X141626564Y-117689811D01*
X141423516Y-117730200D01*
X141216484Y-117730200D01*
X141013436Y-117689811D01*
X140822167Y-117610585D01*
X140822166Y-117610585D01*
X140822165Y-117610584D01*
X140650027Y-117495565D01*
X140503635Y-117349173D01*
X140388616Y-117177035D01*
X140388615Y-117177033D01*
X140309389Y-116985764D01*
X140269000Y-116782716D01*
X140269000Y-116575684D01*
X140309389Y-116372636D01*
X140388615Y-116181367D01*
X140409355Y-116150328D01*
X140503635Y-116009227D01*
X140650027Y-115862835D01*
X140822165Y-115747816D01*
X140822167Y-115747815D01*
X141013436Y-115668589D01*
X141216484Y-115628200D01*
X141423516Y-115628200D01*
X141626564Y-115668589D01*
X141626564Y-115668589D01*
G37*
G36*
X157886564Y-115668589D02*
G01*
X158077833Y-115747815D01*
X158077835Y-115747816D01*
X158249973Y-115862835D01*
X158396365Y-116009227D01*
X158490646Y-116150328D01*
X158511385Y-116181367D01*
X158590611Y-116372636D01*
X158631000Y-116575684D01*
X158631000Y-116782716D01*
X158590611Y-116985764D01*
X158511385Y-117177033D01*
X158511384Y-117177035D01*
X158396365Y-117349173D01*
X158249973Y-117495565D01*
X158077835Y-117610584D01*
X158077834Y-117610585D01*
X158077833Y-117610585D01*
X157886564Y-117689811D01*
X157683516Y-117730200D01*
X157476484Y-117730200D01*
X157273436Y-117689811D01*
X157082167Y-117610585D01*
X157082166Y-117610585D01*
X157082165Y-117610584D01*
X156910027Y-117495565D01*
X156763635Y-117349173D01*
X156648616Y-117177035D01*
X156648615Y-117177033D01*
X156569389Y-116985764D01*
X156529000Y-116782716D01*
X156529000Y-116575684D01*
X156569389Y-116372636D01*
X156648615Y-116181367D01*
X156669355Y-116150328D01*
X156763635Y-116009227D01*
X156910027Y-115862835D01*
X157082165Y-115747816D01*
X157082167Y-115747815D01*
X157273436Y-115668589D01*
X157476484Y-115628200D01*
X157683516Y-115628200D01*
X157886564Y-115668589D01*
X157886564Y-115668589D01*
G37*
G36*
X132881552Y-116716331D02*
G01*
X132963627Y-116750328D01*
X132963629Y-116750329D01*
X133037496Y-116799686D01*
X133100314Y-116862504D01*
X133148917Y-116935242D01*
X133149672Y-116936373D01*
X133183669Y-117018448D01*
X133201000Y-117105579D01*
X133201000Y-117194421D01*
X133183669Y-117281552D01*
X133149672Y-117363627D01*
X133100315Y-117437495D01*
X133037495Y-117500315D01*
X133023277Y-117509815D01*
X132963629Y-117549671D01*
X132963628Y-117549672D01*
X132963627Y-117549672D01*
X132881552Y-117583669D01*
X132794421Y-117601000D01*
X132705579Y-117601000D01*
X132618448Y-117583669D01*
X132536373Y-117549672D01*
X132536372Y-117549672D01*
X132536371Y-117549671D01*
X132476723Y-117509815D01*
X132462505Y-117500315D01*
X132399685Y-117437495D01*
X132350328Y-117363627D01*
X132316331Y-117281552D01*
X132299000Y-117194421D01*
X132299000Y-117105579D01*
X132316331Y-117018448D01*
X132350328Y-116936373D01*
X132351084Y-116935242D01*
X132399686Y-116862504D01*
X132462504Y-116799686D01*
X132536371Y-116750329D01*
X132536373Y-116750328D01*
X132618448Y-116716331D01*
X132705579Y-116699000D01*
X132794421Y-116699000D01*
X132881552Y-116716331D01*
X132881552Y-116716331D01*
G37*
G36*
X150175642Y-115931381D02*
G01*
X150321414Y-115991762D01*
X150321416Y-115991763D01*
X150452608Y-116079422D01*
X150564178Y-116190992D01*
X150611960Y-116262504D01*
X150651838Y-116322186D01*
X150712219Y-116467958D01*
X150743000Y-116622707D01*
X150743000Y-116780493D01*
X150712219Y-116935242D01*
X150659040Y-117063627D01*
X150651837Y-117081016D01*
X150564178Y-117212208D01*
X150452608Y-117323778D01*
X150321416Y-117411437D01*
X150321415Y-117411438D01*
X150321414Y-117411438D01*
X150175642Y-117471819D01*
X150020893Y-117502600D01*
X149863107Y-117502600D01*
X149708358Y-117471819D01*
X149562586Y-117411438D01*
X149562585Y-117411438D01*
X149562584Y-117411437D01*
X149431392Y-117323778D01*
X149319822Y-117212208D01*
X149232163Y-117081016D01*
X149224960Y-117063627D01*
X149171781Y-116935242D01*
X149141000Y-116780493D01*
X149141000Y-116622707D01*
X149171781Y-116467958D01*
X149232162Y-116322186D01*
X149272040Y-116262504D01*
X149319822Y-116190992D01*
X149431392Y-116079422D01*
X149562584Y-115991763D01*
X149562586Y-115991762D01*
X149708358Y-115931381D01*
X149863107Y-115900600D01*
X150020893Y-115900600D01*
X150175642Y-115931381D01*
X150175642Y-115931381D01*
G37*
G36*
X152215642Y-115931381D02*
G01*
X152361414Y-115991762D01*
X152361416Y-115991763D01*
X152492608Y-116079422D01*
X152604178Y-116190992D01*
X152651960Y-116262504D01*
X152691838Y-116322186D01*
X152752219Y-116467958D01*
X152783000Y-116622707D01*
X152783000Y-116780493D01*
X152752219Y-116935242D01*
X152699040Y-117063627D01*
X152691837Y-117081016D01*
X152604178Y-117212208D01*
X152492608Y-117323778D01*
X152361416Y-117411437D01*
X152361415Y-117411438D01*
X152361414Y-117411438D01*
X152215642Y-117471819D01*
X152060893Y-117502600D01*
X151903107Y-117502600D01*
X151748358Y-117471819D01*
X151602586Y-117411438D01*
X151602585Y-117411438D01*
X151602584Y-117411437D01*
X151471392Y-117323778D01*
X151359822Y-117212208D01*
X151272163Y-117081016D01*
X151264960Y-117063627D01*
X151211781Y-116935242D01*
X151181000Y-116780493D01*
X151181000Y-116622707D01*
X151211781Y-116467958D01*
X151272162Y-116322186D01*
X151312040Y-116262504D01*
X151359822Y-116190992D01*
X151471392Y-116079422D01*
X151602584Y-115991763D01*
X151602586Y-115991762D01*
X151748358Y-115931381D01*
X151903107Y-115900600D01*
X152060893Y-115900600D01*
X152215642Y-115931381D01*
X152215642Y-115931381D01*
G37*
G36*
X148135642Y-115931381D02*
G01*
X148281414Y-115991762D01*
X148281416Y-115991763D01*
X148412608Y-116079422D01*
X148524178Y-116190992D01*
X148571960Y-116262504D01*
X148611838Y-116322186D01*
X148672219Y-116467958D01*
X148703000Y-116622707D01*
X148703000Y-116780493D01*
X148672219Y-116935242D01*
X148619040Y-117063627D01*
X148611837Y-117081016D01*
X148524178Y-117212208D01*
X148412608Y-117323778D01*
X148281416Y-117411437D01*
X148281415Y-117411438D01*
X148281414Y-117411438D01*
X148135642Y-117471819D01*
X147980893Y-117502600D01*
X147823107Y-117502600D01*
X147668358Y-117471819D01*
X147522586Y-117411438D01*
X147522585Y-117411438D01*
X147522584Y-117411437D01*
X147391392Y-117323778D01*
X147279822Y-117212208D01*
X147192163Y-117081016D01*
X147184960Y-117063627D01*
X147131781Y-116935242D01*
X147101000Y-116780493D01*
X147101000Y-116622707D01*
X147131781Y-116467958D01*
X147192162Y-116322186D01*
X147232040Y-116262504D01*
X147279822Y-116190992D01*
X147391392Y-116079422D01*
X147522584Y-115991763D01*
X147522586Y-115991762D01*
X147668358Y-115931381D01*
X147823107Y-115900600D01*
X147980893Y-115900600D01*
X148135642Y-115931381D01*
X148135642Y-115931381D01*
G37*
G36*
X146095642Y-115931381D02*
G01*
X146241414Y-115991762D01*
X146241416Y-115991763D01*
X146372608Y-116079422D01*
X146484178Y-116190992D01*
X146531960Y-116262504D01*
X146571838Y-116322186D01*
X146632219Y-116467958D01*
X146663000Y-116622707D01*
X146663000Y-116780493D01*
X146632219Y-116935242D01*
X146579040Y-117063627D01*
X146571837Y-117081016D01*
X146484178Y-117212208D01*
X146372608Y-117323778D01*
X146241416Y-117411437D01*
X146241415Y-117411438D01*
X146241414Y-117411438D01*
X146095642Y-117471819D01*
X145940893Y-117502600D01*
X145783107Y-117502600D01*
X145628358Y-117471819D01*
X145482586Y-117411438D01*
X145482585Y-117411438D01*
X145482584Y-117411437D01*
X145351392Y-117323778D01*
X145239822Y-117212208D01*
X145152163Y-117081016D01*
X145144960Y-117063627D01*
X145091781Y-116935242D01*
X145061000Y-116780493D01*
X145061000Y-116622707D01*
X145091781Y-116467958D01*
X145152162Y-116322186D01*
X145192040Y-116262504D01*
X145239822Y-116190992D01*
X145351392Y-116079422D01*
X145482584Y-115991763D01*
X145482586Y-115991762D01*
X145628358Y-115931381D01*
X145783107Y-115900600D01*
X145940893Y-115900600D01*
X146095642Y-115931381D01*
X146095642Y-115931381D01*
G37*
G36*
X126981552Y-116416331D02*
G01*
X127063627Y-116450328D01*
X127063629Y-116450329D01*
X127137496Y-116499686D01*
X127200314Y-116562504D01*
X127240542Y-116622708D01*
X127249672Y-116636373D01*
X127283669Y-116718448D01*
X127301000Y-116805579D01*
X127301000Y-116894421D01*
X127283669Y-116981552D01*
X127249672Y-117063627D01*
X127249671Y-117063629D01*
X127200314Y-117137496D01*
X127137496Y-117200314D01*
X127063629Y-117249671D01*
X127063628Y-117249672D01*
X127063627Y-117249672D01*
X126981552Y-117283669D01*
X126894421Y-117301000D01*
X126805579Y-117301000D01*
X126718448Y-117283669D01*
X126636373Y-117249672D01*
X126636372Y-117249672D01*
X126636371Y-117249671D01*
X126562504Y-117200314D01*
X126499686Y-117137496D01*
X126450329Y-117063629D01*
X126450328Y-117063627D01*
X126416331Y-116981552D01*
X126399000Y-116894421D01*
X126399000Y-116805579D01*
X126416331Y-116718448D01*
X126450328Y-116636373D01*
X126459459Y-116622708D01*
X126499686Y-116562504D01*
X126562504Y-116499686D01*
X126636371Y-116450329D01*
X126636373Y-116450328D01*
X126718448Y-116416331D01*
X126805579Y-116399000D01*
X126894421Y-116399000D01*
X126981552Y-116416331D01*
X126981552Y-116416331D01*
G37*
G36*
X89681552Y-116116331D02*
G01*
X89763627Y-116150328D01*
X89763629Y-116150329D01*
X89800813Y-116175175D01*
X89837495Y-116199685D01*
X89900315Y-116262505D01*
X89949672Y-116336373D01*
X89983669Y-116418448D01*
X90001000Y-116505579D01*
X90001000Y-116594421D01*
X89983669Y-116681552D01*
X89955180Y-116750329D01*
X89949671Y-116763629D01*
X89900314Y-116837496D01*
X89837496Y-116900314D01*
X89763629Y-116949671D01*
X89763628Y-116949672D01*
X89763627Y-116949672D01*
X89681552Y-116983669D01*
X89594421Y-117001000D01*
X89505579Y-117001000D01*
X89418448Y-116983669D01*
X89336373Y-116949672D01*
X89336372Y-116949672D01*
X89336371Y-116949671D01*
X89262504Y-116900314D01*
X89199686Y-116837496D01*
X89150329Y-116763629D01*
X89144820Y-116750329D01*
X89116331Y-116681552D01*
X89099000Y-116594421D01*
X89099000Y-116505579D01*
X89116331Y-116418448D01*
X89150328Y-116336373D01*
X89199685Y-116262505D01*
X89262505Y-116199685D01*
X89299187Y-116175175D01*
X89336371Y-116150329D01*
X89336373Y-116150328D01*
X89418448Y-116116331D01*
X89505579Y-116099000D01*
X89594421Y-116099000D01*
X89681552Y-116116331D01*
X89681552Y-116116331D01*
G37*
G36*
X104381552Y-114166331D02*
G01*
X104463627Y-114200328D01*
X104463629Y-114200329D01*
X104537496Y-114249686D01*
X104600314Y-114312504D01*
X104638337Y-114369408D01*
X104649672Y-114386373D01*
X104683669Y-114468448D01*
X104701000Y-114555579D01*
X104701000Y-114644421D01*
X104683669Y-114731552D01*
X104649672Y-114813627D01*
X104600315Y-114887495D01*
X104537495Y-114950315D01*
X104500813Y-114974825D01*
X104463629Y-114999671D01*
X104463628Y-114999672D01*
X104463627Y-114999672D01*
X104381552Y-115033669D01*
X104294421Y-115051000D01*
X104205579Y-115051000D01*
X104118448Y-115033669D01*
X104036373Y-114999672D01*
X104036372Y-114999672D01*
X104036371Y-114999671D01*
X103999187Y-114974825D01*
X103962505Y-114950315D01*
X103899685Y-114887495D01*
X103850328Y-114813627D01*
X103816331Y-114731552D01*
X103799000Y-114644421D01*
X103799000Y-114555579D01*
X103816331Y-114468448D01*
X103850328Y-114386373D01*
X103861664Y-114369408D01*
X103899686Y-114312504D01*
X103962504Y-114249686D01*
X104036371Y-114200329D01*
X104036373Y-114200328D01*
X104118448Y-114166331D01*
X104205579Y-114149000D01*
X104294421Y-114149000D01*
X104381552Y-114166331D01*
X104381552Y-114166331D01*
G37*
G36*
X156126971Y-111656204D02*
G01*
X156288871Y-111688408D01*
X156593883Y-111814748D01*
X156868387Y-111998166D01*
X157101834Y-112231613D01*
X157285252Y-112506117D01*
X157411592Y-112811129D01*
X157476000Y-113134928D01*
X157476000Y-113465072D01*
X157411592Y-113788871D01*
X157285252Y-114093883D01*
X157101834Y-114368387D01*
X156868387Y-114601834D01*
X156593883Y-114785252D01*
X156288871Y-114911592D01*
X156177888Y-114933668D01*
X155965073Y-114976000D01*
X155634927Y-114976000D01*
X155422112Y-114933668D01*
X155311129Y-114911592D01*
X155006117Y-114785252D01*
X154731613Y-114601834D01*
X154498166Y-114368387D01*
X154314748Y-114093883D01*
X154188408Y-113788871D01*
X154124000Y-113465072D01*
X154124000Y-113134928D01*
X154188408Y-112811129D01*
X154314748Y-112506117D01*
X154498166Y-112231613D01*
X154731613Y-111998166D01*
X155006117Y-111814748D01*
X155311129Y-111688408D01*
X155473029Y-111656204D01*
X155634927Y-111624000D01*
X155965073Y-111624000D01*
X156126971Y-111656204D01*
X156126971Y-111656204D01*
G37*
G36*
X143426971Y-111656204D02*
G01*
X143588871Y-111688408D01*
X143893883Y-111814748D01*
X144168387Y-111998166D01*
X144401834Y-112231613D01*
X144585252Y-112506117D01*
X144711592Y-112811129D01*
X144776000Y-113134928D01*
X144776000Y-113465072D01*
X144711592Y-113788871D01*
X144585252Y-114093883D01*
X144401834Y-114368387D01*
X144168387Y-114601834D01*
X143893883Y-114785252D01*
X143588871Y-114911592D01*
X143477888Y-114933668D01*
X143265073Y-114976000D01*
X142934927Y-114976000D01*
X142722112Y-114933668D01*
X142611129Y-114911592D01*
X142306117Y-114785252D01*
X142031613Y-114601834D01*
X141798166Y-114368387D01*
X141614748Y-114093883D01*
X141488408Y-113788871D01*
X141424000Y-113465072D01*
X141424000Y-113134928D01*
X141488408Y-112811129D01*
X141614748Y-112506117D01*
X141798166Y-112231613D01*
X142031613Y-111998166D01*
X142306117Y-111814748D01*
X142611129Y-111688408D01*
X142773029Y-111656204D01*
X142934927Y-111624000D01*
X143265073Y-111624000D01*
X143426971Y-111656204D01*
X143426971Y-111656204D01*
G37*
G36*
X93631552Y-114066331D02*
G01*
X93713627Y-114100328D01*
X93713629Y-114100329D01*
X93750813Y-114125175D01*
X93787495Y-114149685D01*
X93850315Y-114212505D01*
X93899672Y-114286373D01*
X93933669Y-114368448D01*
X93951000Y-114455579D01*
X93951000Y-114544421D01*
X93933669Y-114631552D01*
X93899672Y-114713627D01*
X93851814Y-114785252D01*
X93850314Y-114787496D01*
X93787496Y-114850314D01*
X93713629Y-114899671D01*
X93713628Y-114899672D01*
X93713627Y-114899672D01*
X93631552Y-114933669D01*
X93544421Y-114951000D01*
X93455579Y-114951000D01*
X93368448Y-114933669D01*
X93286373Y-114899672D01*
X93286372Y-114899672D01*
X93286371Y-114899671D01*
X93212504Y-114850314D01*
X93149686Y-114787496D01*
X93148187Y-114785252D01*
X93100328Y-114713627D01*
X93066331Y-114631552D01*
X93049000Y-114544421D01*
X93049000Y-114455579D01*
X93066331Y-114368448D01*
X93100328Y-114286373D01*
X93149685Y-114212505D01*
X93212505Y-114149685D01*
X93249187Y-114125175D01*
X93286371Y-114100329D01*
X93286373Y-114100328D01*
X93368448Y-114066331D01*
X93455579Y-114049000D01*
X93544421Y-114049000D01*
X93631552Y-114066331D01*
X93631552Y-114066331D01*
G37*
G36*
X153853800Y-114659800D02*
G01*
X152251800Y-114659800D01*
X152251800Y-113057800D01*
X153853800Y-113057800D01*
X153853800Y-114659800D01*
X153853800Y-114659800D01*
G37*
G36*
X151246442Y-113088581D02*
G01*
X151392214Y-113148962D01*
X151392216Y-113148963D01*
X151523408Y-113236622D01*
X151634978Y-113348192D01*
X151722637Y-113479384D01*
X151722638Y-113479386D01*
X151783019Y-113625158D01*
X151813800Y-113779907D01*
X151813800Y-113937693D01*
X151783019Y-114092442D01*
X151733287Y-114212504D01*
X151722637Y-114238216D01*
X151634978Y-114369408D01*
X151523408Y-114480978D01*
X151392216Y-114568637D01*
X151392215Y-114568638D01*
X151392214Y-114568638D01*
X151246442Y-114629019D01*
X151091693Y-114659800D01*
X150933907Y-114659800D01*
X150779158Y-114629019D01*
X150633386Y-114568638D01*
X150633385Y-114568638D01*
X150633384Y-114568637D01*
X150502192Y-114480978D01*
X150390622Y-114369408D01*
X150302963Y-114238216D01*
X150292313Y-114212504D01*
X150242581Y-114092442D01*
X150211800Y-113937693D01*
X150211800Y-113779907D01*
X150242581Y-113625158D01*
X150302962Y-113479386D01*
X150302963Y-113479384D01*
X150390622Y-113348192D01*
X150502192Y-113236622D01*
X150633384Y-113148963D01*
X150633386Y-113148962D01*
X150779158Y-113088581D01*
X150933907Y-113057800D01*
X151091693Y-113057800D01*
X151246442Y-113088581D01*
X151246442Y-113088581D01*
G37*
G36*
X149206442Y-113088581D02*
G01*
X149352214Y-113148962D01*
X149352216Y-113148963D01*
X149483408Y-113236622D01*
X149594978Y-113348192D01*
X149682637Y-113479384D01*
X149682638Y-113479386D01*
X149743019Y-113625158D01*
X149773800Y-113779907D01*
X149773800Y-113937693D01*
X149743019Y-114092442D01*
X149693287Y-114212504D01*
X149682637Y-114238216D01*
X149594978Y-114369408D01*
X149483408Y-114480978D01*
X149352216Y-114568637D01*
X149352215Y-114568638D01*
X149352214Y-114568638D01*
X149206442Y-114629019D01*
X149051693Y-114659800D01*
X148893907Y-114659800D01*
X148739158Y-114629019D01*
X148593386Y-114568638D01*
X148593385Y-114568638D01*
X148593384Y-114568637D01*
X148462192Y-114480978D01*
X148350622Y-114369408D01*
X148262963Y-114238216D01*
X148252313Y-114212504D01*
X148202581Y-114092442D01*
X148171800Y-113937693D01*
X148171800Y-113779907D01*
X148202581Y-113625158D01*
X148262962Y-113479386D01*
X148262963Y-113479384D01*
X148350622Y-113348192D01*
X148462192Y-113236622D01*
X148593384Y-113148963D01*
X148593386Y-113148962D01*
X148739158Y-113088581D01*
X148893907Y-113057800D01*
X149051693Y-113057800D01*
X149206442Y-113088581D01*
X149206442Y-113088581D01*
G37*
G36*
X147166442Y-113088581D02*
G01*
X147312214Y-113148962D01*
X147312216Y-113148963D01*
X147443408Y-113236622D01*
X147554978Y-113348192D01*
X147642637Y-113479384D01*
X147642638Y-113479386D01*
X147703019Y-113625158D01*
X147733800Y-113779907D01*
X147733800Y-113937693D01*
X147703019Y-114092442D01*
X147653287Y-114212504D01*
X147642637Y-114238216D01*
X147554978Y-114369408D01*
X147443408Y-114480978D01*
X147312216Y-114568637D01*
X147312215Y-114568638D01*
X147312214Y-114568638D01*
X147166442Y-114629019D01*
X147011693Y-114659800D01*
X146853907Y-114659800D01*
X146699158Y-114629019D01*
X146553386Y-114568638D01*
X146553385Y-114568638D01*
X146553384Y-114568637D01*
X146422192Y-114480978D01*
X146310622Y-114369408D01*
X146222963Y-114238216D01*
X146212313Y-114212504D01*
X146162581Y-114092442D01*
X146131800Y-113937693D01*
X146131800Y-113779907D01*
X146162581Y-113625158D01*
X146222962Y-113479386D01*
X146222963Y-113479384D01*
X146310622Y-113348192D01*
X146422192Y-113236622D01*
X146553384Y-113148963D01*
X146553386Y-113148962D01*
X146699158Y-113088581D01*
X146853907Y-113057800D01*
X147011693Y-113057800D01*
X147166442Y-113088581D01*
X147166442Y-113088581D01*
G37*
G36*
X90451000Y-104851000D02*
G01*
X88649000Y-104851000D01*
X88649000Y-103049000D01*
X90451000Y-103049000D01*
X90451000Y-104851000D01*
X90451000Y-104851000D01*
G37*
G36*
X92200443Y-103055519D02*
G01*
X92266627Y-103062037D01*
X92436466Y-103113557D01*
X92592991Y-103197222D01*
X92628729Y-103226552D01*
X92730186Y-103309814D01*
X92813448Y-103411271D01*
X92842778Y-103447009D01*
X92926443Y-103603534D01*
X92977963Y-103773373D01*
X92995359Y-103950000D01*
X92977963Y-104126627D01*
X92926443Y-104296466D01*
X92842778Y-104452991D01*
X92813448Y-104488729D01*
X92730186Y-104590186D01*
X92628729Y-104673448D01*
X92592991Y-104702778D01*
X92436466Y-104786443D01*
X92266627Y-104837963D01*
X92200442Y-104844482D01*
X92134260Y-104851000D01*
X92045740Y-104851000D01*
X91979558Y-104844482D01*
X91913373Y-104837963D01*
X91743534Y-104786443D01*
X91587009Y-104702778D01*
X91551271Y-104673448D01*
X91449814Y-104590186D01*
X91366552Y-104488729D01*
X91337222Y-104452991D01*
X91253557Y-104296466D01*
X91202037Y-104126627D01*
X91184641Y-103950000D01*
X91202037Y-103773373D01*
X91253557Y-103603534D01*
X91337222Y-103447009D01*
X91366552Y-103411271D01*
X91449814Y-103309814D01*
X91551271Y-103226552D01*
X91587009Y-103197222D01*
X91743534Y-103113557D01*
X91913373Y-103062037D01*
X91979558Y-103055518D01*
X92045740Y-103049000D01*
X92134260Y-103049000D01*
X92200443Y-103055519D01*
X92200443Y-103055519D01*
G37*
G36*
X99820443Y-103055519D02*
G01*
X99886627Y-103062037D01*
X100056466Y-103113557D01*
X100212991Y-103197222D01*
X100248729Y-103226552D01*
X100350186Y-103309814D01*
X100433448Y-103411271D01*
X100462778Y-103447009D01*
X100546443Y-103603534D01*
X100597963Y-103773373D01*
X100615359Y-103950000D01*
X100597963Y-104126627D01*
X100546443Y-104296466D01*
X100462778Y-104452991D01*
X100433448Y-104488729D01*
X100350186Y-104590186D01*
X100248729Y-104673448D01*
X100212991Y-104702778D01*
X100056466Y-104786443D01*
X99886627Y-104837963D01*
X99820442Y-104844482D01*
X99754260Y-104851000D01*
X99665740Y-104851000D01*
X99599558Y-104844482D01*
X99533373Y-104837963D01*
X99363534Y-104786443D01*
X99207009Y-104702778D01*
X99171271Y-104673448D01*
X99069814Y-104590186D01*
X98986552Y-104488729D01*
X98957222Y-104452991D01*
X98873557Y-104296466D01*
X98822037Y-104126627D01*
X98804641Y-103950000D01*
X98822037Y-103773373D01*
X98873557Y-103603534D01*
X98957222Y-103447009D01*
X98986552Y-103411271D01*
X99069814Y-103309814D01*
X99171271Y-103226552D01*
X99207009Y-103197222D01*
X99363534Y-103113557D01*
X99533373Y-103062037D01*
X99599558Y-103055518D01*
X99665740Y-103049000D01*
X99754260Y-103049000D01*
X99820443Y-103055519D01*
X99820443Y-103055519D01*
G37*
G36*
X97280443Y-103055519D02*
G01*
X97346627Y-103062037D01*
X97516466Y-103113557D01*
X97672991Y-103197222D01*
X97708729Y-103226552D01*
X97810186Y-103309814D01*
X97893448Y-103411271D01*
X97922778Y-103447009D01*
X98006443Y-103603534D01*
X98057963Y-103773373D01*
X98075359Y-103950000D01*
X98057963Y-104126627D01*
X98006443Y-104296466D01*
X97922778Y-104452991D01*
X97893448Y-104488729D01*
X97810186Y-104590186D01*
X97708729Y-104673448D01*
X97672991Y-104702778D01*
X97516466Y-104786443D01*
X97346627Y-104837963D01*
X97280442Y-104844482D01*
X97214260Y-104851000D01*
X97125740Y-104851000D01*
X97059558Y-104844482D01*
X96993373Y-104837963D01*
X96823534Y-104786443D01*
X96667009Y-104702778D01*
X96631271Y-104673448D01*
X96529814Y-104590186D01*
X96446552Y-104488729D01*
X96417222Y-104452991D01*
X96333557Y-104296466D01*
X96282037Y-104126627D01*
X96264641Y-103950000D01*
X96282037Y-103773373D01*
X96333557Y-103603534D01*
X96417222Y-103447009D01*
X96446552Y-103411271D01*
X96529814Y-103309814D01*
X96631271Y-103226552D01*
X96667009Y-103197222D01*
X96823534Y-103113557D01*
X96993373Y-103062037D01*
X97059558Y-103055518D01*
X97125740Y-103049000D01*
X97214260Y-103049000D01*
X97280443Y-103055519D01*
X97280443Y-103055519D01*
G37*
G36*
X94740443Y-103055519D02*
G01*
X94806627Y-103062037D01*
X94976466Y-103113557D01*
X95132991Y-103197222D01*
X95168729Y-103226552D01*
X95270186Y-103309814D01*
X95353448Y-103411271D01*
X95382778Y-103447009D01*
X95466443Y-103603534D01*
X95517963Y-103773373D01*
X95535359Y-103950000D01*
X95517963Y-104126627D01*
X95466443Y-104296466D01*
X95382778Y-104452991D01*
X95353448Y-104488729D01*
X95270186Y-104590186D01*
X95168729Y-104673448D01*
X95132991Y-104702778D01*
X94976466Y-104786443D01*
X94806627Y-104837963D01*
X94740442Y-104844482D01*
X94674260Y-104851000D01*
X94585740Y-104851000D01*
X94519558Y-104844482D01*
X94453373Y-104837963D01*
X94283534Y-104786443D01*
X94127009Y-104702778D01*
X94091271Y-104673448D01*
X93989814Y-104590186D01*
X93906552Y-104488729D01*
X93877222Y-104452991D01*
X93793557Y-104296466D01*
X93742037Y-104126627D01*
X93724641Y-103950000D01*
X93742037Y-103773373D01*
X93793557Y-103603534D01*
X93877222Y-103447009D01*
X93906552Y-103411271D01*
X93989814Y-103309814D01*
X94091271Y-103226552D01*
X94127009Y-103197222D01*
X94283534Y-103113557D01*
X94453373Y-103062037D01*
X94519558Y-103055518D01*
X94585740Y-103049000D01*
X94674260Y-103049000D01*
X94740443Y-103055519D01*
X94740443Y-103055519D01*
G37*
G36*
X149098228Y-102371703D02*
G01*
X149253100Y-102435853D01*
X149392481Y-102528985D01*
X149511015Y-102647519D01*
X149604147Y-102786900D01*
X149668297Y-102941772D01*
X149701000Y-103106184D01*
X149701000Y-103273816D01*
X149668297Y-103438228D01*
X149604147Y-103593100D01*
X149511015Y-103732481D01*
X149392481Y-103851015D01*
X149253100Y-103944147D01*
X149098228Y-104008297D01*
X148933816Y-104041000D01*
X148766184Y-104041000D01*
X148601772Y-104008297D01*
X148446900Y-103944147D01*
X148307519Y-103851015D01*
X148188985Y-103732481D01*
X148095853Y-103593100D01*
X148031703Y-103438228D01*
X147999000Y-103273816D01*
X147999000Y-103106184D01*
X148031703Y-102941772D01*
X148095853Y-102786900D01*
X148188985Y-102647519D01*
X148307519Y-102528985D01*
X148446900Y-102435853D01*
X148601772Y-102371703D01*
X148766184Y-102339000D01*
X148933816Y-102339000D01*
X149098228Y-102371703D01*
X149098228Y-102371703D01*
G37*
G36*
X151638228Y-102371703D02*
G01*
X151793100Y-102435853D01*
X151932481Y-102528985D01*
X152051015Y-102647519D01*
X152144147Y-102786900D01*
X152208297Y-102941772D01*
X152241000Y-103106184D01*
X152241000Y-103273816D01*
X152208297Y-103438228D01*
X152144147Y-103593100D01*
X152051015Y-103732481D01*
X151932481Y-103851015D01*
X151793100Y-103944147D01*
X151638228Y-104008297D01*
X151473816Y-104041000D01*
X151306184Y-104041000D01*
X151141772Y-104008297D01*
X150986900Y-103944147D01*
X150847519Y-103851015D01*
X150728985Y-103732481D01*
X150635853Y-103593100D01*
X150571703Y-103438228D01*
X150539000Y-103273816D01*
X150539000Y-103106184D01*
X150571703Y-102941772D01*
X150635853Y-102786900D01*
X150728985Y-102647519D01*
X150847519Y-102528985D01*
X150986900Y-102435853D01*
X151141772Y-102371703D01*
X151306184Y-102339000D01*
X151473816Y-102339000D01*
X151638228Y-102371703D01*
X151638228Y-102371703D01*
G37*
G36*
X154178228Y-102371703D02*
G01*
X154333100Y-102435853D01*
X154472481Y-102528985D01*
X154591015Y-102647519D01*
X154684147Y-102786900D01*
X154748297Y-102941772D01*
X154781000Y-103106184D01*
X154781000Y-103273816D01*
X154748297Y-103438228D01*
X154684147Y-103593100D01*
X154591015Y-103732481D01*
X154472481Y-103851015D01*
X154333100Y-103944147D01*
X154178228Y-104008297D01*
X154013816Y-104041000D01*
X153846184Y-104041000D01*
X153681772Y-104008297D01*
X153526900Y-103944147D01*
X153387519Y-103851015D01*
X153268985Y-103732481D01*
X153175853Y-103593100D01*
X153111703Y-103438228D01*
X153079000Y-103273816D01*
X153079000Y-103106184D01*
X153111703Y-102941772D01*
X153175853Y-102786900D01*
X153268985Y-102647519D01*
X153387519Y-102528985D01*
X153526900Y-102435853D01*
X153681772Y-102371703D01*
X153846184Y-102339000D01*
X154013816Y-102339000D01*
X154178228Y-102371703D01*
X154178228Y-102371703D01*
G37*
G36*
X156718228Y-102371703D02*
G01*
X156873100Y-102435853D01*
X157012481Y-102528985D01*
X157131015Y-102647519D01*
X157224147Y-102786900D01*
X157288297Y-102941772D01*
X157321000Y-103106184D01*
X157321000Y-103273816D01*
X157288297Y-103438228D01*
X157224147Y-103593100D01*
X157131015Y-103732481D01*
X157012481Y-103851015D01*
X156873100Y-103944147D01*
X156718228Y-104008297D01*
X156553816Y-104041000D01*
X156386184Y-104041000D01*
X156221772Y-104008297D01*
X156066900Y-103944147D01*
X155927519Y-103851015D01*
X155808985Y-103732481D01*
X155715853Y-103593100D01*
X155651703Y-103438228D01*
X155619000Y-103273816D01*
X155619000Y-103106184D01*
X155651703Y-102941772D01*
X155715853Y-102786900D01*
X155808985Y-102647519D01*
X155927519Y-102528985D01*
X156066900Y-102435853D01*
X156221772Y-102371703D01*
X156386184Y-102339000D01*
X156553816Y-102339000D01*
X156718228Y-102371703D01*
X156718228Y-102371703D01*
G37*
G36*
X159258228Y-102371703D02*
G01*
X159413100Y-102435853D01*
X159552481Y-102528985D01*
X159671015Y-102647519D01*
X159764147Y-102786900D01*
X159828297Y-102941772D01*
X159861000Y-103106184D01*
X159861000Y-103273816D01*
X159828297Y-103438228D01*
X159764147Y-103593100D01*
X159671015Y-103732481D01*
X159552481Y-103851015D01*
X159413100Y-103944147D01*
X159258228Y-104008297D01*
X159093816Y-104041000D01*
X158926184Y-104041000D01*
X158761772Y-104008297D01*
X158606900Y-103944147D01*
X158467519Y-103851015D01*
X158348985Y-103732481D01*
X158255853Y-103593100D01*
X158191703Y-103438228D01*
X158159000Y-103273816D01*
X158159000Y-103106184D01*
X158191703Y-102941772D01*
X158255853Y-102786900D01*
X158348985Y-102647519D01*
X158467519Y-102528985D01*
X158606900Y-102435853D01*
X158761772Y-102371703D01*
X158926184Y-102339000D01*
X159093816Y-102339000D01*
X159258228Y-102371703D01*
X159258228Y-102371703D01*
G37*
G36*
X161798228Y-102371703D02*
G01*
X161953100Y-102435853D01*
X162092481Y-102528985D01*
X162211015Y-102647519D01*
X162304147Y-102786900D01*
X162368297Y-102941772D01*
X162401000Y-103106184D01*
X162401000Y-103273816D01*
X162368297Y-103438228D01*
X162304147Y-103593100D01*
X162211015Y-103732481D01*
X162092481Y-103851015D01*
X161953100Y-103944147D01*
X161798228Y-104008297D01*
X161633816Y-104041000D01*
X161466184Y-104041000D01*
X161301772Y-104008297D01*
X161146900Y-103944147D01*
X161007519Y-103851015D01*
X160888985Y-103732481D01*
X160795853Y-103593100D01*
X160731703Y-103438228D01*
X160699000Y-103273816D01*
X160699000Y-103106184D01*
X160731703Y-102941772D01*
X160795853Y-102786900D01*
X160888985Y-102647519D01*
X161007519Y-102528985D01*
X161146900Y-102435853D01*
X161301772Y-102371703D01*
X161466184Y-102339000D01*
X161633816Y-102339000D01*
X161798228Y-102371703D01*
X161798228Y-102371703D01*
G37*
G36*
X146558228Y-102371703D02*
G01*
X146713100Y-102435853D01*
X146852481Y-102528985D01*
X146971015Y-102647519D01*
X147064147Y-102786900D01*
X147128297Y-102941772D01*
X147161000Y-103106184D01*
X147161000Y-103273816D01*
X147128297Y-103438228D01*
X147064147Y-103593100D01*
X146971015Y-103732481D01*
X146852481Y-103851015D01*
X146713100Y-103944147D01*
X146558228Y-104008297D01*
X146393816Y-104041000D01*
X146226184Y-104041000D01*
X146061772Y-104008297D01*
X145906900Y-103944147D01*
X145767519Y-103851015D01*
X145648985Y-103732481D01*
X145555853Y-103593100D01*
X145491703Y-103438228D01*
X145459000Y-103273816D01*
X145459000Y-103106184D01*
X145491703Y-102941772D01*
X145555853Y-102786900D01*
X145648985Y-102647519D01*
X145767519Y-102528985D01*
X145906900Y-102435853D01*
X146061772Y-102371703D01*
X146226184Y-102339000D01*
X146393816Y-102339000D01*
X146558228Y-102371703D01*
X146558228Y-102371703D01*
G37*
G36*
X144018228Y-102371703D02*
G01*
X144173100Y-102435853D01*
X144312481Y-102528985D01*
X144431015Y-102647519D01*
X144524147Y-102786900D01*
X144588297Y-102941772D01*
X144621000Y-103106184D01*
X144621000Y-103273816D01*
X144588297Y-103438228D01*
X144524147Y-103593100D01*
X144431015Y-103732481D01*
X144312481Y-103851015D01*
X144173100Y-103944147D01*
X144018228Y-104008297D01*
X143853816Y-104041000D01*
X143686184Y-104041000D01*
X143521772Y-104008297D01*
X143366900Y-103944147D01*
X143227519Y-103851015D01*
X143108985Y-103732481D01*
X143015853Y-103593100D01*
X142951703Y-103438228D01*
X142919000Y-103273816D01*
X142919000Y-103106184D01*
X142951703Y-102941772D01*
X143015853Y-102786900D01*
X143108985Y-102647519D01*
X143227519Y-102528985D01*
X143366900Y-102435853D01*
X143521772Y-102371703D01*
X143686184Y-102339000D01*
X143853816Y-102339000D01*
X144018228Y-102371703D01*
X144018228Y-102371703D01*
G37*
G36*
X141478228Y-102371703D02*
G01*
X141633100Y-102435853D01*
X141772481Y-102528985D01*
X141891015Y-102647519D01*
X141984147Y-102786900D01*
X142048297Y-102941772D01*
X142081000Y-103106184D01*
X142081000Y-103273816D01*
X142048297Y-103438228D01*
X141984147Y-103593100D01*
X141891015Y-103732481D01*
X141772481Y-103851015D01*
X141633100Y-103944147D01*
X141478228Y-104008297D01*
X141313816Y-104041000D01*
X141146184Y-104041000D01*
X140981772Y-104008297D01*
X140826900Y-103944147D01*
X140687519Y-103851015D01*
X140568985Y-103732481D01*
X140475853Y-103593100D01*
X140411703Y-103438228D01*
X140379000Y-103273816D01*
X140379000Y-103106184D01*
X140411703Y-102941772D01*
X140475853Y-102786900D01*
X140568985Y-102647519D01*
X140687519Y-102528985D01*
X140826900Y-102435853D01*
X140981772Y-102371703D01*
X141146184Y-102339000D01*
X141313816Y-102339000D01*
X141478228Y-102371703D01*
X141478228Y-102371703D01*
G37*
G36*
X131318228Y-102371703D02*
G01*
X131473100Y-102435853D01*
X131612481Y-102528985D01*
X131731015Y-102647519D01*
X131824147Y-102786900D01*
X131888297Y-102941772D01*
X131921000Y-103106184D01*
X131921000Y-103273816D01*
X131888297Y-103438228D01*
X131824147Y-103593100D01*
X131731015Y-103732481D01*
X131612481Y-103851015D01*
X131473100Y-103944147D01*
X131318228Y-104008297D01*
X131153816Y-104041000D01*
X130986184Y-104041000D01*
X130821772Y-104008297D01*
X130666900Y-103944147D01*
X130527519Y-103851015D01*
X130408985Y-103732481D01*
X130315853Y-103593100D01*
X130251703Y-103438228D01*
X130219000Y-103273816D01*
X130219000Y-103106184D01*
X130251703Y-102941772D01*
X130315853Y-102786900D01*
X130408985Y-102647519D01*
X130527519Y-102528985D01*
X130666900Y-102435853D01*
X130821772Y-102371703D01*
X130986184Y-102339000D01*
X131153816Y-102339000D01*
X131318228Y-102371703D01*
X131318228Y-102371703D01*
G37*
G36*
X133858228Y-102371703D02*
G01*
X134013100Y-102435853D01*
X134152481Y-102528985D01*
X134271015Y-102647519D01*
X134364147Y-102786900D01*
X134428297Y-102941772D01*
X134461000Y-103106184D01*
X134461000Y-103273816D01*
X134428297Y-103438228D01*
X134364147Y-103593100D01*
X134271015Y-103732481D01*
X134152481Y-103851015D01*
X134013100Y-103944147D01*
X133858228Y-104008297D01*
X133693816Y-104041000D01*
X133526184Y-104041000D01*
X133361772Y-104008297D01*
X133206900Y-103944147D01*
X133067519Y-103851015D01*
X132948985Y-103732481D01*
X132855853Y-103593100D01*
X132791703Y-103438228D01*
X132759000Y-103273816D01*
X132759000Y-103106184D01*
X132791703Y-102941772D01*
X132855853Y-102786900D01*
X132948985Y-102647519D01*
X133067519Y-102528985D01*
X133206900Y-102435853D01*
X133361772Y-102371703D01*
X133526184Y-102339000D01*
X133693816Y-102339000D01*
X133858228Y-102371703D01*
X133858228Y-102371703D01*
G37*
G36*
X164338228Y-102371703D02*
G01*
X164493100Y-102435853D01*
X164632481Y-102528985D01*
X164751015Y-102647519D01*
X164844147Y-102786900D01*
X164908297Y-102941772D01*
X164941000Y-103106184D01*
X164941000Y-103273816D01*
X164908297Y-103438228D01*
X164844147Y-103593100D01*
X164751015Y-103732481D01*
X164632481Y-103851015D01*
X164493100Y-103944147D01*
X164338228Y-104008297D01*
X164173816Y-104041000D01*
X164006184Y-104041000D01*
X163841772Y-104008297D01*
X163686900Y-103944147D01*
X163547519Y-103851015D01*
X163428985Y-103732481D01*
X163335853Y-103593100D01*
X163271703Y-103438228D01*
X163239000Y-103273816D01*
X163239000Y-103106184D01*
X163271703Y-102941772D01*
X163335853Y-102786900D01*
X163428985Y-102647519D01*
X163547519Y-102528985D01*
X163686900Y-102435853D01*
X163841772Y-102371703D01*
X164006184Y-102339000D01*
X164173816Y-102339000D01*
X164338228Y-102371703D01*
X164338228Y-102371703D01*
G37*
G36*
X138938228Y-102371703D02*
G01*
X139093100Y-102435853D01*
X139232481Y-102528985D01*
X139351015Y-102647519D01*
X139444147Y-102786900D01*
X139508297Y-102941772D01*
X139541000Y-103106184D01*
X139541000Y-103273816D01*
X139508297Y-103438228D01*
X139444147Y-103593100D01*
X139351015Y-103732481D01*
X139232481Y-103851015D01*
X139093100Y-103944147D01*
X138938228Y-104008297D01*
X138773816Y-104041000D01*
X138606184Y-104041000D01*
X138441772Y-104008297D01*
X138286900Y-103944147D01*
X138147519Y-103851015D01*
X138028985Y-103732481D01*
X137935853Y-103593100D01*
X137871703Y-103438228D01*
X137839000Y-103273816D01*
X137839000Y-103106184D01*
X137871703Y-102941772D01*
X137935853Y-102786900D01*
X138028985Y-102647519D01*
X138147519Y-102528985D01*
X138286900Y-102435853D01*
X138441772Y-102371703D01*
X138606184Y-102339000D01*
X138773816Y-102339000D01*
X138938228Y-102371703D01*
X138938228Y-102371703D01*
G37*
G36*
X136398228Y-102371703D02*
G01*
X136553100Y-102435853D01*
X136692481Y-102528985D01*
X136811015Y-102647519D01*
X136904147Y-102786900D01*
X136968297Y-102941772D01*
X137001000Y-103106184D01*
X137001000Y-103273816D01*
X136968297Y-103438228D01*
X136904147Y-103593100D01*
X136811015Y-103732481D01*
X136692481Y-103851015D01*
X136553100Y-103944147D01*
X136398228Y-104008297D01*
X136233816Y-104041000D01*
X136066184Y-104041000D01*
X135901772Y-104008297D01*
X135746900Y-103944147D01*
X135607519Y-103851015D01*
X135488985Y-103732481D01*
X135395853Y-103593100D01*
X135331703Y-103438228D01*
X135299000Y-103273816D01*
X135299000Y-103106184D01*
X135331703Y-102941772D01*
X135395853Y-102786900D01*
X135488985Y-102647519D01*
X135607519Y-102528985D01*
X135746900Y-102435853D01*
X135901772Y-102371703D01*
X136066184Y-102339000D01*
X136233816Y-102339000D01*
X136398228Y-102371703D01*
X136398228Y-102371703D01*
G37*
G36*
X124031552Y-101566331D02*
G01*
X124113627Y-101600328D01*
X124113629Y-101600329D01*
X124131850Y-101612504D01*
X124187495Y-101649685D01*
X124250315Y-101712505D01*
X124299672Y-101786373D01*
X124333669Y-101868448D01*
X124351000Y-101955579D01*
X124351000Y-102044421D01*
X124333669Y-102131552D01*
X124299672Y-102213627D01*
X124250315Y-102287495D01*
X124187495Y-102350315D01*
X124155486Y-102371703D01*
X124113629Y-102399671D01*
X124113628Y-102399672D01*
X124113627Y-102399672D01*
X124031552Y-102433669D01*
X123944421Y-102451000D01*
X123855579Y-102451000D01*
X123768448Y-102433669D01*
X123686373Y-102399672D01*
X123686372Y-102399672D01*
X123686371Y-102399671D01*
X123644514Y-102371703D01*
X123612505Y-102350315D01*
X123549685Y-102287495D01*
X123500328Y-102213627D01*
X123466331Y-102131552D01*
X123449000Y-102044421D01*
X123449000Y-101955579D01*
X123466331Y-101868448D01*
X123500328Y-101786373D01*
X123549685Y-101712505D01*
X123612505Y-101649685D01*
X123668150Y-101612504D01*
X123686371Y-101600329D01*
X123686373Y-101600328D01*
X123768448Y-101566331D01*
X123855579Y-101549000D01*
X123944421Y-101549000D01*
X124031552Y-101566331D01*
X124031552Y-101566331D01*
G37*
G36*
X120881552Y-101466331D02*
G01*
X120963627Y-101500328D01*
X120963629Y-101500329D01*
X121000813Y-101525175D01*
X121037495Y-101549685D01*
X121100315Y-101612505D01*
X121149672Y-101686373D01*
X121183669Y-101768448D01*
X121201000Y-101855579D01*
X121201000Y-101944421D01*
X121183669Y-102031552D01*
X121178338Y-102044421D01*
X121149671Y-102113629D01*
X121100314Y-102187496D01*
X121037496Y-102250314D01*
X120963629Y-102299671D01*
X120963628Y-102299672D01*
X120963627Y-102299672D01*
X120881552Y-102333669D01*
X120794421Y-102351000D01*
X120705579Y-102351000D01*
X120618448Y-102333669D01*
X120536373Y-102299672D01*
X120536372Y-102299672D01*
X120536371Y-102299671D01*
X120462504Y-102250314D01*
X120399686Y-102187496D01*
X120350329Y-102113629D01*
X120321662Y-102044421D01*
X120316331Y-102031552D01*
X120299000Y-101944421D01*
X120299000Y-101855579D01*
X120316331Y-101768448D01*
X120350328Y-101686373D01*
X120399685Y-101612505D01*
X120462505Y-101549685D01*
X120499187Y-101525175D01*
X120536371Y-101500329D01*
X120536373Y-101500328D01*
X120618448Y-101466331D01*
X120705579Y-101449000D01*
X120794421Y-101449000D01*
X120881552Y-101466331D01*
X120881552Y-101466331D01*
G37*
G36*
X85760442Y-93895518D02*
G01*
X85826627Y-93902037D01*
X85996466Y-93953557D01*
X86152991Y-94037222D01*
X86188729Y-94066552D01*
X86290186Y-94149814D01*
X86373448Y-94251271D01*
X86402778Y-94287009D01*
X86486443Y-94443534D01*
X86537963Y-94613373D01*
X86555359Y-94790000D01*
X86537963Y-94966627D01*
X86486443Y-95136466D01*
X86402778Y-95292991D01*
X86373448Y-95328729D01*
X86290186Y-95430186D01*
X86188729Y-95513448D01*
X86152991Y-95542778D01*
X85996466Y-95626443D01*
X85826627Y-95677963D01*
X85760442Y-95684482D01*
X85694260Y-95691000D01*
X85605740Y-95691000D01*
X85539558Y-95684482D01*
X85473373Y-95677963D01*
X85303534Y-95626443D01*
X85147009Y-95542778D01*
X85111271Y-95513448D01*
X85009814Y-95430186D01*
X84926552Y-95328729D01*
X84897222Y-95292991D01*
X84813557Y-95136466D01*
X84762037Y-94966627D01*
X84744641Y-94790000D01*
X84762037Y-94613373D01*
X84813557Y-94443534D01*
X84897222Y-94287009D01*
X84926552Y-94251271D01*
X85009814Y-94149814D01*
X85111271Y-94066552D01*
X85147009Y-94037222D01*
X85303534Y-93953557D01*
X85473373Y-93902037D01*
X85539558Y-93895518D01*
X85605740Y-93889000D01*
X85694260Y-93889000D01*
X85760442Y-93895518D01*
X85760442Y-93895518D01*
G37*
G36*
X86551000Y-93151000D02*
G01*
X84749000Y-93151000D01*
X84749000Y-91349000D01*
X86551000Y-91349000D01*
X86551000Y-93151000D01*
X86551000Y-93151000D01*
G37*
G36*
X111860442Y-91135518D02*
G01*
X111926627Y-91142037D01*
X112096466Y-91193557D01*
X112252991Y-91277222D01*
X112288729Y-91306552D01*
X112390186Y-91389814D01*
X112473448Y-91491271D01*
X112502778Y-91527009D01*
X112586443Y-91683534D01*
X112637963Y-91853373D01*
X112655359Y-92030000D01*
X112637963Y-92206627D01*
X112586443Y-92376466D01*
X112502778Y-92532991D01*
X112473448Y-92568729D01*
X112390186Y-92670186D01*
X112288729Y-92753448D01*
X112252991Y-92782778D01*
X112096466Y-92866443D01*
X111926627Y-92917963D01*
X111860443Y-92924481D01*
X111794260Y-92931000D01*
X111705740Y-92931000D01*
X111639557Y-92924481D01*
X111573373Y-92917963D01*
X111403534Y-92866443D01*
X111247009Y-92782778D01*
X111211271Y-92753448D01*
X111109814Y-92670186D01*
X111026552Y-92568729D01*
X110997222Y-92532991D01*
X110913557Y-92376466D01*
X110862037Y-92206627D01*
X110844641Y-92030000D01*
X110862037Y-91853373D01*
X110913557Y-91683534D01*
X110997222Y-91527009D01*
X111026552Y-91491271D01*
X111109814Y-91389814D01*
X111211271Y-91306552D01*
X111247009Y-91277222D01*
X111403534Y-91193557D01*
X111573373Y-91142037D01*
X111639558Y-91135518D01*
X111705740Y-91129000D01*
X111794260Y-91129000D01*
X111860442Y-91135518D01*
X111860442Y-91135518D01*
G37*
G36*
X111860443Y-88595519D02*
G01*
X111926627Y-88602037D01*
X112096466Y-88653557D01*
X112252991Y-88737222D01*
X112288729Y-88766552D01*
X112390186Y-88849814D01*
X112473448Y-88951271D01*
X112502778Y-88987009D01*
X112586443Y-89143534D01*
X112637963Y-89313373D01*
X112655359Y-89490000D01*
X112637963Y-89666627D01*
X112586443Y-89836466D01*
X112502778Y-89992991D01*
X112473448Y-90028729D01*
X112390186Y-90130186D01*
X112288729Y-90213448D01*
X112252991Y-90242778D01*
X112096466Y-90326443D01*
X111926627Y-90377963D01*
X111860443Y-90384481D01*
X111794260Y-90391000D01*
X111705740Y-90391000D01*
X111639557Y-90384481D01*
X111573373Y-90377963D01*
X111403534Y-90326443D01*
X111247009Y-90242778D01*
X111211271Y-90213448D01*
X111109814Y-90130186D01*
X111026552Y-90028729D01*
X110997222Y-89992991D01*
X110913557Y-89836466D01*
X110862037Y-89666627D01*
X110844641Y-89490000D01*
X110862037Y-89313373D01*
X110913557Y-89143534D01*
X110997222Y-88987009D01*
X111026552Y-88951271D01*
X111109814Y-88849814D01*
X111211271Y-88766552D01*
X111247009Y-88737222D01*
X111403534Y-88653557D01*
X111573373Y-88602037D01*
X111639557Y-88595519D01*
X111705740Y-88589000D01*
X111794260Y-88589000D01*
X111860443Y-88595519D01*
X111860443Y-88595519D01*
G37*
G36*
X136398228Y-87131703D02*
G01*
X136553100Y-87195853D01*
X136692481Y-87288985D01*
X136811015Y-87407519D01*
X136904147Y-87546900D01*
X136968297Y-87701772D01*
X137001000Y-87866184D01*
X137001000Y-88033816D01*
X136968297Y-88198228D01*
X136904147Y-88353100D01*
X136811015Y-88492481D01*
X136692481Y-88611015D01*
X136553100Y-88704147D01*
X136398228Y-88768297D01*
X136233816Y-88801000D01*
X136066184Y-88801000D01*
X135901772Y-88768297D01*
X135746900Y-88704147D01*
X135607519Y-88611015D01*
X135488985Y-88492481D01*
X135395853Y-88353100D01*
X135331703Y-88198228D01*
X135299000Y-88033816D01*
X135299000Y-87866184D01*
X135331703Y-87701772D01*
X135395853Y-87546900D01*
X135488985Y-87407519D01*
X135607519Y-87288985D01*
X135746900Y-87195853D01*
X135901772Y-87131703D01*
X136066184Y-87099000D01*
X136233816Y-87099000D01*
X136398228Y-87131703D01*
X136398228Y-87131703D01*
G37*
G36*
X133858228Y-87131703D02*
G01*
X134013100Y-87195853D01*
X134152481Y-87288985D01*
X134271015Y-87407519D01*
X134364147Y-87546900D01*
X134428297Y-87701772D01*
X134461000Y-87866184D01*
X134461000Y-88033816D01*
X134428297Y-88198228D01*
X134364147Y-88353100D01*
X134271015Y-88492481D01*
X134152481Y-88611015D01*
X134013100Y-88704147D01*
X133858228Y-88768297D01*
X133693816Y-88801000D01*
X133526184Y-88801000D01*
X133361772Y-88768297D01*
X133206900Y-88704147D01*
X133067519Y-88611015D01*
X132948985Y-88492481D01*
X132855853Y-88353100D01*
X132791703Y-88198228D01*
X132759000Y-88033816D01*
X132759000Y-87866184D01*
X132791703Y-87701772D01*
X132855853Y-87546900D01*
X132948985Y-87407519D01*
X133067519Y-87288985D01*
X133206900Y-87195853D01*
X133361772Y-87131703D01*
X133526184Y-87099000D01*
X133693816Y-87099000D01*
X133858228Y-87131703D01*
X133858228Y-87131703D01*
G37*
G36*
X138938228Y-87131703D02*
G01*
X139093100Y-87195853D01*
X139232481Y-87288985D01*
X139351015Y-87407519D01*
X139444147Y-87546900D01*
X139508297Y-87701772D01*
X139541000Y-87866184D01*
X139541000Y-88033816D01*
X139508297Y-88198228D01*
X139444147Y-88353100D01*
X139351015Y-88492481D01*
X139232481Y-88611015D01*
X139093100Y-88704147D01*
X138938228Y-88768297D01*
X138773816Y-88801000D01*
X138606184Y-88801000D01*
X138441772Y-88768297D01*
X138286900Y-88704147D01*
X138147519Y-88611015D01*
X138028985Y-88492481D01*
X137935853Y-88353100D01*
X137871703Y-88198228D01*
X137839000Y-88033816D01*
X137839000Y-87866184D01*
X137871703Y-87701772D01*
X137935853Y-87546900D01*
X138028985Y-87407519D01*
X138147519Y-87288985D01*
X138286900Y-87195853D01*
X138441772Y-87131703D01*
X138606184Y-87099000D01*
X138773816Y-87099000D01*
X138938228Y-87131703D01*
X138938228Y-87131703D01*
G37*
G36*
X141478228Y-87131703D02*
G01*
X141633100Y-87195853D01*
X141772481Y-87288985D01*
X141891015Y-87407519D01*
X141984147Y-87546900D01*
X142048297Y-87701772D01*
X142081000Y-87866184D01*
X142081000Y-88033816D01*
X142048297Y-88198228D01*
X141984147Y-88353100D01*
X141891015Y-88492481D01*
X141772481Y-88611015D01*
X141633100Y-88704147D01*
X141478228Y-88768297D01*
X141313816Y-88801000D01*
X141146184Y-88801000D01*
X140981772Y-88768297D01*
X140826900Y-88704147D01*
X140687519Y-88611015D01*
X140568985Y-88492481D01*
X140475853Y-88353100D01*
X140411703Y-88198228D01*
X140379000Y-88033816D01*
X140379000Y-87866184D01*
X140411703Y-87701772D01*
X140475853Y-87546900D01*
X140568985Y-87407519D01*
X140687519Y-87288985D01*
X140826900Y-87195853D01*
X140981772Y-87131703D01*
X141146184Y-87099000D01*
X141313816Y-87099000D01*
X141478228Y-87131703D01*
X141478228Y-87131703D01*
G37*
G36*
X144018228Y-87131703D02*
G01*
X144173100Y-87195853D01*
X144312481Y-87288985D01*
X144431015Y-87407519D01*
X144524147Y-87546900D01*
X144588297Y-87701772D01*
X144621000Y-87866184D01*
X144621000Y-88033816D01*
X144588297Y-88198228D01*
X144524147Y-88353100D01*
X144431015Y-88492481D01*
X144312481Y-88611015D01*
X144173100Y-88704147D01*
X144018228Y-88768297D01*
X143853816Y-88801000D01*
X143686184Y-88801000D01*
X143521772Y-88768297D01*
X143366900Y-88704147D01*
X143227519Y-88611015D01*
X143108985Y-88492481D01*
X143015853Y-88353100D01*
X142951703Y-88198228D01*
X142919000Y-88033816D01*
X142919000Y-87866184D01*
X142951703Y-87701772D01*
X143015853Y-87546900D01*
X143108985Y-87407519D01*
X143227519Y-87288985D01*
X143366900Y-87195853D01*
X143521772Y-87131703D01*
X143686184Y-87099000D01*
X143853816Y-87099000D01*
X144018228Y-87131703D01*
X144018228Y-87131703D01*
G37*
G36*
X146558228Y-87131703D02*
G01*
X146713100Y-87195853D01*
X146852481Y-87288985D01*
X146971015Y-87407519D01*
X147064147Y-87546900D01*
X147128297Y-87701772D01*
X147161000Y-87866184D01*
X147161000Y-88033816D01*
X147128297Y-88198228D01*
X147064147Y-88353100D01*
X146971015Y-88492481D01*
X146852481Y-88611015D01*
X146713100Y-88704147D01*
X146558228Y-88768297D01*
X146393816Y-88801000D01*
X146226184Y-88801000D01*
X146061772Y-88768297D01*
X145906900Y-88704147D01*
X145767519Y-88611015D01*
X145648985Y-88492481D01*
X145555853Y-88353100D01*
X145491703Y-88198228D01*
X145459000Y-88033816D01*
X145459000Y-87866184D01*
X145491703Y-87701772D01*
X145555853Y-87546900D01*
X145648985Y-87407519D01*
X145767519Y-87288985D01*
X145906900Y-87195853D01*
X146061772Y-87131703D01*
X146226184Y-87099000D01*
X146393816Y-87099000D01*
X146558228Y-87131703D01*
X146558228Y-87131703D01*
G37*
G36*
X149098228Y-87131703D02*
G01*
X149253100Y-87195853D01*
X149392481Y-87288985D01*
X149511015Y-87407519D01*
X149604147Y-87546900D01*
X149668297Y-87701772D01*
X149701000Y-87866184D01*
X149701000Y-88033816D01*
X149668297Y-88198228D01*
X149604147Y-88353100D01*
X149511015Y-88492481D01*
X149392481Y-88611015D01*
X149253100Y-88704147D01*
X149098228Y-88768297D01*
X148933816Y-88801000D01*
X148766184Y-88801000D01*
X148601772Y-88768297D01*
X148446900Y-88704147D01*
X148307519Y-88611015D01*
X148188985Y-88492481D01*
X148095853Y-88353100D01*
X148031703Y-88198228D01*
X147999000Y-88033816D01*
X147999000Y-87866184D01*
X148031703Y-87701772D01*
X148095853Y-87546900D01*
X148188985Y-87407519D01*
X148307519Y-87288985D01*
X148446900Y-87195853D01*
X148601772Y-87131703D01*
X148766184Y-87099000D01*
X148933816Y-87099000D01*
X149098228Y-87131703D01*
X149098228Y-87131703D01*
G37*
G36*
X151638228Y-87131703D02*
G01*
X151793100Y-87195853D01*
X151932481Y-87288985D01*
X152051015Y-87407519D01*
X152144147Y-87546900D01*
X152208297Y-87701772D01*
X152241000Y-87866184D01*
X152241000Y-88033816D01*
X152208297Y-88198228D01*
X152144147Y-88353100D01*
X152051015Y-88492481D01*
X151932481Y-88611015D01*
X151793100Y-88704147D01*
X151638228Y-88768297D01*
X151473816Y-88801000D01*
X151306184Y-88801000D01*
X151141772Y-88768297D01*
X150986900Y-88704147D01*
X150847519Y-88611015D01*
X150728985Y-88492481D01*
X150635853Y-88353100D01*
X150571703Y-88198228D01*
X150539000Y-88033816D01*
X150539000Y-87866184D01*
X150571703Y-87701772D01*
X150635853Y-87546900D01*
X150728985Y-87407519D01*
X150847519Y-87288985D01*
X150986900Y-87195853D01*
X151141772Y-87131703D01*
X151306184Y-87099000D01*
X151473816Y-87099000D01*
X151638228Y-87131703D01*
X151638228Y-87131703D01*
G37*
G36*
X154178228Y-87131703D02*
G01*
X154333100Y-87195853D01*
X154472481Y-87288985D01*
X154591015Y-87407519D01*
X154684147Y-87546900D01*
X154748297Y-87701772D01*
X154781000Y-87866184D01*
X154781000Y-88033816D01*
X154748297Y-88198228D01*
X154684147Y-88353100D01*
X154591015Y-88492481D01*
X154472481Y-88611015D01*
X154333100Y-88704147D01*
X154178228Y-88768297D01*
X154013816Y-88801000D01*
X153846184Y-88801000D01*
X153681772Y-88768297D01*
X153526900Y-88704147D01*
X153387519Y-88611015D01*
X153268985Y-88492481D01*
X153175853Y-88353100D01*
X153111703Y-88198228D01*
X153079000Y-88033816D01*
X153079000Y-87866184D01*
X153111703Y-87701772D01*
X153175853Y-87546900D01*
X153268985Y-87407519D01*
X153387519Y-87288985D01*
X153526900Y-87195853D01*
X153681772Y-87131703D01*
X153846184Y-87099000D01*
X154013816Y-87099000D01*
X154178228Y-87131703D01*
X154178228Y-87131703D01*
G37*
G36*
X156718228Y-87131703D02*
G01*
X156873100Y-87195853D01*
X157012481Y-87288985D01*
X157131015Y-87407519D01*
X157224147Y-87546900D01*
X157288297Y-87701772D01*
X157321000Y-87866184D01*
X157321000Y-88033816D01*
X157288297Y-88198228D01*
X157224147Y-88353100D01*
X157131015Y-88492481D01*
X157012481Y-88611015D01*
X156873100Y-88704147D01*
X156718228Y-88768297D01*
X156553816Y-88801000D01*
X156386184Y-88801000D01*
X156221772Y-88768297D01*
X156066900Y-88704147D01*
X155927519Y-88611015D01*
X155808985Y-88492481D01*
X155715853Y-88353100D01*
X155651703Y-88198228D01*
X155619000Y-88033816D01*
X155619000Y-87866184D01*
X155651703Y-87701772D01*
X155715853Y-87546900D01*
X155808985Y-87407519D01*
X155927519Y-87288985D01*
X156066900Y-87195853D01*
X156221772Y-87131703D01*
X156386184Y-87099000D01*
X156553816Y-87099000D01*
X156718228Y-87131703D01*
X156718228Y-87131703D01*
G37*
G36*
X159258228Y-87131703D02*
G01*
X159413100Y-87195853D01*
X159552481Y-87288985D01*
X159671015Y-87407519D01*
X159764147Y-87546900D01*
X159828297Y-87701772D01*
X159861000Y-87866184D01*
X159861000Y-88033816D01*
X159828297Y-88198228D01*
X159764147Y-88353100D01*
X159671015Y-88492481D01*
X159552481Y-88611015D01*
X159413100Y-88704147D01*
X159258228Y-88768297D01*
X159093816Y-88801000D01*
X158926184Y-88801000D01*
X158761772Y-88768297D01*
X158606900Y-88704147D01*
X158467519Y-88611015D01*
X158348985Y-88492481D01*
X158255853Y-88353100D01*
X158191703Y-88198228D01*
X158159000Y-88033816D01*
X158159000Y-87866184D01*
X158191703Y-87701772D01*
X158255853Y-87546900D01*
X158348985Y-87407519D01*
X158467519Y-87288985D01*
X158606900Y-87195853D01*
X158761772Y-87131703D01*
X158926184Y-87099000D01*
X159093816Y-87099000D01*
X159258228Y-87131703D01*
X159258228Y-87131703D01*
G37*
G36*
X164941000Y-88801000D02*
G01*
X163239000Y-88801000D01*
X163239000Y-87099000D01*
X164941000Y-87099000D01*
X164941000Y-88801000D01*
X164941000Y-88801000D01*
G37*
G36*
X161798228Y-87131703D02*
G01*
X161953100Y-87195853D01*
X162092481Y-87288985D01*
X162211015Y-87407519D01*
X162304147Y-87546900D01*
X162368297Y-87701772D01*
X162401000Y-87866184D01*
X162401000Y-88033816D01*
X162368297Y-88198228D01*
X162304147Y-88353100D01*
X162211015Y-88492481D01*
X162092481Y-88611015D01*
X161953100Y-88704147D01*
X161798228Y-88768297D01*
X161633816Y-88801000D01*
X161466184Y-88801000D01*
X161301772Y-88768297D01*
X161146900Y-88704147D01*
X161007519Y-88611015D01*
X160888985Y-88492481D01*
X160795853Y-88353100D01*
X160731703Y-88198228D01*
X160699000Y-88033816D01*
X160699000Y-87866184D01*
X160731703Y-87701772D01*
X160795853Y-87546900D01*
X160888985Y-87407519D01*
X161007519Y-87288985D01*
X161146900Y-87195853D01*
X161301772Y-87131703D01*
X161466184Y-87099000D01*
X161633816Y-87099000D01*
X161798228Y-87131703D01*
X161798228Y-87131703D01*
G37*
G36*
X131318228Y-87131703D02*
G01*
X131473100Y-87195853D01*
X131612481Y-87288985D01*
X131731015Y-87407519D01*
X131824147Y-87546900D01*
X131888297Y-87701772D01*
X131921000Y-87866184D01*
X131921000Y-88033816D01*
X131888297Y-88198228D01*
X131824147Y-88353100D01*
X131731015Y-88492481D01*
X131612481Y-88611015D01*
X131473100Y-88704147D01*
X131318228Y-88768297D01*
X131153816Y-88801000D01*
X130986184Y-88801000D01*
X130821772Y-88768297D01*
X130666900Y-88704147D01*
X130527519Y-88611015D01*
X130408985Y-88492481D01*
X130315853Y-88353100D01*
X130251703Y-88198228D01*
X130219000Y-88033816D01*
X130219000Y-87866184D01*
X130251703Y-87701772D01*
X130315853Y-87546900D01*
X130408985Y-87407519D01*
X130527519Y-87288985D01*
X130666900Y-87195853D01*
X130821772Y-87131703D01*
X130986184Y-87099000D01*
X131153816Y-87099000D01*
X131318228Y-87131703D01*
X131318228Y-87131703D01*
G37*
G36*
X111860443Y-86055519D02*
G01*
X111926627Y-86062037D01*
X112096466Y-86113557D01*
X112252991Y-86197222D01*
X112288729Y-86226552D01*
X112390186Y-86309814D01*
X112473448Y-86411271D01*
X112502778Y-86447009D01*
X112586443Y-86603534D01*
X112637963Y-86773373D01*
X112655359Y-86950000D01*
X112637963Y-87126627D01*
X112586443Y-87296466D01*
X112502778Y-87452991D01*
X112473448Y-87488729D01*
X112390186Y-87590186D01*
X112288729Y-87673448D01*
X112252991Y-87702778D01*
X112096466Y-87786443D01*
X111926627Y-87837963D01*
X111860442Y-87844482D01*
X111794260Y-87851000D01*
X111705740Y-87851000D01*
X111639558Y-87844482D01*
X111573373Y-87837963D01*
X111403534Y-87786443D01*
X111247009Y-87702778D01*
X111211271Y-87673448D01*
X111109814Y-87590186D01*
X111026552Y-87488729D01*
X110997222Y-87452991D01*
X110913557Y-87296466D01*
X110862037Y-87126627D01*
X110844641Y-86950000D01*
X110862037Y-86773373D01*
X110913557Y-86603534D01*
X110997222Y-86447009D01*
X111026552Y-86411271D01*
X111109814Y-86309814D01*
X111211271Y-86226552D01*
X111247009Y-86197222D01*
X111403534Y-86113557D01*
X111573373Y-86062037D01*
X111639557Y-86055519D01*
X111705740Y-86049000D01*
X111794260Y-86049000D01*
X111860443Y-86055519D01*
X111860443Y-86055519D01*
G37*
G36*
X111860442Y-83515518D02*
G01*
X111926627Y-83522037D01*
X112096466Y-83573557D01*
X112252991Y-83657222D01*
X112288729Y-83686552D01*
X112390186Y-83769814D01*
X112473448Y-83871271D01*
X112502778Y-83907009D01*
X112586443Y-84063534D01*
X112637963Y-84233373D01*
X112655359Y-84410000D01*
X112637963Y-84586627D01*
X112586443Y-84756466D01*
X112502778Y-84912991D01*
X112473448Y-84948729D01*
X112390186Y-85050186D01*
X112288729Y-85133448D01*
X112252991Y-85162778D01*
X112096466Y-85246443D01*
X111926627Y-85297963D01*
X111860443Y-85304481D01*
X111794260Y-85311000D01*
X111705740Y-85311000D01*
X111639557Y-85304481D01*
X111573373Y-85297963D01*
X111403534Y-85246443D01*
X111247009Y-85162778D01*
X111211271Y-85133448D01*
X111109814Y-85050186D01*
X111026552Y-84948729D01*
X110997222Y-84912991D01*
X110913557Y-84756466D01*
X110862037Y-84586627D01*
X110844641Y-84410000D01*
X110862037Y-84233373D01*
X110913557Y-84063534D01*
X110997222Y-83907009D01*
X111026552Y-83871271D01*
X111109814Y-83769814D01*
X111211271Y-83686552D01*
X111247009Y-83657222D01*
X111403534Y-83573557D01*
X111573373Y-83522037D01*
X111639558Y-83515518D01*
X111705740Y-83509000D01*
X111794260Y-83509000D01*
X111860442Y-83515518D01*
X111860442Y-83515518D01*
G37*
G36*
X99845936Y-82381340D02*
G01*
X99944220Y-82391020D01*
X100133381Y-82448401D01*
X100307712Y-82541583D01*
X100460515Y-82666985D01*
X100585917Y-82819788D01*
X100679099Y-82994119D01*
X100736480Y-83183280D01*
X100755855Y-83380000D01*
X100736480Y-83576720D01*
X100679099Y-83765881D01*
X100585917Y-83940212D01*
X100460515Y-84093015D01*
X100307712Y-84218417D01*
X100133381Y-84311599D01*
X99944220Y-84368980D01*
X99845936Y-84378660D01*
X99796795Y-84383500D01*
X99603205Y-84383500D01*
X99554064Y-84378660D01*
X99455780Y-84368980D01*
X99266619Y-84311599D01*
X99092288Y-84218417D01*
X98939485Y-84093015D01*
X98814083Y-83940212D01*
X98720901Y-83765881D01*
X98663520Y-83576720D01*
X98644145Y-83380000D01*
X98663520Y-83183280D01*
X98720901Y-82994119D01*
X98814083Y-82819788D01*
X98939485Y-82666985D01*
X99092288Y-82541583D01*
X99266619Y-82448401D01*
X99455780Y-82391020D01*
X99554064Y-82381340D01*
X99603205Y-82376500D01*
X99796795Y-82376500D01*
X99845936Y-82381340D01*
X99845936Y-82381340D01*
G37*
G36*
X112651000Y-82771000D02*
G01*
X110849000Y-82771000D01*
X110849000Y-80969000D01*
X112651000Y-80969000D01*
X112651000Y-82771000D01*
X112651000Y-82771000D01*
G37*
G36*
X99806897Y-79837495D02*
G01*
X99944220Y-79851020D01*
X100133381Y-79908401D01*
X100307712Y-80001583D01*
X100460515Y-80126985D01*
X100585917Y-80279788D01*
X100679099Y-80454119D01*
X100736480Y-80643280D01*
X100755855Y-80840000D01*
X100736480Y-81036720D01*
X100679099Y-81225881D01*
X100585917Y-81400212D01*
X100460515Y-81553015D01*
X100307712Y-81678417D01*
X100133381Y-81771599D01*
X99944220Y-81828980D01*
X99845936Y-81838660D01*
X99796795Y-81843500D01*
X99603205Y-81843500D01*
X99554064Y-81838660D01*
X99455780Y-81828980D01*
X99266619Y-81771599D01*
X99092288Y-81678417D01*
X98939485Y-81553015D01*
X98814083Y-81400212D01*
X98720901Y-81225881D01*
X98663520Y-81036720D01*
X98644145Y-80840000D01*
X98663520Y-80643280D01*
X98720901Y-80454119D01*
X98814083Y-80279788D01*
X98939485Y-80126985D01*
X99092288Y-80001583D01*
X99266619Y-79908401D01*
X99455780Y-79851020D01*
X99593103Y-79837495D01*
X99603205Y-79836500D01*
X99796795Y-79836500D01*
X99806897Y-79837495D01*
X99806897Y-79837495D01*
G37*
G36*
X160031552Y-79116331D02*
G01*
X160113627Y-79150328D01*
X160113629Y-79150329D01*
X160150813Y-79175175D01*
X160187495Y-79199685D01*
X160250315Y-79262505D01*
X160299672Y-79336373D01*
X160333669Y-79418448D01*
X160351000Y-79505579D01*
X160351000Y-79594421D01*
X160333669Y-79681552D01*
X160299672Y-79763627D01*
X160299671Y-79763629D01*
X160250314Y-79837496D01*
X160187496Y-79900314D01*
X160113629Y-79949671D01*
X160113628Y-79949672D01*
X160113627Y-79949672D01*
X160031552Y-79983669D01*
X159944421Y-80001000D01*
X159855579Y-80001000D01*
X159768448Y-79983669D01*
X159686373Y-79949672D01*
X159686372Y-79949672D01*
X159686371Y-79949671D01*
X159612504Y-79900314D01*
X159549686Y-79837496D01*
X159500329Y-79763629D01*
X159500328Y-79763627D01*
X159466331Y-79681552D01*
X159449000Y-79594421D01*
X159449000Y-79505579D01*
X159466331Y-79418448D01*
X159500328Y-79336373D01*
X159549685Y-79262505D01*
X159612505Y-79199685D01*
X159649187Y-79175175D01*
X159686371Y-79150329D01*
X159686373Y-79150328D01*
X159768448Y-79116331D01*
X159855579Y-79099000D01*
X159944421Y-79099000D01*
X160031552Y-79116331D01*
X160031552Y-79116331D01*
G37*
G36*
X100751000Y-79303500D02*
G01*
X98649000Y-79303500D01*
X98649000Y-77296500D01*
X100751000Y-77296500D01*
X100751000Y-79303500D01*
X100751000Y-79303500D01*
G37*
G36*
X136631552Y-77666331D02*
G01*
X136713627Y-77700328D01*
X136713629Y-77700329D01*
X136750813Y-77725175D01*
X136787495Y-77749685D01*
X136850315Y-77812505D01*
X136899672Y-77886373D01*
X136933669Y-77968448D01*
X136951000Y-78055579D01*
X136951000Y-78144421D01*
X136933669Y-78231552D01*
X136899672Y-78313627D01*
X136899671Y-78313629D01*
X136850314Y-78387496D01*
X136787496Y-78450314D01*
X136713629Y-78499671D01*
X136713628Y-78499672D01*
X136713627Y-78499672D01*
X136631552Y-78533669D01*
X136544421Y-78551000D01*
X136455579Y-78551000D01*
X136368448Y-78533669D01*
X136286373Y-78499672D01*
X136286372Y-78499672D01*
X136286371Y-78499671D01*
X136212504Y-78450314D01*
X136149686Y-78387496D01*
X136100329Y-78313629D01*
X136100328Y-78313627D01*
X136066331Y-78231552D01*
X136049000Y-78144421D01*
X136049000Y-78055579D01*
X136066331Y-77968448D01*
X136100328Y-77886373D01*
X136149685Y-77812505D01*
X136212505Y-77749685D01*
X136249187Y-77725175D01*
X136286371Y-77700329D01*
X136286373Y-77700328D01*
X136368448Y-77666331D01*
X136455579Y-77649000D01*
X136544421Y-77649000D01*
X136631552Y-77666331D01*
X136631552Y-77666331D01*
G37*
G36*
X95081552Y-73366331D02*
G01*
X95163627Y-73400328D01*
X95163629Y-73400329D01*
X95200813Y-73425175D01*
X95237495Y-73449685D01*
X95300315Y-73512505D01*
X95349672Y-73586373D01*
X95383669Y-73668448D01*
X95401000Y-73755579D01*
X95401000Y-73844421D01*
X95383669Y-73931552D01*
X95349672Y-74013627D01*
X95349671Y-74013629D01*
X95300314Y-74087496D01*
X95237496Y-74150314D01*
X95163629Y-74199671D01*
X95163628Y-74199672D01*
X95163627Y-74199672D01*
X95081552Y-74233669D01*
X94994421Y-74251000D01*
X94905579Y-74251000D01*
X94818448Y-74233669D01*
X94736373Y-74199672D01*
X94736372Y-74199672D01*
X94736371Y-74199671D01*
X94662504Y-74150314D01*
X94599686Y-74087496D01*
X94550329Y-74013629D01*
X94550328Y-74013627D01*
X94516331Y-73931552D01*
X94499000Y-73844421D01*
X94499000Y-73755579D01*
X94516331Y-73668448D01*
X94550328Y-73586373D01*
X94599685Y-73512505D01*
X94662505Y-73449685D01*
X94699187Y-73425175D01*
X94736371Y-73400329D01*
X94736373Y-73400328D01*
X94818448Y-73366331D01*
X94905579Y-73349000D01*
X94994421Y-73349000D01*
X95081552Y-73366331D01*
X95081552Y-73366331D01*
G37*
G36*
X165254501Y-65572054D02*
G01*
X165600461Y-65715356D01*
X165911817Y-65923397D01*
X166176603Y-66188183D01*
X166384644Y-66499539D01*
X166527946Y-66845499D01*
X166601000Y-67212768D01*
X166601000Y-67587232D01*
X166527946Y-67954501D01*
X166384644Y-68300461D01*
X166176603Y-68611817D01*
X165911817Y-68876603D01*
X165600461Y-69084644D01*
X165254501Y-69227946D01*
X165070866Y-69264473D01*
X164887233Y-69301000D01*
X164512767Y-69301000D01*
X164329134Y-69264473D01*
X164145499Y-69227946D01*
X163799539Y-69084644D01*
X163488183Y-68876603D01*
X163223397Y-68611817D01*
X163015356Y-68300461D01*
X162872054Y-67954501D01*
X162799000Y-67587232D01*
X162799000Y-67212768D01*
X162872054Y-66845499D01*
X163015356Y-66499539D01*
X163223397Y-66188183D01*
X163488183Y-65923397D01*
X163799539Y-65715356D01*
X164145499Y-65572054D01*
X164512767Y-65499000D01*
X164887233Y-65499000D01*
X165254501Y-65572054D01*
X165254501Y-65572054D01*
G37*
G36*
X85154501Y-65572054D02*
G01*
X85500461Y-65715356D01*
X85811817Y-65923397D01*
X86076603Y-66188183D01*
X86284644Y-66499539D01*
X86427946Y-66845499D01*
X86501000Y-67212768D01*
X86501000Y-67587232D01*
X86427946Y-67954501D01*
X86284644Y-68300461D01*
X86076603Y-68611817D01*
X85811817Y-68876603D01*
X85500461Y-69084644D01*
X85154501Y-69227946D01*
X84970866Y-69264473D01*
X84787233Y-69301000D01*
X84412767Y-69301000D01*
X84229134Y-69264473D01*
X84045499Y-69227946D01*
X83699539Y-69084644D01*
X83388183Y-68876603D01*
X83123397Y-68611817D01*
X82915356Y-68300461D01*
X82772054Y-67954501D01*
X82699000Y-67587232D01*
X82699000Y-67212768D01*
X82772054Y-66845499D01*
X82915356Y-66499539D01*
X83123397Y-66188183D01*
X83388183Y-65923397D01*
X83699539Y-65715356D01*
X84045499Y-65572054D01*
X84412767Y-65499000D01*
X84787233Y-65499000D01*
X85154501Y-65572054D01*
X85154501Y-65572054D01*
G37*
M02*
