G04 #@! TF.GenerationSoftware,KiCad,Pcbnew,(5.1.4-0-10_14)*
G04 #@! TF.CreationDate,2020-04-29T08:22:51-04:00*
G04 #@! TF.ProjectId,load_cell,6c6f6164-5f63-4656-9c6c-2e6b69636164,rev?*
G04 #@! TF.SameCoordinates,Original*
G04 #@! TF.FileFunction,Legend,Top*
G04 #@! TF.FilePolarity,Positive*
%FSLAX46Y46*%
G04 Gerber Fmt 4.6, Leading zero omitted, Abs format (unit mm)*
G04 Created by KiCad (PCBNEW (5.1.4-0-10_14)) date 2020-04-29 08:22:51*
%MOMM*%
%LPD*%
G04 APERTURE LIST*
%ADD10C,0.300000*%
%ADD11C,0.120000*%
%ADD12C,0.150000*%
%ADD13C,0.100000*%
%ADD14C,0.254000*%
G04 APERTURE END LIST*
D10*
X85628571Y-97457142D02*
X86771428Y-97457142D01*
D11*
X99150000Y-115850000D02*
X99150000Y-116750000D01*
X99150000Y-116750000D02*
X101050000Y-116750000D01*
X101050000Y-115850000D02*
X99150000Y-115850000D01*
X101050000Y-116750000D02*
X101050000Y-115850000D01*
X93650000Y-101450000D02*
X93650000Y-102350000D01*
X93650000Y-102350000D02*
X95550000Y-102350000D01*
X95550000Y-101450000D02*
X93650000Y-101450000D01*
X95550000Y-102350000D02*
X95550000Y-101450000D01*
X110250000Y-86000000D02*
X109350000Y-86000000D01*
X109350000Y-86000000D02*
X109350000Y-87900000D01*
X110250000Y-87900000D02*
X110250000Y-86000000D01*
X109350000Y-87900000D02*
X110250000Y-87900000D01*
X83950000Y-92350000D02*
X83050000Y-92350000D01*
X83950000Y-94250000D02*
X83950000Y-92350000D01*
X83050000Y-94250000D02*
X83950000Y-94250000D01*
X83050000Y-92350000D02*
X83050000Y-94250000D01*
D12*
X104914285Y-68102380D02*
X104438095Y-68102380D01*
X104438095Y-67102380D01*
X105438095Y-67102380D02*
X105628571Y-67102380D01*
X105723809Y-67150000D01*
X105819047Y-67245238D01*
X105866666Y-67435714D01*
X105866666Y-67769047D01*
X105819047Y-67959523D01*
X105723809Y-68054761D01*
X105628571Y-68102380D01*
X105438095Y-68102380D01*
X105342857Y-68054761D01*
X105247619Y-67959523D01*
X105200000Y-67769047D01*
X105200000Y-67435714D01*
X105247619Y-67245238D01*
X105342857Y-67150000D01*
X105438095Y-67102380D01*
X106247619Y-67816666D02*
X106723809Y-67816666D01*
X106152380Y-68102380D02*
X106485714Y-67102380D01*
X106819047Y-68102380D01*
X107152380Y-68102380D02*
X107152380Y-67102380D01*
X107390476Y-67102380D01*
X107533333Y-67150000D01*
X107628571Y-67245238D01*
X107676190Y-67340476D01*
X107723809Y-67530952D01*
X107723809Y-67673809D01*
X107676190Y-67864285D01*
X107628571Y-67959523D01*
X107533333Y-68054761D01*
X107390476Y-68102380D01*
X107152380Y-68102380D01*
X107914285Y-68197619D02*
X108676190Y-68197619D01*
X109485714Y-68007142D02*
X109438095Y-68054761D01*
X109295238Y-68102380D01*
X109200000Y-68102380D01*
X109057142Y-68054761D01*
X108961904Y-67959523D01*
X108914285Y-67864285D01*
X108866666Y-67673809D01*
X108866666Y-67530952D01*
X108914285Y-67340476D01*
X108961904Y-67245238D01*
X109057142Y-67150000D01*
X109200000Y-67102380D01*
X109295238Y-67102380D01*
X109438095Y-67150000D01*
X109485714Y-67197619D01*
X109914285Y-67578571D02*
X110247619Y-67578571D01*
X110390476Y-68102380D02*
X109914285Y-68102380D01*
X109914285Y-67102380D01*
X110390476Y-67102380D01*
X111295238Y-68102380D02*
X110819047Y-68102380D01*
X110819047Y-67102380D01*
X112104761Y-68102380D02*
X111628571Y-68102380D01*
X111628571Y-67102380D01*
X113057142Y-67102380D02*
X113390476Y-68102380D01*
X113723809Y-67102380D01*
X114009523Y-67197619D02*
X114057142Y-67150000D01*
X114152380Y-67102380D01*
X114390476Y-67102380D01*
X114485714Y-67150000D01*
X114533333Y-67197619D01*
X114580952Y-67292857D01*
X114580952Y-67388095D01*
X114533333Y-67530952D01*
X113961904Y-68102380D01*
X114580952Y-68102380D01*
X115009523Y-68007142D02*
X115057142Y-68054761D01*
X115009523Y-68102380D01*
X114961904Y-68054761D01*
X115009523Y-68007142D01*
X115009523Y-68102380D01*
X115676190Y-67102380D02*
X115771428Y-67102380D01*
X115866666Y-67150000D01*
X115914285Y-67197619D01*
X115961904Y-67292857D01*
X116009523Y-67483333D01*
X116009523Y-67721428D01*
X115961904Y-67911904D01*
X115914285Y-68007142D01*
X115866666Y-68054761D01*
X115771428Y-68102380D01*
X115676190Y-68102380D01*
X115580952Y-68054761D01*
X115533333Y-68007142D01*
X115485714Y-67911904D01*
X115438095Y-67721428D01*
X115438095Y-67483333D01*
X115485714Y-67292857D01*
X115533333Y-67197619D01*
X115580952Y-67150000D01*
X115676190Y-67102380D01*
D10*
X144566666Y-69454761D02*
X144566666Y-67454761D01*
X144566666Y-68407142D02*
X145709523Y-68407142D01*
X145709523Y-69454761D02*
X145709523Y-67454761D01*
X147328571Y-68407142D02*
X147614285Y-68502380D01*
X147709523Y-68597619D01*
X147804761Y-68788095D01*
X147804761Y-69073809D01*
X147709523Y-69264285D01*
X147614285Y-69359523D01*
X147423809Y-69454761D01*
X146661904Y-69454761D01*
X146661904Y-67454761D01*
X147328571Y-67454761D01*
X147519047Y-67550000D01*
X147614285Y-67645238D01*
X147709523Y-67835714D01*
X147709523Y-68026190D01*
X147614285Y-68216666D01*
X147519047Y-68311904D01*
X147328571Y-68407142D01*
X146661904Y-68407142D01*
X148376190Y-67454761D02*
X149519047Y-67454761D01*
X148947619Y-69454761D02*
X148947619Y-67454761D01*
X136583333Y-69354761D02*
X136583333Y-67354761D01*
X137345238Y-67354761D01*
X137535714Y-67450000D01*
X137630952Y-67545238D01*
X137726190Y-67735714D01*
X137726190Y-68021428D01*
X137630952Y-68211904D01*
X137535714Y-68307142D01*
X137345238Y-68402380D01*
X136583333Y-68402380D01*
X138392857Y-67354761D02*
X138869047Y-69354761D01*
X139250000Y-67926190D01*
X139630952Y-69354761D01*
X140107142Y-67354761D01*
X142011904Y-69354761D02*
X141345238Y-68402380D01*
X140869047Y-69354761D02*
X140869047Y-67354761D01*
X141630952Y-67354761D01*
X141821428Y-67450000D01*
X141916666Y-67545238D01*
X142011904Y-67735714D01*
X142011904Y-68021428D01*
X141916666Y-68211904D01*
X141821428Y-68307142D01*
X141630952Y-68402380D01*
X140869047Y-68402380D01*
D12*
X104447619Y-119171428D02*
X105209523Y-119171428D01*
X104828571Y-119552380D02*
X104828571Y-118790476D01*
X105590476Y-118552380D02*
X106209523Y-118552380D01*
X105876190Y-118933333D01*
X106019047Y-118933333D01*
X106114285Y-118980952D01*
X106161904Y-119028571D01*
X106209523Y-119123809D01*
X106209523Y-119361904D01*
X106161904Y-119457142D01*
X106114285Y-119504761D01*
X106019047Y-119552380D01*
X105733333Y-119552380D01*
X105638095Y-119504761D01*
X105590476Y-119457142D01*
X106638095Y-119457142D02*
X106685714Y-119504761D01*
X106638095Y-119552380D01*
X106590476Y-119504761D01*
X106638095Y-119457142D01*
X106638095Y-119552380D01*
X107019047Y-118552380D02*
X107638095Y-118552380D01*
X107304761Y-118933333D01*
X107447619Y-118933333D01*
X107542857Y-118980952D01*
X107590476Y-119028571D01*
X107638095Y-119123809D01*
X107638095Y-119361904D01*
X107590476Y-119457142D01*
X107542857Y-119504761D01*
X107447619Y-119552380D01*
X107161904Y-119552380D01*
X107066666Y-119504761D01*
X107019047Y-119457142D01*
X107971428Y-118885714D02*
X108209523Y-119552380D01*
X108447619Y-118885714D01*
X113659523Y-93452380D02*
X113992857Y-94452380D01*
X114326190Y-93452380D01*
X115088095Y-94404761D02*
X114992857Y-94452380D01*
X114802380Y-94452380D01*
X114707142Y-94404761D01*
X114659523Y-94357142D01*
X114611904Y-94261904D01*
X114611904Y-93976190D01*
X114659523Y-93880952D01*
X114707142Y-93833333D01*
X114802380Y-93785714D01*
X114992857Y-93785714D01*
X115088095Y-93833333D01*
X115945238Y-94404761D02*
X115850000Y-94452380D01*
X115659523Y-94452380D01*
X115564285Y-94404761D01*
X115516666Y-94357142D01*
X115469047Y-94261904D01*
X115469047Y-93976190D01*
X115516666Y-93880952D01*
X115564285Y-93833333D01*
X115659523Y-93785714D01*
X115850000Y-93785714D01*
X115945238Y-93833333D01*
D10*
X85578571Y-89507142D02*
X86721428Y-89507142D01*
X86150000Y-90078571D02*
X86150000Y-88935714D01*
D12*
X147972800Y-121428000D02*
X147972800Y-122494800D01*
X151224000Y-121428000D02*
X147972800Y-121428000D01*
X151224000Y-122342400D02*
X151224000Y-121428000D01*
D11*
X157777200Y-122494800D02*
X157770000Y-117929200D01*
X141130000Y-122486600D02*
X141130000Y-117929200D01*
X141130000Y-122486600D02*
X157770000Y-122486600D01*
X157777200Y-110912400D02*
X157770000Y-115429200D01*
X141114800Y-110912400D02*
X141130000Y-115429200D01*
X141130000Y-110975400D02*
X157770000Y-110975400D01*
D13*
G36*
X142754000Y-92649000D02*
G01*
X143008000Y-92903000D01*
X142627000Y-93157000D01*
X142373000Y-92903000D01*
X142754000Y-92649000D01*
G37*
X142754000Y-92649000D02*
X143008000Y-92903000D01*
X142627000Y-93157000D01*
X142373000Y-92903000D01*
X142754000Y-92649000D01*
G36*
X143770000Y-91887000D02*
G01*
X144024000Y-92141000D01*
X143643000Y-92395000D01*
X143389000Y-92141000D01*
X143770000Y-91887000D01*
G37*
X143770000Y-91887000D02*
X144024000Y-92141000D01*
X143643000Y-92395000D01*
X143389000Y-92141000D01*
X143770000Y-91887000D01*
G36*
X143008000Y-91125000D02*
G01*
X143262000Y-91379000D01*
X142881000Y-91633000D01*
X142627000Y-91379000D01*
X143008000Y-91125000D01*
G37*
X143008000Y-91125000D02*
X143262000Y-91379000D01*
X142881000Y-91633000D01*
X142627000Y-91379000D01*
X143008000Y-91125000D01*
G36*
X143135000Y-93030000D02*
G01*
X143389000Y-93284000D01*
X143008000Y-93538000D01*
X142754000Y-93284000D01*
X143135000Y-93030000D01*
G37*
X143135000Y-93030000D02*
X143389000Y-93284000D01*
X143008000Y-93538000D01*
X142754000Y-93284000D01*
X143135000Y-93030000D01*
G36*
X143389000Y-91506000D02*
G01*
X143643000Y-91760000D01*
X143262000Y-92014000D01*
X143008000Y-91760000D01*
X143389000Y-91506000D01*
G37*
X143389000Y-91506000D02*
X143643000Y-91760000D01*
X143262000Y-92014000D01*
X143008000Y-91760000D01*
X143389000Y-91506000D01*
G36*
X142627000Y-93411000D02*
G01*
X142881000Y-93665000D01*
X142500000Y-93919000D01*
X142246000Y-93665000D01*
X142627000Y-93411000D01*
G37*
X142627000Y-93411000D02*
X142881000Y-93665000D01*
X142500000Y-93919000D01*
X142246000Y-93665000D01*
X142627000Y-93411000D01*
G36*
X143262000Y-92268000D02*
G01*
X143516000Y-92522000D01*
X143135000Y-92776000D01*
X142881000Y-92522000D01*
X143262000Y-92268000D01*
G37*
X143262000Y-92268000D02*
X143516000Y-92522000D01*
X143135000Y-92776000D01*
X142881000Y-92522000D01*
X143262000Y-92268000D01*
G36*
X143643000Y-92649000D02*
G01*
X143897000Y-92903000D01*
X143516000Y-93157000D01*
X143262000Y-92903000D01*
X143643000Y-92649000D01*
G37*
X143643000Y-92649000D02*
X143897000Y-92903000D01*
X143516000Y-93157000D01*
X143262000Y-92903000D01*
X143643000Y-92649000D01*
D12*
X165360000Y-86680000D02*
X165360000Y-104460000D01*
X129800000Y-86680000D02*
X165360000Y-86680000D01*
X129800000Y-104460000D02*
X129800000Y-86680000D01*
X165360000Y-104460000D02*
X129800000Y-104460000D01*
X138690000Y-90490000D02*
X147580000Y-90490000D01*
X138690000Y-100650000D02*
X147580000Y-100650000D01*
X147580000Y-100650000D02*
X147580000Y-90490000D01*
X138690000Y-90490000D02*
X138690000Y-100650000D01*
X134880000Y-98110000D02*
X132340000Y-98110000D01*
X134880000Y-93030000D02*
X134880000Y-98110000D01*
X132340000Y-93030000D02*
X134880000Y-93030000D01*
X159010000Y-93030000D02*
X159010000Y-90490000D01*
X156470000Y-93030000D02*
X159010000Y-93030000D01*
X156470000Y-90490000D02*
X156470000Y-93030000D01*
X159010000Y-90490000D02*
X156470000Y-90490000D01*
X160280000Y-91760000D02*
X165360000Y-91760000D01*
X160280000Y-99380000D02*
X165360000Y-99380000D01*
X160280000Y-91760000D02*
X160280000Y-99380000D01*
X153930000Y-93030000D02*
X153930000Y-90490000D01*
X150120000Y-93030000D02*
X153930000Y-93030000D01*
X150120000Y-90490000D02*
X150120000Y-93030000D01*
X153930000Y-90490000D02*
X150120000Y-90490000D01*
X166630000Y-99380000D02*
X165360000Y-99380000D01*
X166630000Y-91760000D02*
X166630000Y-99380000D01*
X165360000Y-91760000D02*
X166630000Y-91760000D01*
D11*
X96320000Y-119480000D02*
X96320000Y-118150000D01*
X97650000Y-119480000D02*
X96320000Y-119480000D01*
X98920000Y-119480000D02*
X98920000Y-116820000D01*
X98920000Y-116820000D02*
X104060000Y-116820000D01*
X98920000Y-119480000D02*
X104060000Y-119480000D01*
X104060000Y-119480000D02*
X104060000Y-116820000D01*
X132791422Y-121860000D02*
X133308578Y-121860000D01*
X132791422Y-120440000D02*
X133308578Y-120440000D01*
X136510000Y-118608578D02*
X136510000Y-118091422D01*
X135090000Y-118608578D02*
X135090000Y-118091422D01*
X101358578Y-113890000D02*
X100841422Y-113890000D01*
X101358578Y-115310000D02*
X100841422Y-115310000D01*
X96408578Y-113940000D02*
X95891422Y-113940000D01*
X96408578Y-115360000D02*
X95891422Y-115360000D01*
X98608578Y-72990000D02*
X98091422Y-72990000D01*
X98608578Y-74410000D02*
X98091422Y-74410000D01*
X117391422Y-115210000D02*
X117908578Y-115210000D01*
X117391422Y-113790000D02*
X117908578Y-113790000D01*
X123691422Y-115210000D02*
X124208578Y-115210000D01*
X123691422Y-113790000D02*
X124208578Y-113790000D01*
X127758578Y-82540000D02*
X127241422Y-82540000D01*
X127758578Y-83960000D02*
X127241422Y-83960000D01*
X157141422Y-80260000D02*
X157658578Y-80260000D01*
X157141422Y-78840000D02*
X157658578Y-78840000D01*
X129991422Y-115210000D02*
X130508578Y-115210000D01*
X129991422Y-113790000D02*
X130508578Y-113790000D01*
X145803922Y-78510000D02*
X146321078Y-78510000D01*
X145803922Y-77090000D02*
X146321078Y-77090000D01*
X139591422Y-78660000D02*
X140108578Y-78660000D01*
X139591422Y-77240000D02*
X140108578Y-77240000D01*
X102970000Y-82691000D02*
X101460000Y-82691000D01*
X102970000Y-78990000D02*
X101460000Y-78990000D01*
X101460000Y-75720000D02*
X101460000Y-85960000D01*
X102970000Y-85960000D02*
X98329000Y-85960000D01*
X102970000Y-75720000D02*
X98329000Y-75720000D01*
X98329000Y-75720000D02*
X98329000Y-85960000D01*
X102970000Y-75720000D02*
X102970000Y-85960000D01*
X84320000Y-90920000D02*
X85650000Y-90920000D01*
X84320000Y-92250000D02*
X84320000Y-90920000D01*
X84320000Y-93520000D02*
X86980000Y-93520000D01*
X86980000Y-93520000D02*
X86980000Y-96120000D01*
X84320000Y-93520000D02*
X84320000Y-96120000D01*
X84320000Y-96120000D02*
X86980000Y-96120000D01*
X153750000Y-70150000D02*
X156250000Y-70150000D01*
X152250000Y-71900000D02*
X152250000Y-73900000D01*
X153750000Y-75650000D02*
X156250000Y-75650000D01*
X157750000Y-71900000D02*
X157750000Y-73900000D01*
X153300000Y-70600000D02*
X153750000Y-70150000D01*
X156700000Y-70600000D02*
X156250000Y-70150000D01*
X156700000Y-75200000D02*
X156250000Y-75650000D01*
X153300000Y-75200000D02*
X153750000Y-75650000D01*
D13*
X121650000Y-67500000D02*
X134650000Y-67500000D01*
D11*
X110420000Y-80540000D02*
X111750000Y-80540000D01*
X110420000Y-81870000D02*
X110420000Y-80540000D01*
X110420000Y-83140000D02*
X113080000Y-83140000D01*
X113080000Y-83140000D02*
X113080000Y-93360000D01*
X110420000Y-83140000D02*
X110420000Y-93360000D01*
X110420000Y-93360000D02*
X113080000Y-93360000D01*
X88220000Y-105280000D02*
X88220000Y-103950000D01*
X89550000Y-105280000D02*
X88220000Y-105280000D01*
X90820000Y-105280000D02*
X90820000Y-102620000D01*
X90820000Y-102620000D02*
X101040000Y-102620000D01*
X90820000Y-105280000D02*
X101040000Y-105280000D01*
X101040000Y-105280000D02*
X101040000Y-102620000D01*
X117115000Y-119360000D02*
X119800000Y-119360000D01*
X117115000Y-117440000D02*
X117115000Y-119360000D01*
X119800000Y-117440000D02*
X117115000Y-117440000D01*
X123065000Y-119360000D02*
X125750000Y-119360000D01*
X123065000Y-117440000D02*
X123065000Y-119360000D01*
X125750000Y-117440000D02*
X123065000Y-117440000D01*
X129015000Y-119360000D02*
X131700000Y-119360000D01*
X129015000Y-117440000D02*
X129015000Y-119360000D01*
X131700000Y-117440000D02*
X129015000Y-117440000D01*
X146910000Y-73685000D02*
X146910000Y-71000000D01*
X144990000Y-73685000D02*
X146910000Y-73685000D01*
X144990000Y-71000000D02*
X144990000Y-73685000D01*
X140810000Y-73685000D02*
X140810000Y-71000000D01*
X138890000Y-73685000D02*
X140810000Y-73685000D01*
X138890000Y-71000000D02*
X138890000Y-73685000D01*
D12*
X144166666Y-119402380D02*
X144166666Y-120116666D01*
X144119047Y-120259523D01*
X144023809Y-120354761D01*
X143880952Y-120402380D01*
X143785714Y-120402380D01*
X145166666Y-120402380D02*
X144595238Y-120402380D01*
X144880952Y-120402380D02*
X144880952Y-119402380D01*
X144785714Y-119545238D01*
X144690476Y-119640476D01*
X144595238Y-119688095D01*
X151038095Y-97602380D02*
X151038095Y-98411904D01*
X151085714Y-98507142D01*
X151133333Y-98554761D01*
X151228571Y-98602380D01*
X151419047Y-98602380D01*
X151514285Y-98554761D01*
X151561904Y-98507142D01*
X151609523Y-98411904D01*
X151609523Y-97602380D01*
X152609523Y-98602380D02*
X152038095Y-98602380D01*
X152323809Y-98602380D02*
X152323809Y-97602380D01*
X152228571Y-97745238D01*
X152133333Y-97840476D01*
X152038095Y-97888095D01*
X138918333Y-97410666D02*
X138918333Y-96710666D01*
X139151666Y-97210666D01*
X139385000Y-96710666D01*
X139385000Y-97410666D01*
X139718333Y-97410666D02*
X139718333Y-96710666D01*
X140118333Y-97410666D02*
X139818333Y-97010666D01*
X140118333Y-96710666D02*
X139718333Y-97110666D01*
X140385000Y-96777333D02*
X140418333Y-96744000D01*
X140485000Y-96710666D01*
X140651666Y-96710666D01*
X140718333Y-96744000D01*
X140751666Y-96777333D01*
X140785000Y-96844000D01*
X140785000Y-96910666D01*
X140751666Y-97010666D01*
X140351666Y-97410666D01*
X140785000Y-97410666D01*
X141218333Y-96710666D02*
X141285000Y-96710666D01*
X141351666Y-96744000D01*
X141385000Y-96777333D01*
X141418333Y-96844000D01*
X141451666Y-96977333D01*
X141451666Y-97144000D01*
X141418333Y-97277333D01*
X141385000Y-97344000D01*
X141351666Y-97377333D01*
X141285000Y-97410666D01*
X141218333Y-97410666D01*
X141151666Y-97377333D01*
X141118333Y-97344000D01*
X141085000Y-97277333D01*
X141051666Y-97144000D01*
X141051666Y-96977333D01*
X141085000Y-96844000D01*
X141118333Y-96777333D01*
X141151666Y-96744000D01*
X141218333Y-96710666D01*
X141751666Y-97410666D02*
X141751666Y-96710666D01*
X141918333Y-96710666D01*
X142018333Y-96744000D01*
X142085000Y-96810666D01*
X142118333Y-96877333D01*
X142151666Y-97010666D01*
X142151666Y-97110666D01*
X142118333Y-97244000D01*
X142085000Y-97310666D01*
X142018333Y-97377333D01*
X141918333Y-97410666D01*
X141751666Y-97410666D01*
X142385000Y-96710666D02*
X142851666Y-97410666D01*
X142851666Y-96710666D02*
X142385000Y-97410666D01*
X143485000Y-97410666D02*
X143085000Y-97410666D01*
X143285000Y-97410666D02*
X143285000Y-96710666D01*
X143218333Y-96810666D01*
X143151666Y-96877333D01*
X143085000Y-96910666D01*
X143751666Y-96777333D02*
X143785000Y-96744000D01*
X143851666Y-96710666D01*
X144018333Y-96710666D01*
X144085000Y-96744000D01*
X144118333Y-96777333D01*
X144151666Y-96844000D01*
X144151666Y-96910666D01*
X144118333Y-97010666D01*
X143718333Y-97410666D01*
X144151666Y-97410666D01*
X144551666Y-97010666D02*
X144485000Y-96977333D01*
X144451666Y-96944000D01*
X144418333Y-96877333D01*
X144418333Y-96844000D01*
X144451666Y-96777333D01*
X144485000Y-96744000D01*
X144551666Y-96710666D01*
X144685000Y-96710666D01*
X144751666Y-96744000D01*
X144785000Y-96777333D01*
X144818333Y-96844000D01*
X144818333Y-96877333D01*
X144785000Y-96944000D01*
X144751666Y-96977333D01*
X144685000Y-97010666D01*
X144551666Y-97010666D01*
X144485000Y-97044000D01*
X144451666Y-97077333D01*
X144418333Y-97144000D01*
X144418333Y-97277333D01*
X144451666Y-97344000D01*
X144485000Y-97377333D01*
X144551666Y-97410666D01*
X144685000Y-97410666D01*
X144751666Y-97377333D01*
X144785000Y-97344000D01*
X144818333Y-97277333D01*
X144818333Y-97144000D01*
X144785000Y-97077333D01*
X144751666Y-97044000D01*
X144685000Y-97010666D01*
X145018333Y-96710666D02*
X145251666Y-97410666D01*
X145485000Y-96710666D01*
X146051666Y-97410666D02*
X145718333Y-97410666D01*
X145718333Y-96710666D01*
X146285000Y-97410666D02*
X146285000Y-96710666D01*
X146285000Y-97044000D02*
X146685000Y-97044000D01*
X146685000Y-97410666D02*
X146685000Y-96710666D01*
X147351666Y-96710666D02*
X147018333Y-96710666D01*
X146985000Y-97044000D01*
X147018333Y-97010666D01*
X147085000Y-96977333D01*
X147251666Y-96977333D01*
X147318333Y-97010666D01*
X147351666Y-97044000D01*
X147385000Y-97110666D01*
X147385000Y-97277333D01*
X147351666Y-97344000D01*
X147318333Y-97377333D01*
X147251666Y-97410666D01*
X147085000Y-97410666D01*
X147018333Y-97377333D01*
X146985000Y-97344000D01*
X139401666Y-96140666D02*
X139401666Y-95440666D01*
X139635000Y-95940666D01*
X139868333Y-95440666D01*
X139868333Y-96140666D01*
X140201666Y-96140666D02*
X140201666Y-95440666D01*
X140601666Y-96140666D02*
X140301666Y-95740666D01*
X140601666Y-95440666D02*
X140201666Y-95840666D01*
X141235000Y-96140666D02*
X140901666Y-96140666D01*
X140901666Y-95440666D01*
X141435000Y-95507333D02*
X141468333Y-95474000D01*
X141535000Y-95440666D01*
X141701666Y-95440666D01*
X141768333Y-95474000D01*
X141801666Y-95507333D01*
X141835000Y-95574000D01*
X141835000Y-95640666D01*
X141801666Y-95740666D01*
X141401666Y-96140666D01*
X141835000Y-96140666D01*
X142435000Y-95440666D02*
X142301666Y-95440666D01*
X142235000Y-95474000D01*
X142201666Y-95507333D01*
X142135000Y-95607333D01*
X142101666Y-95740666D01*
X142101666Y-96007333D01*
X142135000Y-96074000D01*
X142168333Y-96107333D01*
X142235000Y-96140666D01*
X142368333Y-96140666D01*
X142435000Y-96107333D01*
X142468333Y-96074000D01*
X142501666Y-96007333D01*
X142501666Y-95840666D01*
X142468333Y-95774000D01*
X142435000Y-95740666D01*
X142368333Y-95707333D01*
X142235000Y-95707333D01*
X142168333Y-95740666D01*
X142135000Y-95774000D01*
X142101666Y-95840666D01*
X142735000Y-95440666D02*
X143201666Y-95440666D01*
X142735000Y-96140666D01*
X143201666Y-96140666D01*
X143768333Y-95440666D02*
X143635000Y-95440666D01*
X143568333Y-95474000D01*
X143535000Y-95507333D01*
X143468333Y-95607333D01*
X143435000Y-95740666D01*
X143435000Y-96007333D01*
X143468333Y-96074000D01*
X143501666Y-96107333D01*
X143568333Y-96140666D01*
X143701666Y-96140666D01*
X143768333Y-96107333D01*
X143801666Y-96074000D01*
X143835000Y-96007333D01*
X143835000Y-95840666D01*
X143801666Y-95774000D01*
X143768333Y-95740666D01*
X143701666Y-95707333D01*
X143568333Y-95707333D01*
X143501666Y-95740666D01*
X143468333Y-95774000D01*
X143435000Y-95840666D01*
X144435000Y-95674000D02*
X144435000Y-96140666D01*
X144268333Y-95407333D02*
X144101666Y-95907333D01*
X144535000Y-95907333D01*
X144701666Y-95440666D02*
X144935000Y-96140666D01*
X145168333Y-95440666D01*
X145635000Y-95774000D02*
X145401666Y-95774000D01*
X145401666Y-96140666D02*
X145401666Y-95440666D01*
X145735000Y-95440666D01*
X145901666Y-95440666D02*
X146301666Y-95440666D01*
X146101666Y-96140666D02*
X146101666Y-95440666D01*
X146835000Y-95674000D02*
X146835000Y-96140666D01*
X146668333Y-95407333D02*
X146501666Y-95907333D01*
X146935000Y-95907333D01*
X138918333Y-98680666D02*
X138918333Y-97980666D01*
X139151666Y-98480666D01*
X139385000Y-97980666D01*
X139385000Y-98680666D01*
X139718333Y-98680666D02*
X139718333Y-97980666D01*
X140118333Y-98680666D02*
X139818333Y-98280666D01*
X140118333Y-97980666D02*
X139718333Y-98380666D01*
X140385000Y-98047333D02*
X140418333Y-98014000D01*
X140485000Y-97980666D01*
X140651666Y-97980666D01*
X140718333Y-98014000D01*
X140751666Y-98047333D01*
X140785000Y-98114000D01*
X140785000Y-98180666D01*
X140751666Y-98280666D01*
X140351666Y-98680666D01*
X140785000Y-98680666D01*
X141218333Y-97980666D02*
X141285000Y-97980666D01*
X141351666Y-98014000D01*
X141385000Y-98047333D01*
X141418333Y-98114000D01*
X141451666Y-98247333D01*
X141451666Y-98414000D01*
X141418333Y-98547333D01*
X141385000Y-98614000D01*
X141351666Y-98647333D01*
X141285000Y-98680666D01*
X141218333Y-98680666D01*
X141151666Y-98647333D01*
X141118333Y-98614000D01*
X141085000Y-98547333D01*
X141051666Y-98414000D01*
X141051666Y-98247333D01*
X141085000Y-98114000D01*
X141118333Y-98047333D01*
X141151666Y-98014000D01*
X141218333Y-97980666D01*
X141751666Y-98680666D02*
X141751666Y-97980666D01*
X141918333Y-97980666D01*
X142018333Y-98014000D01*
X142085000Y-98080666D01*
X142118333Y-98147333D01*
X142151666Y-98280666D01*
X142151666Y-98380666D01*
X142118333Y-98514000D01*
X142085000Y-98580666D01*
X142018333Y-98647333D01*
X141918333Y-98680666D01*
X141751666Y-98680666D01*
X142385000Y-97980666D02*
X142851666Y-98680666D01*
X142851666Y-97980666D02*
X142385000Y-98680666D01*
X143085000Y-98047333D02*
X143118333Y-98014000D01*
X143185000Y-97980666D01*
X143351666Y-97980666D01*
X143418333Y-98014000D01*
X143451666Y-98047333D01*
X143485000Y-98114000D01*
X143485000Y-98180666D01*
X143451666Y-98280666D01*
X143051666Y-98680666D01*
X143485000Y-98680666D01*
X144118333Y-97980666D02*
X143785000Y-97980666D01*
X143751666Y-98314000D01*
X143785000Y-98280666D01*
X143851666Y-98247333D01*
X144018333Y-98247333D01*
X144085000Y-98280666D01*
X144118333Y-98314000D01*
X144151666Y-98380666D01*
X144151666Y-98547333D01*
X144118333Y-98614000D01*
X144085000Y-98647333D01*
X144018333Y-98680666D01*
X143851666Y-98680666D01*
X143785000Y-98647333D01*
X143751666Y-98614000D01*
X144751666Y-97980666D02*
X144618333Y-97980666D01*
X144551666Y-98014000D01*
X144518333Y-98047333D01*
X144451666Y-98147333D01*
X144418333Y-98280666D01*
X144418333Y-98547333D01*
X144451666Y-98614000D01*
X144485000Y-98647333D01*
X144551666Y-98680666D01*
X144685000Y-98680666D01*
X144751666Y-98647333D01*
X144785000Y-98614000D01*
X144818333Y-98547333D01*
X144818333Y-98380666D01*
X144785000Y-98314000D01*
X144751666Y-98280666D01*
X144685000Y-98247333D01*
X144551666Y-98247333D01*
X144485000Y-98280666D01*
X144451666Y-98314000D01*
X144418333Y-98380666D01*
X145018333Y-97980666D02*
X145251666Y-98680666D01*
X145485000Y-97980666D01*
X146051666Y-98680666D02*
X145718333Y-98680666D01*
X145718333Y-97980666D01*
X146285000Y-98680666D02*
X146285000Y-97980666D01*
X146285000Y-98314000D02*
X146685000Y-98314000D01*
X146685000Y-98680666D02*
X146685000Y-97980666D01*
X146951666Y-97980666D02*
X147418333Y-97980666D01*
X147118333Y-98680666D01*
X97373809Y-121754761D02*
X97516666Y-121802380D01*
X97754761Y-121802380D01*
X97850000Y-121754761D01*
X97897619Y-121707142D01*
X97945238Y-121611904D01*
X97945238Y-121516666D01*
X97897619Y-121421428D01*
X97850000Y-121373809D01*
X97754761Y-121326190D01*
X97564285Y-121278571D01*
X97469047Y-121230952D01*
X97421428Y-121183333D01*
X97373809Y-121088095D01*
X97373809Y-120992857D01*
X97421428Y-120897619D01*
X97469047Y-120850000D01*
X97564285Y-120802380D01*
X97802380Y-120802380D01*
X97945238Y-120850000D01*
X98278571Y-120802380D02*
X98516666Y-121802380D01*
X98707142Y-121088095D01*
X98897619Y-121802380D01*
X99135714Y-120802380D01*
X99516666Y-121802380D02*
X99516666Y-120802380D01*
X99850000Y-120802380D02*
X100421428Y-120802380D01*
X100135714Y-121802380D02*
X100135714Y-120802380D01*
X101326190Y-121707142D02*
X101278571Y-121754761D01*
X101135714Y-121802380D01*
X101040476Y-121802380D01*
X100897619Y-121754761D01*
X100802380Y-121659523D01*
X100754761Y-121564285D01*
X100707142Y-121373809D01*
X100707142Y-121230952D01*
X100754761Y-121040476D01*
X100802380Y-120945238D01*
X100897619Y-120850000D01*
X101040476Y-120802380D01*
X101135714Y-120802380D01*
X101278571Y-120850000D01*
X101326190Y-120897619D01*
X101754761Y-121802380D02*
X101754761Y-120802380D01*
X101754761Y-121278571D02*
X102326190Y-121278571D01*
X102326190Y-121802380D02*
X102326190Y-120802380D01*
X103326190Y-121802380D02*
X102754761Y-121802380D01*
X103040476Y-121802380D02*
X103040476Y-120802380D01*
X102945238Y-120945238D01*
X102850000Y-121040476D01*
X102754761Y-121088095D01*
X135757142Y-122202380D02*
X135423809Y-121726190D01*
X135185714Y-122202380D02*
X135185714Y-121202380D01*
X135566666Y-121202380D01*
X135661904Y-121250000D01*
X135709523Y-121297619D01*
X135757142Y-121392857D01*
X135757142Y-121535714D01*
X135709523Y-121630952D01*
X135661904Y-121678571D01*
X135566666Y-121726190D01*
X135185714Y-121726190D01*
X136709523Y-122202380D02*
X136138095Y-122202380D01*
X136423809Y-122202380D02*
X136423809Y-121202380D01*
X136328571Y-121345238D01*
X136233333Y-121440476D01*
X136138095Y-121488095D01*
X137090476Y-121297619D02*
X137138095Y-121250000D01*
X137233333Y-121202380D01*
X137471428Y-121202380D01*
X137566666Y-121250000D01*
X137614285Y-121297619D01*
X137661904Y-121392857D01*
X137661904Y-121488095D01*
X137614285Y-121630952D01*
X137042857Y-122202380D01*
X137661904Y-122202380D01*
X135557142Y-116052380D02*
X135223809Y-115576190D01*
X134985714Y-116052380D02*
X134985714Y-115052380D01*
X135366666Y-115052380D01*
X135461904Y-115100000D01*
X135509523Y-115147619D01*
X135557142Y-115242857D01*
X135557142Y-115385714D01*
X135509523Y-115480952D01*
X135461904Y-115528571D01*
X135366666Y-115576190D01*
X134985714Y-115576190D01*
X136509523Y-116052380D02*
X135938095Y-116052380D01*
X136223809Y-116052380D02*
X136223809Y-115052380D01*
X136128571Y-115195238D01*
X136033333Y-115290476D01*
X135938095Y-115338095D01*
X137461904Y-116052380D02*
X136890476Y-116052380D01*
X137176190Y-116052380D02*
X137176190Y-115052380D01*
X137080952Y-115195238D01*
X136985714Y-115290476D01*
X136890476Y-115338095D01*
X100657142Y-113302380D02*
X100323809Y-112826190D01*
X100085714Y-113302380D02*
X100085714Y-112302380D01*
X100466666Y-112302380D01*
X100561904Y-112350000D01*
X100609523Y-112397619D01*
X100657142Y-112492857D01*
X100657142Y-112635714D01*
X100609523Y-112730952D01*
X100561904Y-112778571D01*
X100466666Y-112826190D01*
X100085714Y-112826190D01*
X101609523Y-113302380D02*
X101038095Y-113302380D01*
X101323809Y-113302380D02*
X101323809Y-112302380D01*
X101228571Y-112445238D01*
X101133333Y-112540476D01*
X101038095Y-112588095D01*
X102228571Y-112302380D02*
X102323809Y-112302380D01*
X102419047Y-112350000D01*
X102466666Y-112397619D01*
X102514285Y-112492857D01*
X102561904Y-112683333D01*
X102561904Y-112921428D01*
X102514285Y-113111904D01*
X102466666Y-113207142D01*
X102419047Y-113254761D01*
X102323809Y-113302380D01*
X102228571Y-113302380D01*
X102133333Y-113254761D01*
X102085714Y-113207142D01*
X102038095Y-113111904D01*
X101990476Y-112921428D01*
X101990476Y-112683333D01*
X102038095Y-112492857D01*
X102085714Y-112397619D01*
X102133333Y-112350000D01*
X102228571Y-112302380D01*
X95533333Y-113402380D02*
X95200000Y-112926190D01*
X94961904Y-113402380D02*
X94961904Y-112402380D01*
X95342857Y-112402380D01*
X95438095Y-112450000D01*
X95485714Y-112497619D01*
X95533333Y-112592857D01*
X95533333Y-112735714D01*
X95485714Y-112830952D01*
X95438095Y-112878571D01*
X95342857Y-112926190D01*
X94961904Y-112926190D01*
X96009523Y-113402380D02*
X96200000Y-113402380D01*
X96295238Y-113354761D01*
X96342857Y-113307142D01*
X96438095Y-113164285D01*
X96485714Y-112973809D01*
X96485714Y-112592857D01*
X96438095Y-112497619D01*
X96390476Y-112450000D01*
X96295238Y-112402380D01*
X96104761Y-112402380D01*
X96009523Y-112450000D01*
X95961904Y-112497619D01*
X95914285Y-112592857D01*
X95914285Y-112830952D01*
X95961904Y-112926190D01*
X96009523Y-112973809D01*
X96104761Y-113021428D01*
X96295238Y-113021428D01*
X96390476Y-112973809D01*
X96438095Y-112926190D01*
X96485714Y-112830952D01*
X98083333Y-72052380D02*
X97750000Y-71576190D01*
X97511904Y-72052380D02*
X97511904Y-71052380D01*
X97892857Y-71052380D01*
X97988095Y-71100000D01*
X98035714Y-71147619D01*
X98083333Y-71242857D01*
X98083333Y-71385714D01*
X98035714Y-71480952D01*
X97988095Y-71528571D01*
X97892857Y-71576190D01*
X97511904Y-71576190D01*
X98654761Y-71480952D02*
X98559523Y-71433333D01*
X98511904Y-71385714D01*
X98464285Y-71290476D01*
X98464285Y-71242857D01*
X98511904Y-71147619D01*
X98559523Y-71100000D01*
X98654761Y-71052380D01*
X98845238Y-71052380D01*
X98940476Y-71100000D01*
X98988095Y-71147619D01*
X99035714Y-71242857D01*
X99035714Y-71290476D01*
X98988095Y-71385714D01*
X98940476Y-71433333D01*
X98845238Y-71480952D01*
X98654761Y-71480952D01*
X98559523Y-71528571D01*
X98511904Y-71576190D01*
X98464285Y-71671428D01*
X98464285Y-71861904D01*
X98511904Y-71957142D01*
X98559523Y-72004761D01*
X98654761Y-72052380D01*
X98845238Y-72052380D01*
X98940476Y-72004761D01*
X98988095Y-71957142D01*
X99035714Y-71861904D01*
X99035714Y-71671428D01*
X98988095Y-71576190D01*
X98940476Y-71528571D01*
X98845238Y-71480952D01*
X117483333Y-113302380D02*
X117150000Y-112826190D01*
X116911904Y-113302380D02*
X116911904Y-112302380D01*
X117292857Y-112302380D01*
X117388095Y-112350000D01*
X117435714Y-112397619D01*
X117483333Y-112492857D01*
X117483333Y-112635714D01*
X117435714Y-112730952D01*
X117388095Y-112778571D01*
X117292857Y-112826190D01*
X116911904Y-112826190D01*
X117816666Y-112302380D02*
X118483333Y-112302380D01*
X118054761Y-113302380D01*
X123783333Y-113302380D02*
X123450000Y-112826190D01*
X123211904Y-113302380D02*
X123211904Y-112302380D01*
X123592857Y-112302380D01*
X123688095Y-112350000D01*
X123735714Y-112397619D01*
X123783333Y-112492857D01*
X123783333Y-112635714D01*
X123735714Y-112730952D01*
X123688095Y-112778571D01*
X123592857Y-112826190D01*
X123211904Y-112826190D01*
X124640476Y-112302380D02*
X124450000Y-112302380D01*
X124354761Y-112350000D01*
X124307142Y-112397619D01*
X124211904Y-112540476D01*
X124164285Y-112730952D01*
X124164285Y-113111904D01*
X124211904Y-113207142D01*
X124259523Y-113254761D01*
X124354761Y-113302380D01*
X124545238Y-113302380D01*
X124640476Y-113254761D01*
X124688095Y-113207142D01*
X124735714Y-113111904D01*
X124735714Y-112873809D01*
X124688095Y-112778571D01*
X124640476Y-112730952D01*
X124545238Y-112683333D01*
X124354761Y-112683333D01*
X124259523Y-112730952D01*
X124211904Y-112778571D01*
X124164285Y-112873809D01*
X127333333Y-85352380D02*
X127000000Y-84876190D01*
X126761904Y-85352380D02*
X126761904Y-84352380D01*
X127142857Y-84352380D01*
X127238095Y-84400000D01*
X127285714Y-84447619D01*
X127333333Y-84542857D01*
X127333333Y-84685714D01*
X127285714Y-84780952D01*
X127238095Y-84828571D01*
X127142857Y-84876190D01*
X126761904Y-84876190D01*
X128238095Y-84352380D02*
X127761904Y-84352380D01*
X127714285Y-84828571D01*
X127761904Y-84780952D01*
X127857142Y-84733333D01*
X128095238Y-84733333D01*
X128190476Y-84780952D01*
X128238095Y-84828571D01*
X128285714Y-84923809D01*
X128285714Y-85161904D01*
X128238095Y-85257142D01*
X128190476Y-85304761D01*
X128095238Y-85352380D01*
X127857142Y-85352380D01*
X127761904Y-85304761D01*
X127714285Y-85257142D01*
X157283333Y-81952380D02*
X156950000Y-81476190D01*
X156711904Y-81952380D02*
X156711904Y-80952380D01*
X157092857Y-80952380D01*
X157188095Y-81000000D01*
X157235714Y-81047619D01*
X157283333Y-81142857D01*
X157283333Y-81285714D01*
X157235714Y-81380952D01*
X157188095Y-81428571D01*
X157092857Y-81476190D01*
X156711904Y-81476190D01*
X158140476Y-81285714D02*
X158140476Y-81952380D01*
X157902380Y-80904761D02*
X157664285Y-81619047D01*
X158283333Y-81619047D01*
X130083333Y-113302380D02*
X129750000Y-112826190D01*
X129511904Y-113302380D02*
X129511904Y-112302380D01*
X129892857Y-112302380D01*
X129988095Y-112350000D01*
X130035714Y-112397619D01*
X130083333Y-112492857D01*
X130083333Y-112635714D01*
X130035714Y-112730952D01*
X129988095Y-112778571D01*
X129892857Y-112826190D01*
X129511904Y-112826190D01*
X130416666Y-112302380D02*
X131035714Y-112302380D01*
X130702380Y-112683333D01*
X130845238Y-112683333D01*
X130940476Y-112730952D01*
X130988095Y-112778571D01*
X131035714Y-112873809D01*
X131035714Y-113111904D01*
X130988095Y-113207142D01*
X130940476Y-113254761D01*
X130845238Y-113302380D01*
X130559523Y-113302380D01*
X130464285Y-113254761D01*
X130416666Y-113207142D01*
X146133333Y-80452380D02*
X145800000Y-79976190D01*
X145561904Y-80452380D02*
X145561904Y-79452380D01*
X145942857Y-79452380D01*
X146038095Y-79500000D01*
X146085714Y-79547619D01*
X146133333Y-79642857D01*
X146133333Y-79785714D01*
X146085714Y-79880952D01*
X146038095Y-79928571D01*
X145942857Y-79976190D01*
X145561904Y-79976190D01*
X146514285Y-79547619D02*
X146561904Y-79500000D01*
X146657142Y-79452380D01*
X146895238Y-79452380D01*
X146990476Y-79500000D01*
X147038095Y-79547619D01*
X147085714Y-79642857D01*
X147085714Y-79738095D01*
X147038095Y-79880952D01*
X146466666Y-80452380D01*
X147085714Y-80452380D01*
X139483333Y-80752380D02*
X139150000Y-80276190D01*
X138911904Y-80752380D02*
X138911904Y-79752380D01*
X139292857Y-79752380D01*
X139388095Y-79800000D01*
X139435714Y-79847619D01*
X139483333Y-79942857D01*
X139483333Y-80085714D01*
X139435714Y-80180952D01*
X139388095Y-80228571D01*
X139292857Y-80276190D01*
X138911904Y-80276190D01*
X140435714Y-80752380D02*
X139864285Y-80752380D01*
X140150000Y-80752380D02*
X140150000Y-79752380D01*
X140054761Y-79895238D01*
X139959523Y-79990476D01*
X139864285Y-80038095D01*
X104517619Y-80935238D02*
X104470000Y-81030476D01*
X104374761Y-81125714D01*
X104231904Y-81268571D01*
X104184285Y-81363809D01*
X104184285Y-81459047D01*
X104422380Y-81411428D02*
X104374761Y-81506666D01*
X104279523Y-81601904D01*
X104089047Y-81649523D01*
X103755714Y-81649523D01*
X103565238Y-81601904D01*
X103470000Y-81506666D01*
X103422380Y-81411428D01*
X103422380Y-81220952D01*
X103470000Y-81125714D01*
X103565238Y-81030476D01*
X103755714Y-80982857D01*
X104089047Y-80982857D01*
X104279523Y-81030476D01*
X104374761Y-81125714D01*
X104422380Y-81220952D01*
X104422380Y-81411428D01*
X104422380Y-80030476D02*
X104422380Y-80601904D01*
X104422380Y-80316190D02*
X103422380Y-80316190D01*
X103565238Y-80411428D01*
X103660476Y-80506666D01*
X103708095Y-80601904D01*
X89452380Y-95509523D02*
X88452380Y-95509523D01*
X88452380Y-95128571D01*
X88500000Y-95033333D01*
X88547619Y-94985714D01*
X88642857Y-94938095D01*
X88785714Y-94938095D01*
X88880952Y-94985714D01*
X88928571Y-95033333D01*
X88976190Y-95128571D01*
X88976190Y-95509523D01*
X88452380Y-94604761D02*
X89452380Y-94366666D01*
X88738095Y-94176190D01*
X89452380Y-93985714D01*
X88452380Y-93747619D01*
X89452380Y-92795238D02*
X88976190Y-93128571D01*
X89452380Y-93366666D02*
X88452380Y-93366666D01*
X88452380Y-92985714D01*
X88500000Y-92890476D01*
X88547619Y-92842857D01*
X88642857Y-92795238D01*
X88785714Y-92795238D01*
X88880952Y-92842857D01*
X88928571Y-92890476D01*
X88976190Y-92985714D01*
X88976190Y-93366666D01*
X89452380Y-91842857D02*
X89452380Y-92414285D01*
X89452380Y-92128571D02*
X88452380Y-92128571D01*
X88595238Y-92223809D01*
X88690476Y-92319047D01*
X88738095Y-92414285D01*
X153711904Y-73002380D02*
X153711904Y-72002380D01*
X154092857Y-72002380D01*
X154188095Y-72050000D01*
X154235714Y-72097619D01*
X154283333Y-72192857D01*
X154283333Y-72335714D01*
X154235714Y-72430952D01*
X154188095Y-72478571D01*
X154092857Y-72526190D01*
X153711904Y-72526190D01*
X155045238Y-72478571D02*
X155188095Y-72526190D01*
X155235714Y-72573809D01*
X155283333Y-72669047D01*
X155283333Y-72811904D01*
X155235714Y-72907142D01*
X155188095Y-72954761D01*
X155092857Y-73002380D01*
X154711904Y-73002380D01*
X154711904Y-72002380D01*
X155045238Y-72002380D01*
X155140476Y-72050000D01*
X155188095Y-72097619D01*
X155235714Y-72192857D01*
X155235714Y-72288095D01*
X155188095Y-72383333D01*
X155140476Y-72430952D01*
X155045238Y-72478571D01*
X154711904Y-72478571D01*
X156235714Y-73002380D02*
X155664285Y-73002380D01*
X155950000Y-73002380D02*
X155950000Y-72002380D01*
X155854761Y-72145238D01*
X155759523Y-72240476D01*
X155664285Y-72288095D01*
D14*
X127048571Y-74484523D02*
X126443809Y-74484523D01*
X126443809Y-73214523D01*
X127411428Y-74424047D02*
X127592857Y-74484523D01*
X127895238Y-74484523D01*
X128016190Y-74424047D01*
X128076666Y-74363571D01*
X128137142Y-74242619D01*
X128137142Y-74121666D01*
X128076666Y-74000714D01*
X128016190Y-73940238D01*
X127895238Y-73879761D01*
X127653333Y-73819285D01*
X127532380Y-73758809D01*
X127471904Y-73698333D01*
X127411428Y-73577380D01*
X127411428Y-73456428D01*
X127471904Y-73335476D01*
X127532380Y-73275000D01*
X127653333Y-73214523D01*
X127955714Y-73214523D01*
X128137142Y-73275000D01*
X129346666Y-74484523D02*
X128620952Y-74484523D01*
X128983809Y-74484523D02*
X128983809Y-73214523D01*
X128862857Y-73395952D01*
X128741904Y-73516904D01*
X128620952Y-73577380D01*
D12*
X114850000Y-90490476D02*
X114802380Y-90585714D01*
X114802380Y-90728571D01*
X114850000Y-90871428D01*
X114945238Y-90966666D01*
X115040476Y-91014285D01*
X115230952Y-91061904D01*
X115373809Y-91061904D01*
X115564285Y-91014285D01*
X115659523Y-90966666D01*
X115754761Y-90871428D01*
X115802380Y-90728571D01*
X115802380Y-90633333D01*
X115754761Y-90490476D01*
X115707142Y-90442857D01*
X115373809Y-90442857D01*
X115373809Y-90633333D01*
X115278571Y-90014285D02*
X115278571Y-89680952D01*
X115802380Y-89538095D02*
X115802380Y-90014285D01*
X114802380Y-90014285D01*
X114802380Y-89538095D01*
X115707142Y-88538095D02*
X115754761Y-88585714D01*
X115802380Y-88728571D01*
X115802380Y-88823809D01*
X115754761Y-88966666D01*
X115659523Y-89061904D01*
X115564285Y-89109523D01*
X115373809Y-89157142D01*
X115230952Y-89157142D01*
X115040476Y-89109523D01*
X114945238Y-89061904D01*
X114850000Y-88966666D01*
X114802380Y-88823809D01*
X114802380Y-88728571D01*
X114850000Y-88585714D01*
X114897619Y-88538095D01*
X115802380Y-88109523D02*
X114802380Y-88109523D01*
X115802380Y-87538095D02*
X115230952Y-87966666D01*
X114802380Y-87538095D02*
X115373809Y-88109523D01*
X114802380Y-86919047D02*
X114802380Y-86728571D01*
X114850000Y-86633333D01*
X114945238Y-86538095D01*
X115135714Y-86490476D01*
X115469047Y-86490476D01*
X115659523Y-86538095D01*
X115754761Y-86633333D01*
X115802380Y-86728571D01*
X115802380Y-86919047D01*
X115754761Y-87014285D01*
X115659523Y-87109523D01*
X115469047Y-87157142D01*
X115135714Y-87157142D01*
X114945238Y-87109523D01*
X114850000Y-87014285D01*
X114802380Y-86919047D01*
X115802380Y-85538095D02*
X115802380Y-86109523D01*
X115802380Y-85823809D02*
X114802380Y-85823809D01*
X114945238Y-85919047D01*
X115040476Y-86014285D01*
X115088095Y-86109523D01*
X90345238Y-108052380D02*
X90345238Y-107052380D01*
X90583333Y-107052380D01*
X90726190Y-107100000D01*
X90821428Y-107195238D01*
X90869047Y-107290476D01*
X90916666Y-107480952D01*
X90916666Y-107623809D01*
X90869047Y-107814285D01*
X90821428Y-107909523D01*
X90726190Y-108004761D01*
X90583333Y-108052380D01*
X90345238Y-108052380D01*
X91345238Y-107528571D02*
X91678571Y-107528571D01*
X91821428Y-108052380D02*
X91345238Y-108052380D01*
X91345238Y-107052380D01*
X91821428Y-107052380D01*
X92107142Y-107052380D02*
X92678571Y-107052380D01*
X92392857Y-108052380D02*
X92392857Y-107052380D01*
X93011904Y-107528571D02*
X93345238Y-107528571D01*
X93488095Y-108052380D02*
X93011904Y-108052380D01*
X93011904Y-107052380D01*
X93488095Y-107052380D01*
X94488095Y-107957142D02*
X94440476Y-108004761D01*
X94297619Y-108052380D01*
X94202380Y-108052380D01*
X94059523Y-108004761D01*
X93964285Y-107909523D01*
X93916666Y-107814285D01*
X93869047Y-107623809D01*
X93869047Y-107480952D01*
X93916666Y-107290476D01*
X93964285Y-107195238D01*
X94059523Y-107100000D01*
X94202380Y-107052380D01*
X94297619Y-107052380D01*
X94440476Y-107100000D01*
X94488095Y-107147619D01*
X94773809Y-107052380D02*
X95345238Y-107052380D01*
X95059523Y-108052380D02*
X95059523Y-107052380D01*
X95869047Y-107052380D02*
X96059523Y-107052380D01*
X96154761Y-107100000D01*
X96250000Y-107195238D01*
X96297619Y-107385714D01*
X96297619Y-107719047D01*
X96250000Y-107909523D01*
X96154761Y-108004761D01*
X96059523Y-108052380D01*
X95869047Y-108052380D01*
X95773809Y-108004761D01*
X95678571Y-107909523D01*
X95630952Y-107719047D01*
X95630952Y-107385714D01*
X95678571Y-107195238D01*
X95773809Y-107100000D01*
X95869047Y-107052380D01*
X97297619Y-108052380D02*
X96964285Y-107576190D01*
X96726190Y-108052380D02*
X96726190Y-107052380D01*
X97107142Y-107052380D01*
X97202380Y-107100000D01*
X97250000Y-107147619D01*
X97297619Y-107242857D01*
X97297619Y-107385714D01*
X97250000Y-107480952D01*
X97202380Y-107528571D01*
X97107142Y-107576190D01*
X96726190Y-107576190D01*
X97678571Y-108004761D02*
X97821428Y-108052380D01*
X98059523Y-108052380D01*
X98154761Y-108004761D01*
X98202380Y-107957142D01*
X98250000Y-107861904D01*
X98250000Y-107766666D01*
X98202380Y-107671428D01*
X98154761Y-107623809D01*
X98059523Y-107576190D01*
X97869047Y-107528571D01*
X97773809Y-107480952D01*
X97726190Y-107433333D01*
X97678571Y-107338095D01*
X97678571Y-107242857D01*
X97726190Y-107147619D01*
X97773809Y-107100000D01*
X97869047Y-107052380D01*
X98107142Y-107052380D01*
X98250000Y-107100000D01*
X99202380Y-108052380D02*
X98630952Y-108052380D01*
X98916666Y-108052380D02*
X98916666Y-107052380D01*
X98821428Y-107195238D01*
X98726190Y-107290476D01*
X98630952Y-107338095D01*
X118061904Y-117202380D02*
X118061904Y-116202380D01*
X118300000Y-116202380D01*
X118442857Y-116250000D01*
X118538095Y-116345238D01*
X118585714Y-116440476D01*
X118633333Y-116630952D01*
X118633333Y-116773809D01*
X118585714Y-116964285D01*
X118538095Y-117059523D01*
X118442857Y-117154761D01*
X118300000Y-117202380D01*
X118061904Y-117202380D01*
X119585714Y-117202380D02*
X119014285Y-117202380D01*
X119300000Y-117202380D02*
X119300000Y-116202380D01*
X119204761Y-116345238D01*
X119109523Y-116440476D01*
X119014285Y-116488095D01*
X124011904Y-117202380D02*
X124011904Y-116202380D01*
X124250000Y-116202380D01*
X124392857Y-116250000D01*
X124488095Y-116345238D01*
X124535714Y-116440476D01*
X124583333Y-116630952D01*
X124583333Y-116773809D01*
X124535714Y-116964285D01*
X124488095Y-117059523D01*
X124392857Y-117154761D01*
X124250000Y-117202380D01*
X124011904Y-117202380D01*
X124964285Y-116297619D02*
X125011904Y-116250000D01*
X125107142Y-116202380D01*
X125345238Y-116202380D01*
X125440476Y-116250000D01*
X125488095Y-116297619D01*
X125535714Y-116392857D01*
X125535714Y-116488095D01*
X125488095Y-116630952D01*
X124916666Y-117202380D01*
X125535714Y-117202380D01*
X129961904Y-117202380D02*
X129961904Y-116202380D01*
X130200000Y-116202380D01*
X130342857Y-116250000D01*
X130438095Y-116345238D01*
X130485714Y-116440476D01*
X130533333Y-116630952D01*
X130533333Y-116773809D01*
X130485714Y-116964285D01*
X130438095Y-117059523D01*
X130342857Y-117154761D01*
X130200000Y-117202380D01*
X129961904Y-117202380D01*
X130866666Y-116202380D02*
X131485714Y-116202380D01*
X131152380Y-116583333D01*
X131295238Y-116583333D01*
X131390476Y-116630952D01*
X131438095Y-116678571D01*
X131485714Y-116773809D01*
X131485714Y-117011904D01*
X131438095Y-117107142D01*
X131390476Y-117154761D01*
X131295238Y-117202380D01*
X131009523Y-117202380D01*
X130914285Y-117154761D01*
X130866666Y-117107142D01*
X144752380Y-72738095D02*
X143752380Y-72738095D01*
X143752380Y-72500000D01*
X143800000Y-72357142D01*
X143895238Y-72261904D01*
X143990476Y-72214285D01*
X144180952Y-72166666D01*
X144323809Y-72166666D01*
X144514285Y-72214285D01*
X144609523Y-72261904D01*
X144704761Y-72357142D01*
X144752380Y-72500000D01*
X144752380Y-72738095D01*
X144085714Y-71309523D02*
X144752380Y-71309523D01*
X143704761Y-71547619D02*
X144419047Y-71785714D01*
X144419047Y-71166666D01*
X138652380Y-72738095D02*
X137652380Y-72738095D01*
X137652380Y-72500000D01*
X137700000Y-72357142D01*
X137795238Y-72261904D01*
X137890476Y-72214285D01*
X138080952Y-72166666D01*
X138223809Y-72166666D01*
X138414285Y-72214285D01*
X138509523Y-72261904D01*
X138604761Y-72357142D01*
X138652380Y-72500000D01*
X138652380Y-72738095D01*
X137652380Y-71261904D02*
X137652380Y-71738095D01*
X138128571Y-71785714D01*
X138080952Y-71738095D01*
X138033333Y-71642857D01*
X138033333Y-71404761D01*
X138080952Y-71309523D01*
X138128571Y-71261904D01*
X138223809Y-71214285D01*
X138461904Y-71214285D01*
X138557142Y-71261904D01*
X138604761Y-71309523D01*
X138652380Y-71404761D01*
X138652380Y-71642857D01*
X138604761Y-71738095D01*
X138557142Y-71785714D01*
M02*
