G04 #@! TF.GenerationSoftware,KiCad,Pcbnew,(5.1.4-0-10_14)*
G04 #@! TF.CreationDate,2020-04-29T08:22:51-04:00*
G04 #@! TF.ProjectId,load_cell,6c6f6164-5f63-4656-9c6c-2e6b69636164,rev?*
G04 #@! TF.SameCoordinates,Original*
G04 #@! TF.FileFunction,Copper,L2,Bot*
G04 #@! TF.FilePolarity,Positive*
%FSLAX46Y46*%
G04 Gerber Fmt 4.6, Leading zero omitted, Abs format (unit mm)*
G04 Created by KiCad (PCBNEW (5.1.4-0-10_14)) date 2020-04-29 08:22:51*
%MOMM*%
%LPD*%
G04 APERTURE LIST*
%ADD10C,2.000000*%
%ADD11C,1.500000*%
%ADD12R,1.500000X1.500000*%
%ADD13R,1.600000X1.600000*%
%ADD14C,1.600000*%
%ADD15O,1.700000X1.700000*%
%ADD16R,1.700000X1.700000*%
%ADD17O,2.000000X1.905000*%
%ADD18R,2.000000X1.905000*%
%ADD19C,0.800000*%
%ADD20C,0.250000*%
%ADD21C,0.254000*%
G04 APERTURE END LIST*
D10*
X141320000Y-116679200D03*
X157580000Y-116679200D03*
D11*
X145862000Y-116701600D03*
X147902000Y-116701600D03*
X149942000Y-116701600D03*
X151982000Y-116701600D03*
X146932800Y-113858800D03*
X148972800Y-113858800D03*
X151012800Y-113858800D03*
D12*
X153052800Y-113858800D03*
D13*
X164090000Y-87950000D03*
D14*
X161550000Y-87950000D03*
X159010000Y-87950000D03*
X156470000Y-87950000D03*
X153930000Y-87950000D03*
X151390000Y-87950000D03*
X148850000Y-87950000D03*
X146310000Y-87950000D03*
X143770000Y-87950000D03*
X141230000Y-87950000D03*
X138690000Y-87950000D03*
X136150000Y-87950000D03*
X133610000Y-87950000D03*
X164090000Y-103190000D03*
X161550000Y-103190000D03*
X159010000Y-103190000D03*
X156470000Y-103190000D03*
X153930000Y-103190000D03*
X151390000Y-103190000D03*
X148850000Y-103190000D03*
X146310000Y-103190000D03*
X143770000Y-103190000D03*
X141230000Y-103190000D03*
X138690000Y-103190000D03*
X136150000Y-103190000D03*
X133610000Y-103190000D03*
X131070000Y-87950000D03*
X131070000Y-103190000D03*
D15*
X102730000Y-118150000D03*
X100190000Y-118150000D03*
D16*
X97650000Y-118150000D03*
D17*
X99700000Y-83380000D03*
X99700000Y-80840000D03*
D18*
X99700000Y-78300000D03*
D15*
X85650000Y-94790000D03*
D16*
X85650000Y-92250000D03*
D15*
X111750000Y-92030000D03*
X111750000Y-89490000D03*
X111750000Y-86950000D03*
X111750000Y-84410000D03*
D16*
X111750000Y-81870000D03*
D15*
X99710000Y-103950000D03*
X97170000Y-103950000D03*
X94630000Y-103950000D03*
X92090000Y-103950000D03*
D16*
X89550000Y-103950000D03*
D19*
X159900000Y-79550000D03*
X136500000Y-78100000D03*
X130150000Y-121150000D03*
X94950000Y-73800000D03*
X93500000Y-114500000D03*
X104250000Y-114600000D03*
X126850000Y-116850000D03*
X132750000Y-117150000D03*
X123900000Y-102000000D03*
X120750000Y-101900000D03*
X89550000Y-116550000D03*
D20*
X127415685Y-116850000D02*
X127515685Y-116950000D01*
X126850000Y-116850000D02*
X127415685Y-116850000D01*
X132550000Y-116950000D02*
X132750000Y-117150000D01*
X127515685Y-116950000D02*
X132550000Y-116950000D01*
X89550000Y-116550000D02*
X89550000Y-103950000D01*
X100950000Y-80840000D02*
X102060000Y-81950000D01*
X99700000Y-80840000D02*
X100950000Y-80840000D01*
X102060000Y-81950000D02*
X102060000Y-82060000D01*
X109490000Y-89490000D02*
X111750000Y-89490000D01*
X102060000Y-82060000D02*
X109490000Y-89490000D01*
X131070000Y-87950000D02*
X131070000Y-92093590D01*
X131070000Y-92093590D02*
X123063590Y-100100000D01*
X122550000Y-100100000D02*
X120750000Y-101900000D01*
X123063590Y-100100000D02*
X122550000Y-100100000D01*
X132810001Y-88749999D02*
X132810001Y-90989999D01*
X133610000Y-87950000D02*
X132810001Y-88749999D01*
X123900000Y-99900000D02*
X123900000Y-102000000D01*
X132810001Y-90989999D02*
X123900000Y-99900000D01*
D21*
G36*
X162769774Y-65815905D02*
G01*
X162497821Y-66222911D01*
X162310497Y-66675152D01*
X162215000Y-67155249D01*
X162215000Y-67644751D01*
X162310497Y-68124848D01*
X162497821Y-68577089D01*
X162769774Y-68984095D01*
X163115905Y-69330226D01*
X163522911Y-69602179D01*
X163975152Y-69789503D01*
X164455249Y-69885000D01*
X164944751Y-69885000D01*
X165424848Y-69789503D01*
X165877089Y-69602179D01*
X166284095Y-69330226D01*
X166445402Y-69168919D01*
X166445401Y-118588277D01*
X166330226Y-118415905D01*
X165984095Y-118069774D01*
X165577089Y-117797821D01*
X165124848Y-117610497D01*
X164644751Y-117515000D01*
X164155249Y-117515000D01*
X163675152Y-117610497D01*
X163222911Y-117797821D01*
X162815905Y-118069774D01*
X162469774Y-118415905D01*
X162197821Y-118822911D01*
X162010497Y-119275152D01*
X161915000Y-119755249D01*
X161915000Y-120244751D01*
X162010497Y-120724848D01*
X162197821Y-121177089D01*
X162469774Y-121584095D01*
X162815905Y-121930226D01*
X163222911Y-122202179D01*
X163675152Y-122389503D01*
X164155249Y-122485000D01*
X164644751Y-122485000D01*
X165124848Y-122389503D01*
X165577089Y-122202179D01*
X165984095Y-121930226D01*
X166330226Y-121584095D01*
X166445401Y-121411724D01*
X166445401Y-122647993D01*
X86107844Y-122647993D01*
X86284095Y-122530226D01*
X86630226Y-122184095D01*
X86902179Y-121777089D01*
X87089503Y-121324848D01*
X87185000Y-120844751D01*
X87185000Y-120355249D01*
X87089503Y-119875152D01*
X86902179Y-119422911D01*
X86630226Y-119015905D01*
X86284095Y-118669774D01*
X85877089Y-118397821D01*
X85424848Y-118210497D01*
X84944751Y-118115000D01*
X84455249Y-118115000D01*
X83975152Y-118210497D01*
X83522911Y-118397821D01*
X83115905Y-118669774D01*
X82769774Y-119015905D01*
X82578401Y-119302315D01*
X82578401Y-103100000D01*
X88061928Y-103100000D01*
X88061928Y-104800000D01*
X88074188Y-104924482D01*
X88110498Y-105044180D01*
X88169463Y-105154494D01*
X88248815Y-105251185D01*
X88345506Y-105330537D01*
X88455820Y-105389502D01*
X88575518Y-105425812D01*
X88700000Y-105438072D01*
X88790001Y-105438072D01*
X88790000Y-115846289D01*
X88746063Y-115890226D01*
X88632795Y-116059744D01*
X88554774Y-116248102D01*
X88515000Y-116448061D01*
X88515000Y-116651939D01*
X88554774Y-116851898D01*
X88632795Y-117040256D01*
X88746063Y-117209774D01*
X88890226Y-117353937D01*
X89059744Y-117467205D01*
X89248102Y-117545226D01*
X89448061Y-117585000D01*
X89651939Y-117585000D01*
X89851898Y-117545226D01*
X90040256Y-117467205D01*
X90209774Y-117353937D01*
X90263711Y-117300000D01*
X96161928Y-117300000D01*
X96161928Y-119000000D01*
X96174188Y-119124482D01*
X96210498Y-119244180D01*
X96269463Y-119354494D01*
X96348815Y-119451185D01*
X96445506Y-119530537D01*
X96555820Y-119589502D01*
X96675518Y-119625812D01*
X96800000Y-119638072D01*
X98500000Y-119638072D01*
X98624482Y-119625812D01*
X98744180Y-119589502D01*
X98854494Y-119530537D01*
X98951185Y-119451185D01*
X99030537Y-119354494D01*
X99089502Y-119244180D01*
X99110393Y-119175313D01*
X99134866Y-119205134D01*
X99360986Y-119390706D01*
X99618966Y-119528599D01*
X99898889Y-119613513D01*
X100117050Y-119635000D01*
X100262950Y-119635000D01*
X100481111Y-119613513D01*
X100761034Y-119528599D01*
X101019014Y-119390706D01*
X101245134Y-119205134D01*
X101430706Y-118979014D01*
X101460000Y-118924209D01*
X101489294Y-118979014D01*
X101674866Y-119205134D01*
X101900986Y-119390706D01*
X102158966Y-119528599D01*
X102438889Y-119613513D01*
X102657050Y-119635000D01*
X102802950Y-119635000D01*
X103021111Y-119613513D01*
X103301034Y-119528599D01*
X103559014Y-119390706D01*
X103785134Y-119205134D01*
X103970706Y-118979014D01*
X104108599Y-118721034D01*
X104193513Y-118441111D01*
X104222185Y-118150000D01*
X104193513Y-117858889D01*
X104108599Y-117578966D01*
X103970706Y-117320986D01*
X103785134Y-117094866D01*
X103559014Y-116909294D01*
X103301034Y-116771401D01*
X103224093Y-116748061D01*
X125815000Y-116748061D01*
X125815000Y-116951939D01*
X125854774Y-117151898D01*
X125932795Y-117340256D01*
X126046063Y-117509774D01*
X126190226Y-117653937D01*
X126359744Y-117767205D01*
X126548102Y-117845226D01*
X126748061Y-117885000D01*
X126951939Y-117885000D01*
X127151898Y-117845226D01*
X127340256Y-117767205D01*
X127432612Y-117705495D01*
X127478352Y-117710000D01*
X127478362Y-117710000D01*
X127515684Y-117713676D01*
X127553007Y-117710000D01*
X131879396Y-117710000D01*
X131946063Y-117809774D01*
X132090226Y-117953937D01*
X132259744Y-118067205D01*
X132448102Y-118145226D01*
X132648061Y-118185000D01*
X132851939Y-118185000D01*
X133051898Y-118145226D01*
X133240256Y-118067205D01*
X133409774Y-117953937D01*
X133553937Y-117809774D01*
X133667205Y-117640256D01*
X133745226Y-117451898D01*
X133785000Y-117251939D01*
X133785000Y-117048061D01*
X133745226Y-116848102D01*
X133667205Y-116659744D01*
X133572607Y-116518167D01*
X139685000Y-116518167D01*
X139685000Y-116840233D01*
X139747832Y-117156112D01*
X139871082Y-117453663D01*
X140050013Y-117721452D01*
X140277748Y-117949187D01*
X140545537Y-118128118D01*
X140843088Y-118251368D01*
X141158967Y-118314200D01*
X141481033Y-118314200D01*
X141796912Y-118251368D01*
X142094463Y-118128118D01*
X142362252Y-117949187D01*
X142589987Y-117721452D01*
X142768918Y-117453663D01*
X142892168Y-117156112D01*
X142955000Y-116840233D01*
X142955000Y-116565189D01*
X146517000Y-116565189D01*
X146517000Y-116838011D01*
X146570225Y-117105589D01*
X146674629Y-117357643D01*
X146826201Y-117584486D01*
X147019114Y-117777399D01*
X147245957Y-117928971D01*
X147498011Y-118033375D01*
X147765589Y-118086600D01*
X148038411Y-118086600D01*
X148305989Y-118033375D01*
X148558043Y-117928971D01*
X148784886Y-117777399D01*
X148922000Y-117640285D01*
X149059114Y-117777399D01*
X149285957Y-117928971D01*
X149538011Y-118033375D01*
X149805589Y-118086600D01*
X150078411Y-118086600D01*
X150345989Y-118033375D01*
X150598043Y-117928971D01*
X150824886Y-117777399D01*
X151017799Y-117584486D01*
X151169371Y-117357643D01*
X151273775Y-117105589D01*
X151327000Y-116838011D01*
X151327000Y-116565189D01*
X151273775Y-116297611D01*
X151169371Y-116045557D01*
X151017799Y-115818714D01*
X150824886Y-115625801D01*
X150598043Y-115474229D01*
X150345989Y-115369825D01*
X150078411Y-115316600D01*
X149805589Y-115316600D01*
X149538011Y-115369825D01*
X149285957Y-115474229D01*
X149059114Y-115625801D01*
X148922000Y-115762915D01*
X148784886Y-115625801D01*
X148558043Y-115474229D01*
X148305989Y-115369825D01*
X148038411Y-115316600D01*
X147765589Y-115316600D01*
X147498011Y-115369825D01*
X147245957Y-115474229D01*
X147019114Y-115625801D01*
X146826201Y-115818714D01*
X146674629Y-116045557D01*
X146570225Y-116297611D01*
X146517000Y-116565189D01*
X142955000Y-116565189D01*
X142955000Y-116518167D01*
X142892168Y-116202288D01*
X142768918Y-115904737D01*
X142589987Y-115636948D01*
X142415868Y-115462829D01*
X142440782Y-115473149D01*
X142877409Y-115560000D01*
X143322591Y-115560000D01*
X143759218Y-115473149D01*
X144170511Y-115302786D01*
X144540666Y-115055456D01*
X144855456Y-114740666D01*
X145102786Y-114370511D01*
X145273149Y-113959218D01*
X145320257Y-113722389D01*
X145547800Y-113722389D01*
X145547800Y-113995211D01*
X145601025Y-114262789D01*
X145705429Y-114514843D01*
X145857001Y-114741686D01*
X146049914Y-114934599D01*
X146276757Y-115086171D01*
X146528811Y-115190575D01*
X146796389Y-115243800D01*
X147069211Y-115243800D01*
X147336789Y-115190575D01*
X147588843Y-115086171D01*
X147815686Y-114934599D01*
X147952800Y-114797485D01*
X148089914Y-114934599D01*
X148316757Y-115086171D01*
X148568811Y-115190575D01*
X148836389Y-115243800D01*
X149109211Y-115243800D01*
X149376789Y-115190575D01*
X149628843Y-115086171D01*
X149855686Y-114934599D01*
X149992800Y-114797485D01*
X150129914Y-114934599D01*
X150356757Y-115086171D01*
X150608811Y-115190575D01*
X150876389Y-115243800D01*
X151149211Y-115243800D01*
X151416789Y-115190575D01*
X151668843Y-115086171D01*
X151800765Y-114998024D01*
X151851615Y-115059985D01*
X151948306Y-115139337D01*
X152058620Y-115198302D01*
X152178318Y-115234612D01*
X152302800Y-115246872D01*
X153802800Y-115246872D01*
X153927282Y-115234612D01*
X154046980Y-115198302D01*
X154157294Y-115139337D01*
X154253985Y-115059985D01*
X154303513Y-114999635D01*
X154359334Y-115055456D01*
X154729489Y-115302786D01*
X155140782Y-115473149D01*
X155577409Y-115560000D01*
X156022591Y-115560000D01*
X156459218Y-115473149D01*
X156484132Y-115462829D01*
X156310013Y-115636948D01*
X156131082Y-115904737D01*
X156007832Y-116202288D01*
X155945000Y-116518167D01*
X155945000Y-116840233D01*
X156007832Y-117156112D01*
X156131082Y-117453663D01*
X156310013Y-117721452D01*
X156537748Y-117949187D01*
X156805537Y-118128118D01*
X157103088Y-118251368D01*
X157418967Y-118314200D01*
X157741033Y-118314200D01*
X158056912Y-118251368D01*
X158354463Y-118128118D01*
X158622252Y-117949187D01*
X158849987Y-117721452D01*
X159028918Y-117453663D01*
X159152168Y-117156112D01*
X159215000Y-116840233D01*
X159215000Y-116518167D01*
X159152168Y-116202288D01*
X159028918Y-115904737D01*
X158849987Y-115636948D01*
X158622252Y-115409213D01*
X158354463Y-115230282D01*
X158056912Y-115107032D01*
X157741033Y-115044200D01*
X157418967Y-115044200D01*
X157189075Y-115089928D01*
X157240666Y-115055456D01*
X157555456Y-114740666D01*
X157802786Y-114370511D01*
X157973149Y-113959218D01*
X158060000Y-113522591D01*
X158060000Y-113077409D01*
X157973149Y-112640782D01*
X157802786Y-112229489D01*
X157555456Y-111859334D01*
X157240666Y-111544544D01*
X156870511Y-111297214D01*
X156459218Y-111126851D01*
X156022591Y-111040000D01*
X155577409Y-111040000D01*
X155140782Y-111126851D01*
X154729489Y-111297214D01*
X154359334Y-111544544D01*
X154044544Y-111859334D01*
X153797214Y-112229489D01*
X153697290Y-112470728D01*
X152302800Y-112470728D01*
X152178318Y-112482988D01*
X152058620Y-112519298D01*
X151948306Y-112578263D01*
X151851615Y-112657615D01*
X151800765Y-112719576D01*
X151668843Y-112631429D01*
X151416789Y-112527025D01*
X151149211Y-112473800D01*
X150876389Y-112473800D01*
X150608811Y-112527025D01*
X150356757Y-112631429D01*
X150129914Y-112783001D01*
X149992800Y-112920115D01*
X149855686Y-112783001D01*
X149628843Y-112631429D01*
X149376789Y-112527025D01*
X149109211Y-112473800D01*
X148836389Y-112473800D01*
X148568811Y-112527025D01*
X148316757Y-112631429D01*
X148089914Y-112783001D01*
X147952800Y-112920115D01*
X147815686Y-112783001D01*
X147588843Y-112631429D01*
X147336789Y-112527025D01*
X147069211Y-112473800D01*
X146796389Y-112473800D01*
X146528811Y-112527025D01*
X146276757Y-112631429D01*
X146049914Y-112783001D01*
X145857001Y-112975914D01*
X145705429Y-113202757D01*
X145601025Y-113454811D01*
X145547800Y-113722389D01*
X145320257Y-113722389D01*
X145360000Y-113522591D01*
X145360000Y-113077409D01*
X145273149Y-112640782D01*
X145102786Y-112229489D01*
X144855456Y-111859334D01*
X144540666Y-111544544D01*
X144170511Y-111297214D01*
X143759218Y-111126851D01*
X143322591Y-111040000D01*
X142877409Y-111040000D01*
X142440782Y-111126851D01*
X142029489Y-111297214D01*
X141659334Y-111544544D01*
X141344544Y-111859334D01*
X141097214Y-112229489D01*
X140926851Y-112640782D01*
X140840000Y-113077409D01*
X140840000Y-113522591D01*
X140926851Y-113959218D01*
X141097214Y-114370511D01*
X141344544Y-114740666D01*
X141659334Y-115055456D01*
X141710925Y-115089928D01*
X141481033Y-115044200D01*
X141158967Y-115044200D01*
X140843088Y-115107032D01*
X140545537Y-115230282D01*
X140277748Y-115409213D01*
X140050013Y-115636948D01*
X139871082Y-115904737D01*
X139747832Y-116202288D01*
X139685000Y-116518167D01*
X133572607Y-116518167D01*
X133553937Y-116490226D01*
X133409774Y-116346063D01*
X133240256Y-116232795D01*
X133051898Y-116154774D01*
X132851939Y-116115000D01*
X132648061Y-116115000D01*
X132448102Y-116154774D01*
X132363060Y-116190000D01*
X127793141Y-116190000D01*
X127707932Y-116144454D01*
X127564724Y-116101013D01*
X127509774Y-116046063D01*
X127340256Y-115932795D01*
X127151898Y-115854774D01*
X126951939Y-115815000D01*
X126748061Y-115815000D01*
X126548102Y-115854774D01*
X126359744Y-115932795D01*
X126190226Y-116046063D01*
X126046063Y-116190226D01*
X125932795Y-116359744D01*
X125854774Y-116548102D01*
X125815000Y-116748061D01*
X103224093Y-116748061D01*
X103021111Y-116686487D01*
X102802950Y-116665000D01*
X102657050Y-116665000D01*
X102438889Y-116686487D01*
X102158966Y-116771401D01*
X101900986Y-116909294D01*
X101674866Y-117094866D01*
X101489294Y-117320986D01*
X101460000Y-117375791D01*
X101430706Y-117320986D01*
X101245134Y-117094866D01*
X101019014Y-116909294D01*
X100761034Y-116771401D01*
X100481111Y-116686487D01*
X100262950Y-116665000D01*
X100117050Y-116665000D01*
X99898889Y-116686487D01*
X99618966Y-116771401D01*
X99360986Y-116909294D01*
X99134866Y-117094866D01*
X99110393Y-117124687D01*
X99089502Y-117055820D01*
X99030537Y-116945506D01*
X98951185Y-116848815D01*
X98854494Y-116769463D01*
X98744180Y-116710498D01*
X98624482Y-116674188D01*
X98500000Y-116661928D01*
X96800000Y-116661928D01*
X96675518Y-116674188D01*
X96555820Y-116710498D01*
X96445506Y-116769463D01*
X96348815Y-116848815D01*
X96269463Y-116945506D01*
X96210498Y-117055820D01*
X96174188Y-117175518D01*
X96161928Y-117300000D01*
X90263711Y-117300000D01*
X90353937Y-117209774D01*
X90467205Y-117040256D01*
X90545226Y-116851898D01*
X90585000Y-116651939D01*
X90585000Y-116448061D01*
X90545226Y-116248102D01*
X90467205Y-116059744D01*
X90353937Y-115890226D01*
X90310000Y-115846289D01*
X90310000Y-105438072D01*
X90400000Y-105438072D01*
X90524482Y-105425812D01*
X90644180Y-105389502D01*
X90754494Y-105330537D01*
X90851185Y-105251185D01*
X90930537Y-105154494D01*
X90989502Y-105044180D01*
X91025812Y-104924482D01*
X91038072Y-104800000D01*
X91038072Y-103950000D01*
X93137815Y-103950000D01*
X93166487Y-104241111D01*
X93251401Y-104521034D01*
X93389294Y-104779014D01*
X93574866Y-105005134D01*
X93800986Y-105190706D01*
X94058966Y-105328599D01*
X94338889Y-105413513D01*
X94557050Y-105435000D01*
X94702950Y-105435000D01*
X94921111Y-105413513D01*
X95201034Y-105328599D01*
X95459014Y-105190706D01*
X95685134Y-105005134D01*
X95870706Y-104779014D01*
X95900000Y-104724209D01*
X95929294Y-104779014D01*
X96114866Y-105005134D01*
X96340986Y-105190706D01*
X96598966Y-105328599D01*
X96878889Y-105413513D01*
X97097050Y-105435000D01*
X97242950Y-105435000D01*
X97461111Y-105413513D01*
X97741034Y-105328599D01*
X97999014Y-105190706D01*
X98225134Y-105005134D01*
X98410706Y-104779014D01*
X98440000Y-104724209D01*
X98469294Y-104779014D01*
X98654866Y-105005134D01*
X98880986Y-105190706D01*
X99138966Y-105328599D01*
X99418889Y-105413513D01*
X99637050Y-105435000D01*
X99782950Y-105435000D01*
X100001111Y-105413513D01*
X100281034Y-105328599D01*
X100539014Y-105190706D01*
X100765134Y-105005134D01*
X100950706Y-104779014D01*
X101088599Y-104521034D01*
X101173513Y-104241111D01*
X101202185Y-103950000D01*
X101173513Y-103658889D01*
X101088599Y-103378966D01*
X100950706Y-103120986D01*
X100891354Y-103048665D01*
X129635000Y-103048665D01*
X129635000Y-103331335D01*
X129690147Y-103608574D01*
X129798320Y-103869727D01*
X129955363Y-104104759D01*
X130155241Y-104304637D01*
X130390273Y-104461680D01*
X130651426Y-104569853D01*
X130928665Y-104625000D01*
X131211335Y-104625000D01*
X131488574Y-104569853D01*
X131749727Y-104461680D01*
X131984759Y-104304637D01*
X132184637Y-104104759D01*
X132340000Y-103872241D01*
X132495363Y-104104759D01*
X132695241Y-104304637D01*
X132930273Y-104461680D01*
X133191426Y-104569853D01*
X133468665Y-104625000D01*
X133751335Y-104625000D01*
X134028574Y-104569853D01*
X134289727Y-104461680D01*
X134524759Y-104304637D01*
X134724637Y-104104759D01*
X134880000Y-103872241D01*
X135035363Y-104104759D01*
X135235241Y-104304637D01*
X135470273Y-104461680D01*
X135731426Y-104569853D01*
X136008665Y-104625000D01*
X136291335Y-104625000D01*
X136568574Y-104569853D01*
X136829727Y-104461680D01*
X137064759Y-104304637D01*
X137264637Y-104104759D01*
X137420000Y-103872241D01*
X137575363Y-104104759D01*
X137775241Y-104304637D01*
X138010273Y-104461680D01*
X138271426Y-104569853D01*
X138548665Y-104625000D01*
X138831335Y-104625000D01*
X139108574Y-104569853D01*
X139369727Y-104461680D01*
X139604759Y-104304637D01*
X139804637Y-104104759D01*
X139960000Y-103872241D01*
X140115363Y-104104759D01*
X140315241Y-104304637D01*
X140550273Y-104461680D01*
X140811426Y-104569853D01*
X141088665Y-104625000D01*
X141371335Y-104625000D01*
X141648574Y-104569853D01*
X141909727Y-104461680D01*
X142144759Y-104304637D01*
X142344637Y-104104759D01*
X142500000Y-103872241D01*
X142655363Y-104104759D01*
X142855241Y-104304637D01*
X143090273Y-104461680D01*
X143351426Y-104569853D01*
X143628665Y-104625000D01*
X143911335Y-104625000D01*
X144188574Y-104569853D01*
X144449727Y-104461680D01*
X144684759Y-104304637D01*
X144884637Y-104104759D01*
X145040000Y-103872241D01*
X145195363Y-104104759D01*
X145395241Y-104304637D01*
X145630273Y-104461680D01*
X145891426Y-104569853D01*
X146168665Y-104625000D01*
X146451335Y-104625000D01*
X146728574Y-104569853D01*
X146989727Y-104461680D01*
X147224759Y-104304637D01*
X147424637Y-104104759D01*
X147580000Y-103872241D01*
X147735363Y-104104759D01*
X147935241Y-104304637D01*
X148170273Y-104461680D01*
X148431426Y-104569853D01*
X148708665Y-104625000D01*
X148991335Y-104625000D01*
X149268574Y-104569853D01*
X149529727Y-104461680D01*
X149764759Y-104304637D01*
X149964637Y-104104759D01*
X150120000Y-103872241D01*
X150275363Y-104104759D01*
X150475241Y-104304637D01*
X150710273Y-104461680D01*
X150971426Y-104569853D01*
X151248665Y-104625000D01*
X151531335Y-104625000D01*
X151808574Y-104569853D01*
X152069727Y-104461680D01*
X152304759Y-104304637D01*
X152504637Y-104104759D01*
X152660000Y-103872241D01*
X152815363Y-104104759D01*
X153015241Y-104304637D01*
X153250273Y-104461680D01*
X153511426Y-104569853D01*
X153788665Y-104625000D01*
X154071335Y-104625000D01*
X154348574Y-104569853D01*
X154609727Y-104461680D01*
X154844759Y-104304637D01*
X155044637Y-104104759D01*
X155200000Y-103872241D01*
X155355363Y-104104759D01*
X155555241Y-104304637D01*
X155790273Y-104461680D01*
X156051426Y-104569853D01*
X156328665Y-104625000D01*
X156611335Y-104625000D01*
X156888574Y-104569853D01*
X157149727Y-104461680D01*
X157384759Y-104304637D01*
X157584637Y-104104759D01*
X157740000Y-103872241D01*
X157895363Y-104104759D01*
X158095241Y-104304637D01*
X158330273Y-104461680D01*
X158591426Y-104569853D01*
X158868665Y-104625000D01*
X159151335Y-104625000D01*
X159428574Y-104569853D01*
X159689727Y-104461680D01*
X159924759Y-104304637D01*
X160124637Y-104104759D01*
X160280000Y-103872241D01*
X160435363Y-104104759D01*
X160635241Y-104304637D01*
X160870273Y-104461680D01*
X161131426Y-104569853D01*
X161408665Y-104625000D01*
X161691335Y-104625000D01*
X161968574Y-104569853D01*
X162229727Y-104461680D01*
X162464759Y-104304637D01*
X162664637Y-104104759D01*
X162820000Y-103872241D01*
X162975363Y-104104759D01*
X163175241Y-104304637D01*
X163410273Y-104461680D01*
X163671426Y-104569853D01*
X163948665Y-104625000D01*
X164231335Y-104625000D01*
X164508574Y-104569853D01*
X164769727Y-104461680D01*
X165004759Y-104304637D01*
X165204637Y-104104759D01*
X165361680Y-103869727D01*
X165469853Y-103608574D01*
X165525000Y-103331335D01*
X165525000Y-103048665D01*
X165469853Y-102771426D01*
X165361680Y-102510273D01*
X165204637Y-102275241D01*
X165004759Y-102075363D01*
X164769727Y-101918320D01*
X164508574Y-101810147D01*
X164231335Y-101755000D01*
X163948665Y-101755000D01*
X163671426Y-101810147D01*
X163410273Y-101918320D01*
X163175241Y-102075363D01*
X162975363Y-102275241D01*
X162820000Y-102507759D01*
X162664637Y-102275241D01*
X162464759Y-102075363D01*
X162229727Y-101918320D01*
X161968574Y-101810147D01*
X161691335Y-101755000D01*
X161408665Y-101755000D01*
X161131426Y-101810147D01*
X160870273Y-101918320D01*
X160635241Y-102075363D01*
X160435363Y-102275241D01*
X160280000Y-102507759D01*
X160124637Y-102275241D01*
X159924759Y-102075363D01*
X159689727Y-101918320D01*
X159428574Y-101810147D01*
X159151335Y-101755000D01*
X158868665Y-101755000D01*
X158591426Y-101810147D01*
X158330273Y-101918320D01*
X158095241Y-102075363D01*
X157895363Y-102275241D01*
X157740000Y-102507759D01*
X157584637Y-102275241D01*
X157384759Y-102075363D01*
X157149727Y-101918320D01*
X156888574Y-101810147D01*
X156611335Y-101755000D01*
X156328665Y-101755000D01*
X156051426Y-101810147D01*
X155790273Y-101918320D01*
X155555241Y-102075363D01*
X155355363Y-102275241D01*
X155200000Y-102507759D01*
X155044637Y-102275241D01*
X154844759Y-102075363D01*
X154609727Y-101918320D01*
X154348574Y-101810147D01*
X154071335Y-101755000D01*
X153788665Y-101755000D01*
X153511426Y-101810147D01*
X153250273Y-101918320D01*
X153015241Y-102075363D01*
X152815363Y-102275241D01*
X152660000Y-102507759D01*
X152504637Y-102275241D01*
X152304759Y-102075363D01*
X152069727Y-101918320D01*
X151808574Y-101810147D01*
X151531335Y-101755000D01*
X151248665Y-101755000D01*
X150971426Y-101810147D01*
X150710273Y-101918320D01*
X150475241Y-102075363D01*
X150275363Y-102275241D01*
X150120000Y-102507759D01*
X149964637Y-102275241D01*
X149764759Y-102075363D01*
X149529727Y-101918320D01*
X149268574Y-101810147D01*
X148991335Y-101755000D01*
X148708665Y-101755000D01*
X148431426Y-101810147D01*
X148170273Y-101918320D01*
X147935241Y-102075363D01*
X147735363Y-102275241D01*
X147580000Y-102507759D01*
X147424637Y-102275241D01*
X147224759Y-102075363D01*
X146989727Y-101918320D01*
X146728574Y-101810147D01*
X146451335Y-101755000D01*
X146168665Y-101755000D01*
X145891426Y-101810147D01*
X145630273Y-101918320D01*
X145395241Y-102075363D01*
X145195363Y-102275241D01*
X145040000Y-102507759D01*
X144884637Y-102275241D01*
X144684759Y-102075363D01*
X144449727Y-101918320D01*
X144188574Y-101810147D01*
X143911335Y-101755000D01*
X143628665Y-101755000D01*
X143351426Y-101810147D01*
X143090273Y-101918320D01*
X142855241Y-102075363D01*
X142655363Y-102275241D01*
X142500000Y-102507759D01*
X142344637Y-102275241D01*
X142144759Y-102075363D01*
X141909727Y-101918320D01*
X141648574Y-101810147D01*
X141371335Y-101755000D01*
X141088665Y-101755000D01*
X140811426Y-101810147D01*
X140550273Y-101918320D01*
X140315241Y-102075363D01*
X140115363Y-102275241D01*
X139960000Y-102507759D01*
X139804637Y-102275241D01*
X139604759Y-102075363D01*
X139369727Y-101918320D01*
X139108574Y-101810147D01*
X138831335Y-101755000D01*
X138548665Y-101755000D01*
X138271426Y-101810147D01*
X138010273Y-101918320D01*
X137775241Y-102075363D01*
X137575363Y-102275241D01*
X137420000Y-102507759D01*
X137264637Y-102275241D01*
X137064759Y-102075363D01*
X136829727Y-101918320D01*
X136568574Y-101810147D01*
X136291335Y-101755000D01*
X136008665Y-101755000D01*
X135731426Y-101810147D01*
X135470273Y-101918320D01*
X135235241Y-102075363D01*
X135035363Y-102275241D01*
X134880000Y-102507759D01*
X134724637Y-102275241D01*
X134524759Y-102075363D01*
X134289727Y-101918320D01*
X134028574Y-101810147D01*
X133751335Y-101755000D01*
X133468665Y-101755000D01*
X133191426Y-101810147D01*
X132930273Y-101918320D01*
X132695241Y-102075363D01*
X132495363Y-102275241D01*
X132340000Y-102507759D01*
X132184637Y-102275241D01*
X131984759Y-102075363D01*
X131749727Y-101918320D01*
X131488574Y-101810147D01*
X131211335Y-101755000D01*
X130928665Y-101755000D01*
X130651426Y-101810147D01*
X130390273Y-101918320D01*
X130155241Y-102075363D01*
X129955363Y-102275241D01*
X129798320Y-102510273D01*
X129690147Y-102771426D01*
X129635000Y-103048665D01*
X100891354Y-103048665D01*
X100765134Y-102894866D01*
X100539014Y-102709294D01*
X100281034Y-102571401D01*
X100001111Y-102486487D01*
X99782950Y-102465000D01*
X99637050Y-102465000D01*
X99418889Y-102486487D01*
X99138966Y-102571401D01*
X98880986Y-102709294D01*
X98654866Y-102894866D01*
X98469294Y-103120986D01*
X98440000Y-103175791D01*
X98410706Y-103120986D01*
X98225134Y-102894866D01*
X97999014Y-102709294D01*
X97741034Y-102571401D01*
X97461111Y-102486487D01*
X97242950Y-102465000D01*
X97097050Y-102465000D01*
X96878889Y-102486487D01*
X96598966Y-102571401D01*
X96340986Y-102709294D01*
X96114866Y-102894866D01*
X95929294Y-103120986D01*
X95900000Y-103175791D01*
X95870706Y-103120986D01*
X95685134Y-102894866D01*
X95459014Y-102709294D01*
X95201034Y-102571401D01*
X94921111Y-102486487D01*
X94702950Y-102465000D01*
X94557050Y-102465000D01*
X94338889Y-102486487D01*
X94058966Y-102571401D01*
X93800986Y-102709294D01*
X93574866Y-102894866D01*
X93389294Y-103120986D01*
X93251401Y-103378966D01*
X93166487Y-103658889D01*
X93137815Y-103950000D01*
X91038072Y-103950000D01*
X91038072Y-103100000D01*
X91025812Y-102975518D01*
X90989502Y-102855820D01*
X90930537Y-102745506D01*
X90851185Y-102648815D01*
X90754494Y-102569463D01*
X90644180Y-102510498D01*
X90524482Y-102474188D01*
X90400000Y-102461928D01*
X88700000Y-102461928D01*
X88575518Y-102474188D01*
X88455820Y-102510498D01*
X88345506Y-102569463D01*
X88248815Y-102648815D01*
X88169463Y-102745506D01*
X88110498Y-102855820D01*
X88074188Y-102975518D01*
X88061928Y-103100000D01*
X82578401Y-103100000D01*
X82578401Y-101798061D01*
X119715000Y-101798061D01*
X119715000Y-102001939D01*
X119754774Y-102201898D01*
X119832795Y-102390256D01*
X119946063Y-102559774D01*
X120090226Y-102703937D01*
X120259744Y-102817205D01*
X120448102Y-102895226D01*
X120648061Y-102935000D01*
X120851939Y-102935000D01*
X121051898Y-102895226D01*
X121240256Y-102817205D01*
X121409774Y-102703937D01*
X121553937Y-102559774D01*
X121667205Y-102390256D01*
X121745226Y-102201898D01*
X121785000Y-102001939D01*
X121785000Y-101939802D01*
X122864803Y-100860000D01*
X123026268Y-100860000D01*
X123063590Y-100863676D01*
X123100912Y-100860000D01*
X123100923Y-100860000D01*
X123140000Y-100856151D01*
X123140001Y-101296288D01*
X123096063Y-101340226D01*
X122982795Y-101509744D01*
X122904774Y-101698102D01*
X122865000Y-101898061D01*
X122865000Y-102101939D01*
X122904774Y-102301898D01*
X122982795Y-102490256D01*
X123096063Y-102659774D01*
X123240226Y-102803937D01*
X123409744Y-102917205D01*
X123598102Y-102995226D01*
X123798061Y-103035000D01*
X124001939Y-103035000D01*
X124201898Y-102995226D01*
X124390256Y-102917205D01*
X124559774Y-102803937D01*
X124703937Y-102659774D01*
X124817205Y-102490256D01*
X124895226Y-102301898D01*
X124935000Y-102101939D01*
X124935000Y-101898061D01*
X124895226Y-101698102D01*
X124817205Y-101509744D01*
X124703937Y-101340226D01*
X124660000Y-101296289D01*
X124660000Y-100214801D01*
X133321004Y-91553798D01*
X133350002Y-91530000D01*
X133444975Y-91414275D01*
X133515547Y-91282246D01*
X133559004Y-91138985D01*
X133570001Y-91027332D01*
X133570001Y-91027323D01*
X133573677Y-90990000D01*
X133570001Y-90952677D01*
X133570001Y-89385000D01*
X133751335Y-89385000D01*
X134028574Y-89329853D01*
X134289727Y-89221680D01*
X134524759Y-89064637D01*
X134724637Y-88864759D01*
X134880000Y-88632241D01*
X135035363Y-88864759D01*
X135235241Y-89064637D01*
X135470273Y-89221680D01*
X135731426Y-89329853D01*
X136008665Y-89385000D01*
X136291335Y-89385000D01*
X136568574Y-89329853D01*
X136829727Y-89221680D01*
X137064759Y-89064637D01*
X137264637Y-88864759D01*
X137420000Y-88632241D01*
X137575363Y-88864759D01*
X137775241Y-89064637D01*
X138010273Y-89221680D01*
X138271426Y-89329853D01*
X138548665Y-89385000D01*
X138831335Y-89385000D01*
X139108574Y-89329853D01*
X139369727Y-89221680D01*
X139604759Y-89064637D01*
X139804637Y-88864759D01*
X139960000Y-88632241D01*
X140115363Y-88864759D01*
X140315241Y-89064637D01*
X140550273Y-89221680D01*
X140811426Y-89329853D01*
X141088665Y-89385000D01*
X141371335Y-89385000D01*
X141648574Y-89329853D01*
X141909727Y-89221680D01*
X142144759Y-89064637D01*
X142344637Y-88864759D01*
X142500000Y-88632241D01*
X142655363Y-88864759D01*
X142855241Y-89064637D01*
X143090273Y-89221680D01*
X143351426Y-89329853D01*
X143628665Y-89385000D01*
X143911335Y-89385000D01*
X144188574Y-89329853D01*
X144449727Y-89221680D01*
X144684759Y-89064637D01*
X144884637Y-88864759D01*
X145040000Y-88632241D01*
X145195363Y-88864759D01*
X145395241Y-89064637D01*
X145630273Y-89221680D01*
X145891426Y-89329853D01*
X146168665Y-89385000D01*
X146451335Y-89385000D01*
X146728574Y-89329853D01*
X146989727Y-89221680D01*
X147224759Y-89064637D01*
X147424637Y-88864759D01*
X147580000Y-88632241D01*
X147735363Y-88864759D01*
X147935241Y-89064637D01*
X148170273Y-89221680D01*
X148431426Y-89329853D01*
X148708665Y-89385000D01*
X148991335Y-89385000D01*
X149268574Y-89329853D01*
X149529727Y-89221680D01*
X149764759Y-89064637D01*
X149964637Y-88864759D01*
X150120000Y-88632241D01*
X150275363Y-88864759D01*
X150475241Y-89064637D01*
X150710273Y-89221680D01*
X150971426Y-89329853D01*
X151248665Y-89385000D01*
X151531335Y-89385000D01*
X151808574Y-89329853D01*
X152069727Y-89221680D01*
X152304759Y-89064637D01*
X152504637Y-88864759D01*
X152660000Y-88632241D01*
X152815363Y-88864759D01*
X153015241Y-89064637D01*
X153250273Y-89221680D01*
X153511426Y-89329853D01*
X153788665Y-89385000D01*
X154071335Y-89385000D01*
X154348574Y-89329853D01*
X154609727Y-89221680D01*
X154844759Y-89064637D01*
X155044637Y-88864759D01*
X155200000Y-88632241D01*
X155355363Y-88864759D01*
X155555241Y-89064637D01*
X155790273Y-89221680D01*
X156051426Y-89329853D01*
X156328665Y-89385000D01*
X156611335Y-89385000D01*
X156888574Y-89329853D01*
X157149727Y-89221680D01*
X157384759Y-89064637D01*
X157584637Y-88864759D01*
X157740000Y-88632241D01*
X157895363Y-88864759D01*
X158095241Y-89064637D01*
X158330273Y-89221680D01*
X158591426Y-89329853D01*
X158868665Y-89385000D01*
X159151335Y-89385000D01*
X159428574Y-89329853D01*
X159689727Y-89221680D01*
X159924759Y-89064637D01*
X160124637Y-88864759D01*
X160280000Y-88632241D01*
X160435363Y-88864759D01*
X160635241Y-89064637D01*
X160870273Y-89221680D01*
X161131426Y-89329853D01*
X161408665Y-89385000D01*
X161691335Y-89385000D01*
X161968574Y-89329853D01*
X162229727Y-89221680D01*
X162464759Y-89064637D01*
X162664637Y-88864759D01*
X162821680Y-88629727D01*
X162929853Y-88368574D01*
X162985000Y-88091335D01*
X162985000Y-87808665D01*
X162929853Y-87531426D01*
X162821680Y-87270273D01*
X162664637Y-87035241D01*
X162464759Y-86835363D01*
X162229727Y-86678320D01*
X161968574Y-86570147D01*
X161691335Y-86515000D01*
X161408665Y-86515000D01*
X161131426Y-86570147D01*
X160870273Y-86678320D01*
X160635241Y-86835363D01*
X160435363Y-87035241D01*
X160280000Y-87267759D01*
X160124637Y-87035241D01*
X159924759Y-86835363D01*
X159689727Y-86678320D01*
X159428574Y-86570147D01*
X159151335Y-86515000D01*
X158868665Y-86515000D01*
X158591426Y-86570147D01*
X158330273Y-86678320D01*
X158095241Y-86835363D01*
X157895363Y-87035241D01*
X157740000Y-87267759D01*
X157584637Y-87035241D01*
X157384759Y-86835363D01*
X157149727Y-86678320D01*
X156888574Y-86570147D01*
X156611335Y-86515000D01*
X156328665Y-86515000D01*
X156051426Y-86570147D01*
X155790273Y-86678320D01*
X155555241Y-86835363D01*
X155355363Y-87035241D01*
X155200000Y-87267759D01*
X155044637Y-87035241D01*
X154844759Y-86835363D01*
X154609727Y-86678320D01*
X154348574Y-86570147D01*
X154071335Y-86515000D01*
X153788665Y-86515000D01*
X153511426Y-86570147D01*
X153250273Y-86678320D01*
X153015241Y-86835363D01*
X152815363Y-87035241D01*
X152660000Y-87267759D01*
X152504637Y-87035241D01*
X152304759Y-86835363D01*
X152069727Y-86678320D01*
X151808574Y-86570147D01*
X151531335Y-86515000D01*
X151248665Y-86515000D01*
X150971426Y-86570147D01*
X150710273Y-86678320D01*
X150475241Y-86835363D01*
X150275363Y-87035241D01*
X150120000Y-87267759D01*
X149964637Y-87035241D01*
X149764759Y-86835363D01*
X149529727Y-86678320D01*
X149268574Y-86570147D01*
X148991335Y-86515000D01*
X148708665Y-86515000D01*
X148431426Y-86570147D01*
X148170273Y-86678320D01*
X147935241Y-86835363D01*
X147735363Y-87035241D01*
X147580000Y-87267759D01*
X147424637Y-87035241D01*
X147224759Y-86835363D01*
X146989727Y-86678320D01*
X146728574Y-86570147D01*
X146451335Y-86515000D01*
X146168665Y-86515000D01*
X145891426Y-86570147D01*
X145630273Y-86678320D01*
X145395241Y-86835363D01*
X145195363Y-87035241D01*
X145040000Y-87267759D01*
X144884637Y-87035241D01*
X144684759Y-86835363D01*
X144449727Y-86678320D01*
X144188574Y-86570147D01*
X143911335Y-86515000D01*
X143628665Y-86515000D01*
X143351426Y-86570147D01*
X143090273Y-86678320D01*
X142855241Y-86835363D01*
X142655363Y-87035241D01*
X142500000Y-87267759D01*
X142344637Y-87035241D01*
X142144759Y-86835363D01*
X141909727Y-86678320D01*
X141648574Y-86570147D01*
X141371335Y-86515000D01*
X141088665Y-86515000D01*
X140811426Y-86570147D01*
X140550273Y-86678320D01*
X140315241Y-86835363D01*
X140115363Y-87035241D01*
X139960000Y-87267759D01*
X139804637Y-87035241D01*
X139604759Y-86835363D01*
X139369727Y-86678320D01*
X139108574Y-86570147D01*
X138831335Y-86515000D01*
X138548665Y-86515000D01*
X138271426Y-86570147D01*
X138010273Y-86678320D01*
X137775241Y-86835363D01*
X137575363Y-87035241D01*
X137420000Y-87267759D01*
X137264637Y-87035241D01*
X137064759Y-86835363D01*
X136829727Y-86678320D01*
X136568574Y-86570147D01*
X136291335Y-86515000D01*
X136008665Y-86515000D01*
X135731426Y-86570147D01*
X135470273Y-86678320D01*
X135235241Y-86835363D01*
X135035363Y-87035241D01*
X134880000Y-87267759D01*
X134724637Y-87035241D01*
X134524759Y-86835363D01*
X134289727Y-86678320D01*
X134028574Y-86570147D01*
X133751335Y-86515000D01*
X133468665Y-86515000D01*
X133191426Y-86570147D01*
X132930273Y-86678320D01*
X132695241Y-86835363D01*
X132495363Y-87035241D01*
X132340000Y-87267759D01*
X132184637Y-87035241D01*
X131984759Y-86835363D01*
X131749727Y-86678320D01*
X131488574Y-86570147D01*
X131211335Y-86515000D01*
X130928665Y-86515000D01*
X130651426Y-86570147D01*
X130390273Y-86678320D01*
X130155241Y-86835363D01*
X129955363Y-87035241D01*
X129798320Y-87270273D01*
X129690147Y-87531426D01*
X129635000Y-87808665D01*
X129635000Y-88091335D01*
X129690147Y-88368574D01*
X129798320Y-88629727D01*
X129955363Y-88864759D01*
X130155241Y-89064637D01*
X130310000Y-89168044D01*
X130310001Y-91778787D01*
X122748789Y-99340000D01*
X122587322Y-99340000D01*
X122549999Y-99336324D01*
X122512676Y-99340000D01*
X122512667Y-99340000D01*
X122401014Y-99350997D01*
X122257753Y-99394454D01*
X122125724Y-99465026D01*
X122125722Y-99465027D01*
X122125723Y-99465027D01*
X122038996Y-99536201D01*
X122038992Y-99536205D01*
X122009999Y-99559999D01*
X121986205Y-99588992D01*
X120710198Y-100865000D01*
X120648061Y-100865000D01*
X120448102Y-100904774D01*
X120259744Y-100982795D01*
X120090226Y-101096063D01*
X119946063Y-101240226D01*
X119832795Y-101409744D01*
X119754774Y-101598102D01*
X119715000Y-101798061D01*
X82578401Y-101798061D01*
X82578401Y-91400000D01*
X84161928Y-91400000D01*
X84161928Y-93100000D01*
X84174188Y-93224482D01*
X84210498Y-93344180D01*
X84269463Y-93454494D01*
X84348815Y-93551185D01*
X84445506Y-93630537D01*
X84555820Y-93689502D01*
X84675518Y-93725812D01*
X84800000Y-93738072D01*
X86500000Y-93738072D01*
X86624482Y-93725812D01*
X86744180Y-93689502D01*
X86854494Y-93630537D01*
X86951185Y-93551185D01*
X87030537Y-93454494D01*
X87089502Y-93344180D01*
X87125812Y-93224482D01*
X87138072Y-93100000D01*
X87138072Y-91400000D01*
X87125812Y-91275518D01*
X87089502Y-91155820D01*
X87030537Y-91045506D01*
X86951185Y-90948815D01*
X86854494Y-90869463D01*
X86744180Y-90810498D01*
X86624482Y-90774188D01*
X86500000Y-90761928D01*
X84800000Y-90761928D01*
X84675518Y-90774188D01*
X84555820Y-90810498D01*
X84445506Y-90869463D01*
X84348815Y-90948815D01*
X84269463Y-91045506D01*
X84210498Y-91155820D01*
X84174188Y-91275518D01*
X84161928Y-91400000D01*
X82578401Y-91400000D01*
X82578401Y-80840000D01*
X98057319Y-80840000D01*
X98087970Y-81151204D01*
X98178745Y-81450449D01*
X98326155Y-81726235D01*
X98524537Y-81967963D01*
X98766265Y-82166345D01*
X99042051Y-82313755D01*
X99341296Y-82404530D01*
X99574514Y-82427500D01*
X99825486Y-82427500D01*
X100058704Y-82404530D01*
X100357949Y-82313755D01*
X100633735Y-82166345D01*
X100875463Y-81967963D01*
X100933024Y-81897825D01*
X101340089Y-82304891D01*
X101354454Y-82352247D01*
X101425026Y-82484276D01*
X101519999Y-82600001D01*
X101549002Y-82623803D01*
X108926201Y-90001003D01*
X108949999Y-90030001D01*
X109065724Y-90124974D01*
X109197753Y-90195546D01*
X109341014Y-90239003D01*
X109452667Y-90250000D01*
X109452675Y-90250000D01*
X109490000Y-90253676D01*
X109527325Y-90250000D01*
X110472405Y-90250000D01*
X110509294Y-90319014D01*
X110694866Y-90545134D01*
X110920986Y-90730706D01*
X110975791Y-90760000D01*
X110920986Y-90789294D01*
X110694866Y-90974866D01*
X110509294Y-91200986D01*
X110371401Y-91458966D01*
X110286487Y-91738889D01*
X110257815Y-92030000D01*
X110286487Y-92321111D01*
X110371401Y-92601034D01*
X110509294Y-92859014D01*
X110694866Y-93085134D01*
X110920986Y-93270706D01*
X111178966Y-93408599D01*
X111458889Y-93493513D01*
X111677050Y-93515000D01*
X111822950Y-93515000D01*
X112041111Y-93493513D01*
X112321034Y-93408599D01*
X112579014Y-93270706D01*
X112805134Y-93085134D01*
X112990706Y-92859014D01*
X113128599Y-92601034D01*
X113213513Y-92321111D01*
X113242185Y-92030000D01*
X113213513Y-91738889D01*
X113128599Y-91458966D01*
X112990706Y-91200986D01*
X112805134Y-90974866D01*
X112579014Y-90789294D01*
X112524209Y-90760000D01*
X112579014Y-90730706D01*
X112805134Y-90545134D01*
X112990706Y-90319014D01*
X113128599Y-90061034D01*
X113213513Y-89781111D01*
X113242185Y-89490000D01*
X113213513Y-89198889D01*
X113128599Y-88918966D01*
X112990706Y-88660986D01*
X112805134Y-88434866D01*
X112579014Y-88249294D01*
X112321034Y-88111401D01*
X112041111Y-88026487D01*
X111822950Y-88005000D01*
X111677050Y-88005000D01*
X111458889Y-88026487D01*
X111178966Y-88111401D01*
X110920986Y-88249294D01*
X110694866Y-88434866D01*
X110509294Y-88660986D01*
X110472405Y-88730000D01*
X109804802Y-88730000D01*
X105484802Y-84410000D01*
X110257815Y-84410000D01*
X110286487Y-84701111D01*
X110371401Y-84981034D01*
X110509294Y-85239014D01*
X110694866Y-85465134D01*
X110920986Y-85650706D01*
X111178966Y-85788599D01*
X111458889Y-85873513D01*
X111677050Y-85895000D01*
X111822950Y-85895000D01*
X112041111Y-85873513D01*
X112321034Y-85788599D01*
X112579014Y-85650706D01*
X112805134Y-85465134D01*
X112990706Y-85239014D01*
X113128599Y-84981034D01*
X113213513Y-84701111D01*
X113242185Y-84410000D01*
X113213513Y-84118889D01*
X113128599Y-83838966D01*
X112990706Y-83580986D01*
X112805134Y-83354866D01*
X112775313Y-83330393D01*
X112844180Y-83309502D01*
X112954494Y-83250537D01*
X113051185Y-83171185D01*
X113130537Y-83074494D01*
X113189502Y-82964180D01*
X113225812Y-82844482D01*
X113238072Y-82720000D01*
X113238072Y-81020000D01*
X113225812Y-80895518D01*
X113189502Y-80775820D01*
X113130537Y-80665506D01*
X113051185Y-80568815D01*
X112954494Y-80489463D01*
X112844180Y-80430498D01*
X112724482Y-80394188D01*
X112600000Y-80381928D01*
X110900000Y-80381928D01*
X110775518Y-80394188D01*
X110655820Y-80430498D01*
X110545506Y-80489463D01*
X110448815Y-80568815D01*
X110369463Y-80665506D01*
X110310498Y-80775820D01*
X110274188Y-80895518D01*
X110261928Y-81020000D01*
X110261928Y-82720000D01*
X110274188Y-82844482D01*
X110310498Y-82964180D01*
X110369463Y-83074494D01*
X110448815Y-83171185D01*
X110545506Y-83250537D01*
X110655820Y-83309502D01*
X110724687Y-83330393D01*
X110694866Y-83354866D01*
X110509294Y-83580986D01*
X110371401Y-83838966D01*
X110286487Y-84118889D01*
X110257815Y-84410000D01*
X105484802Y-84410000D01*
X102779911Y-81705110D01*
X102765546Y-81657753D01*
X102728798Y-81589003D01*
X102694974Y-81525723D01*
X102623799Y-81438997D01*
X102600001Y-81409999D01*
X102571004Y-81386202D01*
X101513804Y-80329002D01*
X101490001Y-80299999D01*
X101374276Y-80205026D01*
X101242247Y-80134454D01*
X101156526Y-80108451D01*
X101073845Y-79953765D01*
X100970554Y-79827905D01*
X101054494Y-79783037D01*
X101151185Y-79703685D01*
X101230537Y-79606994D01*
X101289502Y-79496680D01*
X101325812Y-79376982D01*
X101338072Y-79252500D01*
X101338072Y-77347500D01*
X101325812Y-77223018D01*
X101289502Y-77103320D01*
X101230537Y-76993006D01*
X101151185Y-76896315D01*
X101054494Y-76816963D01*
X100944180Y-76757998D01*
X100824482Y-76721688D01*
X100700000Y-76709428D01*
X98700000Y-76709428D01*
X98575518Y-76721688D01*
X98455820Y-76757998D01*
X98345506Y-76816963D01*
X98248815Y-76896315D01*
X98169463Y-76993006D01*
X98110498Y-77103320D01*
X98074188Y-77223018D01*
X98061928Y-77347500D01*
X98061928Y-79252500D01*
X98074188Y-79376982D01*
X98110498Y-79496680D01*
X98169463Y-79606994D01*
X98248815Y-79703685D01*
X98345506Y-79783037D01*
X98429446Y-79827905D01*
X98326155Y-79953765D01*
X98178745Y-80229551D01*
X98087970Y-80528796D01*
X98057319Y-80840000D01*
X82578401Y-80840000D01*
X82578401Y-68847346D01*
X82669774Y-68984095D01*
X83015905Y-69330226D01*
X83422911Y-69602179D01*
X83875152Y-69789503D01*
X84355249Y-69885000D01*
X84844751Y-69885000D01*
X85324848Y-69789503D01*
X85777089Y-69602179D01*
X86184095Y-69330226D01*
X86530226Y-68984095D01*
X86802179Y-68577089D01*
X86989503Y-68124848D01*
X87085000Y-67644751D01*
X87085000Y-67155249D01*
X86989503Y-66675152D01*
X86802179Y-66222911D01*
X86530226Y-65815905D01*
X86419316Y-65704995D01*
X162880684Y-65704995D01*
X162769774Y-65815905D01*
X162769774Y-65815905D01*
G37*
X162769774Y-65815905D02*
X162497821Y-66222911D01*
X162310497Y-66675152D01*
X162215000Y-67155249D01*
X162215000Y-67644751D01*
X162310497Y-68124848D01*
X162497821Y-68577089D01*
X162769774Y-68984095D01*
X163115905Y-69330226D01*
X163522911Y-69602179D01*
X163975152Y-69789503D01*
X164455249Y-69885000D01*
X164944751Y-69885000D01*
X165424848Y-69789503D01*
X165877089Y-69602179D01*
X166284095Y-69330226D01*
X166445402Y-69168919D01*
X166445401Y-118588277D01*
X166330226Y-118415905D01*
X165984095Y-118069774D01*
X165577089Y-117797821D01*
X165124848Y-117610497D01*
X164644751Y-117515000D01*
X164155249Y-117515000D01*
X163675152Y-117610497D01*
X163222911Y-117797821D01*
X162815905Y-118069774D01*
X162469774Y-118415905D01*
X162197821Y-118822911D01*
X162010497Y-119275152D01*
X161915000Y-119755249D01*
X161915000Y-120244751D01*
X162010497Y-120724848D01*
X162197821Y-121177089D01*
X162469774Y-121584095D01*
X162815905Y-121930226D01*
X163222911Y-122202179D01*
X163675152Y-122389503D01*
X164155249Y-122485000D01*
X164644751Y-122485000D01*
X165124848Y-122389503D01*
X165577089Y-122202179D01*
X165984095Y-121930226D01*
X166330226Y-121584095D01*
X166445401Y-121411724D01*
X166445401Y-122647993D01*
X86107844Y-122647993D01*
X86284095Y-122530226D01*
X86630226Y-122184095D01*
X86902179Y-121777089D01*
X87089503Y-121324848D01*
X87185000Y-120844751D01*
X87185000Y-120355249D01*
X87089503Y-119875152D01*
X86902179Y-119422911D01*
X86630226Y-119015905D01*
X86284095Y-118669774D01*
X85877089Y-118397821D01*
X85424848Y-118210497D01*
X84944751Y-118115000D01*
X84455249Y-118115000D01*
X83975152Y-118210497D01*
X83522911Y-118397821D01*
X83115905Y-118669774D01*
X82769774Y-119015905D01*
X82578401Y-119302315D01*
X82578401Y-103100000D01*
X88061928Y-103100000D01*
X88061928Y-104800000D01*
X88074188Y-104924482D01*
X88110498Y-105044180D01*
X88169463Y-105154494D01*
X88248815Y-105251185D01*
X88345506Y-105330537D01*
X88455820Y-105389502D01*
X88575518Y-105425812D01*
X88700000Y-105438072D01*
X88790001Y-105438072D01*
X88790000Y-115846289D01*
X88746063Y-115890226D01*
X88632795Y-116059744D01*
X88554774Y-116248102D01*
X88515000Y-116448061D01*
X88515000Y-116651939D01*
X88554774Y-116851898D01*
X88632795Y-117040256D01*
X88746063Y-117209774D01*
X88890226Y-117353937D01*
X89059744Y-117467205D01*
X89248102Y-117545226D01*
X89448061Y-117585000D01*
X89651939Y-117585000D01*
X89851898Y-117545226D01*
X90040256Y-117467205D01*
X90209774Y-117353937D01*
X90263711Y-117300000D01*
X96161928Y-117300000D01*
X96161928Y-119000000D01*
X96174188Y-119124482D01*
X96210498Y-119244180D01*
X96269463Y-119354494D01*
X96348815Y-119451185D01*
X96445506Y-119530537D01*
X96555820Y-119589502D01*
X96675518Y-119625812D01*
X96800000Y-119638072D01*
X98500000Y-119638072D01*
X98624482Y-119625812D01*
X98744180Y-119589502D01*
X98854494Y-119530537D01*
X98951185Y-119451185D01*
X99030537Y-119354494D01*
X99089502Y-119244180D01*
X99110393Y-119175313D01*
X99134866Y-119205134D01*
X99360986Y-119390706D01*
X99618966Y-119528599D01*
X99898889Y-119613513D01*
X100117050Y-119635000D01*
X100262950Y-119635000D01*
X100481111Y-119613513D01*
X100761034Y-119528599D01*
X101019014Y-119390706D01*
X101245134Y-119205134D01*
X101430706Y-118979014D01*
X101460000Y-118924209D01*
X101489294Y-118979014D01*
X101674866Y-119205134D01*
X101900986Y-119390706D01*
X102158966Y-119528599D01*
X102438889Y-119613513D01*
X102657050Y-119635000D01*
X102802950Y-119635000D01*
X103021111Y-119613513D01*
X103301034Y-119528599D01*
X103559014Y-119390706D01*
X103785134Y-119205134D01*
X103970706Y-118979014D01*
X104108599Y-118721034D01*
X104193513Y-118441111D01*
X104222185Y-118150000D01*
X104193513Y-117858889D01*
X104108599Y-117578966D01*
X103970706Y-117320986D01*
X103785134Y-117094866D01*
X103559014Y-116909294D01*
X103301034Y-116771401D01*
X103224093Y-116748061D01*
X125815000Y-116748061D01*
X125815000Y-116951939D01*
X125854774Y-117151898D01*
X125932795Y-117340256D01*
X126046063Y-117509774D01*
X126190226Y-117653937D01*
X126359744Y-117767205D01*
X126548102Y-117845226D01*
X126748061Y-117885000D01*
X126951939Y-117885000D01*
X127151898Y-117845226D01*
X127340256Y-117767205D01*
X127432612Y-117705495D01*
X127478352Y-117710000D01*
X127478362Y-117710000D01*
X127515684Y-117713676D01*
X127553007Y-117710000D01*
X131879396Y-117710000D01*
X131946063Y-117809774D01*
X132090226Y-117953937D01*
X132259744Y-118067205D01*
X132448102Y-118145226D01*
X132648061Y-118185000D01*
X132851939Y-118185000D01*
X133051898Y-118145226D01*
X133240256Y-118067205D01*
X133409774Y-117953937D01*
X133553937Y-117809774D01*
X133667205Y-117640256D01*
X133745226Y-117451898D01*
X133785000Y-117251939D01*
X133785000Y-117048061D01*
X133745226Y-116848102D01*
X133667205Y-116659744D01*
X133572607Y-116518167D01*
X139685000Y-116518167D01*
X139685000Y-116840233D01*
X139747832Y-117156112D01*
X139871082Y-117453663D01*
X140050013Y-117721452D01*
X140277748Y-117949187D01*
X140545537Y-118128118D01*
X140843088Y-118251368D01*
X141158967Y-118314200D01*
X141481033Y-118314200D01*
X141796912Y-118251368D01*
X142094463Y-118128118D01*
X142362252Y-117949187D01*
X142589987Y-117721452D01*
X142768918Y-117453663D01*
X142892168Y-117156112D01*
X142955000Y-116840233D01*
X142955000Y-116565189D01*
X146517000Y-116565189D01*
X146517000Y-116838011D01*
X146570225Y-117105589D01*
X146674629Y-117357643D01*
X146826201Y-117584486D01*
X147019114Y-117777399D01*
X147245957Y-117928971D01*
X147498011Y-118033375D01*
X147765589Y-118086600D01*
X148038411Y-118086600D01*
X148305989Y-118033375D01*
X148558043Y-117928971D01*
X148784886Y-117777399D01*
X148922000Y-117640285D01*
X149059114Y-117777399D01*
X149285957Y-117928971D01*
X149538011Y-118033375D01*
X149805589Y-118086600D01*
X150078411Y-118086600D01*
X150345989Y-118033375D01*
X150598043Y-117928971D01*
X150824886Y-117777399D01*
X151017799Y-117584486D01*
X151169371Y-117357643D01*
X151273775Y-117105589D01*
X151327000Y-116838011D01*
X151327000Y-116565189D01*
X151273775Y-116297611D01*
X151169371Y-116045557D01*
X151017799Y-115818714D01*
X150824886Y-115625801D01*
X150598043Y-115474229D01*
X150345989Y-115369825D01*
X150078411Y-115316600D01*
X149805589Y-115316600D01*
X149538011Y-115369825D01*
X149285957Y-115474229D01*
X149059114Y-115625801D01*
X148922000Y-115762915D01*
X148784886Y-115625801D01*
X148558043Y-115474229D01*
X148305989Y-115369825D01*
X148038411Y-115316600D01*
X147765589Y-115316600D01*
X147498011Y-115369825D01*
X147245957Y-115474229D01*
X147019114Y-115625801D01*
X146826201Y-115818714D01*
X146674629Y-116045557D01*
X146570225Y-116297611D01*
X146517000Y-116565189D01*
X142955000Y-116565189D01*
X142955000Y-116518167D01*
X142892168Y-116202288D01*
X142768918Y-115904737D01*
X142589987Y-115636948D01*
X142415868Y-115462829D01*
X142440782Y-115473149D01*
X142877409Y-115560000D01*
X143322591Y-115560000D01*
X143759218Y-115473149D01*
X144170511Y-115302786D01*
X144540666Y-115055456D01*
X144855456Y-114740666D01*
X145102786Y-114370511D01*
X145273149Y-113959218D01*
X145320257Y-113722389D01*
X145547800Y-113722389D01*
X145547800Y-113995211D01*
X145601025Y-114262789D01*
X145705429Y-114514843D01*
X145857001Y-114741686D01*
X146049914Y-114934599D01*
X146276757Y-115086171D01*
X146528811Y-115190575D01*
X146796389Y-115243800D01*
X147069211Y-115243800D01*
X147336789Y-115190575D01*
X147588843Y-115086171D01*
X147815686Y-114934599D01*
X147952800Y-114797485D01*
X148089914Y-114934599D01*
X148316757Y-115086171D01*
X148568811Y-115190575D01*
X148836389Y-115243800D01*
X149109211Y-115243800D01*
X149376789Y-115190575D01*
X149628843Y-115086171D01*
X149855686Y-114934599D01*
X149992800Y-114797485D01*
X150129914Y-114934599D01*
X150356757Y-115086171D01*
X150608811Y-115190575D01*
X150876389Y-115243800D01*
X151149211Y-115243800D01*
X151416789Y-115190575D01*
X151668843Y-115086171D01*
X151800765Y-114998024D01*
X151851615Y-115059985D01*
X151948306Y-115139337D01*
X152058620Y-115198302D01*
X152178318Y-115234612D01*
X152302800Y-115246872D01*
X153802800Y-115246872D01*
X153927282Y-115234612D01*
X154046980Y-115198302D01*
X154157294Y-115139337D01*
X154253985Y-115059985D01*
X154303513Y-114999635D01*
X154359334Y-115055456D01*
X154729489Y-115302786D01*
X155140782Y-115473149D01*
X155577409Y-115560000D01*
X156022591Y-115560000D01*
X156459218Y-115473149D01*
X156484132Y-115462829D01*
X156310013Y-115636948D01*
X156131082Y-115904737D01*
X156007832Y-116202288D01*
X155945000Y-116518167D01*
X155945000Y-116840233D01*
X156007832Y-117156112D01*
X156131082Y-117453663D01*
X156310013Y-117721452D01*
X156537748Y-117949187D01*
X156805537Y-118128118D01*
X157103088Y-118251368D01*
X157418967Y-118314200D01*
X157741033Y-118314200D01*
X158056912Y-118251368D01*
X158354463Y-118128118D01*
X158622252Y-117949187D01*
X158849987Y-117721452D01*
X159028918Y-117453663D01*
X159152168Y-117156112D01*
X159215000Y-116840233D01*
X159215000Y-116518167D01*
X159152168Y-116202288D01*
X159028918Y-115904737D01*
X158849987Y-115636948D01*
X158622252Y-115409213D01*
X158354463Y-115230282D01*
X158056912Y-115107032D01*
X157741033Y-115044200D01*
X157418967Y-115044200D01*
X157189075Y-115089928D01*
X157240666Y-115055456D01*
X157555456Y-114740666D01*
X157802786Y-114370511D01*
X157973149Y-113959218D01*
X158060000Y-113522591D01*
X158060000Y-113077409D01*
X157973149Y-112640782D01*
X157802786Y-112229489D01*
X157555456Y-111859334D01*
X157240666Y-111544544D01*
X156870511Y-111297214D01*
X156459218Y-111126851D01*
X156022591Y-111040000D01*
X155577409Y-111040000D01*
X155140782Y-111126851D01*
X154729489Y-111297214D01*
X154359334Y-111544544D01*
X154044544Y-111859334D01*
X153797214Y-112229489D01*
X153697290Y-112470728D01*
X152302800Y-112470728D01*
X152178318Y-112482988D01*
X152058620Y-112519298D01*
X151948306Y-112578263D01*
X151851615Y-112657615D01*
X151800765Y-112719576D01*
X151668843Y-112631429D01*
X151416789Y-112527025D01*
X151149211Y-112473800D01*
X150876389Y-112473800D01*
X150608811Y-112527025D01*
X150356757Y-112631429D01*
X150129914Y-112783001D01*
X149992800Y-112920115D01*
X149855686Y-112783001D01*
X149628843Y-112631429D01*
X149376789Y-112527025D01*
X149109211Y-112473800D01*
X148836389Y-112473800D01*
X148568811Y-112527025D01*
X148316757Y-112631429D01*
X148089914Y-112783001D01*
X147952800Y-112920115D01*
X147815686Y-112783001D01*
X147588843Y-112631429D01*
X147336789Y-112527025D01*
X147069211Y-112473800D01*
X146796389Y-112473800D01*
X146528811Y-112527025D01*
X146276757Y-112631429D01*
X146049914Y-112783001D01*
X145857001Y-112975914D01*
X145705429Y-113202757D01*
X145601025Y-113454811D01*
X145547800Y-113722389D01*
X145320257Y-113722389D01*
X145360000Y-113522591D01*
X145360000Y-113077409D01*
X145273149Y-112640782D01*
X145102786Y-112229489D01*
X144855456Y-111859334D01*
X144540666Y-111544544D01*
X144170511Y-111297214D01*
X143759218Y-111126851D01*
X143322591Y-111040000D01*
X142877409Y-111040000D01*
X142440782Y-111126851D01*
X142029489Y-111297214D01*
X141659334Y-111544544D01*
X141344544Y-111859334D01*
X141097214Y-112229489D01*
X140926851Y-112640782D01*
X140840000Y-113077409D01*
X140840000Y-113522591D01*
X140926851Y-113959218D01*
X141097214Y-114370511D01*
X141344544Y-114740666D01*
X141659334Y-115055456D01*
X141710925Y-115089928D01*
X141481033Y-115044200D01*
X141158967Y-115044200D01*
X140843088Y-115107032D01*
X140545537Y-115230282D01*
X140277748Y-115409213D01*
X140050013Y-115636948D01*
X139871082Y-115904737D01*
X139747832Y-116202288D01*
X139685000Y-116518167D01*
X133572607Y-116518167D01*
X133553937Y-116490226D01*
X133409774Y-116346063D01*
X133240256Y-116232795D01*
X133051898Y-116154774D01*
X132851939Y-116115000D01*
X132648061Y-116115000D01*
X132448102Y-116154774D01*
X132363060Y-116190000D01*
X127793141Y-116190000D01*
X127707932Y-116144454D01*
X127564724Y-116101013D01*
X127509774Y-116046063D01*
X127340256Y-115932795D01*
X127151898Y-115854774D01*
X126951939Y-115815000D01*
X126748061Y-115815000D01*
X126548102Y-115854774D01*
X126359744Y-115932795D01*
X126190226Y-116046063D01*
X126046063Y-116190226D01*
X125932795Y-116359744D01*
X125854774Y-116548102D01*
X125815000Y-116748061D01*
X103224093Y-116748061D01*
X103021111Y-116686487D01*
X102802950Y-116665000D01*
X102657050Y-116665000D01*
X102438889Y-116686487D01*
X102158966Y-116771401D01*
X101900986Y-116909294D01*
X101674866Y-117094866D01*
X101489294Y-117320986D01*
X101460000Y-117375791D01*
X101430706Y-117320986D01*
X101245134Y-117094866D01*
X101019014Y-116909294D01*
X100761034Y-116771401D01*
X100481111Y-116686487D01*
X100262950Y-116665000D01*
X100117050Y-116665000D01*
X99898889Y-116686487D01*
X99618966Y-116771401D01*
X99360986Y-116909294D01*
X99134866Y-117094866D01*
X99110393Y-117124687D01*
X99089502Y-117055820D01*
X99030537Y-116945506D01*
X98951185Y-116848815D01*
X98854494Y-116769463D01*
X98744180Y-116710498D01*
X98624482Y-116674188D01*
X98500000Y-116661928D01*
X96800000Y-116661928D01*
X96675518Y-116674188D01*
X96555820Y-116710498D01*
X96445506Y-116769463D01*
X96348815Y-116848815D01*
X96269463Y-116945506D01*
X96210498Y-117055820D01*
X96174188Y-117175518D01*
X96161928Y-117300000D01*
X90263711Y-117300000D01*
X90353937Y-117209774D01*
X90467205Y-117040256D01*
X90545226Y-116851898D01*
X90585000Y-116651939D01*
X90585000Y-116448061D01*
X90545226Y-116248102D01*
X90467205Y-116059744D01*
X90353937Y-115890226D01*
X90310000Y-115846289D01*
X90310000Y-105438072D01*
X90400000Y-105438072D01*
X90524482Y-105425812D01*
X90644180Y-105389502D01*
X90754494Y-105330537D01*
X90851185Y-105251185D01*
X90930537Y-105154494D01*
X90989502Y-105044180D01*
X91025812Y-104924482D01*
X91038072Y-104800000D01*
X91038072Y-103950000D01*
X93137815Y-103950000D01*
X93166487Y-104241111D01*
X93251401Y-104521034D01*
X93389294Y-104779014D01*
X93574866Y-105005134D01*
X93800986Y-105190706D01*
X94058966Y-105328599D01*
X94338889Y-105413513D01*
X94557050Y-105435000D01*
X94702950Y-105435000D01*
X94921111Y-105413513D01*
X95201034Y-105328599D01*
X95459014Y-105190706D01*
X95685134Y-105005134D01*
X95870706Y-104779014D01*
X95900000Y-104724209D01*
X95929294Y-104779014D01*
X96114866Y-105005134D01*
X96340986Y-105190706D01*
X96598966Y-105328599D01*
X96878889Y-105413513D01*
X97097050Y-105435000D01*
X97242950Y-105435000D01*
X97461111Y-105413513D01*
X97741034Y-105328599D01*
X97999014Y-105190706D01*
X98225134Y-105005134D01*
X98410706Y-104779014D01*
X98440000Y-104724209D01*
X98469294Y-104779014D01*
X98654866Y-105005134D01*
X98880986Y-105190706D01*
X99138966Y-105328599D01*
X99418889Y-105413513D01*
X99637050Y-105435000D01*
X99782950Y-105435000D01*
X100001111Y-105413513D01*
X100281034Y-105328599D01*
X100539014Y-105190706D01*
X100765134Y-105005134D01*
X100950706Y-104779014D01*
X101088599Y-104521034D01*
X101173513Y-104241111D01*
X101202185Y-103950000D01*
X101173513Y-103658889D01*
X101088599Y-103378966D01*
X100950706Y-103120986D01*
X100891354Y-103048665D01*
X129635000Y-103048665D01*
X129635000Y-103331335D01*
X129690147Y-103608574D01*
X129798320Y-103869727D01*
X129955363Y-104104759D01*
X130155241Y-104304637D01*
X130390273Y-104461680D01*
X130651426Y-104569853D01*
X130928665Y-104625000D01*
X131211335Y-104625000D01*
X131488574Y-104569853D01*
X131749727Y-104461680D01*
X131984759Y-104304637D01*
X132184637Y-104104759D01*
X132340000Y-103872241D01*
X132495363Y-104104759D01*
X132695241Y-104304637D01*
X132930273Y-104461680D01*
X133191426Y-104569853D01*
X133468665Y-104625000D01*
X133751335Y-104625000D01*
X134028574Y-104569853D01*
X134289727Y-104461680D01*
X134524759Y-104304637D01*
X134724637Y-104104759D01*
X134880000Y-103872241D01*
X135035363Y-104104759D01*
X135235241Y-104304637D01*
X135470273Y-104461680D01*
X135731426Y-104569853D01*
X136008665Y-104625000D01*
X136291335Y-104625000D01*
X136568574Y-104569853D01*
X136829727Y-104461680D01*
X137064759Y-104304637D01*
X137264637Y-104104759D01*
X137420000Y-103872241D01*
X137575363Y-104104759D01*
X137775241Y-104304637D01*
X138010273Y-104461680D01*
X138271426Y-104569853D01*
X138548665Y-104625000D01*
X138831335Y-104625000D01*
X139108574Y-104569853D01*
X139369727Y-104461680D01*
X139604759Y-104304637D01*
X139804637Y-104104759D01*
X139960000Y-103872241D01*
X140115363Y-104104759D01*
X140315241Y-104304637D01*
X140550273Y-104461680D01*
X140811426Y-104569853D01*
X141088665Y-104625000D01*
X141371335Y-104625000D01*
X141648574Y-104569853D01*
X141909727Y-104461680D01*
X142144759Y-104304637D01*
X142344637Y-104104759D01*
X142500000Y-103872241D01*
X142655363Y-104104759D01*
X142855241Y-104304637D01*
X143090273Y-104461680D01*
X143351426Y-104569853D01*
X143628665Y-104625000D01*
X143911335Y-104625000D01*
X144188574Y-104569853D01*
X144449727Y-104461680D01*
X144684759Y-104304637D01*
X144884637Y-104104759D01*
X145040000Y-103872241D01*
X145195363Y-104104759D01*
X145395241Y-104304637D01*
X145630273Y-104461680D01*
X145891426Y-104569853D01*
X146168665Y-104625000D01*
X146451335Y-104625000D01*
X146728574Y-104569853D01*
X146989727Y-104461680D01*
X147224759Y-104304637D01*
X147424637Y-104104759D01*
X147580000Y-103872241D01*
X147735363Y-104104759D01*
X147935241Y-104304637D01*
X148170273Y-104461680D01*
X148431426Y-104569853D01*
X148708665Y-104625000D01*
X148991335Y-104625000D01*
X149268574Y-104569853D01*
X149529727Y-104461680D01*
X149764759Y-104304637D01*
X149964637Y-104104759D01*
X150120000Y-103872241D01*
X150275363Y-104104759D01*
X150475241Y-104304637D01*
X150710273Y-104461680D01*
X150971426Y-104569853D01*
X151248665Y-104625000D01*
X151531335Y-104625000D01*
X151808574Y-104569853D01*
X152069727Y-104461680D01*
X152304759Y-104304637D01*
X152504637Y-104104759D01*
X152660000Y-103872241D01*
X152815363Y-104104759D01*
X153015241Y-104304637D01*
X153250273Y-104461680D01*
X153511426Y-104569853D01*
X153788665Y-104625000D01*
X154071335Y-104625000D01*
X154348574Y-104569853D01*
X154609727Y-104461680D01*
X154844759Y-104304637D01*
X155044637Y-104104759D01*
X155200000Y-103872241D01*
X155355363Y-104104759D01*
X155555241Y-104304637D01*
X155790273Y-104461680D01*
X156051426Y-104569853D01*
X156328665Y-104625000D01*
X156611335Y-104625000D01*
X156888574Y-104569853D01*
X157149727Y-104461680D01*
X157384759Y-104304637D01*
X157584637Y-104104759D01*
X157740000Y-103872241D01*
X157895363Y-104104759D01*
X158095241Y-104304637D01*
X158330273Y-104461680D01*
X158591426Y-104569853D01*
X158868665Y-104625000D01*
X159151335Y-104625000D01*
X159428574Y-104569853D01*
X159689727Y-104461680D01*
X159924759Y-104304637D01*
X160124637Y-104104759D01*
X160280000Y-103872241D01*
X160435363Y-104104759D01*
X160635241Y-104304637D01*
X160870273Y-104461680D01*
X161131426Y-104569853D01*
X161408665Y-104625000D01*
X161691335Y-104625000D01*
X161968574Y-104569853D01*
X162229727Y-104461680D01*
X162464759Y-104304637D01*
X162664637Y-104104759D01*
X162820000Y-103872241D01*
X162975363Y-104104759D01*
X163175241Y-104304637D01*
X163410273Y-104461680D01*
X163671426Y-104569853D01*
X163948665Y-104625000D01*
X164231335Y-104625000D01*
X164508574Y-104569853D01*
X164769727Y-104461680D01*
X165004759Y-104304637D01*
X165204637Y-104104759D01*
X165361680Y-103869727D01*
X165469853Y-103608574D01*
X165525000Y-103331335D01*
X165525000Y-103048665D01*
X165469853Y-102771426D01*
X165361680Y-102510273D01*
X165204637Y-102275241D01*
X165004759Y-102075363D01*
X164769727Y-101918320D01*
X164508574Y-101810147D01*
X164231335Y-101755000D01*
X163948665Y-101755000D01*
X163671426Y-101810147D01*
X163410273Y-101918320D01*
X163175241Y-102075363D01*
X162975363Y-102275241D01*
X162820000Y-102507759D01*
X162664637Y-102275241D01*
X162464759Y-102075363D01*
X162229727Y-101918320D01*
X161968574Y-101810147D01*
X161691335Y-101755000D01*
X161408665Y-101755000D01*
X161131426Y-101810147D01*
X160870273Y-101918320D01*
X160635241Y-102075363D01*
X160435363Y-102275241D01*
X160280000Y-102507759D01*
X160124637Y-102275241D01*
X159924759Y-102075363D01*
X159689727Y-101918320D01*
X159428574Y-101810147D01*
X159151335Y-101755000D01*
X158868665Y-101755000D01*
X158591426Y-101810147D01*
X158330273Y-101918320D01*
X158095241Y-102075363D01*
X157895363Y-102275241D01*
X157740000Y-102507759D01*
X157584637Y-102275241D01*
X157384759Y-102075363D01*
X157149727Y-101918320D01*
X156888574Y-101810147D01*
X156611335Y-101755000D01*
X156328665Y-101755000D01*
X156051426Y-101810147D01*
X155790273Y-101918320D01*
X155555241Y-102075363D01*
X155355363Y-102275241D01*
X155200000Y-102507759D01*
X155044637Y-102275241D01*
X154844759Y-102075363D01*
X154609727Y-101918320D01*
X154348574Y-101810147D01*
X154071335Y-101755000D01*
X153788665Y-101755000D01*
X153511426Y-101810147D01*
X153250273Y-101918320D01*
X153015241Y-102075363D01*
X152815363Y-102275241D01*
X152660000Y-102507759D01*
X152504637Y-102275241D01*
X152304759Y-102075363D01*
X152069727Y-101918320D01*
X151808574Y-101810147D01*
X151531335Y-101755000D01*
X151248665Y-101755000D01*
X150971426Y-101810147D01*
X150710273Y-101918320D01*
X150475241Y-102075363D01*
X150275363Y-102275241D01*
X150120000Y-102507759D01*
X149964637Y-102275241D01*
X149764759Y-102075363D01*
X149529727Y-101918320D01*
X149268574Y-101810147D01*
X148991335Y-101755000D01*
X148708665Y-101755000D01*
X148431426Y-101810147D01*
X148170273Y-101918320D01*
X147935241Y-102075363D01*
X147735363Y-102275241D01*
X147580000Y-102507759D01*
X147424637Y-102275241D01*
X147224759Y-102075363D01*
X146989727Y-101918320D01*
X146728574Y-101810147D01*
X146451335Y-101755000D01*
X146168665Y-101755000D01*
X145891426Y-101810147D01*
X145630273Y-101918320D01*
X145395241Y-102075363D01*
X145195363Y-102275241D01*
X145040000Y-102507759D01*
X144884637Y-102275241D01*
X144684759Y-102075363D01*
X144449727Y-101918320D01*
X144188574Y-101810147D01*
X143911335Y-101755000D01*
X143628665Y-101755000D01*
X143351426Y-101810147D01*
X143090273Y-101918320D01*
X142855241Y-102075363D01*
X142655363Y-102275241D01*
X142500000Y-102507759D01*
X142344637Y-102275241D01*
X142144759Y-102075363D01*
X141909727Y-101918320D01*
X141648574Y-101810147D01*
X141371335Y-101755000D01*
X141088665Y-101755000D01*
X140811426Y-101810147D01*
X140550273Y-101918320D01*
X140315241Y-102075363D01*
X140115363Y-102275241D01*
X139960000Y-102507759D01*
X139804637Y-102275241D01*
X139604759Y-102075363D01*
X139369727Y-101918320D01*
X139108574Y-101810147D01*
X138831335Y-101755000D01*
X138548665Y-101755000D01*
X138271426Y-101810147D01*
X138010273Y-101918320D01*
X137775241Y-102075363D01*
X137575363Y-102275241D01*
X137420000Y-102507759D01*
X137264637Y-102275241D01*
X137064759Y-102075363D01*
X136829727Y-101918320D01*
X136568574Y-101810147D01*
X136291335Y-101755000D01*
X136008665Y-101755000D01*
X135731426Y-101810147D01*
X135470273Y-101918320D01*
X135235241Y-102075363D01*
X135035363Y-102275241D01*
X134880000Y-102507759D01*
X134724637Y-102275241D01*
X134524759Y-102075363D01*
X134289727Y-101918320D01*
X134028574Y-101810147D01*
X133751335Y-101755000D01*
X133468665Y-101755000D01*
X133191426Y-101810147D01*
X132930273Y-101918320D01*
X132695241Y-102075363D01*
X132495363Y-102275241D01*
X132340000Y-102507759D01*
X132184637Y-102275241D01*
X131984759Y-102075363D01*
X131749727Y-101918320D01*
X131488574Y-101810147D01*
X131211335Y-101755000D01*
X130928665Y-101755000D01*
X130651426Y-101810147D01*
X130390273Y-101918320D01*
X130155241Y-102075363D01*
X129955363Y-102275241D01*
X129798320Y-102510273D01*
X129690147Y-102771426D01*
X129635000Y-103048665D01*
X100891354Y-103048665D01*
X100765134Y-102894866D01*
X100539014Y-102709294D01*
X100281034Y-102571401D01*
X100001111Y-102486487D01*
X99782950Y-102465000D01*
X99637050Y-102465000D01*
X99418889Y-102486487D01*
X99138966Y-102571401D01*
X98880986Y-102709294D01*
X98654866Y-102894866D01*
X98469294Y-103120986D01*
X98440000Y-103175791D01*
X98410706Y-103120986D01*
X98225134Y-102894866D01*
X97999014Y-102709294D01*
X97741034Y-102571401D01*
X97461111Y-102486487D01*
X97242950Y-102465000D01*
X97097050Y-102465000D01*
X96878889Y-102486487D01*
X96598966Y-102571401D01*
X96340986Y-102709294D01*
X96114866Y-102894866D01*
X95929294Y-103120986D01*
X95900000Y-103175791D01*
X95870706Y-103120986D01*
X95685134Y-102894866D01*
X95459014Y-102709294D01*
X95201034Y-102571401D01*
X94921111Y-102486487D01*
X94702950Y-102465000D01*
X94557050Y-102465000D01*
X94338889Y-102486487D01*
X94058966Y-102571401D01*
X93800986Y-102709294D01*
X93574866Y-102894866D01*
X93389294Y-103120986D01*
X93251401Y-103378966D01*
X93166487Y-103658889D01*
X93137815Y-103950000D01*
X91038072Y-103950000D01*
X91038072Y-103100000D01*
X91025812Y-102975518D01*
X90989502Y-102855820D01*
X90930537Y-102745506D01*
X90851185Y-102648815D01*
X90754494Y-102569463D01*
X90644180Y-102510498D01*
X90524482Y-102474188D01*
X90400000Y-102461928D01*
X88700000Y-102461928D01*
X88575518Y-102474188D01*
X88455820Y-102510498D01*
X88345506Y-102569463D01*
X88248815Y-102648815D01*
X88169463Y-102745506D01*
X88110498Y-102855820D01*
X88074188Y-102975518D01*
X88061928Y-103100000D01*
X82578401Y-103100000D01*
X82578401Y-101798061D01*
X119715000Y-101798061D01*
X119715000Y-102001939D01*
X119754774Y-102201898D01*
X119832795Y-102390256D01*
X119946063Y-102559774D01*
X120090226Y-102703937D01*
X120259744Y-102817205D01*
X120448102Y-102895226D01*
X120648061Y-102935000D01*
X120851939Y-102935000D01*
X121051898Y-102895226D01*
X121240256Y-102817205D01*
X121409774Y-102703937D01*
X121553937Y-102559774D01*
X121667205Y-102390256D01*
X121745226Y-102201898D01*
X121785000Y-102001939D01*
X121785000Y-101939802D01*
X122864803Y-100860000D01*
X123026268Y-100860000D01*
X123063590Y-100863676D01*
X123100912Y-100860000D01*
X123100923Y-100860000D01*
X123140000Y-100856151D01*
X123140001Y-101296288D01*
X123096063Y-101340226D01*
X122982795Y-101509744D01*
X122904774Y-101698102D01*
X122865000Y-101898061D01*
X122865000Y-102101939D01*
X122904774Y-102301898D01*
X122982795Y-102490256D01*
X123096063Y-102659774D01*
X123240226Y-102803937D01*
X123409744Y-102917205D01*
X123598102Y-102995226D01*
X123798061Y-103035000D01*
X124001939Y-103035000D01*
X124201898Y-102995226D01*
X124390256Y-102917205D01*
X124559774Y-102803937D01*
X124703937Y-102659774D01*
X124817205Y-102490256D01*
X124895226Y-102301898D01*
X124935000Y-102101939D01*
X124935000Y-101898061D01*
X124895226Y-101698102D01*
X124817205Y-101509744D01*
X124703937Y-101340226D01*
X124660000Y-101296289D01*
X124660000Y-100214801D01*
X133321004Y-91553798D01*
X133350002Y-91530000D01*
X133444975Y-91414275D01*
X133515547Y-91282246D01*
X133559004Y-91138985D01*
X133570001Y-91027332D01*
X133570001Y-91027323D01*
X133573677Y-90990000D01*
X133570001Y-90952677D01*
X133570001Y-89385000D01*
X133751335Y-89385000D01*
X134028574Y-89329853D01*
X134289727Y-89221680D01*
X134524759Y-89064637D01*
X134724637Y-88864759D01*
X134880000Y-88632241D01*
X135035363Y-88864759D01*
X135235241Y-89064637D01*
X135470273Y-89221680D01*
X135731426Y-89329853D01*
X136008665Y-89385000D01*
X136291335Y-89385000D01*
X136568574Y-89329853D01*
X136829727Y-89221680D01*
X137064759Y-89064637D01*
X137264637Y-88864759D01*
X137420000Y-88632241D01*
X137575363Y-88864759D01*
X137775241Y-89064637D01*
X138010273Y-89221680D01*
X138271426Y-89329853D01*
X138548665Y-89385000D01*
X138831335Y-89385000D01*
X139108574Y-89329853D01*
X139369727Y-89221680D01*
X139604759Y-89064637D01*
X139804637Y-88864759D01*
X139960000Y-88632241D01*
X140115363Y-88864759D01*
X140315241Y-89064637D01*
X140550273Y-89221680D01*
X140811426Y-89329853D01*
X141088665Y-89385000D01*
X141371335Y-89385000D01*
X141648574Y-89329853D01*
X141909727Y-89221680D01*
X142144759Y-89064637D01*
X142344637Y-88864759D01*
X142500000Y-88632241D01*
X142655363Y-88864759D01*
X142855241Y-89064637D01*
X143090273Y-89221680D01*
X143351426Y-89329853D01*
X143628665Y-89385000D01*
X143911335Y-89385000D01*
X144188574Y-89329853D01*
X144449727Y-89221680D01*
X144684759Y-89064637D01*
X144884637Y-88864759D01*
X145040000Y-88632241D01*
X145195363Y-88864759D01*
X145395241Y-89064637D01*
X145630273Y-89221680D01*
X145891426Y-89329853D01*
X146168665Y-89385000D01*
X146451335Y-89385000D01*
X146728574Y-89329853D01*
X146989727Y-89221680D01*
X147224759Y-89064637D01*
X147424637Y-88864759D01*
X147580000Y-88632241D01*
X147735363Y-88864759D01*
X147935241Y-89064637D01*
X148170273Y-89221680D01*
X148431426Y-89329853D01*
X148708665Y-89385000D01*
X148991335Y-89385000D01*
X149268574Y-89329853D01*
X149529727Y-89221680D01*
X149764759Y-89064637D01*
X149964637Y-88864759D01*
X150120000Y-88632241D01*
X150275363Y-88864759D01*
X150475241Y-89064637D01*
X150710273Y-89221680D01*
X150971426Y-89329853D01*
X151248665Y-89385000D01*
X151531335Y-89385000D01*
X151808574Y-89329853D01*
X152069727Y-89221680D01*
X152304759Y-89064637D01*
X152504637Y-88864759D01*
X152660000Y-88632241D01*
X152815363Y-88864759D01*
X153015241Y-89064637D01*
X153250273Y-89221680D01*
X153511426Y-89329853D01*
X153788665Y-89385000D01*
X154071335Y-89385000D01*
X154348574Y-89329853D01*
X154609727Y-89221680D01*
X154844759Y-89064637D01*
X155044637Y-88864759D01*
X155200000Y-88632241D01*
X155355363Y-88864759D01*
X155555241Y-89064637D01*
X155790273Y-89221680D01*
X156051426Y-89329853D01*
X156328665Y-89385000D01*
X156611335Y-89385000D01*
X156888574Y-89329853D01*
X157149727Y-89221680D01*
X157384759Y-89064637D01*
X157584637Y-88864759D01*
X157740000Y-88632241D01*
X157895363Y-88864759D01*
X158095241Y-89064637D01*
X158330273Y-89221680D01*
X158591426Y-89329853D01*
X158868665Y-89385000D01*
X159151335Y-89385000D01*
X159428574Y-89329853D01*
X159689727Y-89221680D01*
X159924759Y-89064637D01*
X160124637Y-88864759D01*
X160280000Y-88632241D01*
X160435363Y-88864759D01*
X160635241Y-89064637D01*
X160870273Y-89221680D01*
X161131426Y-89329853D01*
X161408665Y-89385000D01*
X161691335Y-89385000D01*
X161968574Y-89329853D01*
X162229727Y-89221680D01*
X162464759Y-89064637D01*
X162664637Y-88864759D01*
X162821680Y-88629727D01*
X162929853Y-88368574D01*
X162985000Y-88091335D01*
X162985000Y-87808665D01*
X162929853Y-87531426D01*
X162821680Y-87270273D01*
X162664637Y-87035241D01*
X162464759Y-86835363D01*
X162229727Y-86678320D01*
X161968574Y-86570147D01*
X161691335Y-86515000D01*
X161408665Y-86515000D01*
X161131426Y-86570147D01*
X160870273Y-86678320D01*
X160635241Y-86835363D01*
X160435363Y-87035241D01*
X160280000Y-87267759D01*
X160124637Y-87035241D01*
X159924759Y-86835363D01*
X159689727Y-86678320D01*
X159428574Y-86570147D01*
X159151335Y-86515000D01*
X158868665Y-86515000D01*
X158591426Y-86570147D01*
X158330273Y-86678320D01*
X158095241Y-86835363D01*
X157895363Y-87035241D01*
X157740000Y-87267759D01*
X157584637Y-87035241D01*
X157384759Y-86835363D01*
X157149727Y-86678320D01*
X156888574Y-86570147D01*
X156611335Y-86515000D01*
X156328665Y-86515000D01*
X156051426Y-86570147D01*
X155790273Y-86678320D01*
X155555241Y-86835363D01*
X155355363Y-87035241D01*
X155200000Y-87267759D01*
X155044637Y-87035241D01*
X154844759Y-86835363D01*
X154609727Y-86678320D01*
X154348574Y-86570147D01*
X154071335Y-86515000D01*
X153788665Y-86515000D01*
X153511426Y-86570147D01*
X153250273Y-86678320D01*
X153015241Y-86835363D01*
X152815363Y-87035241D01*
X152660000Y-87267759D01*
X152504637Y-87035241D01*
X152304759Y-86835363D01*
X152069727Y-86678320D01*
X151808574Y-86570147D01*
X151531335Y-86515000D01*
X151248665Y-86515000D01*
X150971426Y-86570147D01*
X150710273Y-86678320D01*
X150475241Y-86835363D01*
X150275363Y-87035241D01*
X150120000Y-87267759D01*
X149964637Y-87035241D01*
X149764759Y-86835363D01*
X149529727Y-86678320D01*
X149268574Y-86570147D01*
X148991335Y-86515000D01*
X148708665Y-86515000D01*
X148431426Y-86570147D01*
X148170273Y-86678320D01*
X147935241Y-86835363D01*
X147735363Y-87035241D01*
X147580000Y-87267759D01*
X147424637Y-87035241D01*
X147224759Y-86835363D01*
X146989727Y-86678320D01*
X146728574Y-86570147D01*
X146451335Y-86515000D01*
X146168665Y-86515000D01*
X145891426Y-86570147D01*
X145630273Y-86678320D01*
X145395241Y-86835363D01*
X145195363Y-87035241D01*
X145040000Y-87267759D01*
X144884637Y-87035241D01*
X144684759Y-86835363D01*
X144449727Y-86678320D01*
X144188574Y-86570147D01*
X143911335Y-86515000D01*
X143628665Y-86515000D01*
X143351426Y-86570147D01*
X143090273Y-86678320D01*
X142855241Y-86835363D01*
X142655363Y-87035241D01*
X142500000Y-87267759D01*
X142344637Y-87035241D01*
X142144759Y-86835363D01*
X141909727Y-86678320D01*
X141648574Y-86570147D01*
X141371335Y-86515000D01*
X141088665Y-86515000D01*
X140811426Y-86570147D01*
X140550273Y-86678320D01*
X140315241Y-86835363D01*
X140115363Y-87035241D01*
X139960000Y-87267759D01*
X139804637Y-87035241D01*
X139604759Y-86835363D01*
X139369727Y-86678320D01*
X139108574Y-86570147D01*
X138831335Y-86515000D01*
X138548665Y-86515000D01*
X138271426Y-86570147D01*
X138010273Y-86678320D01*
X137775241Y-86835363D01*
X137575363Y-87035241D01*
X137420000Y-87267759D01*
X137264637Y-87035241D01*
X137064759Y-86835363D01*
X136829727Y-86678320D01*
X136568574Y-86570147D01*
X136291335Y-86515000D01*
X136008665Y-86515000D01*
X135731426Y-86570147D01*
X135470273Y-86678320D01*
X135235241Y-86835363D01*
X135035363Y-87035241D01*
X134880000Y-87267759D01*
X134724637Y-87035241D01*
X134524759Y-86835363D01*
X134289727Y-86678320D01*
X134028574Y-86570147D01*
X133751335Y-86515000D01*
X133468665Y-86515000D01*
X133191426Y-86570147D01*
X132930273Y-86678320D01*
X132695241Y-86835363D01*
X132495363Y-87035241D01*
X132340000Y-87267759D01*
X132184637Y-87035241D01*
X131984759Y-86835363D01*
X131749727Y-86678320D01*
X131488574Y-86570147D01*
X131211335Y-86515000D01*
X130928665Y-86515000D01*
X130651426Y-86570147D01*
X130390273Y-86678320D01*
X130155241Y-86835363D01*
X129955363Y-87035241D01*
X129798320Y-87270273D01*
X129690147Y-87531426D01*
X129635000Y-87808665D01*
X129635000Y-88091335D01*
X129690147Y-88368574D01*
X129798320Y-88629727D01*
X129955363Y-88864759D01*
X130155241Y-89064637D01*
X130310000Y-89168044D01*
X130310001Y-91778787D01*
X122748789Y-99340000D01*
X122587322Y-99340000D01*
X122549999Y-99336324D01*
X122512676Y-99340000D01*
X122512667Y-99340000D01*
X122401014Y-99350997D01*
X122257753Y-99394454D01*
X122125724Y-99465026D01*
X122125722Y-99465027D01*
X122125723Y-99465027D01*
X122038996Y-99536201D01*
X122038992Y-99536205D01*
X122009999Y-99559999D01*
X121986205Y-99588992D01*
X120710198Y-100865000D01*
X120648061Y-100865000D01*
X120448102Y-100904774D01*
X120259744Y-100982795D01*
X120090226Y-101096063D01*
X119946063Y-101240226D01*
X119832795Y-101409744D01*
X119754774Y-101598102D01*
X119715000Y-101798061D01*
X82578401Y-101798061D01*
X82578401Y-91400000D01*
X84161928Y-91400000D01*
X84161928Y-93100000D01*
X84174188Y-93224482D01*
X84210498Y-93344180D01*
X84269463Y-93454494D01*
X84348815Y-93551185D01*
X84445506Y-93630537D01*
X84555820Y-93689502D01*
X84675518Y-93725812D01*
X84800000Y-93738072D01*
X86500000Y-93738072D01*
X86624482Y-93725812D01*
X86744180Y-93689502D01*
X86854494Y-93630537D01*
X86951185Y-93551185D01*
X87030537Y-93454494D01*
X87089502Y-93344180D01*
X87125812Y-93224482D01*
X87138072Y-93100000D01*
X87138072Y-91400000D01*
X87125812Y-91275518D01*
X87089502Y-91155820D01*
X87030537Y-91045506D01*
X86951185Y-90948815D01*
X86854494Y-90869463D01*
X86744180Y-90810498D01*
X86624482Y-90774188D01*
X86500000Y-90761928D01*
X84800000Y-90761928D01*
X84675518Y-90774188D01*
X84555820Y-90810498D01*
X84445506Y-90869463D01*
X84348815Y-90948815D01*
X84269463Y-91045506D01*
X84210498Y-91155820D01*
X84174188Y-91275518D01*
X84161928Y-91400000D01*
X82578401Y-91400000D01*
X82578401Y-80840000D01*
X98057319Y-80840000D01*
X98087970Y-81151204D01*
X98178745Y-81450449D01*
X98326155Y-81726235D01*
X98524537Y-81967963D01*
X98766265Y-82166345D01*
X99042051Y-82313755D01*
X99341296Y-82404530D01*
X99574514Y-82427500D01*
X99825486Y-82427500D01*
X100058704Y-82404530D01*
X100357949Y-82313755D01*
X100633735Y-82166345D01*
X100875463Y-81967963D01*
X100933024Y-81897825D01*
X101340089Y-82304891D01*
X101354454Y-82352247D01*
X101425026Y-82484276D01*
X101519999Y-82600001D01*
X101549002Y-82623803D01*
X108926201Y-90001003D01*
X108949999Y-90030001D01*
X109065724Y-90124974D01*
X109197753Y-90195546D01*
X109341014Y-90239003D01*
X109452667Y-90250000D01*
X109452675Y-90250000D01*
X109490000Y-90253676D01*
X109527325Y-90250000D01*
X110472405Y-90250000D01*
X110509294Y-90319014D01*
X110694866Y-90545134D01*
X110920986Y-90730706D01*
X110975791Y-90760000D01*
X110920986Y-90789294D01*
X110694866Y-90974866D01*
X110509294Y-91200986D01*
X110371401Y-91458966D01*
X110286487Y-91738889D01*
X110257815Y-92030000D01*
X110286487Y-92321111D01*
X110371401Y-92601034D01*
X110509294Y-92859014D01*
X110694866Y-93085134D01*
X110920986Y-93270706D01*
X111178966Y-93408599D01*
X111458889Y-93493513D01*
X111677050Y-93515000D01*
X111822950Y-93515000D01*
X112041111Y-93493513D01*
X112321034Y-93408599D01*
X112579014Y-93270706D01*
X112805134Y-93085134D01*
X112990706Y-92859014D01*
X113128599Y-92601034D01*
X113213513Y-92321111D01*
X113242185Y-92030000D01*
X113213513Y-91738889D01*
X113128599Y-91458966D01*
X112990706Y-91200986D01*
X112805134Y-90974866D01*
X112579014Y-90789294D01*
X112524209Y-90760000D01*
X112579014Y-90730706D01*
X112805134Y-90545134D01*
X112990706Y-90319014D01*
X113128599Y-90061034D01*
X113213513Y-89781111D01*
X113242185Y-89490000D01*
X113213513Y-89198889D01*
X113128599Y-88918966D01*
X112990706Y-88660986D01*
X112805134Y-88434866D01*
X112579014Y-88249294D01*
X112321034Y-88111401D01*
X112041111Y-88026487D01*
X111822950Y-88005000D01*
X111677050Y-88005000D01*
X111458889Y-88026487D01*
X111178966Y-88111401D01*
X110920986Y-88249294D01*
X110694866Y-88434866D01*
X110509294Y-88660986D01*
X110472405Y-88730000D01*
X109804802Y-88730000D01*
X105484802Y-84410000D01*
X110257815Y-84410000D01*
X110286487Y-84701111D01*
X110371401Y-84981034D01*
X110509294Y-85239014D01*
X110694866Y-85465134D01*
X110920986Y-85650706D01*
X111178966Y-85788599D01*
X111458889Y-85873513D01*
X111677050Y-85895000D01*
X111822950Y-85895000D01*
X112041111Y-85873513D01*
X112321034Y-85788599D01*
X112579014Y-85650706D01*
X112805134Y-85465134D01*
X112990706Y-85239014D01*
X113128599Y-84981034D01*
X113213513Y-84701111D01*
X113242185Y-84410000D01*
X113213513Y-84118889D01*
X113128599Y-83838966D01*
X112990706Y-83580986D01*
X112805134Y-83354866D01*
X112775313Y-83330393D01*
X112844180Y-83309502D01*
X112954494Y-83250537D01*
X113051185Y-83171185D01*
X113130537Y-83074494D01*
X113189502Y-82964180D01*
X113225812Y-82844482D01*
X113238072Y-82720000D01*
X113238072Y-81020000D01*
X113225812Y-80895518D01*
X113189502Y-80775820D01*
X113130537Y-80665506D01*
X113051185Y-80568815D01*
X112954494Y-80489463D01*
X112844180Y-80430498D01*
X112724482Y-80394188D01*
X112600000Y-80381928D01*
X110900000Y-80381928D01*
X110775518Y-80394188D01*
X110655820Y-80430498D01*
X110545506Y-80489463D01*
X110448815Y-80568815D01*
X110369463Y-80665506D01*
X110310498Y-80775820D01*
X110274188Y-80895518D01*
X110261928Y-81020000D01*
X110261928Y-82720000D01*
X110274188Y-82844482D01*
X110310498Y-82964180D01*
X110369463Y-83074494D01*
X110448815Y-83171185D01*
X110545506Y-83250537D01*
X110655820Y-83309502D01*
X110724687Y-83330393D01*
X110694866Y-83354866D01*
X110509294Y-83580986D01*
X110371401Y-83838966D01*
X110286487Y-84118889D01*
X110257815Y-84410000D01*
X105484802Y-84410000D01*
X102779911Y-81705110D01*
X102765546Y-81657753D01*
X102728798Y-81589003D01*
X102694974Y-81525723D01*
X102623799Y-81438997D01*
X102600001Y-81409999D01*
X102571004Y-81386202D01*
X101513804Y-80329002D01*
X101490001Y-80299999D01*
X101374276Y-80205026D01*
X101242247Y-80134454D01*
X101156526Y-80108451D01*
X101073845Y-79953765D01*
X100970554Y-79827905D01*
X101054494Y-79783037D01*
X101151185Y-79703685D01*
X101230537Y-79606994D01*
X101289502Y-79496680D01*
X101325812Y-79376982D01*
X101338072Y-79252500D01*
X101338072Y-77347500D01*
X101325812Y-77223018D01*
X101289502Y-77103320D01*
X101230537Y-76993006D01*
X101151185Y-76896315D01*
X101054494Y-76816963D01*
X100944180Y-76757998D01*
X100824482Y-76721688D01*
X100700000Y-76709428D01*
X98700000Y-76709428D01*
X98575518Y-76721688D01*
X98455820Y-76757998D01*
X98345506Y-76816963D01*
X98248815Y-76896315D01*
X98169463Y-76993006D01*
X98110498Y-77103320D01*
X98074188Y-77223018D01*
X98061928Y-77347500D01*
X98061928Y-79252500D01*
X98074188Y-79376982D01*
X98110498Y-79496680D01*
X98169463Y-79606994D01*
X98248815Y-79703685D01*
X98345506Y-79783037D01*
X98429446Y-79827905D01*
X98326155Y-79953765D01*
X98178745Y-80229551D01*
X98087970Y-80528796D01*
X98057319Y-80840000D01*
X82578401Y-80840000D01*
X82578401Y-68847346D01*
X82669774Y-68984095D01*
X83015905Y-69330226D01*
X83422911Y-69602179D01*
X83875152Y-69789503D01*
X84355249Y-69885000D01*
X84844751Y-69885000D01*
X85324848Y-69789503D01*
X85777089Y-69602179D01*
X86184095Y-69330226D01*
X86530226Y-68984095D01*
X86802179Y-68577089D01*
X86989503Y-68124848D01*
X87085000Y-67644751D01*
X87085000Y-67155249D01*
X86989503Y-66675152D01*
X86802179Y-66222911D01*
X86530226Y-65815905D01*
X86419316Y-65704995D01*
X162880684Y-65704995D01*
X162769774Y-65815905D01*
M02*
