M48
; DRILL file {KiCad (5.1.4-0-10_14)} date Wednesday, April 29, 2020 at 08:22:37 AM
; FORMAT={-:-/ absolute / inch / decimal}
; #@! TF.CreationDate,2020-04-29T08:22:37-04:00
; #@! TF.GenerationSoftware,Kicad,Pcbnew,(5.1.4-0-10_14)
; #@! TF.FileFunction,Plated,1,2,PTH
FMAT,2
INCH
T1C0.0157
T2C0.0350
T3C0.0394
T4C0.0433
T5C0.0618
%
G90
G05
T1
X3.5256Y-4.5886
X3.6811Y-4.5079
X3.7382Y-2.9055
X4.1043Y-4.5118
X4.7539Y-4.0118
X4.878Y-4.0157
X4.9941Y-4.6004
X5.124Y-4.7697
X5.2264Y-4.6122
X5.374Y-3.0748
X6.2953Y-3.1319
T2
X5.7426Y-4.5946
X5.7848Y-4.4826
X5.8229Y-4.5946
X5.8651Y-4.4826
X5.9032Y-4.5946
X5.9454Y-4.4826
X5.9835Y-4.5946
X6.0257Y-4.4826
T3
X4.3996Y-3.2232
X4.3996Y-3.3232
X4.3996Y-3.4232
X4.3996Y-3.5232
X4.3996Y-3.6232
X3.372Y-3.6319
X3.372Y-3.7319
X3.5256Y-4.0925
X3.6256Y-4.0925
X3.7256Y-4.0925
X3.8256Y-4.0925
X3.9256Y-4.0925
X3.8445Y-4.6516
X3.9445Y-4.6516
X4.0445Y-4.6516
T4
X3.9252Y-3.0827
X3.9252Y-3.1827
X3.9252Y-3.2827
X5.1602Y-3.4626
X5.1602Y-4.0626
X5.2602Y-3.4626
X5.2602Y-4.0626
X5.3602Y-3.4626
X5.3602Y-4.0626
X5.4602Y-3.4626
X5.4602Y-4.0626
X5.5602Y-3.4626
X5.5602Y-4.0626
X5.6602Y-3.4626
X5.6602Y-4.0626
X5.7602Y-3.4626
X5.7602Y-4.0626
X5.8602Y-3.4626
X5.8602Y-4.0626
X5.9602Y-3.4626
X5.9602Y-4.0626
X6.0602Y-3.4626
X6.0602Y-4.0626
X6.1602Y-3.4626
X6.1602Y-4.0626
X6.2602Y-3.4626
X6.2602Y-4.0626
X6.3602Y-3.4626
X6.3602Y-4.0626
X6.4602Y-3.4626
X6.4602Y-4.0626
T5
X5.5638Y-4.5937
X6.2039Y-4.5937
T0
M30
