G04 #@! TF.GenerationSoftware,KiCad,Pcbnew,(5.1.4-0-10_14)*
G04 #@! TF.CreationDate,2020-04-29T09:01:47-04:00*
G04 #@! TF.ProjectId,laser_flow,6c617365-725f-4666-9c6f-772e6b696361,rev?*
G04 #@! TF.SameCoordinates,Original*
G04 #@! TF.FileFunction,Paste,Top*
G04 #@! TF.FilePolarity,Positive*
%FSLAX46Y46*%
G04 Gerber Fmt 4.6, Leading zero omitted, Abs format (unit mm)*
G04 Created by KiCad (PCBNEW (5.1.4-0-10_14)) date 2020-04-29 09:01:47*
%MOMM*%
%LPD*%
G04 APERTURE LIST*
%ADD10C,0.100000*%
%ADD11C,0.975000*%
%ADD12R,1.800000X3.200000*%
%ADD13R,1.000000X1.700000*%
G04 APERTURE END LIST*
D10*
G36*
X114080142Y-88776174D02*
G01*
X114103803Y-88779684D01*
X114127007Y-88785496D01*
X114149529Y-88793554D01*
X114171153Y-88803782D01*
X114191670Y-88816079D01*
X114210883Y-88830329D01*
X114228607Y-88846393D01*
X114244671Y-88864117D01*
X114258921Y-88883330D01*
X114271218Y-88903847D01*
X114281446Y-88925471D01*
X114289504Y-88947993D01*
X114295316Y-88971197D01*
X114298826Y-88994858D01*
X114300000Y-89018750D01*
X114300000Y-89506250D01*
X114298826Y-89530142D01*
X114295316Y-89553803D01*
X114289504Y-89577007D01*
X114281446Y-89599529D01*
X114271218Y-89621153D01*
X114258921Y-89641670D01*
X114244671Y-89660883D01*
X114228607Y-89678607D01*
X114210883Y-89694671D01*
X114191670Y-89708921D01*
X114171153Y-89721218D01*
X114149529Y-89731446D01*
X114127007Y-89739504D01*
X114103803Y-89745316D01*
X114080142Y-89748826D01*
X114056250Y-89750000D01*
X113143750Y-89750000D01*
X113119858Y-89748826D01*
X113096197Y-89745316D01*
X113072993Y-89739504D01*
X113050471Y-89731446D01*
X113028847Y-89721218D01*
X113008330Y-89708921D01*
X112989117Y-89694671D01*
X112971393Y-89678607D01*
X112955329Y-89660883D01*
X112941079Y-89641670D01*
X112928782Y-89621153D01*
X112918554Y-89599529D01*
X112910496Y-89577007D01*
X112904684Y-89553803D01*
X112901174Y-89530142D01*
X112900000Y-89506250D01*
X112900000Y-89018750D01*
X112901174Y-88994858D01*
X112904684Y-88971197D01*
X112910496Y-88947993D01*
X112918554Y-88925471D01*
X112928782Y-88903847D01*
X112941079Y-88883330D01*
X112955329Y-88864117D01*
X112971393Y-88846393D01*
X112989117Y-88830329D01*
X113008330Y-88816079D01*
X113028847Y-88803782D01*
X113050471Y-88793554D01*
X113072993Y-88785496D01*
X113096197Y-88779684D01*
X113119858Y-88776174D01*
X113143750Y-88775000D01*
X114056250Y-88775000D01*
X114080142Y-88776174D01*
X114080142Y-88776174D01*
G37*
D11*
X113600000Y-89262500D03*
D10*
G36*
X114080142Y-90651174D02*
G01*
X114103803Y-90654684D01*
X114127007Y-90660496D01*
X114149529Y-90668554D01*
X114171153Y-90678782D01*
X114191670Y-90691079D01*
X114210883Y-90705329D01*
X114228607Y-90721393D01*
X114244671Y-90739117D01*
X114258921Y-90758330D01*
X114271218Y-90778847D01*
X114281446Y-90800471D01*
X114289504Y-90822993D01*
X114295316Y-90846197D01*
X114298826Y-90869858D01*
X114300000Y-90893750D01*
X114300000Y-91381250D01*
X114298826Y-91405142D01*
X114295316Y-91428803D01*
X114289504Y-91452007D01*
X114281446Y-91474529D01*
X114271218Y-91496153D01*
X114258921Y-91516670D01*
X114244671Y-91535883D01*
X114228607Y-91553607D01*
X114210883Y-91569671D01*
X114191670Y-91583921D01*
X114171153Y-91596218D01*
X114149529Y-91606446D01*
X114127007Y-91614504D01*
X114103803Y-91620316D01*
X114080142Y-91623826D01*
X114056250Y-91625000D01*
X113143750Y-91625000D01*
X113119858Y-91623826D01*
X113096197Y-91620316D01*
X113072993Y-91614504D01*
X113050471Y-91606446D01*
X113028847Y-91596218D01*
X113008330Y-91583921D01*
X112989117Y-91569671D01*
X112971393Y-91553607D01*
X112955329Y-91535883D01*
X112941079Y-91516670D01*
X112928782Y-91496153D01*
X112918554Y-91474529D01*
X112910496Y-91452007D01*
X112904684Y-91428803D01*
X112901174Y-91405142D01*
X112900000Y-91381250D01*
X112900000Y-90893750D01*
X112901174Y-90869858D01*
X112904684Y-90846197D01*
X112910496Y-90822993D01*
X112918554Y-90800471D01*
X112928782Y-90778847D01*
X112941079Y-90758330D01*
X112955329Y-90739117D01*
X112971393Y-90721393D01*
X112989117Y-90705329D01*
X113008330Y-90691079D01*
X113028847Y-90678782D01*
X113050471Y-90668554D01*
X113072993Y-90660496D01*
X113096197Y-90654684D01*
X113119858Y-90651174D01*
X113143750Y-90650000D01*
X114056250Y-90650000D01*
X114080142Y-90651174D01*
X114080142Y-90651174D01*
G37*
D11*
X113600000Y-91137500D03*
D10*
G36*
X114180142Y-78876174D02*
G01*
X114203803Y-78879684D01*
X114227007Y-78885496D01*
X114249529Y-78893554D01*
X114271153Y-78903782D01*
X114291670Y-78916079D01*
X114310883Y-78930329D01*
X114328607Y-78946393D01*
X114344671Y-78964117D01*
X114358921Y-78983330D01*
X114371218Y-79003847D01*
X114381446Y-79025471D01*
X114389504Y-79047993D01*
X114395316Y-79071197D01*
X114398826Y-79094858D01*
X114400000Y-79118750D01*
X114400000Y-79606250D01*
X114398826Y-79630142D01*
X114395316Y-79653803D01*
X114389504Y-79677007D01*
X114381446Y-79699529D01*
X114371218Y-79721153D01*
X114358921Y-79741670D01*
X114344671Y-79760883D01*
X114328607Y-79778607D01*
X114310883Y-79794671D01*
X114291670Y-79808921D01*
X114271153Y-79821218D01*
X114249529Y-79831446D01*
X114227007Y-79839504D01*
X114203803Y-79845316D01*
X114180142Y-79848826D01*
X114156250Y-79850000D01*
X113243750Y-79850000D01*
X113219858Y-79848826D01*
X113196197Y-79845316D01*
X113172993Y-79839504D01*
X113150471Y-79831446D01*
X113128847Y-79821218D01*
X113108330Y-79808921D01*
X113089117Y-79794671D01*
X113071393Y-79778607D01*
X113055329Y-79760883D01*
X113041079Y-79741670D01*
X113028782Y-79721153D01*
X113018554Y-79699529D01*
X113010496Y-79677007D01*
X113004684Y-79653803D01*
X113001174Y-79630142D01*
X113000000Y-79606250D01*
X113000000Y-79118750D01*
X113001174Y-79094858D01*
X113004684Y-79071197D01*
X113010496Y-79047993D01*
X113018554Y-79025471D01*
X113028782Y-79003847D01*
X113041079Y-78983330D01*
X113055329Y-78964117D01*
X113071393Y-78946393D01*
X113089117Y-78930329D01*
X113108330Y-78916079D01*
X113128847Y-78903782D01*
X113150471Y-78893554D01*
X113172993Y-78885496D01*
X113196197Y-78879684D01*
X113219858Y-78876174D01*
X113243750Y-78875000D01*
X114156250Y-78875000D01*
X114180142Y-78876174D01*
X114180142Y-78876174D01*
G37*
D11*
X113700000Y-79362500D03*
D10*
G36*
X114180142Y-80751174D02*
G01*
X114203803Y-80754684D01*
X114227007Y-80760496D01*
X114249529Y-80768554D01*
X114271153Y-80778782D01*
X114291670Y-80791079D01*
X114310883Y-80805329D01*
X114328607Y-80821393D01*
X114344671Y-80839117D01*
X114358921Y-80858330D01*
X114371218Y-80878847D01*
X114381446Y-80900471D01*
X114389504Y-80922993D01*
X114395316Y-80946197D01*
X114398826Y-80969858D01*
X114400000Y-80993750D01*
X114400000Y-81481250D01*
X114398826Y-81505142D01*
X114395316Y-81528803D01*
X114389504Y-81552007D01*
X114381446Y-81574529D01*
X114371218Y-81596153D01*
X114358921Y-81616670D01*
X114344671Y-81635883D01*
X114328607Y-81653607D01*
X114310883Y-81669671D01*
X114291670Y-81683921D01*
X114271153Y-81696218D01*
X114249529Y-81706446D01*
X114227007Y-81714504D01*
X114203803Y-81720316D01*
X114180142Y-81723826D01*
X114156250Y-81725000D01*
X113243750Y-81725000D01*
X113219858Y-81723826D01*
X113196197Y-81720316D01*
X113172993Y-81714504D01*
X113150471Y-81706446D01*
X113128847Y-81696218D01*
X113108330Y-81683921D01*
X113089117Y-81669671D01*
X113071393Y-81653607D01*
X113055329Y-81635883D01*
X113041079Y-81616670D01*
X113028782Y-81596153D01*
X113018554Y-81574529D01*
X113010496Y-81552007D01*
X113004684Y-81528803D01*
X113001174Y-81505142D01*
X113000000Y-81481250D01*
X113000000Y-80993750D01*
X113001174Y-80969858D01*
X113004684Y-80946197D01*
X113010496Y-80922993D01*
X113018554Y-80900471D01*
X113028782Y-80878847D01*
X113041079Y-80858330D01*
X113055329Y-80839117D01*
X113071393Y-80821393D01*
X113089117Y-80805329D01*
X113108330Y-80791079D01*
X113128847Y-80778782D01*
X113150471Y-80768554D01*
X113172993Y-80760496D01*
X113196197Y-80754684D01*
X113219858Y-80751174D01*
X113243750Y-80750000D01*
X114156250Y-80750000D01*
X114180142Y-80751174D01*
X114180142Y-80751174D01*
G37*
D11*
X113700000Y-81237500D03*
D12*
X120100000Y-79850000D03*
X131500000Y-79850000D03*
X131500000Y-88550000D03*
X120100000Y-88550000D03*
D10*
G36*
X100680142Y-80751174D02*
G01*
X100703803Y-80754684D01*
X100727007Y-80760496D01*
X100749529Y-80768554D01*
X100771153Y-80778782D01*
X100791670Y-80791079D01*
X100810883Y-80805329D01*
X100828607Y-80821393D01*
X100844671Y-80839117D01*
X100858921Y-80858330D01*
X100871218Y-80878847D01*
X100881446Y-80900471D01*
X100889504Y-80922993D01*
X100895316Y-80946197D01*
X100898826Y-80969858D01*
X100900000Y-80993750D01*
X100900000Y-81481250D01*
X100898826Y-81505142D01*
X100895316Y-81528803D01*
X100889504Y-81552007D01*
X100881446Y-81574529D01*
X100871218Y-81596153D01*
X100858921Y-81616670D01*
X100844671Y-81635883D01*
X100828607Y-81653607D01*
X100810883Y-81669671D01*
X100791670Y-81683921D01*
X100771153Y-81696218D01*
X100749529Y-81706446D01*
X100727007Y-81714504D01*
X100703803Y-81720316D01*
X100680142Y-81723826D01*
X100656250Y-81725000D01*
X99743750Y-81725000D01*
X99719858Y-81723826D01*
X99696197Y-81720316D01*
X99672993Y-81714504D01*
X99650471Y-81706446D01*
X99628847Y-81696218D01*
X99608330Y-81683921D01*
X99589117Y-81669671D01*
X99571393Y-81653607D01*
X99555329Y-81635883D01*
X99541079Y-81616670D01*
X99528782Y-81596153D01*
X99518554Y-81574529D01*
X99510496Y-81552007D01*
X99504684Y-81528803D01*
X99501174Y-81505142D01*
X99500000Y-81481250D01*
X99500000Y-80993750D01*
X99501174Y-80969858D01*
X99504684Y-80946197D01*
X99510496Y-80922993D01*
X99518554Y-80900471D01*
X99528782Y-80878847D01*
X99541079Y-80858330D01*
X99555329Y-80839117D01*
X99571393Y-80821393D01*
X99589117Y-80805329D01*
X99608330Y-80791079D01*
X99628847Y-80778782D01*
X99650471Y-80768554D01*
X99672993Y-80760496D01*
X99696197Y-80754684D01*
X99719858Y-80751174D01*
X99743750Y-80750000D01*
X100656250Y-80750000D01*
X100680142Y-80751174D01*
X100680142Y-80751174D01*
G37*
D11*
X100200000Y-81237500D03*
D10*
G36*
X100680142Y-78876174D02*
G01*
X100703803Y-78879684D01*
X100727007Y-78885496D01*
X100749529Y-78893554D01*
X100771153Y-78903782D01*
X100791670Y-78916079D01*
X100810883Y-78930329D01*
X100828607Y-78946393D01*
X100844671Y-78964117D01*
X100858921Y-78983330D01*
X100871218Y-79003847D01*
X100881446Y-79025471D01*
X100889504Y-79047993D01*
X100895316Y-79071197D01*
X100898826Y-79094858D01*
X100900000Y-79118750D01*
X100900000Y-79606250D01*
X100898826Y-79630142D01*
X100895316Y-79653803D01*
X100889504Y-79677007D01*
X100881446Y-79699529D01*
X100871218Y-79721153D01*
X100858921Y-79741670D01*
X100844671Y-79760883D01*
X100828607Y-79778607D01*
X100810883Y-79794671D01*
X100791670Y-79808921D01*
X100771153Y-79821218D01*
X100749529Y-79831446D01*
X100727007Y-79839504D01*
X100703803Y-79845316D01*
X100680142Y-79848826D01*
X100656250Y-79850000D01*
X99743750Y-79850000D01*
X99719858Y-79848826D01*
X99696197Y-79845316D01*
X99672993Y-79839504D01*
X99650471Y-79831446D01*
X99628847Y-79821218D01*
X99608330Y-79808921D01*
X99589117Y-79794671D01*
X99571393Y-79778607D01*
X99555329Y-79760883D01*
X99541079Y-79741670D01*
X99528782Y-79721153D01*
X99518554Y-79699529D01*
X99510496Y-79677007D01*
X99504684Y-79653803D01*
X99501174Y-79630142D01*
X99500000Y-79606250D01*
X99500000Y-79118750D01*
X99501174Y-79094858D01*
X99504684Y-79071197D01*
X99510496Y-79047993D01*
X99518554Y-79025471D01*
X99528782Y-79003847D01*
X99541079Y-78983330D01*
X99555329Y-78964117D01*
X99571393Y-78946393D01*
X99589117Y-78930329D01*
X99608330Y-78916079D01*
X99628847Y-78903782D01*
X99650471Y-78893554D01*
X99672993Y-78885496D01*
X99696197Y-78879684D01*
X99719858Y-78876174D01*
X99743750Y-78875000D01*
X100656250Y-78875000D01*
X100680142Y-78876174D01*
X100680142Y-78876174D01*
G37*
D11*
X100200000Y-79362500D03*
D13*
X139700000Y-85450000D03*
X139700000Y-79150000D03*
X143500000Y-85450000D03*
X143500000Y-79150000D03*
D10*
G36*
X98280142Y-88476174D02*
G01*
X98303803Y-88479684D01*
X98327007Y-88485496D01*
X98349529Y-88493554D01*
X98371153Y-88503782D01*
X98391670Y-88516079D01*
X98410883Y-88530329D01*
X98428607Y-88546393D01*
X98444671Y-88564117D01*
X98458921Y-88583330D01*
X98471218Y-88603847D01*
X98481446Y-88625471D01*
X98489504Y-88647993D01*
X98495316Y-88671197D01*
X98498826Y-88694858D01*
X98500000Y-88718750D01*
X98500000Y-89206250D01*
X98498826Y-89230142D01*
X98495316Y-89253803D01*
X98489504Y-89277007D01*
X98481446Y-89299529D01*
X98471218Y-89321153D01*
X98458921Y-89341670D01*
X98444671Y-89360883D01*
X98428607Y-89378607D01*
X98410883Y-89394671D01*
X98391670Y-89408921D01*
X98371153Y-89421218D01*
X98349529Y-89431446D01*
X98327007Y-89439504D01*
X98303803Y-89445316D01*
X98280142Y-89448826D01*
X98256250Y-89450000D01*
X97343750Y-89450000D01*
X97319858Y-89448826D01*
X97296197Y-89445316D01*
X97272993Y-89439504D01*
X97250471Y-89431446D01*
X97228847Y-89421218D01*
X97208330Y-89408921D01*
X97189117Y-89394671D01*
X97171393Y-89378607D01*
X97155329Y-89360883D01*
X97141079Y-89341670D01*
X97128782Y-89321153D01*
X97118554Y-89299529D01*
X97110496Y-89277007D01*
X97104684Y-89253803D01*
X97101174Y-89230142D01*
X97100000Y-89206250D01*
X97100000Y-88718750D01*
X97101174Y-88694858D01*
X97104684Y-88671197D01*
X97110496Y-88647993D01*
X97118554Y-88625471D01*
X97128782Y-88603847D01*
X97141079Y-88583330D01*
X97155329Y-88564117D01*
X97171393Y-88546393D01*
X97189117Y-88530329D01*
X97208330Y-88516079D01*
X97228847Y-88503782D01*
X97250471Y-88493554D01*
X97272993Y-88485496D01*
X97296197Y-88479684D01*
X97319858Y-88476174D01*
X97343750Y-88475000D01*
X98256250Y-88475000D01*
X98280142Y-88476174D01*
X98280142Y-88476174D01*
G37*
D11*
X97800000Y-88962500D03*
D10*
G36*
X98280142Y-90351174D02*
G01*
X98303803Y-90354684D01*
X98327007Y-90360496D01*
X98349529Y-90368554D01*
X98371153Y-90378782D01*
X98391670Y-90391079D01*
X98410883Y-90405329D01*
X98428607Y-90421393D01*
X98444671Y-90439117D01*
X98458921Y-90458330D01*
X98471218Y-90478847D01*
X98481446Y-90500471D01*
X98489504Y-90522993D01*
X98495316Y-90546197D01*
X98498826Y-90569858D01*
X98500000Y-90593750D01*
X98500000Y-91081250D01*
X98498826Y-91105142D01*
X98495316Y-91128803D01*
X98489504Y-91152007D01*
X98481446Y-91174529D01*
X98471218Y-91196153D01*
X98458921Y-91216670D01*
X98444671Y-91235883D01*
X98428607Y-91253607D01*
X98410883Y-91269671D01*
X98391670Y-91283921D01*
X98371153Y-91296218D01*
X98349529Y-91306446D01*
X98327007Y-91314504D01*
X98303803Y-91320316D01*
X98280142Y-91323826D01*
X98256250Y-91325000D01*
X97343750Y-91325000D01*
X97319858Y-91323826D01*
X97296197Y-91320316D01*
X97272993Y-91314504D01*
X97250471Y-91306446D01*
X97228847Y-91296218D01*
X97208330Y-91283921D01*
X97189117Y-91269671D01*
X97171393Y-91253607D01*
X97155329Y-91235883D01*
X97141079Y-91216670D01*
X97128782Y-91196153D01*
X97118554Y-91174529D01*
X97110496Y-91152007D01*
X97104684Y-91128803D01*
X97101174Y-91105142D01*
X97100000Y-91081250D01*
X97100000Y-90593750D01*
X97101174Y-90569858D01*
X97104684Y-90546197D01*
X97110496Y-90522993D01*
X97118554Y-90500471D01*
X97128782Y-90478847D01*
X97141079Y-90458330D01*
X97155329Y-90439117D01*
X97171393Y-90421393D01*
X97189117Y-90405329D01*
X97208330Y-90391079D01*
X97228847Y-90378782D01*
X97250471Y-90368554D01*
X97272993Y-90360496D01*
X97296197Y-90354684D01*
X97319858Y-90351174D01*
X97343750Y-90350000D01*
X98256250Y-90350000D01*
X98280142Y-90351174D01*
X98280142Y-90351174D01*
G37*
D11*
X97800000Y-90837500D03*
D10*
G36*
X139980142Y-90676174D02*
G01*
X140003803Y-90679684D01*
X140027007Y-90685496D01*
X140049529Y-90693554D01*
X140071153Y-90703782D01*
X140091670Y-90716079D01*
X140110883Y-90730329D01*
X140128607Y-90746393D01*
X140144671Y-90764117D01*
X140158921Y-90783330D01*
X140171218Y-90803847D01*
X140181446Y-90825471D01*
X140189504Y-90847993D01*
X140195316Y-90871197D01*
X140198826Y-90894858D01*
X140200000Y-90918750D01*
X140200000Y-91406250D01*
X140198826Y-91430142D01*
X140195316Y-91453803D01*
X140189504Y-91477007D01*
X140181446Y-91499529D01*
X140171218Y-91521153D01*
X140158921Y-91541670D01*
X140144671Y-91560883D01*
X140128607Y-91578607D01*
X140110883Y-91594671D01*
X140091670Y-91608921D01*
X140071153Y-91621218D01*
X140049529Y-91631446D01*
X140027007Y-91639504D01*
X140003803Y-91645316D01*
X139980142Y-91648826D01*
X139956250Y-91650000D01*
X139043750Y-91650000D01*
X139019858Y-91648826D01*
X138996197Y-91645316D01*
X138972993Y-91639504D01*
X138950471Y-91631446D01*
X138928847Y-91621218D01*
X138908330Y-91608921D01*
X138889117Y-91594671D01*
X138871393Y-91578607D01*
X138855329Y-91560883D01*
X138841079Y-91541670D01*
X138828782Y-91521153D01*
X138818554Y-91499529D01*
X138810496Y-91477007D01*
X138804684Y-91453803D01*
X138801174Y-91430142D01*
X138800000Y-91406250D01*
X138800000Y-90918750D01*
X138801174Y-90894858D01*
X138804684Y-90871197D01*
X138810496Y-90847993D01*
X138818554Y-90825471D01*
X138828782Y-90803847D01*
X138841079Y-90783330D01*
X138855329Y-90764117D01*
X138871393Y-90746393D01*
X138889117Y-90730329D01*
X138908330Y-90716079D01*
X138928847Y-90703782D01*
X138950471Y-90693554D01*
X138972993Y-90685496D01*
X138996197Y-90679684D01*
X139019858Y-90676174D01*
X139043750Y-90675000D01*
X139956250Y-90675000D01*
X139980142Y-90676174D01*
X139980142Y-90676174D01*
G37*
D11*
X139500000Y-91162500D03*
D10*
G36*
X139980142Y-92551174D02*
G01*
X140003803Y-92554684D01*
X140027007Y-92560496D01*
X140049529Y-92568554D01*
X140071153Y-92578782D01*
X140091670Y-92591079D01*
X140110883Y-92605329D01*
X140128607Y-92621393D01*
X140144671Y-92639117D01*
X140158921Y-92658330D01*
X140171218Y-92678847D01*
X140181446Y-92700471D01*
X140189504Y-92722993D01*
X140195316Y-92746197D01*
X140198826Y-92769858D01*
X140200000Y-92793750D01*
X140200000Y-93281250D01*
X140198826Y-93305142D01*
X140195316Y-93328803D01*
X140189504Y-93352007D01*
X140181446Y-93374529D01*
X140171218Y-93396153D01*
X140158921Y-93416670D01*
X140144671Y-93435883D01*
X140128607Y-93453607D01*
X140110883Y-93469671D01*
X140091670Y-93483921D01*
X140071153Y-93496218D01*
X140049529Y-93506446D01*
X140027007Y-93514504D01*
X140003803Y-93520316D01*
X139980142Y-93523826D01*
X139956250Y-93525000D01*
X139043750Y-93525000D01*
X139019858Y-93523826D01*
X138996197Y-93520316D01*
X138972993Y-93514504D01*
X138950471Y-93506446D01*
X138928847Y-93496218D01*
X138908330Y-93483921D01*
X138889117Y-93469671D01*
X138871393Y-93453607D01*
X138855329Y-93435883D01*
X138841079Y-93416670D01*
X138828782Y-93396153D01*
X138818554Y-93374529D01*
X138810496Y-93352007D01*
X138804684Y-93328803D01*
X138801174Y-93305142D01*
X138800000Y-93281250D01*
X138800000Y-92793750D01*
X138801174Y-92769858D01*
X138804684Y-92746197D01*
X138810496Y-92722993D01*
X138818554Y-92700471D01*
X138828782Y-92678847D01*
X138841079Y-92658330D01*
X138855329Y-92639117D01*
X138871393Y-92621393D01*
X138889117Y-92605329D01*
X138908330Y-92591079D01*
X138928847Y-92578782D01*
X138950471Y-92568554D01*
X138972993Y-92560496D01*
X138996197Y-92554684D01*
X139019858Y-92551174D01*
X139043750Y-92550000D01*
X139956250Y-92550000D01*
X139980142Y-92551174D01*
X139980142Y-92551174D01*
G37*
D11*
X139500000Y-93037500D03*
D10*
G36*
X118430142Y-92801174D02*
G01*
X118453803Y-92804684D01*
X118477007Y-92810496D01*
X118499529Y-92818554D01*
X118521153Y-92828782D01*
X118541670Y-92841079D01*
X118560883Y-92855329D01*
X118578607Y-92871393D01*
X118594671Y-92889117D01*
X118608921Y-92908330D01*
X118621218Y-92928847D01*
X118631446Y-92950471D01*
X118639504Y-92972993D01*
X118645316Y-92996197D01*
X118648826Y-93019858D01*
X118650000Y-93043750D01*
X118650000Y-93956250D01*
X118648826Y-93980142D01*
X118645316Y-94003803D01*
X118639504Y-94027007D01*
X118631446Y-94049529D01*
X118621218Y-94071153D01*
X118608921Y-94091670D01*
X118594671Y-94110883D01*
X118578607Y-94128607D01*
X118560883Y-94144671D01*
X118541670Y-94158921D01*
X118521153Y-94171218D01*
X118499529Y-94181446D01*
X118477007Y-94189504D01*
X118453803Y-94195316D01*
X118430142Y-94198826D01*
X118406250Y-94200000D01*
X117918750Y-94200000D01*
X117894858Y-94198826D01*
X117871197Y-94195316D01*
X117847993Y-94189504D01*
X117825471Y-94181446D01*
X117803847Y-94171218D01*
X117783330Y-94158921D01*
X117764117Y-94144671D01*
X117746393Y-94128607D01*
X117730329Y-94110883D01*
X117716079Y-94091670D01*
X117703782Y-94071153D01*
X117693554Y-94049529D01*
X117685496Y-94027007D01*
X117679684Y-94003803D01*
X117676174Y-93980142D01*
X117675000Y-93956250D01*
X117675000Y-93043750D01*
X117676174Y-93019858D01*
X117679684Y-92996197D01*
X117685496Y-92972993D01*
X117693554Y-92950471D01*
X117703782Y-92928847D01*
X117716079Y-92908330D01*
X117730329Y-92889117D01*
X117746393Y-92871393D01*
X117764117Y-92855329D01*
X117783330Y-92841079D01*
X117803847Y-92828782D01*
X117825471Y-92818554D01*
X117847993Y-92810496D01*
X117871197Y-92804684D01*
X117894858Y-92801174D01*
X117918750Y-92800000D01*
X118406250Y-92800000D01*
X118430142Y-92801174D01*
X118430142Y-92801174D01*
G37*
D11*
X118162500Y-93500000D03*
D10*
G36*
X120305142Y-92801174D02*
G01*
X120328803Y-92804684D01*
X120352007Y-92810496D01*
X120374529Y-92818554D01*
X120396153Y-92828782D01*
X120416670Y-92841079D01*
X120435883Y-92855329D01*
X120453607Y-92871393D01*
X120469671Y-92889117D01*
X120483921Y-92908330D01*
X120496218Y-92928847D01*
X120506446Y-92950471D01*
X120514504Y-92972993D01*
X120520316Y-92996197D01*
X120523826Y-93019858D01*
X120525000Y-93043750D01*
X120525000Y-93956250D01*
X120523826Y-93980142D01*
X120520316Y-94003803D01*
X120514504Y-94027007D01*
X120506446Y-94049529D01*
X120496218Y-94071153D01*
X120483921Y-94091670D01*
X120469671Y-94110883D01*
X120453607Y-94128607D01*
X120435883Y-94144671D01*
X120416670Y-94158921D01*
X120396153Y-94171218D01*
X120374529Y-94181446D01*
X120352007Y-94189504D01*
X120328803Y-94195316D01*
X120305142Y-94198826D01*
X120281250Y-94200000D01*
X119793750Y-94200000D01*
X119769858Y-94198826D01*
X119746197Y-94195316D01*
X119722993Y-94189504D01*
X119700471Y-94181446D01*
X119678847Y-94171218D01*
X119658330Y-94158921D01*
X119639117Y-94144671D01*
X119621393Y-94128607D01*
X119605329Y-94110883D01*
X119591079Y-94091670D01*
X119578782Y-94071153D01*
X119568554Y-94049529D01*
X119560496Y-94027007D01*
X119554684Y-94003803D01*
X119551174Y-93980142D01*
X119550000Y-93956250D01*
X119550000Y-93043750D01*
X119551174Y-93019858D01*
X119554684Y-92996197D01*
X119560496Y-92972993D01*
X119568554Y-92950471D01*
X119578782Y-92928847D01*
X119591079Y-92908330D01*
X119605329Y-92889117D01*
X119621393Y-92871393D01*
X119639117Y-92855329D01*
X119658330Y-92841079D01*
X119678847Y-92828782D01*
X119700471Y-92818554D01*
X119722993Y-92810496D01*
X119746197Y-92804684D01*
X119769858Y-92801174D01*
X119793750Y-92800000D01*
X120281250Y-92800000D01*
X120305142Y-92801174D01*
X120305142Y-92801174D01*
G37*
D11*
X120037500Y-93500000D03*
M02*
