M48
; DRILL file {KiCad (5.1.4-0-10_14)} date Wednesday, April 29, 2020 at 09:01:42 AM
; FORMAT={-:-/ absolute / inch / decimal}
; #@! TF.CreationDate,2020-04-29T09:01:42-04:00
; #@! TF.GenerationSoftware,Kicad,Pcbnew,(5.1.4-0-10_14)
; #@! TF.FileFunction,Plated,1,2,PTH
FMAT,2
INCH
T1C0.0157
T2C0.0350
T3C0.0394
T4C0.0433
T5C0.0618
%
G90
G05
T1
X3.7441Y-3.4409
X3.7598Y-3.5945
X4.5748Y-3.689
X5.0394Y-3.4882
X5.5802Y-3.6629
X5.6024Y-3.0098
T2
X5.4733Y-4.5472
X5.5155Y-4.4352
X5.5537Y-4.5472
X5.5958Y-4.4352
X5.634Y-4.5472
X5.6761Y-4.4352
X5.7143Y-4.5472
X5.7564Y-4.4352
T3
X5.9039Y-3.3425
X6.0039Y-3.3425
X6.1039Y-3.3425
X5.9039Y-3.7028
X6.0039Y-3.7028
X6.1039Y-3.7028
X5.9039Y-4.063
X6.0039Y-4.063
X6.1039Y-4.063
T4
X3.7516Y-3.8417
X3.7516Y-4.4417
X3.8516Y-3.8417
X3.8516Y-4.4417
X3.9516Y-3.8417
X3.9516Y-4.4417
X4.0516Y-3.8417
X4.0516Y-4.4417
X4.1516Y-3.8417
X4.1516Y-4.4417
X4.2516Y-3.8417
X4.2516Y-4.4417
X4.3516Y-3.8417
X4.3516Y-4.4417
X4.4516Y-3.8417
X4.4516Y-4.4417
X4.5516Y-3.8417
X4.5516Y-4.4417
X4.6516Y-3.8417
X4.6516Y-4.4417
X4.7516Y-3.8417
X4.7516Y-4.4417
X4.8516Y-3.8417
X4.8516Y-4.4417
X4.9516Y-3.8417
X4.9516Y-4.4417
X5.0516Y-3.8417
X5.0516Y-4.4417
T5
X5.2945Y-4.5463
X5.9347Y-4.5463
T0
M30
