G04 #@! TF.GenerationSoftware,KiCad,Pcbnew,(5.1.4-0-10_14)*
G04 #@! TF.CreationDate,2020-04-29T09:01:47-04:00*
G04 #@! TF.ProjectId,laser_flow,6c617365-725f-4666-9c6f-772e6b696361,rev?*
G04 #@! TF.SameCoordinates,Original*
G04 #@! TF.FileFunction,Copper,L1,Top*
G04 #@! TF.FilePolarity,Positive*
%FSLAX46Y46*%
G04 Gerber Fmt 4.6, Leading zero omitted, Abs format (unit mm)*
G04 Created by KiCad (PCBNEW (5.1.4-0-10_14)) date 2020-04-29 09:01:47*
%MOMM*%
%LPD*%
G04 APERTURE LIST*
%ADD10C,0.100000*%
%ADD11C,0.975000*%
%ADD12R,1.800000X3.200000*%
%ADD13C,2.000000*%
%ADD14C,1.500000*%
%ADD15R,1.500000X1.500000*%
%ADD16R,1.700000X1.700000*%
%ADD17O,1.700000X1.700000*%
%ADD18R,1.000000X1.700000*%
%ADD19C,1.600000*%
%ADD20R,1.600000X1.600000*%
%ADD21C,0.800000*%
%ADD22C,0.250000*%
%ADD23C,0.500000*%
%ADD24C,0.254000*%
G04 APERTURE END LIST*
D10*
G36*
X114080142Y-88776174D02*
G01*
X114103803Y-88779684D01*
X114127007Y-88785496D01*
X114149529Y-88793554D01*
X114171153Y-88803782D01*
X114191670Y-88816079D01*
X114210883Y-88830329D01*
X114228607Y-88846393D01*
X114244671Y-88864117D01*
X114258921Y-88883330D01*
X114271218Y-88903847D01*
X114281446Y-88925471D01*
X114289504Y-88947993D01*
X114295316Y-88971197D01*
X114298826Y-88994858D01*
X114300000Y-89018750D01*
X114300000Y-89506250D01*
X114298826Y-89530142D01*
X114295316Y-89553803D01*
X114289504Y-89577007D01*
X114281446Y-89599529D01*
X114271218Y-89621153D01*
X114258921Y-89641670D01*
X114244671Y-89660883D01*
X114228607Y-89678607D01*
X114210883Y-89694671D01*
X114191670Y-89708921D01*
X114171153Y-89721218D01*
X114149529Y-89731446D01*
X114127007Y-89739504D01*
X114103803Y-89745316D01*
X114080142Y-89748826D01*
X114056250Y-89750000D01*
X113143750Y-89750000D01*
X113119858Y-89748826D01*
X113096197Y-89745316D01*
X113072993Y-89739504D01*
X113050471Y-89731446D01*
X113028847Y-89721218D01*
X113008330Y-89708921D01*
X112989117Y-89694671D01*
X112971393Y-89678607D01*
X112955329Y-89660883D01*
X112941079Y-89641670D01*
X112928782Y-89621153D01*
X112918554Y-89599529D01*
X112910496Y-89577007D01*
X112904684Y-89553803D01*
X112901174Y-89530142D01*
X112900000Y-89506250D01*
X112900000Y-89018750D01*
X112901174Y-88994858D01*
X112904684Y-88971197D01*
X112910496Y-88947993D01*
X112918554Y-88925471D01*
X112928782Y-88903847D01*
X112941079Y-88883330D01*
X112955329Y-88864117D01*
X112971393Y-88846393D01*
X112989117Y-88830329D01*
X113008330Y-88816079D01*
X113028847Y-88803782D01*
X113050471Y-88793554D01*
X113072993Y-88785496D01*
X113096197Y-88779684D01*
X113119858Y-88776174D01*
X113143750Y-88775000D01*
X114056250Y-88775000D01*
X114080142Y-88776174D01*
X114080142Y-88776174D01*
G37*
D11*
X113600000Y-89262500D03*
D10*
G36*
X114080142Y-90651174D02*
G01*
X114103803Y-90654684D01*
X114127007Y-90660496D01*
X114149529Y-90668554D01*
X114171153Y-90678782D01*
X114191670Y-90691079D01*
X114210883Y-90705329D01*
X114228607Y-90721393D01*
X114244671Y-90739117D01*
X114258921Y-90758330D01*
X114271218Y-90778847D01*
X114281446Y-90800471D01*
X114289504Y-90822993D01*
X114295316Y-90846197D01*
X114298826Y-90869858D01*
X114300000Y-90893750D01*
X114300000Y-91381250D01*
X114298826Y-91405142D01*
X114295316Y-91428803D01*
X114289504Y-91452007D01*
X114281446Y-91474529D01*
X114271218Y-91496153D01*
X114258921Y-91516670D01*
X114244671Y-91535883D01*
X114228607Y-91553607D01*
X114210883Y-91569671D01*
X114191670Y-91583921D01*
X114171153Y-91596218D01*
X114149529Y-91606446D01*
X114127007Y-91614504D01*
X114103803Y-91620316D01*
X114080142Y-91623826D01*
X114056250Y-91625000D01*
X113143750Y-91625000D01*
X113119858Y-91623826D01*
X113096197Y-91620316D01*
X113072993Y-91614504D01*
X113050471Y-91606446D01*
X113028847Y-91596218D01*
X113008330Y-91583921D01*
X112989117Y-91569671D01*
X112971393Y-91553607D01*
X112955329Y-91535883D01*
X112941079Y-91516670D01*
X112928782Y-91496153D01*
X112918554Y-91474529D01*
X112910496Y-91452007D01*
X112904684Y-91428803D01*
X112901174Y-91405142D01*
X112900000Y-91381250D01*
X112900000Y-90893750D01*
X112901174Y-90869858D01*
X112904684Y-90846197D01*
X112910496Y-90822993D01*
X112918554Y-90800471D01*
X112928782Y-90778847D01*
X112941079Y-90758330D01*
X112955329Y-90739117D01*
X112971393Y-90721393D01*
X112989117Y-90705329D01*
X113008330Y-90691079D01*
X113028847Y-90678782D01*
X113050471Y-90668554D01*
X113072993Y-90660496D01*
X113096197Y-90654684D01*
X113119858Y-90651174D01*
X113143750Y-90650000D01*
X114056250Y-90650000D01*
X114080142Y-90651174D01*
X114080142Y-90651174D01*
G37*
D11*
X113600000Y-91137500D03*
D10*
G36*
X114180142Y-78876174D02*
G01*
X114203803Y-78879684D01*
X114227007Y-78885496D01*
X114249529Y-78893554D01*
X114271153Y-78903782D01*
X114291670Y-78916079D01*
X114310883Y-78930329D01*
X114328607Y-78946393D01*
X114344671Y-78964117D01*
X114358921Y-78983330D01*
X114371218Y-79003847D01*
X114381446Y-79025471D01*
X114389504Y-79047993D01*
X114395316Y-79071197D01*
X114398826Y-79094858D01*
X114400000Y-79118750D01*
X114400000Y-79606250D01*
X114398826Y-79630142D01*
X114395316Y-79653803D01*
X114389504Y-79677007D01*
X114381446Y-79699529D01*
X114371218Y-79721153D01*
X114358921Y-79741670D01*
X114344671Y-79760883D01*
X114328607Y-79778607D01*
X114310883Y-79794671D01*
X114291670Y-79808921D01*
X114271153Y-79821218D01*
X114249529Y-79831446D01*
X114227007Y-79839504D01*
X114203803Y-79845316D01*
X114180142Y-79848826D01*
X114156250Y-79850000D01*
X113243750Y-79850000D01*
X113219858Y-79848826D01*
X113196197Y-79845316D01*
X113172993Y-79839504D01*
X113150471Y-79831446D01*
X113128847Y-79821218D01*
X113108330Y-79808921D01*
X113089117Y-79794671D01*
X113071393Y-79778607D01*
X113055329Y-79760883D01*
X113041079Y-79741670D01*
X113028782Y-79721153D01*
X113018554Y-79699529D01*
X113010496Y-79677007D01*
X113004684Y-79653803D01*
X113001174Y-79630142D01*
X113000000Y-79606250D01*
X113000000Y-79118750D01*
X113001174Y-79094858D01*
X113004684Y-79071197D01*
X113010496Y-79047993D01*
X113018554Y-79025471D01*
X113028782Y-79003847D01*
X113041079Y-78983330D01*
X113055329Y-78964117D01*
X113071393Y-78946393D01*
X113089117Y-78930329D01*
X113108330Y-78916079D01*
X113128847Y-78903782D01*
X113150471Y-78893554D01*
X113172993Y-78885496D01*
X113196197Y-78879684D01*
X113219858Y-78876174D01*
X113243750Y-78875000D01*
X114156250Y-78875000D01*
X114180142Y-78876174D01*
X114180142Y-78876174D01*
G37*
D11*
X113700000Y-79362500D03*
D10*
G36*
X114180142Y-80751174D02*
G01*
X114203803Y-80754684D01*
X114227007Y-80760496D01*
X114249529Y-80768554D01*
X114271153Y-80778782D01*
X114291670Y-80791079D01*
X114310883Y-80805329D01*
X114328607Y-80821393D01*
X114344671Y-80839117D01*
X114358921Y-80858330D01*
X114371218Y-80878847D01*
X114381446Y-80900471D01*
X114389504Y-80922993D01*
X114395316Y-80946197D01*
X114398826Y-80969858D01*
X114400000Y-80993750D01*
X114400000Y-81481250D01*
X114398826Y-81505142D01*
X114395316Y-81528803D01*
X114389504Y-81552007D01*
X114381446Y-81574529D01*
X114371218Y-81596153D01*
X114358921Y-81616670D01*
X114344671Y-81635883D01*
X114328607Y-81653607D01*
X114310883Y-81669671D01*
X114291670Y-81683921D01*
X114271153Y-81696218D01*
X114249529Y-81706446D01*
X114227007Y-81714504D01*
X114203803Y-81720316D01*
X114180142Y-81723826D01*
X114156250Y-81725000D01*
X113243750Y-81725000D01*
X113219858Y-81723826D01*
X113196197Y-81720316D01*
X113172993Y-81714504D01*
X113150471Y-81706446D01*
X113128847Y-81696218D01*
X113108330Y-81683921D01*
X113089117Y-81669671D01*
X113071393Y-81653607D01*
X113055329Y-81635883D01*
X113041079Y-81616670D01*
X113028782Y-81596153D01*
X113018554Y-81574529D01*
X113010496Y-81552007D01*
X113004684Y-81528803D01*
X113001174Y-81505142D01*
X113000000Y-81481250D01*
X113000000Y-80993750D01*
X113001174Y-80969858D01*
X113004684Y-80946197D01*
X113010496Y-80922993D01*
X113018554Y-80900471D01*
X113028782Y-80878847D01*
X113041079Y-80858330D01*
X113055329Y-80839117D01*
X113071393Y-80821393D01*
X113089117Y-80805329D01*
X113108330Y-80791079D01*
X113128847Y-80778782D01*
X113150471Y-80768554D01*
X113172993Y-80760496D01*
X113196197Y-80754684D01*
X113219858Y-80751174D01*
X113243750Y-80750000D01*
X114156250Y-80750000D01*
X114180142Y-80751174D01*
X114180142Y-80751174D01*
G37*
D11*
X113700000Y-81237500D03*
D12*
X120100000Y-79850000D03*
X131500000Y-79850000D03*
X131500000Y-88550000D03*
X120100000Y-88550000D03*
D13*
X134480800Y-115475600D03*
X150740800Y-115475600D03*
D14*
X139022800Y-115498000D03*
X141062800Y-115498000D03*
X143102800Y-115498000D03*
X145142800Y-115498000D03*
X140093600Y-112655200D03*
X142133600Y-112655200D03*
X144173600Y-112655200D03*
D15*
X146213600Y-112655200D03*
D10*
G36*
X100680142Y-80751174D02*
G01*
X100703803Y-80754684D01*
X100727007Y-80760496D01*
X100749529Y-80768554D01*
X100771153Y-80778782D01*
X100791670Y-80791079D01*
X100810883Y-80805329D01*
X100828607Y-80821393D01*
X100844671Y-80839117D01*
X100858921Y-80858330D01*
X100871218Y-80878847D01*
X100881446Y-80900471D01*
X100889504Y-80922993D01*
X100895316Y-80946197D01*
X100898826Y-80969858D01*
X100900000Y-80993750D01*
X100900000Y-81481250D01*
X100898826Y-81505142D01*
X100895316Y-81528803D01*
X100889504Y-81552007D01*
X100881446Y-81574529D01*
X100871218Y-81596153D01*
X100858921Y-81616670D01*
X100844671Y-81635883D01*
X100828607Y-81653607D01*
X100810883Y-81669671D01*
X100791670Y-81683921D01*
X100771153Y-81696218D01*
X100749529Y-81706446D01*
X100727007Y-81714504D01*
X100703803Y-81720316D01*
X100680142Y-81723826D01*
X100656250Y-81725000D01*
X99743750Y-81725000D01*
X99719858Y-81723826D01*
X99696197Y-81720316D01*
X99672993Y-81714504D01*
X99650471Y-81706446D01*
X99628847Y-81696218D01*
X99608330Y-81683921D01*
X99589117Y-81669671D01*
X99571393Y-81653607D01*
X99555329Y-81635883D01*
X99541079Y-81616670D01*
X99528782Y-81596153D01*
X99518554Y-81574529D01*
X99510496Y-81552007D01*
X99504684Y-81528803D01*
X99501174Y-81505142D01*
X99500000Y-81481250D01*
X99500000Y-80993750D01*
X99501174Y-80969858D01*
X99504684Y-80946197D01*
X99510496Y-80922993D01*
X99518554Y-80900471D01*
X99528782Y-80878847D01*
X99541079Y-80858330D01*
X99555329Y-80839117D01*
X99571393Y-80821393D01*
X99589117Y-80805329D01*
X99608330Y-80791079D01*
X99628847Y-80778782D01*
X99650471Y-80768554D01*
X99672993Y-80760496D01*
X99696197Y-80754684D01*
X99719858Y-80751174D01*
X99743750Y-80750000D01*
X100656250Y-80750000D01*
X100680142Y-80751174D01*
X100680142Y-80751174D01*
G37*
D11*
X100200000Y-81237500D03*
D10*
G36*
X100680142Y-78876174D02*
G01*
X100703803Y-78879684D01*
X100727007Y-78885496D01*
X100749529Y-78893554D01*
X100771153Y-78903782D01*
X100791670Y-78916079D01*
X100810883Y-78930329D01*
X100828607Y-78946393D01*
X100844671Y-78964117D01*
X100858921Y-78983330D01*
X100871218Y-79003847D01*
X100881446Y-79025471D01*
X100889504Y-79047993D01*
X100895316Y-79071197D01*
X100898826Y-79094858D01*
X100900000Y-79118750D01*
X100900000Y-79606250D01*
X100898826Y-79630142D01*
X100895316Y-79653803D01*
X100889504Y-79677007D01*
X100881446Y-79699529D01*
X100871218Y-79721153D01*
X100858921Y-79741670D01*
X100844671Y-79760883D01*
X100828607Y-79778607D01*
X100810883Y-79794671D01*
X100791670Y-79808921D01*
X100771153Y-79821218D01*
X100749529Y-79831446D01*
X100727007Y-79839504D01*
X100703803Y-79845316D01*
X100680142Y-79848826D01*
X100656250Y-79850000D01*
X99743750Y-79850000D01*
X99719858Y-79848826D01*
X99696197Y-79845316D01*
X99672993Y-79839504D01*
X99650471Y-79831446D01*
X99628847Y-79821218D01*
X99608330Y-79808921D01*
X99589117Y-79794671D01*
X99571393Y-79778607D01*
X99555329Y-79760883D01*
X99541079Y-79741670D01*
X99528782Y-79721153D01*
X99518554Y-79699529D01*
X99510496Y-79677007D01*
X99504684Y-79653803D01*
X99501174Y-79630142D01*
X99500000Y-79606250D01*
X99500000Y-79118750D01*
X99501174Y-79094858D01*
X99504684Y-79071197D01*
X99510496Y-79047993D01*
X99518554Y-79025471D01*
X99528782Y-79003847D01*
X99541079Y-78983330D01*
X99555329Y-78964117D01*
X99571393Y-78946393D01*
X99589117Y-78930329D01*
X99608330Y-78916079D01*
X99628847Y-78903782D01*
X99650471Y-78893554D01*
X99672993Y-78885496D01*
X99696197Y-78879684D01*
X99719858Y-78876174D01*
X99743750Y-78875000D01*
X100656250Y-78875000D01*
X100680142Y-78876174D01*
X100680142Y-78876174D01*
G37*
D11*
X100200000Y-79362500D03*
D16*
X149960000Y-84900000D03*
D17*
X152500000Y-84900000D03*
X155040000Y-84900000D03*
D16*
X149960000Y-94050000D03*
D17*
X152500000Y-94050000D03*
X155040000Y-94050000D03*
D18*
X139700000Y-85450000D03*
X139700000Y-79150000D03*
X143500000Y-85450000D03*
X143500000Y-79150000D03*
D10*
G36*
X98280142Y-88476174D02*
G01*
X98303803Y-88479684D01*
X98327007Y-88485496D01*
X98349529Y-88493554D01*
X98371153Y-88503782D01*
X98391670Y-88516079D01*
X98410883Y-88530329D01*
X98428607Y-88546393D01*
X98444671Y-88564117D01*
X98458921Y-88583330D01*
X98471218Y-88603847D01*
X98481446Y-88625471D01*
X98489504Y-88647993D01*
X98495316Y-88671197D01*
X98498826Y-88694858D01*
X98500000Y-88718750D01*
X98500000Y-89206250D01*
X98498826Y-89230142D01*
X98495316Y-89253803D01*
X98489504Y-89277007D01*
X98481446Y-89299529D01*
X98471218Y-89321153D01*
X98458921Y-89341670D01*
X98444671Y-89360883D01*
X98428607Y-89378607D01*
X98410883Y-89394671D01*
X98391670Y-89408921D01*
X98371153Y-89421218D01*
X98349529Y-89431446D01*
X98327007Y-89439504D01*
X98303803Y-89445316D01*
X98280142Y-89448826D01*
X98256250Y-89450000D01*
X97343750Y-89450000D01*
X97319858Y-89448826D01*
X97296197Y-89445316D01*
X97272993Y-89439504D01*
X97250471Y-89431446D01*
X97228847Y-89421218D01*
X97208330Y-89408921D01*
X97189117Y-89394671D01*
X97171393Y-89378607D01*
X97155329Y-89360883D01*
X97141079Y-89341670D01*
X97128782Y-89321153D01*
X97118554Y-89299529D01*
X97110496Y-89277007D01*
X97104684Y-89253803D01*
X97101174Y-89230142D01*
X97100000Y-89206250D01*
X97100000Y-88718750D01*
X97101174Y-88694858D01*
X97104684Y-88671197D01*
X97110496Y-88647993D01*
X97118554Y-88625471D01*
X97128782Y-88603847D01*
X97141079Y-88583330D01*
X97155329Y-88564117D01*
X97171393Y-88546393D01*
X97189117Y-88530329D01*
X97208330Y-88516079D01*
X97228847Y-88503782D01*
X97250471Y-88493554D01*
X97272993Y-88485496D01*
X97296197Y-88479684D01*
X97319858Y-88476174D01*
X97343750Y-88475000D01*
X98256250Y-88475000D01*
X98280142Y-88476174D01*
X98280142Y-88476174D01*
G37*
D11*
X97800000Y-88962500D03*
D10*
G36*
X98280142Y-90351174D02*
G01*
X98303803Y-90354684D01*
X98327007Y-90360496D01*
X98349529Y-90368554D01*
X98371153Y-90378782D01*
X98391670Y-90391079D01*
X98410883Y-90405329D01*
X98428607Y-90421393D01*
X98444671Y-90439117D01*
X98458921Y-90458330D01*
X98471218Y-90478847D01*
X98481446Y-90500471D01*
X98489504Y-90522993D01*
X98495316Y-90546197D01*
X98498826Y-90569858D01*
X98500000Y-90593750D01*
X98500000Y-91081250D01*
X98498826Y-91105142D01*
X98495316Y-91128803D01*
X98489504Y-91152007D01*
X98481446Y-91174529D01*
X98471218Y-91196153D01*
X98458921Y-91216670D01*
X98444671Y-91235883D01*
X98428607Y-91253607D01*
X98410883Y-91269671D01*
X98391670Y-91283921D01*
X98371153Y-91296218D01*
X98349529Y-91306446D01*
X98327007Y-91314504D01*
X98303803Y-91320316D01*
X98280142Y-91323826D01*
X98256250Y-91325000D01*
X97343750Y-91325000D01*
X97319858Y-91323826D01*
X97296197Y-91320316D01*
X97272993Y-91314504D01*
X97250471Y-91306446D01*
X97228847Y-91296218D01*
X97208330Y-91283921D01*
X97189117Y-91269671D01*
X97171393Y-91253607D01*
X97155329Y-91235883D01*
X97141079Y-91216670D01*
X97128782Y-91196153D01*
X97118554Y-91174529D01*
X97110496Y-91152007D01*
X97104684Y-91128803D01*
X97101174Y-91105142D01*
X97100000Y-91081250D01*
X97100000Y-90593750D01*
X97101174Y-90569858D01*
X97104684Y-90546197D01*
X97110496Y-90522993D01*
X97118554Y-90500471D01*
X97128782Y-90478847D01*
X97141079Y-90458330D01*
X97155329Y-90439117D01*
X97171393Y-90421393D01*
X97189117Y-90405329D01*
X97208330Y-90391079D01*
X97228847Y-90378782D01*
X97250471Y-90368554D01*
X97272993Y-90360496D01*
X97296197Y-90354684D01*
X97319858Y-90351174D01*
X97343750Y-90350000D01*
X98256250Y-90350000D01*
X98280142Y-90351174D01*
X98280142Y-90351174D01*
G37*
D11*
X97800000Y-90837500D03*
D10*
G36*
X139980142Y-90676174D02*
G01*
X140003803Y-90679684D01*
X140027007Y-90685496D01*
X140049529Y-90693554D01*
X140071153Y-90703782D01*
X140091670Y-90716079D01*
X140110883Y-90730329D01*
X140128607Y-90746393D01*
X140144671Y-90764117D01*
X140158921Y-90783330D01*
X140171218Y-90803847D01*
X140181446Y-90825471D01*
X140189504Y-90847993D01*
X140195316Y-90871197D01*
X140198826Y-90894858D01*
X140200000Y-90918750D01*
X140200000Y-91406250D01*
X140198826Y-91430142D01*
X140195316Y-91453803D01*
X140189504Y-91477007D01*
X140181446Y-91499529D01*
X140171218Y-91521153D01*
X140158921Y-91541670D01*
X140144671Y-91560883D01*
X140128607Y-91578607D01*
X140110883Y-91594671D01*
X140091670Y-91608921D01*
X140071153Y-91621218D01*
X140049529Y-91631446D01*
X140027007Y-91639504D01*
X140003803Y-91645316D01*
X139980142Y-91648826D01*
X139956250Y-91650000D01*
X139043750Y-91650000D01*
X139019858Y-91648826D01*
X138996197Y-91645316D01*
X138972993Y-91639504D01*
X138950471Y-91631446D01*
X138928847Y-91621218D01*
X138908330Y-91608921D01*
X138889117Y-91594671D01*
X138871393Y-91578607D01*
X138855329Y-91560883D01*
X138841079Y-91541670D01*
X138828782Y-91521153D01*
X138818554Y-91499529D01*
X138810496Y-91477007D01*
X138804684Y-91453803D01*
X138801174Y-91430142D01*
X138800000Y-91406250D01*
X138800000Y-90918750D01*
X138801174Y-90894858D01*
X138804684Y-90871197D01*
X138810496Y-90847993D01*
X138818554Y-90825471D01*
X138828782Y-90803847D01*
X138841079Y-90783330D01*
X138855329Y-90764117D01*
X138871393Y-90746393D01*
X138889117Y-90730329D01*
X138908330Y-90716079D01*
X138928847Y-90703782D01*
X138950471Y-90693554D01*
X138972993Y-90685496D01*
X138996197Y-90679684D01*
X139019858Y-90676174D01*
X139043750Y-90675000D01*
X139956250Y-90675000D01*
X139980142Y-90676174D01*
X139980142Y-90676174D01*
G37*
D11*
X139500000Y-91162500D03*
D10*
G36*
X139980142Y-92551174D02*
G01*
X140003803Y-92554684D01*
X140027007Y-92560496D01*
X140049529Y-92568554D01*
X140071153Y-92578782D01*
X140091670Y-92591079D01*
X140110883Y-92605329D01*
X140128607Y-92621393D01*
X140144671Y-92639117D01*
X140158921Y-92658330D01*
X140171218Y-92678847D01*
X140181446Y-92700471D01*
X140189504Y-92722993D01*
X140195316Y-92746197D01*
X140198826Y-92769858D01*
X140200000Y-92793750D01*
X140200000Y-93281250D01*
X140198826Y-93305142D01*
X140195316Y-93328803D01*
X140189504Y-93352007D01*
X140181446Y-93374529D01*
X140171218Y-93396153D01*
X140158921Y-93416670D01*
X140144671Y-93435883D01*
X140128607Y-93453607D01*
X140110883Y-93469671D01*
X140091670Y-93483921D01*
X140071153Y-93496218D01*
X140049529Y-93506446D01*
X140027007Y-93514504D01*
X140003803Y-93520316D01*
X139980142Y-93523826D01*
X139956250Y-93525000D01*
X139043750Y-93525000D01*
X139019858Y-93523826D01*
X138996197Y-93520316D01*
X138972993Y-93514504D01*
X138950471Y-93506446D01*
X138928847Y-93496218D01*
X138908330Y-93483921D01*
X138889117Y-93469671D01*
X138871393Y-93453607D01*
X138855329Y-93435883D01*
X138841079Y-93416670D01*
X138828782Y-93396153D01*
X138818554Y-93374529D01*
X138810496Y-93352007D01*
X138804684Y-93328803D01*
X138801174Y-93305142D01*
X138800000Y-93281250D01*
X138800000Y-92793750D01*
X138801174Y-92769858D01*
X138804684Y-92746197D01*
X138810496Y-92722993D01*
X138818554Y-92700471D01*
X138828782Y-92678847D01*
X138841079Y-92658330D01*
X138855329Y-92639117D01*
X138871393Y-92621393D01*
X138889117Y-92605329D01*
X138908330Y-92591079D01*
X138928847Y-92578782D01*
X138950471Y-92568554D01*
X138972993Y-92560496D01*
X138996197Y-92554684D01*
X139019858Y-92551174D01*
X139043750Y-92550000D01*
X139956250Y-92550000D01*
X139980142Y-92551174D01*
X139980142Y-92551174D01*
G37*
D11*
X139500000Y-93037500D03*
D10*
G36*
X118430142Y-92801174D02*
G01*
X118453803Y-92804684D01*
X118477007Y-92810496D01*
X118499529Y-92818554D01*
X118521153Y-92828782D01*
X118541670Y-92841079D01*
X118560883Y-92855329D01*
X118578607Y-92871393D01*
X118594671Y-92889117D01*
X118608921Y-92908330D01*
X118621218Y-92928847D01*
X118631446Y-92950471D01*
X118639504Y-92972993D01*
X118645316Y-92996197D01*
X118648826Y-93019858D01*
X118650000Y-93043750D01*
X118650000Y-93956250D01*
X118648826Y-93980142D01*
X118645316Y-94003803D01*
X118639504Y-94027007D01*
X118631446Y-94049529D01*
X118621218Y-94071153D01*
X118608921Y-94091670D01*
X118594671Y-94110883D01*
X118578607Y-94128607D01*
X118560883Y-94144671D01*
X118541670Y-94158921D01*
X118521153Y-94171218D01*
X118499529Y-94181446D01*
X118477007Y-94189504D01*
X118453803Y-94195316D01*
X118430142Y-94198826D01*
X118406250Y-94200000D01*
X117918750Y-94200000D01*
X117894858Y-94198826D01*
X117871197Y-94195316D01*
X117847993Y-94189504D01*
X117825471Y-94181446D01*
X117803847Y-94171218D01*
X117783330Y-94158921D01*
X117764117Y-94144671D01*
X117746393Y-94128607D01*
X117730329Y-94110883D01*
X117716079Y-94091670D01*
X117703782Y-94071153D01*
X117693554Y-94049529D01*
X117685496Y-94027007D01*
X117679684Y-94003803D01*
X117676174Y-93980142D01*
X117675000Y-93956250D01*
X117675000Y-93043750D01*
X117676174Y-93019858D01*
X117679684Y-92996197D01*
X117685496Y-92972993D01*
X117693554Y-92950471D01*
X117703782Y-92928847D01*
X117716079Y-92908330D01*
X117730329Y-92889117D01*
X117746393Y-92871393D01*
X117764117Y-92855329D01*
X117783330Y-92841079D01*
X117803847Y-92828782D01*
X117825471Y-92818554D01*
X117847993Y-92810496D01*
X117871197Y-92804684D01*
X117894858Y-92801174D01*
X117918750Y-92800000D01*
X118406250Y-92800000D01*
X118430142Y-92801174D01*
X118430142Y-92801174D01*
G37*
D11*
X118162500Y-93500000D03*
D10*
G36*
X120305142Y-92801174D02*
G01*
X120328803Y-92804684D01*
X120352007Y-92810496D01*
X120374529Y-92818554D01*
X120396153Y-92828782D01*
X120416670Y-92841079D01*
X120435883Y-92855329D01*
X120453607Y-92871393D01*
X120469671Y-92889117D01*
X120483921Y-92908330D01*
X120496218Y-92928847D01*
X120506446Y-92950471D01*
X120514504Y-92972993D01*
X120520316Y-92996197D01*
X120523826Y-93019858D01*
X120525000Y-93043750D01*
X120525000Y-93956250D01*
X120523826Y-93980142D01*
X120520316Y-94003803D01*
X120514504Y-94027007D01*
X120506446Y-94049529D01*
X120496218Y-94071153D01*
X120483921Y-94091670D01*
X120469671Y-94110883D01*
X120453607Y-94128607D01*
X120435883Y-94144671D01*
X120416670Y-94158921D01*
X120396153Y-94171218D01*
X120374529Y-94181446D01*
X120352007Y-94189504D01*
X120328803Y-94195316D01*
X120305142Y-94198826D01*
X120281250Y-94200000D01*
X119793750Y-94200000D01*
X119769858Y-94198826D01*
X119746197Y-94195316D01*
X119722993Y-94189504D01*
X119700471Y-94181446D01*
X119678847Y-94171218D01*
X119658330Y-94158921D01*
X119639117Y-94144671D01*
X119621393Y-94128607D01*
X119605329Y-94110883D01*
X119591079Y-94091670D01*
X119578782Y-94071153D01*
X119568554Y-94049529D01*
X119560496Y-94027007D01*
X119554684Y-94003803D01*
X119551174Y-93980142D01*
X119550000Y-93956250D01*
X119550000Y-93043750D01*
X119551174Y-93019858D01*
X119554684Y-92996197D01*
X119560496Y-92972993D01*
X119568554Y-92950471D01*
X119578782Y-92928847D01*
X119591079Y-92908330D01*
X119605329Y-92889117D01*
X119621393Y-92871393D01*
X119639117Y-92855329D01*
X119658330Y-92841079D01*
X119678847Y-92828782D01*
X119700471Y-92818554D01*
X119722993Y-92810496D01*
X119746197Y-92804684D01*
X119769858Y-92801174D01*
X119793750Y-92800000D01*
X120281250Y-92800000D01*
X120305142Y-92801174D01*
X120305142Y-92801174D01*
G37*
D11*
X120037500Y-93500000D03*
D17*
X155040000Y-103200000D03*
X152500000Y-103200000D03*
D16*
X149960000Y-103200000D03*
D19*
X128310000Y-97580000D03*
X128310000Y-112820000D03*
X125770000Y-97580000D03*
X123230000Y-97580000D03*
X120690000Y-97580000D03*
X118150000Y-97580000D03*
X115610000Y-97580000D03*
X113070000Y-97580000D03*
X110530000Y-97580000D03*
X107990000Y-97580000D03*
X105450000Y-97580000D03*
X102910000Y-97580000D03*
X100370000Y-97580000D03*
X97830000Y-97580000D03*
X95290000Y-97580000D03*
X125770000Y-112820000D03*
X123230000Y-112820000D03*
X120690000Y-112820000D03*
X118150000Y-112820000D03*
X115610000Y-112820000D03*
X113070000Y-112820000D03*
X110530000Y-112820000D03*
X107990000Y-112820000D03*
X105450000Y-112820000D03*
X102910000Y-112820000D03*
X100370000Y-112820000D03*
X97830000Y-112820000D03*
D20*
X95290000Y-112820000D03*
D21*
X95500000Y-91300000D03*
X128000000Y-88600000D03*
X141737500Y-93037500D03*
X142300000Y-76450000D03*
X95100000Y-87400000D03*
X116200000Y-93700000D03*
D22*
X97800000Y-90837500D02*
X95962500Y-90837500D01*
X95962500Y-90837500D02*
X95500000Y-91300000D01*
X128050000Y-88550000D02*
X128000000Y-88600000D01*
X131500000Y-88550000D02*
X128050000Y-88550000D01*
X139500000Y-93037500D02*
X141737500Y-93037500D01*
X139500000Y-90575000D02*
X140675000Y-89400000D01*
X139500000Y-91162500D02*
X139500000Y-90575000D01*
X143500000Y-79150000D02*
X143500000Y-85450000D01*
X137037500Y-91162500D02*
X139500000Y-91162500D01*
X135000000Y-93200000D02*
X137037500Y-91162500D01*
X127800000Y-93200000D02*
X135000000Y-93200000D01*
X125770000Y-95230000D02*
X127800000Y-93200000D01*
X125770000Y-97580000D02*
X125770000Y-95230000D01*
X140675000Y-89400000D02*
X140675000Y-87325000D01*
X142550000Y-85450000D02*
X143500000Y-85450000D01*
X140675000Y-87325000D02*
X142550000Y-85450000D01*
X97800000Y-83637500D02*
X100200000Y-81237500D01*
X97800000Y-88962500D02*
X97800000Y-83637500D01*
X113700000Y-89162500D02*
X113600000Y-89262500D01*
X113700000Y-81237500D02*
X113700000Y-89162500D01*
D23*
X141749999Y-75899999D02*
X142300000Y-76450000D01*
X95900000Y-81800000D02*
X98200000Y-79500000D01*
X98200000Y-79500000D02*
X98200000Y-78100000D01*
X95900000Y-86600000D02*
X95900000Y-81800000D01*
X100400001Y-75899999D02*
X141749999Y-75899999D01*
X98200000Y-78100000D02*
X100400001Y-75899999D01*
X95100000Y-87400000D02*
X95900000Y-86600000D01*
D22*
X152500000Y-86102081D02*
X152500000Y-84900000D01*
X151302081Y-87300000D02*
X152500000Y-86102081D01*
X146100000Y-87300000D02*
X151302081Y-87300000D01*
X140000000Y-99800000D02*
X144600000Y-95200000D01*
X113963590Y-99800000D02*
X140000000Y-99800000D01*
X144600000Y-88800000D02*
X146100000Y-87300000D01*
X110079991Y-103683599D02*
X113963590Y-99800000D01*
X144600000Y-95200000D02*
X144600000Y-88800000D01*
X110079990Y-110730010D02*
X110079991Y-103683599D01*
X107990000Y-112820000D02*
X110079990Y-110730010D01*
X152500000Y-95252081D02*
X150952081Y-96800000D01*
X152500000Y-94050000D02*
X152500000Y-95252081D01*
X143636410Y-96800000D02*
X140186400Y-100250010D01*
X150952081Y-96800000D02*
X143636410Y-96800000D01*
X140186400Y-100250010D02*
X114149990Y-100250010D01*
X110530000Y-103870000D02*
X110530000Y-112820000D01*
X114149990Y-100250010D02*
X110530000Y-103870000D01*
X110530000Y-92870000D02*
X110530000Y-95270000D01*
X112262500Y-91137500D02*
X110530000Y-92870000D01*
X113600000Y-91137500D02*
X112262500Y-91137500D01*
X110530000Y-95270000D02*
X110530000Y-97580000D01*
X110530000Y-93430000D02*
X110530000Y-95270000D01*
X118162500Y-93500000D02*
X116400000Y-93500000D01*
X116400000Y-93500000D02*
X116200000Y-93700000D01*
X120100000Y-93537500D02*
X120162500Y-93600000D01*
X120100000Y-88550000D02*
X120100000Y-93537500D01*
X142899960Y-103200000D02*
X149960000Y-103200000D01*
X140399980Y-100700020D02*
X142899960Y-103200000D01*
X114336390Y-100700020D02*
X140399980Y-100700020D01*
X111000000Y-104036410D02*
X114336390Y-100700020D01*
X111000000Y-110750000D02*
X111000000Y-109050000D01*
X113070000Y-112820000D02*
X111000000Y-110750000D01*
X111000000Y-109050000D02*
X111000000Y-104036410D01*
X111000000Y-109150000D02*
X111000000Y-109050000D01*
X122336410Y-117800000D02*
X138760800Y-117800000D01*
X119890001Y-113619999D02*
X119890001Y-113659999D01*
X119350000Y-114813590D02*
X122336410Y-117800000D01*
X119350000Y-114200000D02*
X119350000Y-114813590D01*
X119890001Y-113659999D02*
X119350000Y-114200000D01*
X138760800Y-117800000D02*
X141062800Y-115498000D01*
X120690000Y-112820000D02*
X119890001Y-113619999D01*
X140350791Y-118250009D02*
X122150009Y-118250009D01*
X143102800Y-115498000D02*
X140350791Y-118250009D01*
X118150000Y-114250000D02*
X118150000Y-112820000D01*
X122150009Y-118250009D02*
X118150000Y-114250000D01*
D24*
G36*
X154222911Y-75897821D02*
G01*
X153815905Y-76169774D01*
X153469774Y-76515905D01*
X153197821Y-76922911D01*
X153010497Y-77375152D01*
X152915000Y-77855249D01*
X152915000Y-78344751D01*
X153010497Y-78824848D01*
X153197821Y-79277089D01*
X153469774Y-79684095D01*
X153815905Y-80030226D01*
X154222911Y-80302179D01*
X154675152Y-80489503D01*
X155155249Y-80585000D01*
X155644751Y-80585000D01*
X156124848Y-80489503D01*
X156577089Y-80302179D01*
X156984095Y-80030226D01*
X157180612Y-79833709D01*
X157180611Y-116840972D01*
X157030226Y-116615905D01*
X156684095Y-116269774D01*
X156277089Y-115997821D01*
X155824848Y-115810497D01*
X155344751Y-115715000D01*
X154855249Y-115715000D01*
X154375152Y-115810497D01*
X153922911Y-115997821D01*
X153515905Y-116269774D01*
X153169774Y-116615905D01*
X152897821Y-117022911D01*
X152710497Y-117475152D01*
X152615000Y-117955249D01*
X152615000Y-118444751D01*
X152710497Y-118924848D01*
X152897821Y-119377089D01*
X153169774Y-119784095D01*
X153515905Y-120130226D01*
X153668208Y-120231992D01*
X96682329Y-120231992D01*
X96930226Y-119984095D01*
X97202179Y-119577089D01*
X97389503Y-119124848D01*
X97485000Y-118644751D01*
X97485000Y-118155249D01*
X97389503Y-117675152D01*
X97202179Y-117222911D01*
X96930226Y-116815905D01*
X96584095Y-116469774D01*
X96177089Y-116197821D01*
X95724848Y-116010497D01*
X95244751Y-115915000D01*
X94755249Y-115915000D01*
X94275152Y-116010497D01*
X93822911Y-116197821D01*
X93415905Y-116469774D01*
X93069774Y-116815905D01*
X92998611Y-116922408D01*
X92998611Y-112020000D01*
X93851928Y-112020000D01*
X93851928Y-113620000D01*
X93864188Y-113744482D01*
X93900498Y-113864180D01*
X93959463Y-113974494D01*
X94038815Y-114071185D01*
X94135506Y-114150537D01*
X94245820Y-114209502D01*
X94365518Y-114245812D01*
X94490000Y-114258072D01*
X96090000Y-114258072D01*
X96214482Y-114245812D01*
X96334180Y-114209502D01*
X96444494Y-114150537D01*
X96541185Y-114071185D01*
X96620537Y-113974494D01*
X96679502Y-113864180D01*
X96715812Y-113744482D01*
X96716643Y-113736039D01*
X96915241Y-113934637D01*
X97150273Y-114091680D01*
X97411426Y-114199853D01*
X97688665Y-114255000D01*
X97971335Y-114255000D01*
X98248574Y-114199853D01*
X98509727Y-114091680D01*
X98744759Y-113934637D01*
X98944637Y-113734759D01*
X99100000Y-113502241D01*
X99255363Y-113734759D01*
X99455241Y-113934637D01*
X99690273Y-114091680D01*
X99951426Y-114199853D01*
X100228665Y-114255000D01*
X100511335Y-114255000D01*
X100788574Y-114199853D01*
X101049727Y-114091680D01*
X101284759Y-113934637D01*
X101484637Y-113734759D01*
X101640000Y-113502241D01*
X101795363Y-113734759D01*
X101995241Y-113934637D01*
X102230273Y-114091680D01*
X102491426Y-114199853D01*
X102768665Y-114255000D01*
X103051335Y-114255000D01*
X103328574Y-114199853D01*
X103589727Y-114091680D01*
X103824759Y-113934637D01*
X104024637Y-113734759D01*
X104180000Y-113502241D01*
X104335363Y-113734759D01*
X104535241Y-113934637D01*
X104770273Y-114091680D01*
X105031426Y-114199853D01*
X105308665Y-114255000D01*
X105591335Y-114255000D01*
X105868574Y-114199853D01*
X106129727Y-114091680D01*
X106364759Y-113934637D01*
X106564637Y-113734759D01*
X106720000Y-113502241D01*
X106875363Y-113734759D01*
X107075241Y-113934637D01*
X107310273Y-114091680D01*
X107571426Y-114199853D01*
X107848665Y-114255000D01*
X108131335Y-114255000D01*
X108408574Y-114199853D01*
X108669727Y-114091680D01*
X108904759Y-113934637D01*
X109104637Y-113734759D01*
X109260000Y-113502241D01*
X109415363Y-113734759D01*
X109615241Y-113934637D01*
X109850273Y-114091680D01*
X110111426Y-114199853D01*
X110388665Y-114255000D01*
X110671335Y-114255000D01*
X110948574Y-114199853D01*
X111209727Y-114091680D01*
X111444759Y-113934637D01*
X111644637Y-113734759D01*
X111800000Y-113502241D01*
X111955363Y-113734759D01*
X112155241Y-113934637D01*
X112390273Y-114091680D01*
X112651426Y-114199853D01*
X112928665Y-114255000D01*
X113211335Y-114255000D01*
X113488574Y-114199853D01*
X113749727Y-114091680D01*
X113984759Y-113934637D01*
X114184637Y-113734759D01*
X114340000Y-113502241D01*
X114495363Y-113734759D01*
X114695241Y-113934637D01*
X114930273Y-114091680D01*
X115191426Y-114199853D01*
X115468665Y-114255000D01*
X115751335Y-114255000D01*
X116028574Y-114199853D01*
X116289727Y-114091680D01*
X116524759Y-113934637D01*
X116724637Y-113734759D01*
X116880000Y-113502241D01*
X117035363Y-113734759D01*
X117235241Y-113934637D01*
X117390000Y-114038044D01*
X117390000Y-114212677D01*
X117386324Y-114250000D01*
X117390000Y-114287322D01*
X117390000Y-114287332D01*
X117400997Y-114398985D01*
X117411421Y-114433348D01*
X117444454Y-114542246D01*
X117515026Y-114674276D01*
X117537071Y-114701137D01*
X117609999Y-114790001D01*
X117639003Y-114813804D01*
X121586210Y-118761012D01*
X121610008Y-118790010D01*
X121639006Y-118813808D01*
X121725732Y-118884983D01*
X121800314Y-118924848D01*
X121857762Y-118955555D01*
X122001023Y-118999012D01*
X122112676Y-119010009D01*
X122112686Y-119010009D01*
X122150009Y-119013685D01*
X122187332Y-119010009D01*
X140313469Y-119010009D01*
X140350791Y-119013685D01*
X140388113Y-119010009D01*
X140388124Y-119010009D01*
X140499777Y-118999012D01*
X140643038Y-118955555D01*
X140775067Y-118884983D01*
X140890792Y-118790010D01*
X140914595Y-118761006D01*
X142821436Y-116854167D01*
X142966389Y-116883000D01*
X143239211Y-116883000D01*
X143506789Y-116829775D01*
X143758843Y-116725371D01*
X143985686Y-116573799D01*
X144122800Y-116436685D01*
X144259914Y-116573799D01*
X144486757Y-116725371D01*
X144738811Y-116829775D01*
X145006389Y-116883000D01*
X145279211Y-116883000D01*
X145546789Y-116829775D01*
X145798843Y-116725371D01*
X146025686Y-116573799D01*
X146218599Y-116380886D01*
X146370171Y-116154043D01*
X146474575Y-115901989D01*
X146527800Y-115634411D01*
X146527800Y-115361589D01*
X146474575Y-115094011D01*
X146370171Y-114841957D01*
X146218599Y-114615114D01*
X146025686Y-114422201D01*
X145798843Y-114270629D01*
X145546789Y-114166225D01*
X145279211Y-114113000D01*
X145006389Y-114113000D01*
X144738811Y-114166225D01*
X144486757Y-114270629D01*
X144259914Y-114422201D01*
X144122800Y-114559315D01*
X143985686Y-114422201D01*
X143758843Y-114270629D01*
X143506789Y-114166225D01*
X143239211Y-114113000D01*
X142966389Y-114113000D01*
X142698811Y-114166225D01*
X142446757Y-114270629D01*
X142219914Y-114422201D01*
X142082800Y-114559315D01*
X141945686Y-114422201D01*
X141718843Y-114270629D01*
X141466789Y-114166225D01*
X141199211Y-114113000D01*
X140926389Y-114113000D01*
X140658811Y-114166225D01*
X140406757Y-114270629D01*
X140179914Y-114422201D01*
X140042800Y-114559315D01*
X139905686Y-114422201D01*
X139678843Y-114270629D01*
X139426789Y-114166225D01*
X139159211Y-114113000D01*
X138886389Y-114113000D01*
X138618811Y-114166225D01*
X138366757Y-114270629D01*
X138139914Y-114422201D01*
X137947001Y-114615114D01*
X137795429Y-114841957D01*
X137691025Y-115094011D01*
X137637800Y-115361589D01*
X137637800Y-115634411D01*
X137691025Y-115901989D01*
X137795429Y-116154043D01*
X137947001Y-116380886D01*
X138139914Y-116573799D01*
X138366757Y-116725371D01*
X138618811Y-116829775D01*
X138650017Y-116835982D01*
X138445999Y-117040000D01*
X134976466Y-117040000D01*
X135255263Y-116924518D01*
X135523052Y-116745587D01*
X135750787Y-116517852D01*
X135929718Y-116250063D01*
X136052968Y-115952512D01*
X136115800Y-115636633D01*
X136115800Y-115314567D01*
X136052968Y-114998688D01*
X135929718Y-114701137D01*
X135750787Y-114433348D01*
X135576668Y-114259229D01*
X135601582Y-114269549D01*
X136038209Y-114356400D01*
X136483391Y-114356400D01*
X136920018Y-114269549D01*
X137331311Y-114099186D01*
X137701466Y-113851856D01*
X138016256Y-113537066D01*
X138263586Y-113166911D01*
X138433949Y-112755618D01*
X138481057Y-112518789D01*
X138708600Y-112518789D01*
X138708600Y-112791611D01*
X138761825Y-113059189D01*
X138866229Y-113311243D01*
X139017801Y-113538086D01*
X139210714Y-113730999D01*
X139437557Y-113882571D01*
X139689611Y-113986975D01*
X139957189Y-114040200D01*
X140230011Y-114040200D01*
X140497589Y-113986975D01*
X140749643Y-113882571D01*
X140976486Y-113730999D01*
X141113600Y-113593885D01*
X141250714Y-113730999D01*
X141477557Y-113882571D01*
X141729611Y-113986975D01*
X141997189Y-114040200D01*
X142270011Y-114040200D01*
X142537589Y-113986975D01*
X142789643Y-113882571D01*
X143016486Y-113730999D01*
X143153600Y-113593885D01*
X143290714Y-113730999D01*
X143517557Y-113882571D01*
X143769611Y-113986975D01*
X144037189Y-114040200D01*
X144310011Y-114040200D01*
X144577589Y-113986975D01*
X144829643Y-113882571D01*
X144961565Y-113794424D01*
X145012415Y-113856385D01*
X145109106Y-113935737D01*
X145219420Y-113994702D01*
X145339118Y-114031012D01*
X145463600Y-114043272D01*
X146963600Y-114043272D01*
X147088082Y-114031012D01*
X147207780Y-113994702D01*
X147318094Y-113935737D01*
X147414785Y-113856385D01*
X147464313Y-113796035D01*
X147520134Y-113851856D01*
X147890289Y-114099186D01*
X148301582Y-114269549D01*
X148738209Y-114356400D01*
X149183391Y-114356400D01*
X149620018Y-114269549D01*
X149644932Y-114259229D01*
X149470813Y-114433348D01*
X149291882Y-114701137D01*
X149168632Y-114998688D01*
X149105800Y-115314567D01*
X149105800Y-115636633D01*
X149168632Y-115952512D01*
X149291882Y-116250063D01*
X149470813Y-116517852D01*
X149698548Y-116745587D01*
X149966337Y-116924518D01*
X150263888Y-117047768D01*
X150579767Y-117110600D01*
X150901833Y-117110600D01*
X151217712Y-117047768D01*
X151515263Y-116924518D01*
X151783052Y-116745587D01*
X152010787Y-116517852D01*
X152189718Y-116250063D01*
X152312968Y-115952512D01*
X152375800Y-115636633D01*
X152375800Y-115314567D01*
X152312968Y-114998688D01*
X152189718Y-114701137D01*
X152010787Y-114433348D01*
X151783052Y-114205613D01*
X151515263Y-114026682D01*
X151217712Y-113903432D01*
X150901833Y-113840600D01*
X150579767Y-113840600D01*
X150349875Y-113886328D01*
X150401466Y-113851856D01*
X150716256Y-113537066D01*
X150963586Y-113166911D01*
X151133949Y-112755618D01*
X151220800Y-112318991D01*
X151220800Y-111873809D01*
X151133949Y-111437182D01*
X150963586Y-111025889D01*
X150716256Y-110655734D01*
X150401466Y-110340944D01*
X150031311Y-110093614D01*
X149620018Y-109923251D01*
X149183391Y-109836400D01*
X148738209Y-109836400D01*
X148301582Y-109923251D01*
X147890289Y-110093614D01*
X147520134Y-110340944D01*
X147205344Y-110655734D01*
X146958014Y-111025889D01*
X146858090Y-111267128D01*
X145463600Y-111267128D01*
X145339118Y-111279388D01*
X145219420Y-111315698D01*
X145109106Y-111374663D01*
X145012415Y-111454015D01*
X144961565Y-111515976D01*
X144829643Y-111427829D01*
X144577589Y-111323425D01*
X144310011Y-111270200D01*
X144037189Y-111270200D01*
X143769611Y-111323425D01*
X143517557Y-111427829D01*
X143290714Y-111579401D01*
X143153600Y-111716515D01*
X143016486Y-111579401D01*
X142789643Y-111427829D01*
X142537589Y-111323425D01*
X142270011Y-111270200D01*
X141997189Y-111270200D01*
X141729611Y-111323425D01*
X141477557Y-111427829D01*
X141250714Y-111579401D01*
X141113600Y-111716515D01*
X140976486Y-111579401D01*
X140749643Y-111427829D01*
X140497589Y-111323425D01*
X140230011Y-111270200D01*
X139957189Y-111270200D01*
X139689611Y-111323425D01*
X139437557Y-111427829D01*
X139210714Y-111579401D01*
X139017801Y-111772314D01*
X138866229Y-111999157D01*
X138761825Y-112251211D01*
X138708600Y-112518789D01*
X138481057Y-112518789D01*
X138520800Y-112318991D01*
X138520800Y-111873809D01*
X138433949Y-111437182D01*
X138263586Y-111025889D01*
X138016256Y-110655734D01*
X137701466Y-110340944D01*
X137331311Y-110093614D01*
X136920018Y-109923251D01*
X136483391Y-109836400D01*
X136038209Y-109836400D01*
X135601582Y-109923251D01*
X135190289Y-110093614D01*
X134820134Y-110340944D01*
X134505344Y-110655734D01*
X134258014Y-111025889D01*
X134087651Y-111437182D01*
X134000800Y-111873809D01*
X134000800Y-112318991D01*
X134087651Y-112755618D01*
X134258014Y-113166911D01*
X134505344Y-113537066D01*
X134820134Y-113851856D01*
X134871725Y-113886328D01*
X134641833Y-113840600D01*
X134319767Y-113840600D01*
X134003888Y-113903432D01*
X133706337Y-114026682D01*
X133438548Y-114205613D01*
X133210813Y-114433348D01*
X133031882Y-114701137D01*
X132908632Y-114998688D01*
X132845800Y-115314567D01*
X132845800Y-115636633D01*
X132908632Y-115952512D01*
X133031882Y-116250063D01*
X133210813Y-116517852D01*
X133438548Y-116745587D01*
X133706337Y-116924518D01*
X133985134Y-117040000D01*
X122651212Y-117040000D01*
X120118006Y-114506795D01*
X120399478Y-114225324D01*
X120548665Y-114255000D01*
X120831335Y-114255000D01*
X121108574Y-114199853D01*
X121369727Y-114091680D01*
X121604759Y-113934637D01*
X121804637Y-113734759D01*
X121960000Y-113502241D01*
X122115363Y-113734759D01*
X122315241Y-113934637D01*
X122550273Y-114091680D01*
X122811426Y-114199853D01*
X123088665Y-114255000D01*
X123371335Y-114255000D01*
X123648574Y-114199853D01*
X123909727Y-114091680D01*
X124144759Y-113934637D01*
X124344637Y-113734759D01*
X124500000Y-113502241D01*
X124655363Y-113734759D01*
X124855241Y-113934637D01*
X125090273Y-114091680D01*
X125351426Y-114199853D01*
X125628665Y-114255000D01*
X125911335Y-114255000D01*
X126188574Y-114199853D01*
X126449727Y-114091680D01*
X126684759Y-113934637D01*
X126884637Y-113734759D01*
X127040000Y-113502241D01*
X127195363Y-113734759D01*
X127395241Y-113934637D01*
X127630273Y-114091680D01*
X127891426Y-114199853D01*
X128168665Y-114255000D01*
X128451335Y-114255000D01*
X128728574Y-114199853D01*
X128989727Y-114091680D01*
X129224759Y-113934637D01*
X129424637Y-113734759D01*
X129581680Y-113499727D01*
X129689853Y-113238574D01*
X129745000Y-112961335D01*
X129745000Y-112678665D01*
X129689853Y-112401426D01*
X129581680Y-112140273D01*
X129424637Y-111905241D01*
X129224759Y-111705363D01*
X128989727Y-111548320D01*
X128728574Y-111440147D01*
X128451335Y-111385000D01*
X128168665Y-111385000D01*
X127891426Y-111440147D01*
X127630273Y-111548320D01*
X127395241Y-111705363D01*
X127195363Y-111905241D01*
X127040000Y-112137759D01*
X126884637Y-111905241D01*
X126684759Y-111705363D01*
X126449727Y-111548320D01*
X126188574Y-111440147D01*
X125911335Y-111385000D01*
X125628665Y-111385000D01*
X125351426Y-111440147D01*
X125090273Y-111548320D01*
X124855241Y-111705363D01*
X124655363Y-111905241D01*
X124500000Y-112137759D01*
X124344637Y-111905241D01*
X124144759Y-111705363D01*
X123909727Y-111548320D01*
X123648574Y-111440147D01*
X123371335Y-111385000D01*
X123088665Y-111385000D01*
X122811426Y-111440147D01*
X122550273Y-111548320D01*
X122315241Y-111705363D01*
X122115363Y-111905241D01*
X121960000Y-112137759D01*
X121804637Y-111905241D01*
X121604759Y-111705363D01*
X121369727Y-111548320D01*
X121108574Y-111440147D01*
X120831335Y-111385000D01*
X120548665Y-111385000D01*
X120271426Y-111440147D01*
X120010273Y-111548320D01*
X119775241Y-111705363D01*
X119575363Y-111905241D01*
X119420000Y-112137759D01*
X119264637Y-111905241D01*
X119064759Y-111705363D01*
X118829727Y-111548320D01*
X118568574Y-111440147D01*
X118291335Y-111385000D01*
X118008665Y-111385000D01*
X117731426Y-111440147D01*
X117470273Y-111548320D01*
X117235241Y-111705363D01*
X117035363Y-111905241D01*
X116880000Y-112137759D01*
X116724637Y-111905241D01*
X116524759Y-111705363D01*
X116289727Y-111548320D01*
X116028574Y-111440147D01*
X115751335Y-111385000D01*
X115468665Y-111385000D01*
X115191426Y-111440147D01*
X114930273Y-111548320D01*
X114695241Y-111705363D01*
X114495363Y-111905241D01*
X114340000Y-112137759D01*
X114184637Y-111905241D01*
X113984759Y-111705363D01*
X113749727Y-111548320D01*
X113488574Y-111440147D01*
X113211335Y-111385000D01*
X112928665Y-111385000D01*
X112746114Y-111421312D01*
X111760000Y-110435199D01*
X111760000Y-104351211D01*
X114651192Y-101460020D01*
X140085179Y-101460020D01*
X142336161Y-103711003D01*
X142359959Y-103740001D01*
X142388957Y-103763799D01*
X142475684Y-103834974D01*
X142607713Y-103905546D01*
X142750974Y-103949003D01*
X142899960Y-103963677D01*
X142937293Y-103960000D01*
X148471928Y-103960000D01*
X148471928Y-104050000D01*
X148484188Y-104174482D01*
X148520498Y-104294180D01*
X148579463Y-104404494D01*
X148658815Y-104501185D01*
X148755506Y-104580537D01*
X148865820Y-104639502D01*
X148985518Y-104675812D01*
X149110000Y-104688072D01*
X150810000Y-104688072D01*
X150934482Y-104675812D01*
X151054180Y-104639502D01*
X151164494Y-104580537D01*
X151261185Y-104501185D01*
X151340537Y-104404494D01*
X151399502Y-104294180D01*
X151420393Y-104225313D01*
X151444866Y-104255134D01*
X151670986Y-104440706D01*
X151928966Y-104578599D01*
X152208889Y-104663513D01*
X152427050Y-104685000D01*
X152572950Y-104685000D01*
X152791111Y-104663513D01*
X153071034Y-104578599D01*
X153329014Y-104440706D01*
X153555134Y-104255134D01*
X153740706Y-104029014D01*
X153770000Y-103974209D01*
X153799294Y-104029014D01*
X153984866Y-104255134D01*
X154210986Y-104440706D01*
X154468966Y-104578599D01*
X154748889Y-104663513D01*
X154967050Y-104685000D01*
X155112950Y-104685000D01*
X155331111Y-104663513D01*
X155611034Y-104578599D01*
X155869014Y-104440706D01*
X156095134Y-104255134D01*
X156280706Y-104029014D01*
X156418599Y-103771034D01*
X156503513Y-103491111D01*
X156532185Y-103200000D01*
X156503513Y-102908889D01*
X156418599Y-102628966D01*
X156280706Y-102370986D01*
X156095134Y-102144866D01*
X155869014Y-101959294D01*
X155611034Y-101821401D01*
X155331111Y-101736487D01*
X155112950Y-101715000D01*
X154967050Y-101715000D01*
X154748889Y-101736487D01*
X154468966Y-101821401D01*
X154210986Y-101959294D01*
X153984866Y-102144866D01*
X153799294Y-102370986D01*
X153770000Y-102425791D01*
X153740706Y-102370986D01*
X153555134Y-102144866D01*
X153329014Y-101959294D01*
X153071034Y-101821401D01*
X152791111Y-101736487D01*
X152572950Y-101715000D01*
X152427050Y-101715000D01*
X152208889Y-101736487D01*
X151928966Y-101821401D01*
X151670986Y-101959294D01*
X151444866Y-102144866D01*
X151420393Y-102174687D01*
X151399502Y-102105820D01*
X151340537Y-101995506D01*
X151261185Y-101898815D01*
X151164494Y-101819463D01*
X151054180Y-101760498D01*
X150934482Y-101724188D01*
X150810000Y-101711928D01*
X149110000Y-101711928D01*
X148985518Y-101724188D01*
X148865820Y-101760498D01*
X148755506Y-101819463D01*
X148658815Y-101898815D01*
X148579463Y-101995506D01*
X148520498Y-102105820D01*
X148484188Y-102225518D01*
X148471928Y-102350000D01*
X148471928Y-102440000D01*
X143214762Y-102440000D01*
X141142986Y-100368225D01*
X143951212Y-97560000D01*
X150914759Y-97560000D01*
X150952081Y-97563676D01*
X150989403Y-97560000D01*
X150989414Y-97560000D01*
X151101067Y-97549003D01*
X151244328Y-97505546D01*
X151376357Y-97434974D01*
X151492082Y-97340001D01*
X151515885Y-97310997D01*
X153011003Y-95815880D01*
X153040001Y-95792082D01*
X153106540Y-95711004D01*
X153134974Y-95676358D01*
X153205546Y-95544328D01*
X153221344Y-95492247D01*
X153249003Y-95401067D01*
X153256031Y-95329716D01*
X153329014Y-95290706D01*
X153555134Y-95105134D01*
X153740706Y-94879014D01*
X153770000Y-94824209D01*
X153799294Y-94879014D01*
X153984866Y-95105134D01*
X154210986Y-95290706D01*
X154468966Y-95428599D01*
X154748889Y-95513513D01*
X154967050Y-95535000D01*
X155112950Y-95535000D01*
X155331111Y-95513513D01*
X155611034Y-95428599D01*
X155869014Y-95290706D01*
X156095134Y-95105134D01*
X156280706Y-94879014D01*
X156418599Y-94621034D01*
X156503513Y-94341111D01*
X156532185Y-94050000D01*
X156503513Y-93758889D01*
X156418599Y-93478966D01*
X156280706Y-93220986D01*
X156095134Y-92994866D01*
X155869014Y-92809294D01*
X155611034Y-92671401D01*
X155331111Y-92586487D01*
X155112950Y-92565000D01*
X154967050Y-92565000D01*
X154748889Y-92586487D01*
X154468966Y-92671401D01*
X154210986Y-92809294D01*
X153984866Y-92994866D01*
X153799294Y-93220986D01*
X153770000Y-93275791D01*
X153740706Y-93220986D01*
X153555134Y-92994866D01*
X153329014Y-92809294D01*
X153071034Y-92671401D01*
X152791111Y-92586487D01*
X152572950Y-92565000D01*
X152427050Y-92565000D01*
X152208889Y-92586487D01*
X151928966Y-92671401D01*
X151670986Y-92809294D01*
X151444866Y-92994866D01*
X151420393Y-93024687D01*
X151399502Y-92955820D01*
X151340537Y-92845506D01*
X151261185Y-92748815D01*
X151164494Y-92669463D01*
X151054180Y-92610498D01*
X150934482Y-92574188D01*
X150810000Y-92561928D01*
X149110000Y-92561928D01*
X148985518Y-92574188D01*
X148865820Y-92610498D01*
X148755506Y-92669463D01*
X148658815Y-92748815D01*
X148579463Y-92845506D01*
X148520498Y-92955820D01*
X148484188Y-93075518D01*
X148471928Y-93200000D01*
X148471928Y-94900000D01*
X148484188Y-95024482D01*
X148520498Y-95144180D01*
X148579463Y-95254494D01*
X148658815Y-95351185D01*
X148755506Y-95430537D01*
X148865820Y-95489502D01*
X148985518Y-95525812D01*
X149110000Y-95538072D01*
X150810000Y-95538072D01*
X150934482Y-95525812D01*
X151054180Y-95489502D01*
X151164494Y-95430537D01*
X151261185Y-95351185D01*
X151340537Y-95254494D01*
X151399502Y-95144180D01*
X151420393Y-95075313D01*
X151444866Y-95105134D01*
X151514774Y-95162506D01*
X150637280Y-96040000D01*
X144834803Y-96040000D01*
X145111009Y-95763794D01*
X145140001Y-95740001D01*
X145163795Y-95711008D01*
X145163799Y-95711004D01*
X145234973Y-95624277D01*
X145234974Y-95624276D01*
X145305546Y-95492247D01*
X145349003Y-95348986D01*
X145360000Y-95237333D01*
X145360000Y-95237324D01*
X145363676Y-95200001D01*
X145360000Y-95162678D01*
X145360000Y-89114801D01*
X146414802Y-88060000D01*
X151264759Y-88060000D01*
X151302081Y-88063676D01*
X151339403Y-88060000D01*
X151339414Y-88060000D01*
X151451067Y-88049003D01*
X151594328Y-88005546D01*
X151726357Y-87934974D01*
X151842082Y-87840001D01*
X151865885Y-87810997D01*
X153011004Y-86665879D01*
X153040001Y-86642082D01*
X153134974Y-86526357D01*
X153205546Y-86394328D01*
X153249003Y-86251067D01*
X153256031Y-86179716D01*
X153329014Y-86140706D01*
X153555134Y-85955134D01*
X153740706Y-85729014D01*
X153770000Y-85674209D01*
X153799294Y-85729014D01*
X153984866Y-85955134D01*
X154210986Y-86140706D01*
X154468966Y-86278599D01*
X154748889Y-86363513D01*
X154967050Y-86385000D01*
X155112950Y-86385000D01*
X155331111Y-86363513D01*
X155611034Y-86278599D01*
X155869014Y-86140706D01*
X156095134Y-85955134D01*
X156280706Y-85729014D01*
X156418599Y-85471034D01*
X156503513Y-85191111D01*
X156532185Y-84900000D01*
X156503513Y-84608889D01*
X156418599Y-84328966D01*
X156280706Y-84070986D01*
X156095134Y-83844866D01*
X155869014Y-83659294D01*
X155611034Y-83521401D01*
X155331111Y-83436487D01*
X155112950Y-83415000D01*
X154967050Y-83415000D01*
X154748889Y-83436487D01*
X154468966Y-83521401D01*
X154210986Y-83659294D01*
X153984866Y-83844866D01*
X153799294Y-84070986D01*
X153770000Y-84125791D01*
X153740706Y-84070986D01*
X153555134Y-83844866D01*
X153329014Y-83659294D01*
X153071034Y-83521401D01*
X152791111Y-83436487D01*
X152572950Y-83415000D01*
X152427050Y-83415000D01*
X152208889Y-83436487D01*
X151928966Y-83521401D01*
X151670986Y-83659294D01*
X151444866Y-83844866D01*
X151420393Y-83874687D01*
X151399502Y-83805820D01*
X151340537Y-83695506D01*
X151261185Y-83598815D01*
X151164494Y-83519463D01*
X151054180Y-83460498D01*
X150934482Y-83424188D01*
X150810000Y-83411928D01*
X149110000Y-83411928D01*
X148985518Y-83424188D01*
X148865820Y-83460498D01*
X148755506Y-83519463D01*
X148658815Y-83598815D01*
X148579463Y-83695506D01*
X148520498Y-83805820D01*
X148484188Y-83925518D01*
X148471928Y-84050000D01*
X148471928Y-85750000D01*
X148484188Y-85874482D01*
X148520498Y-85994180D01*
X148579463Y-86104494D01*
X148658815Y-86201185D01*
X148755506Y-86280537D01*
X148865820Y-86339502D01*
X148985518Y-86375812D01*
X149110000Y-86388072D01*
X150810000Y-86388072D01*
X150934482Y-86375812D01*
X151054180Y-86339502D01*
X151164494Y-86280537D01*
X151261185Y-86201185D01*
X151340537Y-86104494D01*
X151399502Y-85994180D01*
X151420393Y-85925313D01*
X151444866Y-85955134D01*
X151514774Y-86012506D01*
X150987280Y-86540000D01*
X146137322Y-86540000D01*
X146099999Y-86536324D01*
X146062676Y-86540000D01*
X146062667Y-86540000D01*
X145951014Y-86550997D01*
X145807753Y-86594454D01*
X145675724Y-86665026D01*
X145559999Y-86759999D01*
X145536201Y-86788997D01*
X144088998Y-88236201D01*
X144060000Y-88259999D01*
X144036202Y-88288997D01*
X144036201Y-88288998D01*
X143965026Y-88375724D01*
X143894454Y-88507754D01*
X143866867Y-88598701D01*
X143850998Y-88651014D01*
X143846273Y-88698985D01*
X143836324Y-88800000D01*
X143840001Y-88837332D01*
X143840000Y-94885197D01*
X139685199Y-99040000D01*
X114000912Y-99040000D01*
X113963589Y-99036324D01*
X113926266Y-99040000D01*
X113926257Y-99040000D01*
X113814604Y-99050997D01*
X113671343Y-99094454D01*
X113539314Y-99165026D01*
X113539312Y-99165027D01*
X113539313Y-99165027D01*
X113452586Y-99236201D01*
X113452582Y-99236205D01*
X113423589Y-99259999D01*
X113399795Y-99288992D01*
X109568989Y-103119800D01*
X109539991Y-103143598D01*
X109516193Y-103172596D01*
X109516192Y-103172597D01*
X109445017Y-103259323D01*
X109374445Y-103391353D01*
X109330989Y-103534614D01*
X109316315Y-103683599D01*
X109319992Y-103720931D01*
X109319990Y-110415208D01*
X108313886Y-111421312D01*
X108131335Y-111385000D01*
X107848665Y-111385000D01*
X107571426Y-111440147D01*
X107310273Y-111548320D01*
X107075241Y-111705363D01*
X106875363Y-111905241D01*
X106720000Y-112137759D01*
X106564637Y-111905241D01*
X106364759Y-111705363D01*
X106129727Y-111548320D01*
X105868574Y-111440147D01*
X105591335Y-111385000D01*
X105308665Y-111385000D01*
X105031426Y-111440147D01*
X104770273Y-111548320D01*
X104535241Y-111705363D01*
X104335363Y-111905241D01*
X104180000Y-112137759D01*
X104024637Y-111905241D01*
X103824759Y-111705363D01*
X103589727Y-111548320D01*
X103328574Y-111440147D01*
X103051335Y-111385000D01*
X102768665Y-111385000D01*
X102491426Y-111440147D01*
X102230273Y-111548320D01*
X101995241Y-111705363D01*
X101795363Y-111905241D01*
X101640000Y-112137759D01*
X101484637Y-111905241D01*
X101284759Y-111705363D01*
X101049727Y-111548320D01*
X100788574Y-111440147D01*
X100511335Y-111385000D01*
X100228665Y-111385000D01*
X99951426Y-111440147D01*
X99690273Y-111548320D01*
X99455241Y-111705363D01*
X99255363Y-111905241D01*
X99100000Y-112137759D01*
X98944637Y-111905241D01*
X98744759Y-111705363D01*
X98509727Y-111548320D01*
X98248574Y-111440147D01*
X97971335Y-111385000D01*
X97688665Y-111385000D01*
X97411426Y-111440147D01*
X97150273Y-111548320D01*
X96915241Y-111705363D01*
X96716643Y-111903961D01*
X96715812Y-111895518D01*
X96679502Y-111775820D01*
X96620537Y-111665506D01*
X96541185Y-111568815D01*
X96444494Y-111489463D01*
X96334180Y-111430498D01*
X96214482Y-111394188D01*
X96090000Y-111381928D01*
X94490000Y-111381928D01*
X94365518Y-111394188D01*
X94245820Y-111430498D01*
X94135506Y-111489463D01*
X94038815Y-111568815D01*
X93959463Y-111665506D01*
X93900498Y-111775820D01*
X93864188Y-111895518D01*
X93851928Y-112020000D01*
X92998611Y-112020000D01*
X92998611Y-97438665D01*
X93855000Y-97438665D01*
X93855000Y-97721335D01*
X93910147Y-97998574D01*
X94018320Y-98259727D01*
X94175363Y-98494759D01*
X94375241Y-98694637D01*
X94610273Y-98851680D01*
X94871426Y-98959853D01*
X95148665Y-99015000D01*
X95431335Y-99015000D01*
X95708574Y-98959853D01*
X95969727Y-98851680D01*
X96204759Y-98694637D01*
X96404637Y-98494759D01*
X96560000Y-98262241D01*
X96715363Y-98494759D01*
X96915241Y-98694637D01*
X97150273Y-98851680D01*
X97411426Y-98959853D01*
X97688665Y-99015000D01*
X97971335Y-99015000D01*
X98248574Y-98959853D01*
X98509727Y-98851680D01*
X98744759Y-98694637D01*
X98944637Y-98494759D01*
X99101680Y-98259727D01*
X99209853Y-97998574D01*
X99265000Y-97721335D01*
X99265000Y-97438665D01*
X101475000Y-97438665D01*
X101475000Y-97721335D01*
X101530147Y-97998574D01*
X101638320Y-98259727D01*
X101795363Y-98494759D01*
X101995241Y-98694637D01*
X102230273Y-98851680D01*
X102491426Y-98959853D01*
X102768665Y-99015000D01*
X103051335Y-99015000D01*
X103328574Y-98959853D01*
X103589727Y-98851680D01*
X103824759Y-98694637D01*
X104024637Y-98494759D01*
X104180000Y-98262241D01*
X104335363Y-98494759D01*
X104535241Y-98694637D01*
X104770273Y-98851680D01*
X105031426Y-98959853D01*
X105308665Y-99015000D01*
X105591335Y-99015000D01*
X105868574Y-98959853D01*
X106129727Y-98851680D01*
X106364759Y-98694637D01*
X106564637Y-98494759D01*
X106720000Y-98262241D01*
X106875363Y-98494759D01*
X107075241Y-98694637D01*
X107310273Y-98851680D01*
X107571426Y-98959853D01*
X107848665Y-99015000D01*
X108131335Y-99015000D01*
X108408574Y-98959853D01*
X108669727Y-98851680D01*
X108904759Y-98694637D01*
X109104637Y-98494759D01*
X109260000Y-98262241D01*
X109415363Y-98494759D01*
X109615241Y-98694637D01*
X109850273Y-98851680D01*
X110111426Y-98959853D01*
X110388665Y-99015000D01*
X110671335Y-99015000D01*
X110948574Y-98959853D01*
X111209727Y-98851680D01*
X111444759Y-98694637D01*
X111644637Y-98494759D01*
X111800000Y-98262241D01*
X111955363Y-98494759D01*
X112155241Y-98694637D01*
X112390273Y-98851680D01*
X112651426Y-98959853D01*
X112928665Y-99015000D01*
X113211335Y-99015000D01*
X113488574Y-98959853D01*
X113749727Y-98851680D01*
X113984759Y-98694637D01*
X114184637Y-98494759D01*
X114340000Y-98262241D01*
X114495363Y-98494759D01*
X114695241Y-98694637D01*
X114930273Y-98851680D01*
X115191426Y-98959853D01*
X115468665Y-99015000D01*
X115751335Y-99015000D01*
X116028574Y-98959853D01*
X116289727Y-98851680D01*
X116524759Y-98694637D01*
X116724637Y-98494759D01*
X116880000Y-98262241D01*
X117035363Y-98494759D01*
X117235241Y-98694637D01*
X117470273Y-98851680D01*
X117731426Y-98959853D01*
X118008665Y-99015000D01*
X118291335Y-99015000D01*
X118568574Y-98959853D01*
X118829727Y-98851680D01*
X119064759Y-98694637D01*
X119264637Y-98494759D01*
X119420000Y-98262241D01*
X119575363Y-98494759D01*
X119775241Y-98694637D01*
X120010273Y-98851680D01*
X120271426Y-98959853D01*
X120548665Y-99015000D01*
X120831335Y-99015000D01*
X121108574Y-98959853D01*
X121369727Y-98851680D01*
X121604759Y-98694637D01*
X121804637Y-98494759D01*
X121960000Y-98262241D01*
X122115363Y-98494759D01*
X122315241Y-98694637D01*
X122550273Y-98851680D01*
X122811426Y-98959853D01*
X123088665Y-99015000D01*
X123371335Y-99015000D01*
X123648574Y-98959853D01*
X123909727Y-98851680D01*
X124144759Y-98694637D01*
X124344637Y-98494759D01*
X124500000Y-98262241D01*
X124655363Y-98494759D01*
X124855241Y-98694637D01*
X125090273Y-98851680D01*
X125351426Y-98959853D01*
X125628665Y-99015000D01*
X125911335Y-99015000D01*
X126188574Y-98959853D01*
X126449727Y-98851680D01*
X126684759Y-98694637D01*
X126884637Y-98494759D01*
X127040000Y-98262241D01*
X127195363Y-98494759D01*
X127395241Y-98694637D01*
X127630273Y-98851680D01*
X127891426Y-98959853D01*
X128168665Y-99015000D01*
X128451335Y-99015000D01*
X128728574Y-98959853D01*
X128989727Y-98851680D01*
X129224759Y-98694637D01*
X129424637Y-98494759D01*
X129581680Y-98259727D01*
X129689853Y-97998574D01*
X129745000Y-97721335D01*
X129745000Y-97438665D01*
X129689853Y-97161426D01*
X129581680Y-96900273D01*
X129424637Y-96665241D01*
X129224759Y-96465363D01*
X128989727Y-96308320D01*
X128728574Y-96200147D01*
X128451335Y-96145000D01*
X128168665Y-96145000D01*
X127891426Y-96200147D01*
X127630273Y-96308320D01*
X127395241Y-96465363D01*
X127195363Y-96665241D01*
X127040000Y-96897759D01*
X126884637Y-96665241D01*
X126684759Y-96465363D01*
X126530000Y-96361957D01*
X126530000Y-95544801D01*
X128114802Y-93960000D01*
X134962678Y-93960000D01*
X135000000Y-93963676D01*
X135037322Y-93960000D01*
X135037333Y-93960000D01*
X135148986Y-93949003D01*
X135292247Y-93905546D01*
X135424276Y-93834974D01*
X135540001Y-93740001D01*
X135563804Y-93710997D01*
X137352302Y-91922500D01*
X138332155Y-91922500D01*
X138420208Y-92029792D01*
X138505756Y-92100000D01*
X138420208Y-92170208D01*
X138310542Y-92303836D01*
X138229053Y-92456291D01*
X138178872Y-92621715D01*
X138161928Y-92793750D01*
X138161928Y-93281250D01*
X138178872Y-93453285D01*
X138229053Y-93618709D01*
X138310542Y-93771164D01*
X138420208Y-93904792D01*
X138553836Y-94014458D01*
X138706291Y-94095947D01*
X138871715Y-94146128D01*
X139043750Y-94163072D01*
X139956250Y-94163072D01*
X140128285Y-94146128D01*
X140293709Y-94095947D01*
X140446164Y-94014458D01*
X140579792Y-93904792D01*
X140667845Y-93797500D01*
X141033789Y-93797500D01*
X141077726Y-93841437D01*
X141247244Y-93954705D01*
X141435602Y-94032726D01*
X141635561Y-94072500D01*
X141839439Y-94072500D01*
X142039398Y-94032726D01*
X142227756Y-93954705D01*
X142397274Y-93841437D01*
X142541437Y-93697274D01*
X142654705Y-93527756D01*
X142732726Y-93339398D01*
X142772500Y-93139439D01*
X142772500Y-92935561D01*
X142732726Y-92735602D01*
X142654705Y-92547244D01*
X142541437Y-92377726D01*
X142397274Y-92233563D01*
X142227756Y-92120295D01*
X142039398Y-92042274D01*
X141839439Y-92002500D01*
X141635561Y-92002500D01*
X141435602Y-92042274D01*
X141247244Y-92120295D01*
X141077726Y-92233563D01*
X141033789Y-92277500D01*
X140667845Y-92277500D01*
X140579792Y-92170208D01*
X140494244Y-92100000D01*
X140579792Y-92029792D01*
X140689458Y-91896164D01*
X140770947Y-91743709D01*
X140821128Y-91578285D01*
X140838072Y-91406250D01*
X140838072Y-90918750D01*
X140821128Y-90746715D01*
X140770947Y-90581291D01*
X140700433Y-90449369D01*
X141186004Y-89963798D01*
X141215001Y-89940001D01*
X141249902Y-89897474D01*
X141309974Y-89824277D01*
X141380546Y-89692247D01*
X141397911Y-89635000D01*
X141424003Y-89548986D01*
X141435000Y-89437333D01*
X141435000Y-89437323D01*
X141438676Y-89400000D01*
X141435000Y-89362677D01*
X141435000Y-87639801D01*
X142452341Y-86622461D01*
X142469463Y-86654494D01*
X142548815Y-86751185D01*
X142645506Y-86830537D01*
X142755820Y-86889502D01*
X142875518Y-86925812D01*
X143000000Y-86938072D01*
X144000000Y-86938072D01*
X144124482Y-86925812D01*
X144244180Y-86889502D01*
X144354494Y-86830537D01*
X144451185Y-86751185D01*
X144530537Y-86654494D01*
X144589502Y-86544180D01*
X144625812Y-86424482D01*
X144638072Y-86300000D01*
X144638072Y-84600000D01*
X144625812Y-84475518D01*
X144589502Y-84355820D01*
X144530537Y-84245506D01*
X144451185Y-84148815D01*
X144354494Y-84069463D01*
X144260000Y-84018954D01*
X144260000Y-80581046D01*
X144354494Y-80530537D01*
X144451185Y-80451185D01*
X144530537Y-80354494D01*
X144589502Y-80244180D01*
X144625812Y-80124482D01*
X144638072Y-80000000D01*
X144638072Y-78300000D01*
X144625812Y-78175518D01*
X144589502Y-78055820D01*
X144530537Y-77945506D01*
X144451185Y-77848815D01*
X144354494Y-77769463D01*
X144244180Y-77710498D01*
X144124482Y-77674188D01*
X144000000Y-77661928D01*
X143000000Y-77661928D01*
X142875518Y-77674188D01*
X142755820Y-77710498D01*
X142645506Y-77769463D01*
X142548815Y-77848815D01*
X142469463Y-77945506D01*
X142410498Y-78055820D01*
X142374188Y-78175518D01*
X142361928Y-78300000D01*
X142361928Y-80000000D01*
X142374188Y-80124482D01*
X142410498Y-80244180D01*
X142469463Y-80354494D01*
X142548815Y-80451185D01*
X142645506Y-80530537D01*
X142740000Y-80581046D01*
X142740001Y-84018954D01*
X142645506Y-84069463D01*
X142548815Y-84148815D01*
X142469463Y-84245506D01*
X142410498Y-84355820D01*
X142374188Y-84475518D01*
X142361928Y-84600000D01*
X142361928Y-84712853D01*
X142257753Y-84744454D01*
X142125724Y-84815026D01*
X142125722Y-84815027D01*
X142125723Y-84815027D01*
X142038996Y-84886201D01*
X142038992Y-84886205D01*
X142009999Y-84909999D01*
X141986205Y-84938992D01*
X140163998Y-86761201D01*
X140135000Y-86784999D01*
X140111202Y-86813997D01*
X140111201Y-86813998D01*
X140040026Y-86900724D01*
X139969454Y-87032754D01*
X139925998Y-87176015D01*
X139911324Y-87325000D01*
X139915001Y-87362332D01*
X139915000Y-89085198D01*
X138988998Y-90011201D01*
X138960000Y-90034999D01*
X138950913Y-90046072D01*
X138871715Y-90053872D01*
X138706291Y-90104053D01*
X138553836Y-90185542D01*
X138420208Y-90295208D01*
X138332155Y-90402500D01*
X137074822Y-90402500D01*
X137037499Y-90398824D01*
X137000176Y-90402500D01*
X137000167Y-90402500D01*
X136888514Y-90413497D01*
X136745253Y-90456954D01*
X136613223Y-90527526D01*
X136547711Y-90581291D01*
X136497499Y-90622499D01*
X136473701Y-90651497D01*
X134685199Y-92440000D01*
X127837333Y-92440000D01*
X127800000Y-92436323D01*
X127762667Y-92440000D01*
X127651014Y-92450997D01*
X127507753Y-92494454D01*
X127375724Y-92565026D01*
X127259999Y-92659999D01*
X127236201Y-92688997D01*
X125258998Y-94666201D01*
X125230000Y-94689999D01*
X125206202Y-94718997D01*
X125206201Y-94718998D01*
X125135026Y-94805724D01*
X125064454Y-94937754D01*
X125020998Y-95081015D01*
X125006324Y-95230000D01*
X125010001Y-95267332D01*
X125010001Y-96361956D01*
X124855241Y-96465363D01*
X124655363Y-96665241D01*
X124500000Y-96897759D01*
X124344637Y-96665241D01*
X124144759Y-96465363D01*
X123909727Y-96308320D01*
X123648574Y-96200147D01*
X123371335Y-96145000D01*
X123088665Y-96145000D01*
X122811426Y-96200147D01*
X122550273Y-96308320D01*
X122315241Y-96465363D01*
X122115363Y-96665241D01*
X121960000Y-96897759D01*
X121804637Y-96665241D01*
X121604759Y-96465363D01*
X121369727Y-96308320D01*
X121108574Y-96200147D01*
X120831335Y-96145000D01*
X120548665Y-96145000D01*
X120271426Y-96200147D01*
X120010273Y-96308320D01*
X119775241Y-96465363D01*
X119575363Y-96665241D01*
X119420000Y-96897759D01*
X119264637Y-96665241D01*
X119064759Y-96465363D01*
X118829727Y-96308320D01*
X118568574Y-96200147D01*
X118291335Y-96145000D01*
X118008665Y-96145000D01*
X117731426Y-96200147D01*
X117470273Y-96308320D01*
X117235241Y-96465363D01*
X117035363Y-96665241D01*
X116880000Y-96897759D01*
X116724637Y-96665241D01*
X116524759Y-96465363D01*
X116289727Y-96308320D01*
X116028574Y-96200147D01*
X115751335Y-96145000D01*
X115468665Y-96145000D01*
X115191426Y-96200147D01*
X114930273Y-96308320D01*
X114695241Y-96465363D01*
X114495363Y-96665241D01*
X114340000Y-96897759D01*
X114184637Y-96665241D01*
X113984759Y-96465363D01*
X113749727Y-96308320D01*
X113488574Y-96200147D01*
X113211335Y-96145000D01*
X112928665Y-96145000D01*
X112651426Y-96200147D01*
X112390273Y-96308320D01*
X112155241Y-96465363D01*
X111955363Y-96665241D01*
X111800000Y-96897759D01*
X111644637Y-96665241D01*
X111444759Y-96465363D01*
X111290000Y-96361957D01*
X111290000Y-93598061D01*
X115165000Y-93598061D01*
X115165000Y-93801939D01*
X115204774Y-94001898D01*
X115282795Y-94190256D01*
X115396063Y-94359774D01*
X115540226Y-94503937D01*
X115709744Y-94617205D01*
X115898102Y-94695226D01*
X116098061Y-94735000D01*
X116301939Y-94735000D01*
X116501898Y-94695226D01*
X116690256Y-94617205D01*
X116859774Y-94503937D01*
X117003937Y-94359774D01*
X117070604Y-94260000D01*
X117093827Y-94260000D01*
X117104053Y-94293709D01*
X117185542Y-94446164D01*
X117295208Y-94579792D01*
X117428836Y-94689458D01*
X117581291Y-94770947D01*
X117746715Y-94821128D01*
X117918750Y-94838072D01*
X118406250Y-94838072D01*
X118578285Y-94821128D01*
X118743709Y-94770947D01*
X118896164Y-94689458D01*
X119029792Y-94579792D01*
X119100000Y-94494244D01*
X119170208Y-94579792D01*
X119303836Y-94689458D01*
X119456291Y-94770947D01*
X119621715Y-94821128D01*
X119793750Y-94838072D01*
X120281250Y-94838072D01*
X120453285Y-94821128D01*
X120618709Y-94770947D01*
X120771164Y-94689458D01*
X120904792Y-94579792D01*
X121014458Y-94446164D01*
X121095947Y-94293709D01*
X121146128Y-94128285D01*
X121163072Y-93956250D01*
X121163072Y-93043750D01*
X121146128Y-92871715D01*
X121095947Y-92706291D01*
X121014458Y-92553836D01*
X120904792Y-92420208D01*
X120860000Y-92383448D01*
X120860000Y-90788072D01*
X121000000Y-90788072D01*
X121124482Y-90775812D01*
X121244180Y-90739502D01*
X121354494Y-90680537D01*
X121451185Y-90601185D01*
X121530537Y-90504494D01*
X121589502Y-90394180D01*
X121625812Y-90274482D01*
X121638072Y-90150000D01*
X121638072Y-88498061D01*
X126965000Y-88498061D01*
X126965000Y-88701939D01*
X127004774Y-88901898D01*
X127082795Y-89090256D01*
X127196063Y-89259774D01*
X127340226Y-89403937D01*
X127509744Y-89517205D01*
X127698102Y-89595226D01*
X127898061Y-89635000D01*
X128101939Y-89635000D01*
X128301898Y-89595226D01*
X128490256Y-89517205D01*
X128659774Y-89403937D01*
X128753711Y-89310000D01*
X129961928Y-89310000D01*
X129961928Y-90150000D01*
X129974188Y-90274482D01*
X130010498Y-90394180D01*
X130069463Y-90504494D01*
X130148815Y-90601185D01*
X130245506Y-90680537D01*
X130355820Y-90739502D01*
X130475518Y-90775812D01*
X130600000Y-90788072D01*
X132400000Y-90788072D01*
X132524482Y-90775812D01*
X132644180Y-90739502D01*
X132754494Y-90680537D01*
X132851185Y-90601185D01*
X132930537Y-90504494D01*
X132989502Y-90394180D01*
X133025812Y-90274482D01*
X133038072Y-90150000D01*
X133038072Y-86950000D01*
X133025812Y-86825518D01*
X132989502Y-86705820D01*
X132930537Y-86595506D01*
X132851185Y-86498815D01*
X132754494Y-86419463D01*
X132644180Y-86360498D01*
X132524482Y-86324188D01*
X132400000Y-86311928D01*
X130600000Y-86311928D01*
X130475518Y-86324188D01*
X130355820Y-86360498D01*
X130245506Y-86419463D01*
X130148815Y-86498815D01*
X130069463Y-86595506D01*
X130010498Y-86705820D01*
X129974188Y-86825518D01*
X129961928Y-86950000D01*
X129961928Y-87790000D01*
X128650700Y-87790000D01*
X128490256Y-87682795D01*
X128301898Y-87604774D01*
X128101939Y-87565000D01*
X127898061Y-87565000D01*
X127698102Y-87604774D01*
X127509744Y-87682795D01*
X127340226Y-87796063D01*
X127196063Y-87940226D01*
X127082795Y-88109744D01*
X127004774Y-88298102D01*
X126965000Y-88498061D01*
X121638072Y-88498061D01*
X121638072Y-86950000D01*
X121625812Y-86825518D01*
X121589502Y-86705820D01*
X121530537Y-86595506D01*
X121451185Y-86498815D01*
X121354494Y-86419463D01*
X121244180Y-86360498D01*
X121124482Y-86324188D01*
X121000000Y-86311928D01*
X119200000Y-86311928D01*
X119075518Y-86324188D01*
X118955820Y-86360498D01*
X118845506Y-86419463D01*
X118748815Y-86498815D01*
X118669463Y-86595506D01*
X118610498Y-86705820D01*
X118574188Y-86825518D01*
X118561928Y-86950000D01*
X118561928Y-90150000D01*
X118574188Y-90274482D01*
X118610498Y-90394180D01*
X118669463Y-90504494D01*
X118748815Y-90601185D01*
X118845506Y-90680537D01*
X118955820Y-90739502D01*
X119075518Y-90775812D01*
X119200000Y-90788072D01*
X119340000Y-90788072D01*
X119340001Y-92291212D01*
X119303836Y-92310542D01*
X119170208Y-92420208D01*
X119100000Y-92505756D01*
X119029792Y-92420208D01*
X118896164Y-92310542D01*
X118743709Y-92229053D01*
X118578285Y-92178872D01*
X118406250Y-92161928D01*
X117918750Y-92161928D01*
X117746715Y-92178872D01*
X117581291Y-92229053D01*
X117428836Y-92310542D01*
X117295208Y-92420208D01*
X117185542Y-92553836D01*
X117104053Y-92706291D01*
X117093827Y-92740000D01*
X116586940Y-92740000D01*
X116501898Y-92704774D01*
X116301939Y-92665000D01*
X116098061Y-92665000D01*
X115898102Y-92704774D01*
X115709744Y-92782795D01*
X115540226Y-92896063D01*
X115396063Y-93040226D01*
X115282795Y-93209744D01*
X115204774Y-93398102D01*
X115165000Y-93598061D01*
X111290000Y-93598061D01*
X111290000Y-93184801D01*
X112497581Y-91977221D01*
X112520208Y-92004792D01*
X112653836Y-92114458D01*
X112806291Y-92195947D01*
X112971715Y-92246128D01*
X113143750Y-92263072D01*
X114056250Y-92263072D01*
X114228285Y-92246128D01*
X114393709Y-92195947D01*
X114546164Y-92114458D01*
X114679792Y-92004792D01*
X114789458Y-91871164D01*
X114870947Y-91718709D01*
X114921128Y-91553285D01*
X114938072Y-91381250D01*
X114938072Y-90893750D01*
X114921128Y-90721715D01*
X114870947Y-90556291D01*
X114789458Y-90403836D01*
X114679792Y-90270208D01*
X114594244Y-90200000D01*
X114679792Y-90129792D01*
X114789458Y-89996164D01*
X114870947Y-89843709D01*
X114921128Y-89678285D01*
X114938072Y-89506250D01*
X114938072Y-89018750D01*
X114921128Y-88846715D01*
X114870947Y-88681291D01*
X114789458Y-88528836D01*
X114679792Y-88395208D01*
X114546164Y-88285542D01*
X114460000Y-88239486D01*
X114460000Y-82306173D01*
X114493709Y-82295947D01*
X114646164Y-82214458D01*
X114779792Y-82104792D01*
X114889458Y-81971164D01*
X114970947Y-81818709D01*
X115021128Y-81653285D01*
X115038072Y-81481250D01*
X115038072Y-80993750D01*
X115021128Y-80821715D01*
X114970947Y-80656291D01*
X114889458Y-80503836D01*
X114779792Y-80370208D01*
X114646164Y-80260542D01*
X114493709Y-80179053D01*
X114328285Y-80128872D01*
X114156250Y-80111928D01*
X113243750Y-80111928D01*
X113071715Y-80128872D01*
X112906291Y-80179053D01*
X112753836Y-80260542D01*
X112620208Y-80370208D01*
X112510542Y-80503836D01*
X112429053Y-80656291D01*
X112378872Y-80821715D01*
X112361928Y-80993750D01*
X112361928Y-81481250D01*
X112378872Y-81653285D01*
X112429053Y-81818709D01*
X112510542Y-81971164D01*
X112620208Y-82104792D01*
X112753836Y-82214458D01*
X112906291Y-82295947D01*
X112940000Y-82306173D01*
X112940001Y-88163492D01*
X112806291Y-88204053D01*
X112653836Y-88285542D01*
X112520208Y-88395208D01*
X112410542Y-88528836D01*
X112329053Y-88681291D01*
X112278872Y-88846715D01*
X112261928Y-89018750D01*
X112261928Y-89506250D01*
X112278872Y-89678285D01*
X112329053Y-89843709D01*
X112410542Y-89996164D01*
X112520208Y-90129792D01*
X112605756Y-90200000D01*
X112520208Y-90270208D01*
X112432155Y-90377500D01*
X112299822Y-90377500D01*
X112262500Y-90373824D01*
X112225177Y-90377500D01*
X112225167Y-90377500D01*
X112113514Y-90388497D01*
X111989835Y-90426014D01*
X111970253Y-90431954D01*
X111838223Y-90502526D01*
X111772711Y-90556291D01*
X111722499Y-90597499D01*
X111698701Y-90626497D01*
X110019003Y-92306196D01*
X109989999Y-92329999D01*
X109950831Y-92377726D01*
X109895026Y-92445724D01*
X109840762Y-92547244D01*
X109824454Y-92577754D01*
X109780997Y-92721015D01*
X109770000Y-92832668D01*
X109770000Y-92832678D01*
X109766324Y-92870000D01*
X109770000Y-92907323D01*
X109770000Y-93392668D01*
X109770001Y-94359774D01*
X109770001Y-95232658D01*
X109770000Y-95232668D01*
X109770000Y-96361956D01*
X109615241Y-96465363D01*
X109415363Y-96665241D01*
X109260000Y-96897759D01*
X109104637Y-96665241D01*
X108904759Y-96465363D01*
X108669727Y-96308320D01*
X108408574Y-96200147D01*
X108131335Y-96145000D01*
X107848665Y-96145000D01*
X107571426Y-96200147D01*
X107310273Y-96308320D01*
X107075241Y-96465363D01*
X106875363Y-96665241D01*
X106720000Y-96897759D01*
X106564637Y-96665241D01*
X106364759Y-96465363D01*
X106129727Y-96308320D01*
X105868574Y-96200147D01*
X105591335Y-96145000D01*
X105308665Y-96145000D01*
X105031426Y-96200147D01*
X104770273Y-96308320D01*
X104535241Y-96465363D01*
X104335363Y-96665241D01*
X104180000Y-96897759D01*
X104024637Y-96665241D01*
X103824759Y-96465363D01*
X103589727Y-96308320D01*
X103328574Y-96200147D01*
X103051335Y-96145000D01*
X102768665Y-96145000D01*
X102491426Y-96200147D01*
X102230273Y-96308320D01*
X101995241Y-96465363D01*
X101795363Y-96665241D01*
X101638320Y-96900273D01*
X101530147Y-97161426D01*
X101475000Y-97438665D01*
X99265000Y-97438665D01*
X99209853Y-97161426D01*
X99101680Y-96900273D01*
X98944637Y-96665241D01*
X98744759Y-96465363D01*
X98509727Y-96308320D01*
X98248574Y-96200147D01*
X97971335Y-96145000D01*
X97688665Y-96145000D01*
X97411426Y-96200147D01*
X97150273Y-96308320D01*
X96915241Y-96465363D01*
X96715363Y-96665241D01*
X96560000Y-96897759D01*
X96404637Y-96665241D01*
X96204759Y-96465363D01*
X95969727Y-96308320D01*
X95708574Y-96200147D01*
X95431335Y-96145000D01*
X95148665Y-96145000D01*
X94871426Y-96200147D01*
X94610273Y-96308320D01*
X94375241Y-96465363D01*
X94175363Y-96665241D01*
X94018320Y-96900273D01*
X93910147Y-97161426D01*
X93855000Y-97438665D01*
X92998611Y-97438665D01*
X92998611Y-91198061D01*
X94465000Y-91198061D01*
X94465000Y-91401939D01*
X94504774Y-91601898D01*
X94582795Y-91790256D01*
X94696063Y-91959774D01*
X94840226Y-92103937D01*
X95009744Y-92217205D01*
X95198102Y-92295226D01*
X95398061Y-92335000D01*
X95601939Y-92335000D01*
X95801898Y-92295226D01*
X95990256Y-92217205D01*
X96159774Y-92103937D01*
X96303937Y-91959774D01*
X96417205Y-91790256D01*
X96495226Y-91601898D01*
X96496101Y-91597500D01*
X96632155Y-91597500D01*
X96720208Y-91704792D01*
X96853836Y-91814458D01*
X97006291Y-91895947D01*
X97171715Y-91946128D01*
X97343750Y-91963072D01*
X98256250Y-91963072D01*
X98428285Y-91946128D01*
X98593709Y-91895947D01*
X98746164Y-91814458D01*
X98879792Y-91704792D01*
X98989458Y-91571164D01*
X99070947Y-91418709D01*
X99121128Y-91253285D01*
X99138072Y-91081250D01*
X99138072Y-90593750D01*
X99121128Y-90421715D01*
X99070947Y-90256291D01*
X98989458Y-90103836D01*
X98879792Y-89970208D01*
X98794244Y-89900000D01*
X98879792Y-89829792D01*
X98989458Y-89696164D01*
X99070947Y-89543709D01*
X99121128Y-89378285D01*
X99138072Y-89206250D01*
X99138072Y-88718750D01*
X99121128Y-88546715D01*
X99070947Y-88381291D01*
X98989458Y-88228836D01*
X98879792Y-88095208D01*
X98746164Y-87985542D01*
X98593709Y-87904053D01*
X98560000Y-87893827D01*
X98560000Y-83952301D01*
X100149230Y-82363072D01*
X100656250Y-82363072D01*
X100828285Y-82346128D01*
X100993709Y-82295947D01*
X101146164Y-82214458D01*
X101279792Y-82104792D01*
X101389458Y-81971164D01*
X101470947Y-81818709D01*
X101521128Y-81653285D01*
X101538072Y-81481250D01*
X101538072Y-80993750D01*
X101521128Y-80821715D01*
X101470947Y-80656291D01*
X101389458Y-80503836D01*
X101279792Y-80370208D01*
X101146164Y-80260542D01*
X100993709Y-80179053D01*
X100828285Y-80128872D01*
X100656250Y-80111928D01*
X99743750Y-80111928D01*
X99571715Y-80128872D01*
X99406291Y-80179053D01*
X99253836Y-80260542D01*
X99120208Y-80370208D01*
X99010542Y-80503836D01*
X98929053Y-80656291D01*
X98878872Y-80821715D01*
X98861928Y-80993750D01*
X98861928Y-81481250D01*
X98863678Y-81499020D01*
X97288998Y-83073701D01*
X97260000Y-83097499D01*
X97236202Y-83126497D01*
X97236201Y-83126498D01*
X97165026Y-83213224D01*
X97094454Y-83345254D01*
X97073298Y-83415000D01*
X97059497Y-83460498D01*
X97050998Y-83488515D01*
X97036324Y-83637500D01*
X97040001Y-83674832D01*
X97040000Y-87893827D01*
X97006291Y-87904053D01*
X96853836Y-87985542D01*
X96720208Y-88095208D01*
X96610542Y-88228836D01*
X96529053Y-88381291D01*
X96478872Y-88546715D01*
X96461928Y-88718750D01*
X96461928Y-89206250D01*
X96478872Y-89378285D01*
X96529053Y-89543709D01*
X96610542Y-89696164D01*
X96720208Y-89829792D01*
X96805756Y-89900000D01*
X96720208Y-89970208D01*
X96632155Y-90077500D01*
X95999825Y-90077500D01*
X95962500Y-90073824D01*
X95925175Y-90077500D01*
X95925167Y-90077500D01*
X95813514Y-90088497D01*
X95670253Y-90131954D01*
X95538224Y-90202526D01*
X95462099Y-90265000D01*
X95398061Y-90265000D01*
X95198102Y-90304774D01*
X95009744Y-90382795D01*
X94840226Y-90496063D01*
X94696063Y-90640226D01*
X94582795Y-90809744D01*
X94504774Y-90998102D01*
X94465000Y-91198061D01*
X92998611Y-91198061D01*
X92998611Y-79137574D01*
X93097821Y-79377089D01*
X93369774Y-79784095D01*
X93715905Y-80130226D01*
X94122911Y-80402179D01*
X94575152Y-80589503D01*
X95055249Y-80685000D01*
X95544751Y-80685000D01*
X95817718Y-80630704D01*
X95304951Y-81143471D01*
X95271184Y-81171183D01*
X95243471Y-81204951D01*
X95243468Y-81204954D01*
X95160590Y-81305941D01*
X95078412Y-81459687D01*
X95027805Y-81626510D01*
X95010719Y-81800000D01*
X95015001Y-81843479D01*
X95015000Y-86233421D01*
X94854956Y-86393465D01*
X94798102Y-86404774D01*
X94609744Y-86482795D01*
X94440226Y-86596063D01*
X94296063Y-86740226D01*
X94182795Y-86909744D01*
X94104774Y-87098102D01*
X94065000Y-87298061D01*
X94065000Y-87501939D01*
X94104774Y-87701898D01*
X94182795Y-87890256D01*
X94296063Y-88059774D01*
X94440226Y-88203937D01*
X94609744Y-88317205D01*
X94798102Y-88395226D01*
X94998061Y-88435000D01*
X95201939Y-88435000D01*
X95401898Y-88395226D01*
X95590256Y-88317205D01*
X95759774Y-88203937D01*
X95903937Y-88059774D01*
X96017205Y-87890256D01*
X96095226Y-87701898D01*
X96106535Y-87645044D01*
X96495050Y-87256529D01*
X96528817Y-87228817D01*
X96639411Y-87094059D01*
X96721589Y-86940313D01*
X96772195Y-86773490D01*
X96785000Y-86643477D01*
X96785000Y-86643469D01*
X96789281Y-86600000D01*
X96785000Y-86556531D01*
X96785000Y-82166578D01*
X98795050Y-80156529D01*
X98828817Y-80128817D01*
X98939411Y-79994059D01*
X99021589Y-79840313D01*
X99072195Y-79673490D01*
X99085000Y-79543477D01*
X99085000Y-79543467D01*
X99089281Y-79500001D01*
X99085000Y-79456535D01*
X99085000Y-78466578D01*
X99301578Y-78250000D01*
X118561928Y-78250000D01*
X118561928Y-81450000D01*
X118574188Y-81574482D01*
X118610498Y-81694180D01*
X118669463Y-81804494D01*
X118748815Y-81901185D01*
X118845506Y-81980537D01*
X118955820Y-82039502D01*
X119075518Y-82075812D01*
X119200000Y-82088072D01*
X121000000Y-82088072D01*
X121124482Y-82075812D01*
X121244180Y-82039502D01*
X121354494Y-81980537D01*
X121451185Y-81901185D01*
X121530537Y-81804494D01*
X121589502Y-81694180D01*
X121625812Y-81574482D01*
X121638072Y-81450000D01*
X121638072Y-78250000D01*
X129961928Y-78250000D01*
X129961928Y-81450000D01*
X129974188Y-81574482D01*
X130010498Y-81694180D01*
X130069463Y-81804494D01*
X130148815Y-81901185D01*
X130245506Y-81980537D01*
X130355820Y-82039502D01*
X130475518Y-82075812D01*
X130600000Y-82088072D01*
X132400000Y-82088072D01*
X132524482Y-82075812D01*
X132644180Y-82039502D01*
X132754494Y-81980537D01*
X132851185Y-81901185D01*
X132930537Y-81804494D01*
X132989502Y-81694180D01*
X133025812Y-81574482D01*
X133038072Y-81450000D01*
X133038072Y-78250000D01*
X133025812Y-78125518D01*
X132989502Y-78005820D01*
X132930537Y-77895506D01*
X132851185Y-77798815D01*
X132754494Y-77719463D01*
X132644180Y-77660498D01*
X132524482Y-77624188D01*
X132400000Y-77611928D01*
X130600000Y-77611928D01*
X130475518Y-77624188D01*
X130355820Y-77660498D01*
X130245506Y-77719463D01*
X130148815Y-77798815D01*
X130069463Y-77895506D01*
X130010498Y-78005820D01*
X129974188Y-78125518D01*
X129961928Y-78250000D01*
X121638072Y-78250000D01*
X121625812Y-78125518D01*
X121589502Y-78005820D01*
X121530537Y-77895506D01*
X121451185Y-77798815D01*
X121354494Y-77719463D01*
X121244180Y-77660498D01*
X121124482Y-77624188D01*
X121000000Y-77611928D01*
X119200000Y-77611928D01*
X119075518Y-77624188D01*
X118955820Y-77660498D01*
X118845506Y-77719463D01*
X118748815Y-77798815D01*
X118669463Y-77895506D01*
X118610498Y-78005820D01*
X118574188Y-78125518D01*
X118561928Y-78250000D01*
X99301578Y-78250000D01*
X100766580Y-76784999D01*
X141318485Y-76784999D01*
X141382795Y-76940256D01*
X141496063Y-77109774D01*
X141640226Y-77253937D01*
X141809744Y-77367205D01*
X141998102Y-77445226D01*
X142198061Y-77485000D01*
X142401939Y-77485000D01*
X142601898Y-77445226D01*
X142790256Y-77367205D01*
X142959774Y-77253937D01*
X143103937Y-77109774D01*
X143217205Y-76940256D01*
X143295226Y-76751898D01*
X143335000Y-76551939D01*
X143335000Y-76348061D01*
X143295226Y-76148102D01*
X143217205Y-75959744D01*
X143152568Y-75863008D01*
X154306957Y-75863008D01*
X154222911Y-75897821D01*
X154222911Y-75897821D01*
G37*
X154222911Y-75897821D02*
X153815905Y-76169774D01*
X153469774Y-76515905D01*
X153197821Y-76922911D01*
X153010497Y-77375152D01*
X152915000Y-77855249D01*
X152915000Y-78344751D01*
X153010497Y-78824848D01*
X153197821Y-79277089D01*
X153469774Y-79684095D01*
X153815905Y-80030226D01*
X154222911Y-80302179D01*
X154675152Y-80489503D01*
X155155249Y-80585000D01*
X155644751Y-80585000D01*
X156124848Y-80489503D01*
X156577089Y-80302179D01*
X156984095Y-80030226D01*
X157180612Y-79833709D01*
X157180611Y-116840972D01*
X157030226Y-116615905D01*
X156684095Y-116269774D01*
X156277089Y-115997821D01*
X155824848Y-115810497D01*
X155344751Y-115715000D01*
X154855249Y-115715000D01*
X154375152Y-115810497D01*
X153922911Y-115997821D01*
X153515905Y-116269774D01*
X153169774Y-116615905D01*
X152897821Y-117022911D01*
X152710497Y-117475152D01*
X152615000Y-117955249D01*
X152615000Y-118444751D01*
X152710497Y-118924848D01*
X152897821Y-119377089D01*
X153169774Y-119784095D01*
X153515905Y-120130226D01*
X153668208Y-120231992D01*
X96682329Y-120231992D01*
X96930226Y-119984095D01*
X97202179Y-119577089D01*
X97389503Y-119124848D01*
X97485000Y-118644751D01*
X97485000Y-118155249D01*
X97389503Y-117675152D01*
X97202179Y-117222911D01*
X96930226Y-116815905D01*
X96584095Y-116469774D01*
X96177089Y-116197821D01*
X95724848Y-116010497D01*
X95244751Y-115915000D01*
X94755249Y-115915000D01*
X94275152Y-116010497D01*
X93822911Y-116197821D01*
X93415905Y-116469774D01*
X93069774Y-116815905D01*
X92998611Y-116922408D01*
X92998611Y-112020000D01*
X93851928Y-112020000D01*
X93851928Y-113620000D01*
X93864188Y-113744482D01*
X93900498Y-113864180D01*
X93959463Y-113974494D01*
X94038815Y-114071185D01*
X94135506Y-114150537D01*
X94245820Y-114209502D01*
X94365518Y-114245812D01*
X94490000Y-114258072D01*
X96090000Y-114258072D01*
X96214482Y-114245812D01*
X96334180Y-114209502D01*
X96444494Y-114150537D01*
X96541185Y-114071185D01*
X96620537Y-113974494D01*
X96679502Y-113864180D01*
X96715812Y-113744482D01*
X96716643Y-113736039D01*
X96915241Y-113934637D01*
X97150273Y-114091680D01*
X97411426Y-114199853D01*
X97688665Y-114255000D01*
X97971335Y-114255000D01*
X98248574Y-114199853D01*
X98509727Y-114091680D01*
X98744759Y-113934637D01*
X98944637Y-113734759D01*
X99100000Y-113502241D01*
X99255363Y-113734759D01*
X99455241Y-113934637D01*
X99690273Y-114091680D01*
X99951426Y-114199853D01*
X100228665Y-114255000D01*
X100511335Y-114255000D01*
X100788574Y-114199853D01*
X101049727Y-114091680D01*
X101284759Y-113934637D01*
X101484637Y-113734759D01*
X101640000Y-113502241D01*
X101795363Y-113734759D01*
X101995241Y-113934637D01*
X102230273Y-114091680D01*
X102491426Y-114199853D01*
X102768665Y-114255000D01*
X103051335Y-114255000D01*
X103328574Y-114199853D01*
X103589727Y-114091680D01*
X103824759Y-113934637D01*
X104024637Y-113734759D01*
X104180000Y-113502241D01*
X104335363Y-113734759D01*
X104535241Y-113934637D01*
X104770273Y-114091680D01*
X105031426Y-114199853D01*
X105308665Y-114255000D01*
X105591335Y-114255000D01*
X105868574Y-114199853D01*
X106129727Y-114091680D01*
X106364759Y-113934637D01*
X106564637Y-113734759D01*
X106720000Y-113502241D01*
X106875363Y-113734759D01*
X107075241Y-113934637D01*
X107310273Y-114091680D01*
X107571426Y-114199853D01*
X107848665Y-114255000D01*
X108131335Y-114255000D01*
X108408574Y-114199853D01*
X108669727Y-114091680D01*
X108904759Y-113934637D01*
X109104637Y-113734759D01*
X109260000Y-113502241D01*
X109415363Y-113734759D01*
X109615241Y-113934637D01*
X109850273Y-114091680D01*
X110111426Y-114199853D01*
X110388665Y-114255000D01*
X110671335Y-114255000D01*
X110948574Y-114199853D01*
X111209727Y-114091680D01*
X111444759Y-113934637D01*
X111644637Y-113734759D01*
X111800000Y-113502241D01*
X111955363Y-113734759D01*
X112155241Y-113934637D01*
X112390273Y-114091680D01*
X112651426Y-114199853D01*
X112928665Y-114255000D01*
X113211335Y-114255000D01*
X113488574Y-114199853D01*
X113749727Y-114091680D01*
X113984759Y-113934637D01*
X114184637Y-113734759D01*
X114340000Y-113502241D01*
X114495363Y-113734759D01*
X114695241Y-113934637D01*
X114930273Y-114091680D01*
X115191426Y-114199853D01*
X115468665Y-114255000D01*
X115751335Y-114255000D01*
X116028574Y-114199853D01*
X116289727Y-114091680D01*
X116524759Y-113934637D01*
X116724637Y-113734759D01*
X116880000Y-113502241D01*
X117035363Y-113734759D01*
X117235241Y-113934637D01*
X117390000Y-114038044D01*
X117390000Y-114212677D01*
X117386324Y-114250000D01*
X117390000Y-114287322D01*
X117390000Y-114287332D01*
X117400997Y-114398985D01*
X117411421Y-114433348D01*
X117444454Y-114542246D01*
X117515026Y-114674276D01*
X117537071Y-114701137D01*
X117609999Y-114790001D01*
X117639003Y-114813804D01*
X121586210Y-118761012D01*
X121610008Y-118790010D01*
X121639006Y-118813808D01*
X121725732Y-118884983D01*
X121800314Y-118924848D01*
X121857762Y-118955555D01*
X122001023Y-118999012D01*
X122112676Y-119010009D01*
X122112686Y-119010009D01*
X122150009Y-119013685D01*
X122187332Y-119010009D01*
X140313469Y-119010009D01*
X140350791Y-119013685D01*
X140388113Y-119010009D01*
X140388124Y-119010009D01*
X140499777Y-118999012D01*
X140643038Y-118955555D01*
X140775067Y-118884983D01*
X140890792Y-118790010D01*
X140914595Y-118761006D01*
X142821436Y-116854167D01*
X142966389Y-116883000D01*
X143239211Y-116883000D01*
X143506789Y-116829775D01*
X143758843Y-116725371D01*
X143985686Y-116573799D01*
X144122800Y-116436685D01*
X144259914Y-116573799D01*
X144486757Y-116725371D01*
X144738811Y-116829775D01*
X145006389Y-116883000D01*
X145279211Y-116883000D01*
X145546789Y-116829775D01*
X145798843Y-116725371D01*
X146025686Y-116573799D01*
X146218599Y-116380886D01*
X146370171Y-116154043D01*
X146474575Y-115901989D01*
X146527800Y-115634411D01*
X146527800Y-115361589D01*
X146474575Y-115094011D01*
X146370171Y-114841957D01*
X146218599Y-114615114D01*
X146025686Y-114422201D01*
X145798843Y-114270629D01*
X145546789Y-114166225D01*
X145279211Y-114113000D01*
X145006389Y-114113000D01*
X144738811Y-114166225D01*
X144486757Y-114270629D01*
X144259914Y-114422201D01*
X144122800Y-114559315D01*
X143985686Y-114422201D01*
X143758843Y-114270629D01*
X143506789Y-114166225D01*
X143239211Y-114113000D01*
X142966389Y-114113000D01*
X142698811Y-114166225D01*
X142446757Y-114270629D01*
X142219914Y-114422201D01*
X142082800Y-114559315D01*
X141945686Y-114422201D01*
X141718843Y-114270629D01*
X141466789Y-114166225D01*
X141199211Y-114113000D01*
X140926389Y-114113000D01*
X140658811Y-114166225D01*
X140406757Y-114270629D01*
X140179914Y-114422201D01*
X140042800Y-114559315D01*
X139905686Y-114422201D01*
X139678843Y-114270629D01*
X139426789Y-114166225D01*
X139159211Y-114113000D01*
X138886389Y-114113000D01*
X138618811Y-114166225D01*
X138366757Y-114270629D01*
X138139914Y-114422201D01*
X137947001Y-114615114D01*
X137795429Y-114841957D01*
X137691025Y-115094011D01*
X137637800Y-115361589D01*
X137637800Y-115634411D01*
X137691025Y-115901989D01*
X137795429Y-116154043D01*
X137947001Y-116380886D01*
X138139914Y-116573799D01*
X138366757Y-116725371D01*
X138618811Y-116829775D01*
X138650017Y-116835982D01*
X138445999Y-117040000D01*
X134976466Y-117040000D01*
X135255263Y-116924518D01*
X135523052Y-116745587D01*
X135750787Y-116517852D01*
X135929718Y-116250063D01*
X136052968Y-115952512D01*
X136115800Y-115636633D01*
X136115800Y-115314567D01*
X136052968Y-114998688D01*
X135929718Y-114701137D01*
X135750787Y-114433348D01*
X135576668Y-114259229D01*
X135601582Y-114269549D01*
X136038209Y-114356400D01*
X136483391Y-114356400D01*
X136920018Y-114269549D01*
X137331311Y-114099186D01*
X137701466Y-113851856D01*
X138016256Y-113537066D01*
X138263586Y-113166911D01*
X138433949Y-112755618D01*
X138481057Y-112518789D01*
X138708600Y-112518789D01*
X138708600Y-112791611D01*
X138761825Y-113059189D01*
X138866229Y-113311243D01*
X139017801Y-113538086D01*
X139210714Y-113730999D01*
X139437557Y-113882571D01*
X139689611Y-113986975D01*
X139957189Y-114040200D01*
X140230011Y-114040200D01*
X140497589Y-113986975D01*
X140749643Y-113882571D01*
X140976486Y-113730999D01*
X141113600Y-113593885D01*
X141250714Y-113730999D01*
X141477557Y-113882571D01*
X141729611Y-113986975D01*
X141997189Y-114040200D01*
X142270011Y-114040200D01*
X142537589Y-113986975D01*
X142789643Y-113882571D01*
X143016486Y-113730999D01*
X143153600Y-113593885D01*
X143290714Y-113730999D01*
X143517557Y-113882571D01*
X143769611Y-113986975D01*
X144037189Y-114040200D01*
X144310011Y-114040200D01*
X144577589Y-113986975D01*
X144829643Y-113882571D01*
X144961565Y-113794424D01*
X145012415Y-113856385D01*
X145109106Y-113935737D01*
X145219420Y-113994702D01*
X145339118Y-114031012D01*
X145463600Y-114043272D01*
X146963600Y-114043272D01*
X147088082Y-114031012D01*
X147207780Y-113994702D01*
X147318094Y-113935737D01*
X147414785Y-113856385D01*
X147464313Y-113796035D01*
X147520134Y-113851856D01*
X147890289Y-114099186D01*
X148301582Y-114269549D01*
X148738209Y-114356400D01*
X149183391Y-114356400D01*
X149620018Y-114269549D01*
X149644932Y-114259229D01*
X149470813Y-114433348D01*
X149291882Y-114701137D01*
X149168632Y-114998688D01*
X149105800Y-115314567D01*
X149105800Y-115636633D01*
X149168632Y-115952512D01*
X149291882Y-116250063D01*
X149470813Y-116517852D01*
X149698548Y-116745587D01*
X149966337Y-116924518D01*
X150263888Y-117047768D01*
X150579767Y-117110600D01*
X150901833Y-117110600D01*
X151217712Y-117047768D01*
X151515263Y-116924518D01*
X151783052Y-116745587D01*
X152010787Y-116517852D01*
X152189718Y-116250063D01*
X152312968Y-115952512D01*
X152375800Y-115636633D01*
X152375800Y-115314567D01*
X152312968Y-114998688D01*
X152189718Y-114701137D01*
X152010787Y-114433348D01*
X151783052Y-114205613D01*
X151515263Y-114026682D01*
X151217712Y-113903432D01*
X150901833Y-113840600D01*
X150579767Y-113840600D01*
X150349875Y-113886328D01*
X150401466Y-113851856D01*
X150716256Y-113537066D01*
X150963586Y-113166911D01*
X151133949Y-112755618D01*
X151220800Y-112318991D01*
X151220800Y-111873809D01*
X151133949Y-111437182D01*
X150963586Y-111025889D01*
X150716256Y-110655734D01*
X150401466Y-110340944D01*
X150031311Y-110093614D01*
X149620018Y-109923251D01*
X149183391Y-109836400D01*
X148738209Y-109836400D01*
X148301582Y-109923251D01*
X147890289Y-110093614D01*
X147520134Y-110340944D01*
X147205344Y-110655734D01*
X146958014Y-111025889D01*
X146858090Y-111267128D01*
X145463600Y-111267128D01*
X145339118Y-111279388D01*
X145219420Y-111315698D01*
X145109106Y-111374663D01*
X145012415Y-111454015D01*
X144961565Y-111515976D01*
X144829643Y-111427829D01*
X144577589Y-111323425D01*
X144310011Y-111270200D01*
X144037189Y-111270200D01*
X143769611Y-111323425D01*
X143517557Y-111427829D01*
X143290714Y-111579401D01*
X143153600Y-111716515D01*
X143016486Y-111579401D01*
X142789643Y-111427829D01*
X142537589Y-111323425D01*
X142270011Y-111270200D01*
X141997189Y-111270200D01*
X141729611Y-111323425D01*
X141477557Y-111427829D01*
X141250714Y-111579401D01*
X141113600Y-111716515D01*
X140976486Y-111579401D01*
X140749643Y-111427829D01*
X140497589Y-111323425D01*
X140230011Y-111270200D01*
X139957189Y-111270200D01*
X139689611Y-111323425D01*
X139437557Y-111427829D01*
X139210714Y-111579401D01*
X139017801Y-111772314D01*
X138866229Y-111999157D01*
X138761825Y-112251211D01*
X138708600Y-112518789D01*
X138481057Y-112518789D01*
X138520800Y-112318991D01*
X138520800Y-111873809D01*
X138433949Y-111437182D01*
X138263586Y-111025889D01*
X138016256Y-110655734D01*
X137701466Y-110340944D01*
X137331311Y-110093614D01*
X136920018Y-109923251D01*
X136483391Y-109836400D01*
X136038209Y-109836400D01*
X135601582Y-109923251D01*
X135190289Y-110093614D01*
X134820134Y-110340944D01*
X134505344Y-110655734D01*
X134258014Y-111025889D01*
X134087651Y-111437182D01*
X134000800Y-111873809D01*
X134000800Y-112318991D01*
X134087651Y-112755618D01*
X134258014Y-113166911D01*
X134505344Y-113537066D01*
X134820134Y-113851856D01*
X134871725Y-113886328D01*
X134641833Y-113840600D01*
X134319767Y-113840600D01*
X134003888Y-113903432D01*
X133706337Y-114026682D01*
X133438548Y-114205613D01*
X133210813Y-114433348D01*
X133031882Y-114701137D01*
X132908632Y-114998688D01*
X132845800Y-115314567D01*
X132845800Y-115636633D01*
X132908632Y-115952512D01*
X133031882Y-116250063D01*
X133210813Y-116517852D01*
X133438548Y-116745587D01*
X133706337Y-116924518D01*
X133985134Y-117040000D01*
X122651212Y-117040000D01*
X120118006Y-114506795D01*
X120399478Y-114225324D01*
X120548665Y-114255000D01*
X120831335Y-114255000D01*
X121108574Y-114199853D01*
X121369727Y-114091680D01*
X121604759Y-113934637D01*
X121804637Y-113734759D01*
X121960000Y-113502241D01*
X122115363Y-113734759D01*
X122315241Y-113934637D01*
X122550273Y-114091680D01*
X122811426Y-114199853D01*
X123088665Y-114255000D01*
X123371335Y-114255000D01*
X123648574Y-114199853D01*
X123909727Y-114091680D01*
X124144759Y-113934637D01*
X124344637Y-113734759D01*
X124500000Y-113502241D01*
X124655363Y-113734759D01*
X124855241Y-113934637D01*
X125090273Y-114091680D01*
X125351426Y-114199853D01*
X125628665Y-114255000D01*
X125911335Y-114255000D01*
X126188574Y-114199853D01*
X126449727Y-114091680D01*
X126684759Y-113934637D01*
X126884637Y-113734759D01*
X127040000Y-113502241D01*
X127195363Y-113734759D01*
X127395241Y-113934637D01*
X127630273Y-114091680D01*
X127891426Y-114199853D01*
X128168665Y-114255000D01*
X128451335Y-114255000D01*
X128728574Y-114199853D01*
X128989727Y-114091680D01*
X129224759Y-113934637D01*
X129424637Y-113734759D01*
X129581680Y-113499727D01*
X129689853Y-113238574D01*
X129745000Y-112961335D01*
X129745000Y-112678665D01*
X129689853Y-112401426D01*
X129581680Y-112140273D01*
X129424637Y-111905241D01*
X129224759Y-111705363D01*
X128989727Y-111548320D01*
X128728574Y-111440147D01*
X128451335Y-111385000D01*
X128168665Y-111385000D01*
X127891426Y-111440147D01*
X127630273Y-111548320D01*
X127395241Y-111705363D01*
X127195363Y-111905241D01*
X127040000Y-112137759D01*
X126884637Y-111905241D01*
X126684759Y-111705363D01*
X126449727Y-111548320D01*
X126188574Y-111440147D01*
X125911335Y-111385000D01*
X125628665Y-111385000D01*
X125351426Y-111440147D01*
X125090273Y-111548320D01*
X124855241Y-111705363D01*
X124655363Y-111905241D01*
X124500000Y-112137759D01*
X124344637Y-111905241D01*
X124144759Y-111705363D01*
X123909727Y-111548320D01*
X123648574Y-111440147D01*
X123371335Y-111385000D01*
X123088665Y-111385000D01*
X122811426Y-111440147D01*
X122550273Y-111548320D01*
X122315241Y-111705363D01*
X122115363Y-111905241D01*
X121960000Y-112137759D01*
X121804637Y-111905241D01*
X121604759Y-111705363D01*
X121369727Y-111548320D01*
X121108574Y-111440147D01*
X120831335Y-111385000D01*
X120548665Y-111385000D01*
X120271426Y-111440147D01*
X120010273Y-111548320D01*
X119775241Y-111705363D01*
X119575363Y-111905241D01*
X119420000Y-112137759D01*
X119264637Y-111905241D01*
X119064759Y-111705363D01*
X118829727Y-111548320D01*
X118568574Y-111440147D01*
X118291335Y-111385000D01*
X118008665Y-111385000D01*
X117731426Y-111440147D01*
X117470273Y-111548320D01*
X117235241Y-111705363D01*
X117035363Y-111905241D01*
X116880000Y-112137759D01*
X116724637Y-111905241D01*
X116524759Y-111705363D01*
X116289727Y-111548320D01*
X116028574Y-111440147D01*
X115751335Y-111385000D01*
X115468665Y-111385000D01*
X115191426Y-111440147D01*
X114930273Y-111548320D01*
X114695241Y-111705363D01*
X114495363Y-111905241D01*
X114340000Y-112137759D01*
X114184637Y-111905241D01*
X113984759Y-111705363D01*
X113749727Y-111548320D01*
X113488574Y-111440147D01*
X113211335Y-111385000D01*
X112928665Y-111385000D01*
X112746114Y-111421312D01*
X111760000Y-110435199D01*
X111760000Y-104351211D01*
X114651192Y-101460020D01*
X140085179Y-101460020D01*
X142336161Y-103711003D01*
X142359959Y-103740001D01*
X142388957Y-103763799D01*
X142475684Y-103834974D01*
X142607713Y-103905546D01*
X142750974Y-103949003D01*
X142899960Y-103963677D01*
X142937293Y-103960000D01*
X148471928Y-103960000D01*
X148471928Y-104050000D01*
X148484188Y-104174482D01*
X148520498Y-104294180D01*
X148579463Y-104404494D01*
X148658815Y-104501185D01*
X148755506Y-104580537D01*
X148865820Y-104639502D01*
X148985518Y-104675812D01*
X149110000Y-104688072D01*
X150810000Y-104688072D01*
X150934482Y-104675812D01*
X151054180Y-104639502D01*
X151164494Y-104580537D01*
X151261185Y-104501185D01*
X151340537Y-104404494D01*
X151399502Y-104294180D01*
X151420393Y-104225313D01*
X151444866Y-104255134D01*
X151670986Y-104440706D01*
X151928966Y-104578599D01*
X152208889Y-104663513D01*
X152427050Y-104685000D01*
X152572950Y-104685000D01*
X152791111Y-104663513D01*
X153071034Y-104578599D01*
X153329014Y-104440706D01*
X153555134Y-104255134D01*
X153740706Y-104029014D01*
X153770000Y-103974209D01*
X153799294Y-104029014D01*
X153984866Y-104255134D01*
X154210986Y-104440706D01*
X154468966Y-104578599D01*
X154748889Y-104663513D01*
X154967050Y-104685000D01*
X155112950Y-104685000D01*
X155331111Y-104663513D01*
X155611034Y-104578599D01*
X155869014Y-104440706D01*
X156095134Y-104255134D01*
X156280706Y-104029014D01*
X156418599Y-103771034D01*
X156503513Y-103491111D01*
X156532185Y-103200000D01*
X156503513Y-102908889D01*
X156418599Y-102628966D01*
X156280706Y-102370986D01*
X156095134Y-102144866D01*
X155869014Y-101959294D01*
X155611034Y-101821401D01*
X155331111Y-101736487D01*
X155112950Y-101715000D01*
X154967050Y-101715000D01*
X154748889Y-101736487D01*
X154468966Y-101821401D01*
X154210986Y-101959294D01*
X153984866Y-102144866D01*
X153799294Y-102370986D01*
X153770000Y-102425791D01*
X153740706Y-102370986D01*
X153555134Y-102144866D01*
X153329014Y-101959294D01*
X153071034Y-101821401D01*
X152791111Y-101736487D01*
X152572950Y-101715000D01*
X152427050Y-101715000D01*
X152208889Y-101736487D01*
X151928966Y-101821401D01*
X151670986Y-101959294D01*
X151444866Y-102144866D01*
X151420393Y-102174687D01*
X151399502Y-102105820D01*
X151340537Y-101995506D01*
X151261185Y-101898815D01*
X151164494Y-101819463D01*
X151054180Y-101760498D01*
X150934482Y-101724188D01*
X150810000Y-101711928D01*
X149110000Y-101711928D01*
X148985518Y-101724188D01*
X148865820Y-101760498D01*
X148755506Y-101819463D01*
X148658815Y-101898815D01*
X148579463Y-101995506D01*
X148520498Y-102105820D01*
X148484188Y-102225518D01*
X148471928Y-102350000D01*
X148471928Y-102440000D01*
X143214762Y-102440000D01*
X141142986Y-100368225D01*
X143951212Y-97560000D01*
X150914759Y-97560000D01*
X150952081Y-97563676D01*
X150989403Y-97560000D01*
X150989414Y-97560000D01*
X151101067Y-97549003D01*
X151244328Y-97505546D01*
X151376357Y-97434974D01*
X151492082Y-97340001D01*
X151515885Y-97310997D01*
X153011003Y-95815880D01*
X153040001Y-95792082D01*
X153106540Y-95711004D01*
X153134974Y-95676358D01*
X153205546Y-95544328D01*
X153221344Y-95492247D01*
X153249003Y-95401067D01*
X153256031Y-95329716D01*
X153329014Y-95290706D01*
X153555134Y-95105134D01*
X153740706Y-94879014D01*
X153770000Y-94824209D01*
X153799294Y-94879014D01*
X153984866Y-95105134D01*
X154210986Y-95290706D01*
X154468966Y-95428599D01*
X154748889Y-95513513D01*
X154967050Y-95535000D01*
X155112950Y-95535000D01*
X155331111Y-95513513D01*
X155611034Y-95428599D01*
X155869014Y-95290706D01*
X156095134Y-95105134D01*
X156280706Y-94879014D01*
X156418599Y-94621034D01*
X156503513Y-94341111D01*
X156532185Y-94050000D01*
X156503513Y-93758889D01*
X156418599Y-93478966D01*
X156280706Y-93220986D01*
X156095134Y-92994866D01*
X155869014Y-92809294D01*
X155611034Y-92671401D01*
X155331111Y-92586487D01*
X155112950Y-92565000D01*
X154967050Y-92565000D01*
X154748889Y-92586487D01*
X154468966Y-92671401D01*
X154210986Y-92809294D01*
X153984866Y-92994866D01*
X153799294Y-93220986D01*
X153770000Y-93275791D01*
X153740706Y-93220986D01*
X153555134Y-92994866D01*
X153329014Y-92809294D01*
X153071034Y-92671401D01*
X152791111Y-92586487D01*
X152572950Y-92565000D01*
X152427050Y-92565000D01*
X152208889Y-92586487D01*
X151928966Y-92671401D01*
X151670986Y-92809294D01*
X151444866Y-92994866D01*
X151420393Y-93024687D01*
X151399502Y-92955820D01*
X151340537Y-92845506D01*
X151261185Y-92748815D01*
X151164494Y-92669463D01*
X151054180Y-92610498D01*
X150934482Y-92574188D01*
X150810000Y-92561928D01*
X149110000Y-92561928D01*
X148985518Y-92574188D01*
X148865820Y-92610498D01*
X148755506Y-92669463D01*
X148658815Y-92748815D01*
X148579463Y-92845506D01*
X148520498Y-92955820D01*
X148484188Y-93075518D01*
X148471928Y-93200000D01*
X148471928Y-94900000D01*
X148484188Y-95024482D01*
X148520498Y-95144180D01*
X148579463Y-95254494D01*
X148658815Y-95351185D01*
X148755506Y-95430537D01*
X148865820Y-95489502D01*
X148985518Y-95525812D01*
X149110000Y-95538072D01*
X150810000Y-95538072D01*
X150934482Y-95525812D01*
X151054180Y-95489502D01*
X151164494Y-95430537D01*
X151261185Y-95351185D01*
X151340537Y-95254494D01*
X151399502Y-95144180D01*
X151420393Y-95075313D01*
X151444866Y-95105134D01*
X151514774Y-95162506D01*
X150637280Y-96040000D01*
X144834803Y-96040000D01*
X145111009Y-95763794D01*
X145140001Y-95740001D01*
X145163795Y-95711008D01*
X145163799Y-95711004D01*
X145234973Y-95624277D01*
X145234974Y-95624276D01*
X145305546Y-95492247D01*
X145349003Y-95348986D01*
X145360000Y-95237333D01*
X145360000Y-95237324D01*
X145363676Y-95200001D01*
X145360000Y-95162678D01*
X145360000Y-89114801D01*
X146414802Y-88060000D01*
X151264759Y-88060000D01*
X151302081Y-88063676D01*
X151339403Y-88060000D01*
X151339414Y-88060000D01*
X151451067Y-88049003D01*
X151594328Y-88005546D01*
X151726357Y-87934974D01*
X151842082Y-87840001D01*
X151865885Y-87810997D01*
X153011004Y-86665879D01*
X153040001Y-86642082D01*
X153134974Y-86526357D01*
X153205546Y-86394328D01*
X153249003Y-86251067D01*
X153256031Y-86179716D01*
X153329014Y-86140706D01*
X153555134Y-85955134D01*
X153740706Y-85729014D01*
X153770000Y-85674209D01*
X153799294Y-85729014D01*
X153984866Y-85955134D01*
X154210986Y-86140706D01*
X154468966Y-86278599D01*
X154748889Y-86363513D01*
X154967050Y-86385000D01*
X155112950Y-86385000D01*
X155331111Y-86363513D01*
X155611034Y-86278599D01*
X155869014Y-86140706D01*
X156095134Y-85955134D01*
X156280706Y-85729014D01*
X156418599Y-85471034D01*
X156503513Y-85191111D01*
X156532185Y-84900000D01*
X156503513Y-84608889D01*
X156418599Y-84328966D01*
X156280706Y-84070986D01*
X156095134Y-83844866D01*
X155869014Y-83659294D01*
X155611034Y-83521401D01*
X155331111Y-83436487D01*
X155112950Y-83415000D01*
X154967050Y-83415000D01*
X154748889Y-83436487D01*
X154468966Y-83521401D01*
X154210986Y-83659294D01*
X153984866Y-83844866D01*
X153799294Y-84070986D01*
X153770000Y-84125791D01*
X153740706Y-84070986D01*
X153555134Y-83844866D01*
X153329014Y-83659294D01*
X153071034Y-83521401D01*
X152791111Y-83436487D01*
X152572950Y-83415000D01*
X152427050Y-83415000D01*
X152208889Y-83436487D01*
X151928966Y-83521401D01*
X151670986Y-83659294D01*
X151444866Y-83844866D01*
X151420393Y-83874687D01*
X151399502Y-83805820D01*
X151340537Y-83695506D01*
X151261185Y-83598815D01*
X151164494Y-83519463D01*
X151054180Y-83460498D01*
X150934482Y-83424188D01*
X150810000Y-83411928D01*
X149110000Y-83411928D01*
X148985518Y-83424188D01*
X148865820Y-83460498D01*
X148755506Y-83519463D01*
X148658815Y-83598815D01*
X148579463Y-83695506D01*
X148520498Y-83805820D01*
X148484188Y-83925518D01*
X148471928Y-84050000D01*
X148471928Y-85750000D01*
X148484188Y-85874482D01*
X148520498Y-85994180D01*
X148579463Y-86104494D01*
X148658815Y-86201185D01*
X148755506Y-86280537D01*
X148865820Y-86339502D01*
X148985518Y-86375812D01*
X149110000Y-86388072D01*
X150810000Y-86388072D01*
X150934482Y-86375812D01*
X151054180Y-86339502D01*
X151164494Y-86280537D01*
X151261185Y-86201185D01*
X151340537Y-86104494D01*
X151399502Y-85994180D01*
X151420393Y-85925313D01*
X151444866Y-85955134D01*
X151514774Y-86012506D01*
X150987280Y-86540000D01*
X146137322Y-86540000D01*
X146099999Y-86536324D01*
X146062676Y-86540000D01*
X146062667Y-86540000D01*
X145951014Y-86550997D01*
X145807753Y-86594454D01*
X145675724Y-86665026D01*
X145559999Y-86759999D01*
X145536201Y-86788997D01*
X144088998Y-88236201D01*
X144060000Y-88259999D01*
X144036202Y-88288997D01*
X144036201Y-88288998D01*
X143965026Y-88375724D01*
X143894454Y-88507754D01*
X143866867Y-88598701D01*
X143850998Y-88651014D01*
X143846273Y-88698985D01*
X143836324Y-88800000D01*
X143840001Y-88837332D01*
X143840000Y-94885197D01*
X139685199Y-99040000D01*
X114000912Y-99040000D01*
X113963589Y-99036324D01*
X113926266Y-99040000D01*
X113926257Y-99040000D01*
X113814604Y-99050997D01*
X113671343Y-99094454D01*
X113539314Y-99165026D01*
X113539312Y-99165027D01*
X113539313Y-99165027D01*
X113452586Y-99236201D01*
X113452582Y-99236205D01*
X113423589Y-99259999D01*
X113399795Y-99288992D01*
X109568989Y-103119800D01*
X109539991Y-103143598D01*
X109516193Y-103172596D01*
X109516192Y-103172597D01*
X109445017Y-103259323D01*
X109374445Y-103391353D01*
X109330989Y-103534614D01*
X109316315Y-103683599D01*
X109319992Y-103720931D01*
X109319990Y-110415208D01*
X108313886Y-111421312D01*
X108131335Y-111385000D01*
X107848665Y-111385000D01*
X107571426Y-111440147D01*
X107310273Y-111548320D01*
X107075241Y-111705363D01*
X106875363Y-111905241D01*
X106720000Y-112137759D01*
X106564637Y-111905241D01*
X106364759Y-111705363D01*
X106129727Y-111548320D01*
X105868574Y-111440147D01*
X105591335Y-111385000D01*
X105308665Y-111385000D01*
X105031426Y-111440147D01*
X104770273Y-111548320D01*
X104535241Y-111705363D01*
X104335363Y-111905241D01*
X104180000Y-112137759D01*
X104024637Y-111905241D01*
X103824759Y-111705363D01*
X103589727Y-111548320D01*
X103328574Y-111440147D01*
X103051335Y-111385000D01*
X102768665Y-111385000D01*
X102491426Y-111440147D01*
X102230273Y-111548320D01*
X101995241Y-111705363D01*
X101795363Y-111905241D01*
X101640000Y-112137759D01*
X101484637Y-111905241D01*
X101284759Y-111705363D01*
X101049727Y-111548320D01*
X100788574Y-111440147D01*
X100511335Y-111385000D01*
X100228665Y-111385000D01*
X99951426Y-111440147D01*
X99690273Y-111548320D01*
X99455241Y-111705363D01*
X99255363Y-111905241D01*
X99100000Y-112137759D01*
X98944637Y-111905241D01*
X98744759Y-111705363D01*
X98509727Y-111548320D01*
X98248574Y-111440147D01*
X97971335Y-111385000D01*
X97688665Y-111385000D01*
X97411426Y-111440147D01*
X97150273Y-111548320D01*
X96915241Y-111705363D01*
X96716643Y-111903961D01*
X96715812Y-111895518D01*
X96679502Y-111775820D01*
X96620537Y-111665506D01*
X96541185Y-111568815D01*
X96444494Y-111489463D01*
X96334180Y-111430498D01*
X96214482Y-111394188D01*
X96090000Y-111381928D01*
X94490000Y-111381928D01*
X94365518Y-111394188D01*
X94245820Y-111430498D01*
X94135506Y-111489463D01*
X94038815Y-111568815D01*
X93959463Y-111665506D01*
X93900498Y-111775820D01*
X93864188Y-111895518D01*
X93851928Y-112020000D01*
X92998611Y-112020000D01*
X92998611Y-97438665D01*
X93855000Y-97438665D01*
X93855000Y-97721335D01*
X93910147Y-97998574D01*
X94018320Y-98259727D01*
X94175363Y-98494759D01*
X94375241Y-98694637D01*
X94610273Y-98851680D01*
X94871426Y-98959853D01*
X95148665Y-99015000D01*
X95431335Y-99015000D01*
X95708574Y-98959853D01*
X95969727Y-98851680D01*
X96204759Y-98694637D01*
X96404637Y-98494759D01*
X96560000Y-98262241D01*
X96715363Y-98494759D01*
X96915241Y-98694637D01*
X97150273Y-98851680D01*
X97411426Y-98959853D01*
X97688665Y-99015000D01*
X97971335Y-99015000D01*
X98248574Y-98959853D01*
X98509727Y-98851680D01*
X98744759Y-98694637D01*
X98944637Y-98494759D01*
X99101680Y-98259727D01*
X99209853Y-97998574D01*
X99265000Y-97721335D01*
X99265000Y-97438665D01*
X101475000Y-97438665D01*
X101475000Y-97721335D01*
X101530147Y-97998574D01*
X101638320Y-98259727D01*
X101795363Y-98494759D01*
X101995241Y-98694637D01*
X102230273Y-98851680D01*
X102491426Y-98959853D01*
X102768665Y-99015000D01*
X103051335Y-99015000D01*
X103328574Y-98959853D01*
X103589727Y-98851680D01*
X103824759Y-98694637D01*
X104024637Y-98494759D01*
X104180000Y-98262241D01*
X104335363Y-98494759D01*
X104535241Y-98694637D01*
X104770273Y-98851680D01*
X105031426Y-98959853D01*
X105308665Y-99015000D01*
X105591335Y-99015000D01*
X105868574Y-98959853D01*
X106129727Y-98851680D01*
X106364759Y-98694637D01*
X106564637Y-98494759D01*
X106720000Y-98262241D01*
X106875363Y-98494759D01*
X107075241Y-98694637D01*
X107310273Y-98851680D01*
X107571426Y-98959853D01*
X107848665Y-99015000D01*
X108131335Y-99015000D01*
X108408574Y-98959853D01*
X108669727Y-98851680D01*
X108904759Y-98694637D01*
X109104637Y-98494759D01*
X109260000Y-98262241D01*
X109415363Y-98494759D01*
X109615241Y-98694637D01*
X109850273Y-98851680D01*
X110111426Y-98959853D01*
X110388665Y-99015000D01*
X110671335Y-99015000D01*
X110948574Y-98959853D01*
X111209727Y-98851680D01*
X111444759Y-98694637D01*
X111644637Y-98494759D01*
X111800000Y-98262241D01*
X111955363Y-98494759D01*
X112155241Y-98694637D01*
X112390273Y-98851680D01*
X112651426Y-98959853D01*
X112928665Y-99015000D01*
X113211335Y-99015000D01*
X113488574Y-98959853D01*
X113749727Y-98851680D01*
X113984759Y-98694637D01*
X114184637Y-98494759D01*
X114340000Y-98262241D01*
X114495363Y-98494759D01*
X114695241Y-98694637D01*
X114930273Y-98851680D01*
X115191426Y-98959853D01*
X115468665Y-99015000D01*
X115751335Y-99015000D01*
X116028574Y-98959853D01*
X116289727Y-98851680D01*
X116524759Y-98694637D01*
X116724637Y-98494759D01*
X116880000Y-98262241D01*
X117035363Y-98494759D01*
X117235241Y-98694637D01*
X117470273Y-98851680D01*
X117731426Y-98959853D01*
X118008665Y-99015000D01*
X118291335Y-99015000D01*
X118568574Y-98959853D01*
X118829727Y-98851680D01*
X119064759Y-98694637D01*
X119264637Y-98494759D01*
X119420000Y-98262241D01*
X119575363Y-98494759D01*
X119775241Y-98694637D01*
X120010273Y-98851680D01*
X120271426Y-98959853D01*
X120548665Y-99015000D01*
X120831335Y-99015000D01*
X121108574Y-98959853D01*
X121369727Y-98851680D01*
X121604759Y-98694637D01*
X121804637Y-98494759D01*
X121960000Y-98262241D01*
X122115363Y-98494759D01*
X122315241Y-98694637D01*
X122550273Y-98851680D01*
X122811426Y-98959853D01*
X123088665Y-99015000D01*
X123371335Y-99015000D01*
X123648574Y-98959853D01*
X123909727Y-98851680D01*
X124144759Y-98694637D01*
X124344637Y-98494759D01*
X124500000Y-98262241D01*
X124655363Y-98494759D01*
X124855241Y-98694637D01*
X125090273Y-98851680D01*
X125351426Y-98959853D01*
X125628665Y-99015000D01*
X125911335Y-99015000D01*
X126188574Y-98959853D01*
X126449727Y-98851680D01*
X126684759Y-98694637D01*
X126884637Y-98494759D01*
X127040000Y-98262241D01*
X127195363Y-98494759D01*
X127395241Y-98694637D01*
X127630273Y-98851680D01*
X127891426Y-98959853D01*
X128168665Y-99015000D01*
X128451335Y-99015000D01*
X128728574Y-98959853D01*
X128989727Y-98851680D01*
X129224759Y-98694637D01*
X129424637Y-98494759D01*
X129581680Y-98259727D01*
X129689853Y-97998574D01*
X129745000Y-97721335D01*
X129745000Y-97438665D01*
X129689853Y-97161426D01*
X129581680Y-96900273D01*
X129424637Y-96665241D01*
X129224759Y-96465363D01*
X128989727Y-96308320D01*
X128728574Y-96200147D01*
X128451335Y-96145000D01*
X128168665Y-96145000D01*
X127891426Y-96200147D01*
X127630273Y-96308320D01*
X127395241Y-96465363D01*
X127195363Y-96665241D01*
X127040000Y-96897759D01*
X126884637Y-96665241D01*
X126684759Y-96465363D01*
X126530000Y-96361957D01*
X126530000Y-95544801D01*
X128114802Y-93960000D01*
X134962678Y-93960000D01*
X135000000Y-93963676D01*
X135037322Y-93960000D01*
X135037333Y-93960000D01*
X135148986Y-93949003D01*
X135292247Y-93905546D01*
X135424276Y-93834974D01*
X135540001Y-93740001D01*
X135563804Y-93710997D01*
X137352302Y-91922500D01*
X138332155Y-91922500D01*
X138420208Y-92029792D01*
X138505756Y-92100000D01*
X138420208Y-92170208D01*
X138310542Y-92303836D01*
X138229053Y-92456291D01*
X138178872Y-92621715D01*
X138161928Y-92793750D01*
X138161928Y-93281250D01*
X138178872Y-93453285D01*
X138229053Y-93618709D01*
X138310542Y-93771164D01*
X138420208Y-93904792D01*
X138553836Y-94014458D01*
X138706291Y-94095947D01*
X138871715Y-94146128D01*
X139043750Y-94163072D01*
X139956250Y-94163072D01*
X140128285Y-94146128D01*
X140293709Y-94095947D01*
X140446164Y-94014458D01*
X140579792Y-93904792D01*
X140667845Y-93797500D01*
X141033789Y-93797500D01*
X141077726Y-93841437D01*
X141247244Y-93954705D01*
X141435602Y-94032726D01*
X141635561Y-94072500D01*
X141839439Y-94072500D01*
X142039398Y-94032726D01*
X142227756Y-93954705D01*
X142397274Y-93841437D01*
X142541437Y-93697274D01*
X142654705Y-93527756D01*
X142732726Y-93339398D01*
X142772500Y-93139439D01*
X142772500Y-92935561D01*
X142732726Y-92735602D01*
X142654705Y-92547244D01*
X142541437Y-92377726D01*
X142397274Y-92233563D01*
X142227756Y-92120295D01*
X142039398Y-92042274D01*
X141839439Y-92002500D01*
X141635561Y-92002500D01*
X141435602Y-92042274D01*
X141247244Y-92120295D01*
X141077726Y-92233563D01*
X141033789Y-92277500D01*
X140667845Y-92277500D01*
X140579792Y-92170208D01*
X140494244Y-92100000D01*
X140579792Y-92029792D01*
X140689458Y-91896164D01*
X140770947Y-91743709D01*
X140821128Y-91578285D01*
X140838072Y-91406250D01*
X140838072Y-90918750D01*
X140821128Y-90746715D01*
X140770947Y-90581291D01*
X140700433Y-90449369D01*
X141186004Y-89963798D01*
X141215001Y-89940001D01*
X141249902Y-89897474D01*
X141309974Y-89824277D01*
X141380546Y-89692247D01*
X141397911Y-89635000D01*
X141424003Y-89548986D01*
X141435000Y-89437333D01*
X141435000Y-89437323D01*
X141438676Y-89400000D01*
X141435000Y-89362677D01*
X141435000Y-87639801D01*
X142452341Y-86622461D01*
X142469463Y-86654494D01*
X142548815Y-86751185D01*
X142645506Y-86830537D01*
X142755820Y-86889502D01*
X142875518Y-86925812D01*
X143000000Y-86938072D01*
X144000000Y-86938072D01*
X144124482Y-86925812D01*
X144244180Y-86889502D01*
X144354494Y-86830537D01*
X144451185Y-86751185D01*
X144530537Y-86654494D01*
X144589502Y-86544180D01*
X144625812Y-86424482D01*
X144638072Y-86300000D01*
X144638072Y-84600000D01*
X144625812Y-84475518D01*
X144589502Y-84355820D01*
X144530537Y-84245506D01*
X144451185Y-84148815D01*
X144354494Y-84069463D01*
X144260000Y-84018954D01*
X144260000Y-80581046D01*
X144354494Y-80530537D01*
X144451185Y-80451185D01*
X144530537Y-80354494D01*
X144589502Y-80244180D01*
X144625812Y-80124482D01*
X144638072Y-80000000D01*
X144638072Y-78300000D01*
X144625812Y-78175518D01*
X144589502Y-78055820D01*
X144530537Y-77945506D01*
X144451185Y-77848815D01*
X144354494Y-77769463D01*
X144244180Y-77710498D01*
X144124482Y-77674188D01*
X144000000Y-77661928D01*
X143000000Y-77661928D01*
X142875518Y-77674188D01*
X142755820Y-77710498D01*
X142645506Y-77769463D01*
X142548815Y-77848815D01*
X142469463Y-77945506D01*
X142410498Y-78055820D01*
X142374188Y-78175518D01*
X142361928Y-78300000D01*
X142361928Y-80000000D01*
X142374188Y-80124482D01*
X142410498Y-80244180D01*
X142469463Y-80354494D01*
X142548815Y-80451185D01*
X142645506Y-80530537D01*
X142740000Y-80581046D01*
X142740001Y-84018954D01*
X142645506Y-84069463D01*
X142548815Y-84148815D01*
X142469463Y-84245506D01*
X142410498Y-84355820D01*
X142374188Y-84475518D01*
X142361928Y-84600000D01*
X142361928Y-84712853D01*
X142257753Y-84744454D01*
X142125724Y-84815026D01*
X142125722Y-84815027D01*
X142125723Y-84815027D01*
X142038996Y-84886201D01*
X142038992Y-84886205D01*
X142009999Y-84909999D01*
X141986205Y-84938992D01*
X140163998Y-86761201D01*
X140135000Y-86784999D01*
X140111202Y-86813997D01*
X140111201Y-86813998D01*
X140040026Y-86900724D01*
X139969454Y-87032754D01*
X139925998Y-87176015D01*
X139911324Y-87325000D01*
X139915001Y-87362332D01*
X139915000Y-89085198D01*
X138988998Y-90011201D01*
X138960000Y-90034999D01*
X138950913Y-90046072D01*
X138871715Y-90053872D01*
X138706291Y-90104053D01*
X138553836Y-90185542D01*
X138420208Y-90295208D01*
X138332155Y-90402500D01*
X137074822Y-90402500D01*
X137037499Y-90398824D01*
X137000176Y-90402500D01*
X137000167Y-90402500D01*
X136888514Y-90413497D01*
X136745253Y-90456954D01*
X136613223Y-90527526D01*
X136547711Y-90581291D01*
X136497499Y-90622499D01*
X136473701Y-90651497D01*
X134685199Y-92440000D01*
X127837333Y-92440000D01*
X127800000Y-92436323D01*
X127762667Y-92440000D01*
X127651014Y-92450997D01*
X127507753Y-92494454D01*
X127375724Y-92565026D01*
X127259999Y-92659999D01*
X127236201Y-92688997D01*
X125258998Y-94666201D01*
X125230000Y-94689999D01*
X125206202Y-94718997D01*
X125206201Y-94718998D01*
X125135026Y-94805724D01*
X125064454Y-94937754D01*
X125020998Y-95081015D01*
X125006324Y-95230000D01*
X125010001Y-95267332D01*
X125010001Y-96361956D01*
X124855241Y-96465363D01*
X124655363Y-96665241D01*
X124500000Y-96897759D01*
X124344637Y-96665241D01*
X124144759Y-96465363D01*
X123909727Y-96308320D01*
X123648574Y-96200147D01*
X123371335Y-96145000D01*
X123088665Y-96145000D01*
X122811426Y-96200147D01*
X122550273Y-96308320D01*
X122315241Y-96465363D01*
X122115363Y-96665241D01*
X121960000Y-96897759D01*
X121804637Y-96665241D01*
X121604759Y-96465363D01*
X121369727Y-96308320D01*
X121108574Y-96200147D01*
X120831335Y-96145000D01*
X120548665Y-96145000D01*
X120271426Y-96200147D01*
X120010273Y-96308320D01*
X119775241Y-96465363D01*
X119575363Y-96665241D01*
X119420000Y-96897759D01*
X119264637Y-96665241D01*
X119064759Y-96465363D01*
X118829727Y-96308320D01*
X118568574Y-96200147D01*
X118291335Y-96145000D01*
X118008665Y-96145000D01*
X117731426Y-96200147D01*
X117470273Y-96308320D01*
X117235241Y-96465363D01*
X117035363Y-96665241D01*
X116880000Y-96897759D01*
X116724637Y-96665241D01*
X116524759Y-96465363D01*
X116289727Y-96308320D01*
X116028574Y-96200147D01*
X115751335Y-96145000D01*
X115468665Y-96145000D01*
X115191426Y-96200147D01*
X114930273Y-96308320D01*
X114695241Y-96465363D01*
X114495363Y-96665241D01*
X114340000Y-96897759D01*
X114184637Y-96665241D01*
X113984759Y-96465363D01*
X113749727Y-96308320D01*
X113488574Y-96200147D01*
X113211335Y-96145000D01*
X112928665Y-96145000D01*
X112651426Y-96200147D01*
X112390273Y-96308320D01*
X112155241Y-96465363D01*
X111955363Y-96665241D01*
X111800000Y-96897759D01*
X111644637Y-96665241D01*
X111444759Y-96465363D01*
X111290000Y-96361957D01*
X111290000Y-93598061D01*
X115165000Y-93598061D01*
X115165000Y-93801939D01*
X115204774Y-94001898D01*
X115282795Y-94190256D01*
X115396063Y-94359774D01*
X115540226Y-94503937D01*
X115709744Y-94617205D01*
X115898102Y-94695226D01*
X116098061Y-94735000D01*
X116301939Y-94735000D01*
X116501898Y-94695226D01*
X116690256Y-94617205D01*
X116859774Y-94503937D01*
X117003937Y-94359774D01*
X117070604Y-94260000D01*
X117093827Y-94260000D01*
X117104053Y-94293709D01*
X117185542Y-94446164D01*
X117295208Y-94579792D01*
X117428836Y-94689458D01*
X117581291Y-94770947D01*
X117746715Y-94821128D01*
X117918750Y-94838072D01*
X118406250Y-94838072D01*
X118578285Y-94821128D01*
X118743709Y-94770947D01*
X118896164Y-94689458D01*
X119029792Y-94579792D01*
X119100000Y-94494244D01*
X119170208Y-94579792D01*
X119303836Y-94689458D01*
X119456291Y-94770947D01*
X119621715Y-94821128D01*
X119793750Y-94838072D01*
X120281250Y-94838072D01*
X120453285Y-94821128D01*
X120618709Y-94770947D01*
X120771164Y-94689458D01*
X120904792Y-94579792D01*
X121014458Y-94446164D01*
X121095947Y-94293709D01*
X121146128Y-94128285D01*
X121163072Y-93956250D01*
X121163072Y-93043750D01*
X121146128Y-92871715D01*
X121095947Y-92706291D01*
X121014458Y-92553836D01*
X120904792Y-92420208D01*
X120860000Y-92383448D01*
X120860000Y-90788072D01*
X121000000Y-90788072D01*
X121124482Y-90775812D01*
X121244180Y-90739502D01*
X121354494Y-90680537D01*
X121451185Y-90601185D01*
X121530537Y-90504494D01*
X121589502Y-90394180D01*
X121625812Y-90274482D01*
X121638072Y-90150000D01*
X121638072Y-88498061D01*
X126965000Y-88498061D01*
X126965000Y-88701939D01*
X127004774Y-88901898D01*
X127082795Y-89090256D01*
X127196063Y-89259774D01*
X127340226Y-89403937D01*
X127509744Y-89517205D01*
X127698102Y-89595226D01*
X127898061Y-89635000D01*
X128101939Y-89635000D01*
X128301898Y-89595226D01*
X128490256Y-89517205D01*
X128659774Y-89403937D01*
X128753711Y-89310000D01*
X129961928Y-89310000D01*
X129961928Y-90150000D01*
X129974188Y-90274482D01*
X130010498Y-90394180D01*
X130069463Y-90504494D01*
X130148815Y-90601185D01*
X130245506Y-90680537D01*
X130355820Y-90739502D01*
X130475518Y-90775812D01*
X130600000Y-90788072D01*
X132400000Y-90788072D01*
X132524482Y-90775812D01*
X132644180Y-90739502D01*
X132754494Y-90680537D01*
X132851185Y-90601185D01*
X132930537Y-90504494D01*
X132989502Y-90394180D01*
X133025812Y-90274482D01*
X133038072Y-90150000D01*
X133038072Y-86950000D01*
X133025812Y-86825518D01*
X132989502Y-86705820D01*
X132930537Y-86595506D01*
X132851185Y-86498815D01*
X132754494Y-86419463D01*
X132644180Y-86360498D01*
X132524482Y-86324188D01*
X132400000Y-86311928D01*
X130600000Y-86311928D01*
X130475518Y-86324188D01*
X130355820Y-86360498D01*
X130245506Y-86419463D01*
X130148815Y-86498815D01*
X130069463Y-86595506D01*
X130010498Y-86705820D01*
X129974188Y-86825518D01*
X129961928Y-86950000D01*
X129961928Y-87790000D01*
X128650700Y-87790000D01*
X128490256Y-87682795D01*
X128301898Y-87604774D01*
X128101939Y-87565000D01*
X127898061Y-87565000D01*
X127698102Y-87604774D01*
X127509744Y-87682795D01*
X127340226Y-87796063D01*
X127196063Y-87940226D01*
X127082795Y-88109744D01*
X127004774Y-88298102D01*
X126965000Y-88498061D01*
X121638072Y-88498061D01*
X121638072Y-86950000D01*
X121625812Y-86825518D01*
X121589502Y-86705820D01*
X121530537Y-86595506D01*
X121451185Y-86498815D01*
X121354494Y-86419463D01*
X121244180Y-86360498D01*
X121124482Y-86324188D01*
X121000000Y-86311928D01*
X119200000Y-86311928D01*
X119075518Y-86324188D01*
X118955820Y-86360498D01*
X118845506Y-86419463D01*
X118748815Y-86498815D01*
X118669463Y-86595506D01*
X118610498Y-86705820D01*
X118574188Y-86825518D01*
X118561928Y-86950000D01*
X118561928Y-90150000D01*
X118574188Y-90274482D01*
X118610498Y-90394180D01*
X118669463Y-90504494D01*
X118748815Y-90601185D01*
X118845506Y-90680537D01*
X118955820Y-90739502D01*
X119075518Y-90775812D01*
X119200000Y-90788072D01*
X119340000Y-90788072D01*
X119340001Y-92291212D01*
X119303836Y-92310542D01*
X119170208Y-92420208D01*
X119100000Y-92505756D01*
X119029792Y-92420208D01*
X118896164Y-92310542D01*
X118743709Y-92229053D01*
X118578285Y-92178872D01*
X118406250Y-92161928D01*
X117918750Y-92161928D01*
X117746715Y-92178872D01*
X117581291Y-92229053D01*
X117428836Y-92310542D01*
X117295208Y-92420208D01*
X117185542Y-92553836D01*
X117104053Y-92706291D01*
X117093827Y-92740000D01*
X116586940Y-92740000D01*
X116501898Y-92704774D01*
X116301939Y-92665000D01*
X116098061Y-92665000D01*
X115898102Y-92704774D01*
X115709744Y-92782795D01*
X115540226Y-92896063D01*
X115396063Y-93040226D01*
X115282795Y-93209744D01*
X115204774Y-93398102D01*
X115165000Y-93598061D01*
X111290000Y-93598061D01*
X111290000Y-93184801D01*
X112497581Y-91977221D01*
X112520208Y-92004792D01*
X112653836Y-92114458D01*
X112806291Y-92195947D01*
X112971715Y-92246128D01*
X113143750Y-92263072D01*
X114056250Y-92263072D01*
X114228285Y-92246128D01*
X114393709Y-92195947D01*
X114546164Y-92114458D01*
X114679792Y-92004792D01*
X114789458Y-91871164D01*
X114870947Y-91718709D01*
X114921128Y-91553285D01*
X114938072Y-91381250D01*
X114938072Y-90893750D01*
X114921128Y-90721715D01*
X114870947Y-90556291D01*
X114789458Y-90403836D01*
X114679792Y-90270208D01*
X114594244Y-90200000D01*
X114679792Y-90129792D01*
X114789458Y-89996164D01*
X114870947Y-89843709D01*
X114921128Y-89678285D01*
X114938072Y-89506250D01*
X114938072Y-89018750D01*
X114921128Y-88846715D01*
X114870947Y-88681291D01*
X114789458Y-88528836D01*
X114679792Y-88395208D01*
X114546164Y-88285542D01*
X114460000Y-88239486D01*
X114460000Y-82306173D01*
X114493709Y-82295947D01*
X114646164Y-82214458D01*
X114779792Y-82104792D01*
X114889458Y-81971164D01*
X114970947Y-81818709D01*
X115021128Y-81653285D01*
X115038072Y-81481250D01*
X115038072Y-80993750D01*
X115021128Y-80821715D01*
X114970947Y-80656291D01*
X114889458Y-80503836D01*
X114779792Y-80370208D01*
X114646164Y-80260542D01*
X114493709Y-80179053D01*
X114328285Y-80128872D01*
X114156250Y-80111928D01*
X113243750Y-80111928D01*
X113071715Y-80128872D01*
X112906291Y-80179053D01*
X112753836Y-80260542D01*
X112620208Y-80370208D01*
X112510542Y-80503836D01*
X112429053Y-80656291D01*
X112378872Y-80821715D01*
X112361928Y-80993750D01*
X112361928Y-81481250D01*
X112378872Y-81653285D01*
X112429053Y-81818709D01*
X112510542Y-81971164D01*
X112620208Y-82104792D01*
X112753836Y-82214458D01*
X112906291Y-82295947D01*
X112940000Y-82306173D01*
X112940001Y-88163492D01*
X112806291Y-88204053D01*
X112653836Y-88285542D01*
X112520208Y-88395208D01*
X112410542Y-88528836D01*
X112329053Y-88681291D01*
X112278872Y-88846715D01*
X112261928Y-89018750D01*
X112261928Y-89506250D01*
X112278872Y-89678285D01*
X112329053Y-89843709D01*
X112410542Y-89996164D01*
X112520208Y-90129792D01*
X112605756Y-90200000D01*
X112520208Y-90270208D01*
X112432155Y-90377500D01*
X112299822Y-90377500D01*
X112262500Y-90373824D01*
X112225177Y-90377500D01*
X112225167Y-90377500D01*
X112113514Y-90388497D01*
X111989835Y-90426014D01*
X111970253Y-90431954D01*
X111838223Y-90502526D01*
X111772711Y-90556291D01*
X111722499Y-90597499D01*
X111698701Y-90626497D01*
X110019003Y-92306196D01*
X109989999Y-92329999D01*
X109950831Y-92377726D01*
X109895026Y-92445724D01*
X109840762Y-92547244D01*
X109824454Y-92577754D01*
X109780997Y-92721015D01*
X109770000Y-92832668D01*
X109770000Y-92832678D01*
X109766324Y-92870000D01*
X109770000Y-92907323D01*
X109770000Y-93392668D01*
X109770001Y-94359774D01*
X109770001Y-95232658D01*
X109770000Y-95232668D01*
X109770000Y-96361956D01*
X109615241Y-96465363D01*
X109415363Y-96665241D01*
X109260000Y-96897759D01*
X109104637Y-96665241D01*
X108904759Y-96465363D01*
X108669727Y-96308320D01*
X108408574Y-96200147D01*
X108131335Y-96145000D01*
X107848665Y-96145000D01*
X107571426Y-96200147D01*
X107310273Y-96308320D01*
X107075241Y-96465363D01*
X106875363Y-96665241D01*
X106720000Y-96897759D01*
X106564637Y-96665241D01*
X106364759Y-96465363D01*
X106129727Y-96308320D01*
X105868574Y-96200147D01*
X105591335Y-96145000D01*
X105308665Y-96145000D01*
X105031426Y-96200147D01*
X104770273Y-96308320D01*
X104535241Y-96465363D01*
X104335363Y-96665241D01*
X104180000Y-96897759D01*
X104024637Y-96665241D01*
X103824759Y-96465363D01*
X103589727Y-96308320D01*
X103328574Y-96200147D01*
X103051335Y-96145000D01*
X102768665Y-96145000D01*
X102491426Y-96200147D01*
X102230273Y-96308320D01*
X101995241Y-96465363D01*
X101795363Y-96665241D01*
X101638320Y-96900273D01*
X101530147Y-97161426D01*
X101475000Y-97438665D01*
X99265000Y-97438665D01*
X99209853Y-97161426D01*
X99101680Y-96900273D01*
X98944637Y-96665241D01*
X98744759Y-96465363D01*
X98509727Y-96308320D01*
X98248574Y-96200147D01*
X97971335Y-96145000D01*
X97688665Y-96145000D01*
X97411426Y-96200147D01*
X97150273Y-96308320D01*
X96915241Y-96465363D01*
X96715363Y-96665241D01*
X96560000Y-96897759D01*
X96404637Y-96665241D01*
X96204759Y-96465363D01*
X95969727Y-96308320D01*
X95708574Y-96200147D01*
X95431335Y-96145000D01*
X95148665Y-96145000D01*
X94871426Y-96200147D01*
X94610273Y-96308320D01*
X94375241Y-96465363D01*
X94175363Y-96665241D01*
X94018320Y-96900273D01*
X93910147Y-97161426D01*
X93855000Y-97438665D01*
X92998611Y-97438665D01*
X92998611Y-91198061D01*
X94465000Y-91198061D01*
X94465000Y-91401939D01*
X94504774Y-91601898D01*
X94582795Y-91790256D01*
X94696063Y-91959774D01*
X94840226Y-92103937D01*
X95009744Y-92217205D01*
X95198102Y-92295226D01*
X95398061Y-92335000D01*
X95601939Y-92335000D01*
X95801898Y-92295226D01*
X95990256Y-92217205D01*
X96159774Y-92103937D01*
X96303937Y-91959774D01*
X96417205Y-91790256D01*
X96495226Y-91601898D01*
X96496101Y-91597500D01*
X96632155Y-91597500D01*
X96720208Y-91704792D01*
X96853836Y-91814458D01*
X97006291Y-91895947D01*
X97171715Y-91946128D01*
X97343750Y-91963072D01*
X98256250Y-91963072D01*
X98428285Y-91946128D01*
X98593709Y-91895947D01*
X98746164Y-91814458D01*
X98879792Y-91704792D01*
X98989458Y-91571164D01*
X99070947Y-91418709D01*
X99121128Y-91253285D01*
X99138072Y-91081250D01*
X99138072Y-90593750D01*
X99121128Y-90421715D01*
X99070947Y-90256291D01*
X98989458Y-90103836D01*
X98879792Y-89970208D01*
X98794244Y-89900000D01*
X98879792Y-89829792D01*
X98989458Y-89696164D01*
X99070947Y-89543709D01*
X99121128Y-89378285D01*
X99138072Y-89206250D01*
X99138072Y-88718750D01*
X99121128Y-88546715D01*
X99070947Y-88381291D01*
X98989458Y-88228836D01*
X98879792Y-88095208D01*
X98746164Y-87985542D01*
X98593709Y-87904053D01*
X98560000Y-87893827D01*
X98560000Y-83952301D01*
X100149230Y-82363072D01*
X100656250Y-82363072D01*
X100828285Y-82346128D01*
X100993709Y-82295947D01*
X101146164Y-82214458D01*
X101279792Y-82104792D01*
X101389458Y-81971164D01*
X101470947Y-81818709D01*
X101521128Y-81653285D01*
X101538072Y-81481250D01*
X101538072Y-80993750D01*
X101521128Y-80821715D01*
X101470947Y-80656291D01*
X101389458Y-80503836D01*
X101279792Y-80370208D01*
X101146164Y-80260542D01*
X100993709Y-80179053D01*
X100828285Y-80128872D01*
X100656250Y-80111928D01*
X99743750Y-80111928D01*
X99571715Y-80128872D01*
X99406291Y-80179053D01*
X99253836Y-80260542D01*
X99120208Y-80370208D01*
X99010542Y-80503836D01*
X98929053Y-80656291D01*
X98878872Y-80821715D01*
X98861928Y-80993750D01*
X98861928Y-81481250D01*
X98863678Y-81499020D01*
X97288998Y-83073701D01*
X97260000Y-83097499D01*
X97236202Y-83126497D01*
X97236201Y-83126498D01*
X97165026Y-83213224D01*
X97094454Y-83345254D01*
X97073298Y-83415000D01*
X97059497Y-83460498D01*
X97050998Y-83488515D01*
X97036324Y-83637500D01*
X97040001Y-83674832D01*
X97040000Y-87893827D01*
X97006291Y-87904053D01*
X96853836Y-87985542D01*
X96720208Y-88095208D01*
X96610542Y-88228836D01*
X96529053Y-88381291D01*
X96478872Y-88546715D01*
X96461928Y-88718750D01*
X96461928Y-89206250D01*
X96478872Y-89378285D01*
X96529053Y-89543709D01*
X96610542Y-89696164D01*
X96720208Y-89829792D01*
X96805756Y-89900000D01*
X96720208Y-89970208D01*
X96632155Y-90077500D01*
X95999825Y-90077500D01*
X95962500Y-90073824D01*
X95925175Y-90077500D01*
X95925167Y-90077500D01*
X95813514Y-90088497D01*
X95670253Y-90131954D01*
X95538224Y-90202526D01*
X95462099Y-90265000D01*
X95398061Y-90265000D01*
X95198102Y-90304774D01*
X95009744Y-90382795D01*
X94840226Y-90496063D01*
X94696063Y-90640226D01*
X94582795Y-90809744D01*
X94504774Y-90998102D01*
X94465000Y-91198061D01*
X92998611Y-91198061D01*
X92998611Y-79137574D01*
X93097821Y-79377089D01*
X93369774Y-79784095D01*
X93715905Y-80130226D01*
X94122911Y-80402179D01*
X94575152Y-80589503D01*
X95055249Y-80685000D01*
X95544751Y-80685000D01*
X95817718Y-80630704D01*
X95304951Y-81143471D01*
X95271184Y-81171183D01*
X95243471Y-81204951D01*
X95243468Y-81204954D01*
X95160590Y-81305941D01*
X95078412Y-81459687D01*
X95027805Y-81626510D01*
X95010719Y-81800000D01*
X95015001Y-81843479D01*
X95015000Y-86233421D01*
X94854956Y-86393465D01*
X94798102Y-86404774D01*
X94609744Y-86482795D01*
X94440226Y-86596063D01*
X94296063Y-86740226D01*
X94182795Y-86909744D01*
X94104774Y-87098102D01*
X94065000Y-87298061D01*
X94065000Y-87501939D01*
X94104774Y-87701898D01*
X94182795Y-87890256D01*
X94296063Y-88059774D01*
X94440226Y-88203937D01*
X94609744Y-88317205D01*
X94798102Y-88395226D01*
X94998061Y-88435000D01*
X95201939Y-88435000D01*
X95401898Y-88395226D01*
X95590256Y-88317205D01*
X95759774Y-88203937D01*
X95903937Y-88059774D01*
X96017205Y-87890256D01*
X96095226Y-87701898D01*
X96106535Y-87645044D01*
X96495050Y-87256529D01*
X96528817Y-87228817D01*
X96639411Y-87094059D01*
X96721589Y-86940313D01*
X96772195Y-86773490D01*
X96785000Y-86643477D01*
X96785000Y-86643469D01*
X96789281Y-86600000D01*
X96785000Y-86556531D01*
X96785000Y-82166578D01*
X98795050Y-80156529D01*
X98828817Y-80128817D01*
X98939411Y-79994059D01*
X99021589Y-79840313D01*
X99072195Y-79673490D01*
X99085000Y-79543477D01*
X99085000Y-79543467D01*
X99089281Y-79500001D01*
X99085000Y-79456535D01*
X99085000Y-78466578D01*
X99301578Y-78250000D01*
X118561928Y-78250000D01*
X118561928Y-81450000D01*
X118574188Y-81574482D01*
X118610498Y-81694180D01*
X118669463Y-81804494D01*
X118748815Y-81901185D01*
X118845506Y-81980537D01*
X118955820Y-82039502D01*
X119075518Y-82075812D01*
X119200000Y-82088072D01*
X121000000Y-82088072D01*
X121124482Y-82075812D01*
X121244180Y-82039502D01*
X121354494Y-81980537D01*
X121451185Y-81901185D01*
X121530537Y-81804494D01*
X121589502Y-81694180D01*
X121625812Y-81574482D01*
X121638072Y-81450000D01*
X121638072Y-78250000D01*
X129961928Y-78250000D01*
X129961928Y-81450000D01*
X129974188Y-81574482D01*
X130010498Y-81694180D01*
X130069463Y-81804494D01*
X130148815Y-81901185D01*
X130245506Y-81980537D01*
X130355820Y-82039502D01*
X130475518Y-82075812D01*
X130600000Y-82088072D01*
X132400000Y-82088072D01*
X132524482Y-82075812D01*
X132644180Y-82039502D01*
X132754494Y-81980537D01*
X132851185Y-81901185D01*
X132930537Y-81804494D01*
X132989502Y-81694180D01*
X133025812Y-81574482D01*
X133038072Y-81450000D01*
X133038072Y-78250000D01*
X133025812Y-78125518D01*
X132989502Y-78005820D01*
X132930537Y-77895506D01*
X132851185Y-77798815D01*
X132754494Y-77719463D01*
X132644180Y-77660498D01*
X132524482Y-77624188D01*
X132400000Y-77611928D01*
X130600000Y-77611928D01*
X130475518Y-77624188D01*
X130355820Y-77660498D01*
X130245506Y-77719463D01*
X130148815Y-77798815D01*
X130069463Y-77895506D01*
X130010498Y-78005820D01*
X129974188Y-78125518D01*
X129961928Y-78250000D01*
X121638072Y-78250000D01*
X121625812Y-78125518D01*
X121589502Y-78005820D01*
X121530537Y-77895506D01*
X121451185Y-77798815D01*
X121354494Y-77719463D01*
X121244180Y-77660498D01*
X121124482Y-77624188D01*
X121000000Y-77611928D01*
X119200000Y-77611928D01*
X119075518Y-77624188D01*
X118955820Y-77660498D01*
X118845506Y-77719463D01*
X118748815Y-77798815D01*
X118669463Y-77895506D01*
X118610498Y-78005820D01*
X118574188Y-78125518D01*
X118561928Y-78250000D01*
X99301578Y-78250000D01*
X100766580Y-76784999D01*
X141318485Y-76784999D01*
X141382795Y-76940256D01*
X141496063Y-77109774D01*
X141640226Y-77253937D01*
X141809744Y-77367205D01*
X141998102Y-77445226D01*
X142198061Y-77485000D01*
X142401939Y-77485000D01*
X142601898Y-77445226D01*
X142790256Y-77367205D01*
X142959774Y-77253937D01*
X143103937Y-77109774D01*
X143217205Y-76940256D01*
X143295226Y-76751898D01*
X143335000Y-76551939D01*
X143335000Y-76348061D01*
X143295226Y-76148102D01*
X143217205Y-75959744D01*
X143152568Y-75863008D01*
X154306957Y-75863008D01*
X154222911Y-75897821D01*
M02*
